%TF.GenerationSoftware,KiCad,Pcbnew,8.0.4*%
%TF.CreationDate,2024-10-11T12:17:29-04:00*%
%TF.ProjectId,SmallBooster,536d616c-6c42-46f6-9f73-7465722e6b69,rev?*%
%TF.SameCoordinates,Original*%
%TF.FileFunction,Copper,L3,Inr*%
%TF.FilePolarity,Positive*%
%FSLAX46Y46*%
G04 Gerber Fmt 4.6, Leading zero omitted, Abs format (unit mm)*
G04 Created by KiCad (PCBNEW 8.0.4) date 2024-10-11 12:17:29*
%MOMM*%
%LPD*%
G01*
G04 APERTURE LIST*
%TA.AperFunction,ComponentPad*%
%ADD10C,1.600000*%
%TD*%
%TA.AperFunction,ComponentPad*%
%ADD11O,1.600000X1.600000*%
%TD*%
%TA.AperFunction,ComponentPad*%
%ADD12C,1.000000*%
%TD*%
%TA.AperFunction,ComponentPad*%
%ADD13C,1.574800*%
%TD*%
%TA.AperFunction,ComponentPad*%
%ADD14C,3.500000*%
%TD*%
%TA.AperFunction,ComponentPad*%
%ADD15R,3.000000X3.000000*%
%TD*%
%TA.AperFunction,ComponentPad*%
%ADD16C,3.000000*%
%TD*%
%TA.AperFunction,ComponentPad*%
%ADD17C,1.280000*%
%TD*%
%TA.AperFunction,ComponentPad*%
%ADD18R,1.500000X1.500000*%
%TD*%
%TA.AperFunction,ComponentPad*%
%ADD19C,1.500000*%
%TD*%
%TA.AperFunction,ComponentPad*%
%ADD20R,1.422400X1.422400*%
%TD*%
%TA.AperFunction,ComponentPad*%
%ADD21C,1.422400*%
%TD*%
%TA.AperFunction,ComponentPad*%
%ADD22R,1.905000X1.905000*%
%TD*%
%TA.AperFunction,ComponentPad*%
%ADD23C,1.905000*%
%TD*%
%TA.AperFunction,ComponentPad*%
%ADD24C,1.270000*%
%TD*%
%TA.AperFunction,ComponentPad*%
%ADD25C,4.000000*%
%TD*%
%TA.AperFunction,ComponentPad*%
%ADD26C,2.500000*%
%TD*%
%TA.AperFunction,ComponentPad*%
%ADD27C,2.000000*%
%TD*%
%TA.AperFunction,ComponentPad*%
%ADD28R,1.635000X1.635000*%
%TD*%
%TA.AperFunction,ComponentPad*%
%ADD29C,1.635000*%
%TD*%
%TA.AperFunction,ComponentPad*%
%ADD30C,2.970000*%
%TD*%
%TA.AperFunction,ComponentPad*%
%ADD31C,3.076000*%
%TD*%
%TA.AperFunction,ViaPad*%
%ADD32C,0.600000*%
%TD*%
G04 APERTURE END LIST*
D10*
%TO.N,PGND*%
%TO.C,R48*%
X105000000Y-139935000D03*
D11*
%TO.N,Net-(NE1-Pad1)*%
X105000000Y-145015000D03*
%TD*%
D12*
%TO.N,Net-(NE1-Pad1)*%
%TO.C,NE1*%
X105000000Y-164750000D03*
%TO.N,BUCK+*%
X105000000Y-167750000D03*
%TD*%
D13*
%TO.N,PGND*%
%TO.C,J18*%
X140500000Y-35710000D03*
%TO.N,+12V*%
X140500000Y-38250000D03*
%TO.N,unconnected-(J18-Pin_3-Pad3)*%
X140500000Y-40790000D03*
%TO.N,unconnected-(J18-Pin_4-Pad4)*%
X140500000Y-43330000D03*
%TD*%
D14*
%TO.N,Net-(D3-A)*%
%TO.C,L1*%
X105070000Y-111368000D03*
%TO.N,Net-(U1-D-Anode(2))*%
X105070000Y-132368000D03*
%TD*%
D15*
%TO.N,BUCK+*%
%TO.C,C5*%
X86570000Y-158868000D03*
D16*
%TO.N,PGND*%
X86570000Y-148868000D03*
%TD*%
D17*
%TO.N,G_AC2*%
%TO.C,C10*%
X60500000Y-145250000D03*
%TO.N,Earth*%
X65500000Y-145250000D03*
%TD*%
%TO.N,Earth*%
%TO.C,C9*%
X65250000Y-58250000D03*
%TO.N,IN_AC2*%
X65250000Y-53250000D03*
%TD*%
D18*
%TO.N,IN_AC2*%
%TO.C,C7*%
X76750000Y-56875000D03*
D19*
%TO.N,IN_AC1*%
X76750000Y-34375000D03*
%TD*%
D20*
%TO.N,IN_AC2*%
%TO.C,TH1*%
X70250000Y-122000000D03*
D21*
%TO.N,Net-(FL1-Pad3)*%
X70250000Y-117000000D03*
%TD*%
D14*
%TO.N,PGND*%
%TO.C,J3*%
X97500000Y-137000000D03*
%TD*%
D22*
%TO.N,IN_AC2*%
%TO.C,J9*%
X49500000Y-53000000D03*
D23*
X49500000Y-47920000D03*
%TD*%
D24*
%TO.N,+18*%
%TO.C,C17*%
X73750000Y-170250000D03*
%TO.N,PGND*%
X70752800Y-170250000D03*
%TD*%
D18*
%TO.N,IN_AC2*%
%TO.C,RV1*%
X64350000Y-47000000D03*
D19*
%TO.N,IN_AC1*%
X66150000Y-39500000D03*
%TD*%
D22*
%TO.N,IN_AC1*%
%TO.C,J10*%
X58000000Y-43000000D03*
D23*
X58000000Y-37920000D03*
%TD*%
D22*
%TO.N,Earth*%
%TO.C,J12*%
X49500000Y-33000000D03*
D23*
X49500000Y-27920000D03*
%TD*%
D24*
%TO.N,+18*%
%TO.C,C21*%
X138386400Y-49250000D03*
%TO.N,PGND*%
X141383600Y-49250000D03*
%TD*%
D14*
%TO.N,Net-(J5-Pin_1)*%
%TO.C,J5*%
X112500000Y-137000000D03*
%TD*%
D17*
%TO.N,Earth*%
%TO.C,C11*%
X65500000Y-149750000D03*
%TO.N,G_AC1*%
X60500000Y-149750000D03*
%TD*%
D22*
%TO.N,Earth*%
%TO.C,J13*%
X58000000Y-33000000D03*
D23*
X58000000Y-27920000D03*
%TD*%
D22*
%TO.N,PGND*%
%TO.C,J16*%
X141750000Y-108250000D03*
D23*
X141750000Y-113330000D03*
%TD*%
D22*
%TO.N,IN_AC2*%
%TO.C,J8*%
X58000000Y-53000000D03*
D23*
X58000000Y-47920000D03*
%TD*%
D22*
%TO.N,OUT_P*%
%TO.C,J15*%
X141750000Y-136750000D03*
D23*
X141750000Y-141830000D03*
%TD*%
D14*
%TO.N,BUCK+*%
%TO.C,J2*%
X97500000Y-170500000D03*
%TD*%
D22*
%TO.N,OUT_P*%
%TO.C,J14*%
X141750000Y-125000000D03*
D23*
X141750000Y-130080000D03*
%TD*%
D18*
%TO.N,G_AC1*%
%TO.C,C6*%
X52000000Y-145125000D03*
D19*
%TO.N,G_AC2*%
X52000000Y-167625000D03*
%TD*%
D15*
%TO.N,OUT_P*%
%TO.C,C4*%
X123570000Y-158868000D03*
D16*
%TO.N,Net-(J5-Pin_1)*%
X123570000Y-148868000D03*
%TD*%
D14*
%TO.N,IN_AC1*%
%TO.C,FL1*%
X49400000Y-106750000D03*
%TO.N,G_AC1*%
X62000000Y-106750000D03*
%TO.N,Net-(FL1-Pad3)*%
X49400000Y-116750000D03*
%TO.N,G_AC2*%
X62000000Y-116750000D03*
%TD*%
%TO.N,OUT_P*%
%TO.C,J4*%
X112500000Y-170500000D03*
%TD*%
D18*
%TO.N,Net-(U1-GBJ-N)*%
%TO.C,C1*%
X48125000Y-134250000D03*
D19*
%TO.N,Net-(D3-A)*%
X70625000Y-134250000D03*
%TD*%
D25*
%TO.N,PGND*%
%TO.C,U1*%
X87870000Y-51932000D03*
X87870000Y-105868000D03*
X122570000Y-51932000D03*
X122570000Y-105868000D03*
D26*
%TO.N,Net-(D3-A)*%
X82370000Y-66400000D03*
%TO.N,G_AC1*%
X82370000Y-76400000D03*
%TO.N,G_AC2*%
X82370000Y-83900000D03*
%TO.N,Net-(U1-GBJ-N)*%
X82370000Y-91400000D03*
%TO.N,OUT_P*%
X126630000Y-94006667D03*
%TO.N,Net-(U1-D-Anode(2))*%
X126630000Y-83126667D03*
X126630000Y-74438333D03*
%TO.N,PGND*%
X126630000Y-69358333D03*
D27*
X126630000Y-66568333D03*
%TO.N,GATE2*%
X126630000Y-64028333D03*
%TD*%
D22*
%TO.N,IN_AC1*%
%TO.C,J11*%
X49500000Y-43000000D03*
D23*
X49500000Y-37920000D03*
%TD*%
D22*
%TO.N,PGND*%
%TO.C,J17*%
X141750000Y-98170000D03*
D23*
X141750000Y-103250000D03*
%TD*%
D17*
%TO.N,IN_AC1*%
%TO.C,C8*%
X65250000Y-32750000D03*
%TO.N,Earth*%
X65250000Y-27750000D03*
%TD*%
D28*
%TO.N,+12V*%
%TO.C,K1*%
X53560000Y-86950000D03*
D29*
%TO.N,Net-(D4-A)*%
X63720000Y-86950000D03*
D30*
%TO.N,IN_AC2*%
X49750000Y-74250000D03*
D31*
%TO.N,Net-(FL1-Pad3)*%
X67530000Y-71710000D03*
%TD*%
D19*
%TO.N,Net-(D5-K)*%
%TO.C,L2*%
X66500000Y-160750000D03*
%TO.N,+18*%
X61500000Y-160750000D03*
%TD*%
D32*
%TO.N,PGND*%
X52250000Y-90000000D03*
X134250000Y-66750000D03*
%TO.N,GATE1*%
X135000000Y-78250000D03*
%TO.N,+18*%
X107500000Y-97000000D03*
%TO.N,BOP*%
X78250000Y-99250000D03*
%TO.N,PGND*%
X74000000Y-98000000D03*
%TO.N,VB_OK*%
X78250000Y-101000000D03*
%TO.N,GATE1*%
X106750000Y-89750000D03*
%TO.N,VB_OK*%
X109250000Y-88250000D03*
%TO.N,BOP*%
X107750000Y-89750000D03*
%TO.N,PGND*%
X105750000Y-93250000D03*
X104500000Y-80250000D03*
X105500000Y-80250000D03*
X106500000Y-80250000D03*
X107500000Y-80250000D03*
X106500000Y-79250000D03*
X104500000Y-78250000D03*
X105500000Y-78250000D03*
X106500000Y-78250000D03*
X104500000Y-79250000D03*
X105500000Y-79250000D03*
X107500000Y-78250000D03*
X107500000Y-79250000D03*
X106500000Y-77250000D03*
X104500000Y-76250000D03*
X105500000Y-76250000D03*
X106500000Y-76250000D03*
X104500000Y-77250000D03*
X105500000Y-77250000D03*
X107500000Y-76250000D03*
X107500000Y-77250000D03*
X106500000Y-75250000D03*
X104500000Y-74250000D03*
X105500000Y-74250000D03*
X106500000Y-74250000D03*
X104500000Y-75250000D03*
X105500000Y-75250000D03*
X107500000Y-74250000D03*
X107500000Y-75250000D03*
X106500000Y-73250000D03*
X104500000Y-72250000D03*
X105500000Y-72250000D03*
X106500000Y-72250000D03*
X104500000Y-73250000D03*
X105500000Y-73250000D03*
X107500000Y-72250000D03*
X107500000Y-73250000D03*
X106500000Y-71250000D03*
X104500000Y-70250000D03*
X105500000Y-70250000D03*
X106500000Y-70250000D03*
X104500000Y-71250000D03*
X105500000Y-71250000D03*
X107500000Y-70250000D03*
X107500000Y-71250000D03*
X106500000Y-69250000D03*
X104500000Y-68250000D03*
X105500000Y-68250000D03*
X106500000Y-68250000D03*
X104500000Y-69250000D03*
X105500000Y-69250000D03*
X107500000Y-68250000D03*
X107500000Y-69250000D03*
X106500000Y-67250000D03*
X104500000Y-66250000D03*
X105500000Y-66250000D03*
X106500000Y-66250000D03*
X104500000Y-67250000D03*
X105500000Y-67250000D03*
X107500000Y-66250000D03*
X107500000Y-67250000D03*
X107500000Y-65250000D03*
X106500000Y-65250000D03*
X105500000Y-65250000D03*
X104500000Y-65250000D03*
X107500000Y-64250000D03*
X106500000Y-64250000D03*
X105500000Y-64250000D03*
X104500000Y-64250000D03*
X76250000Y-164500000D03*
X56500000Y-162750000D03*
X64750000Y-84000000D03*
%TO.N,+18*%
X131000000Y-67500000D03*
X131750000Y-65500000D03*
%TD*%
%TA.AperFunction,Conductor*%
%TO.N,PGND*%
G36*
X143506922Y-24251280D02*
G01*
X143597266Y-24261459D01*
X143624331Y-24267636D01*
X143703540Y-24295352D01*
X143728553Y-24307398D01*
X143799606Y-24352043D01*
X143821313Y-24369355D01*
X143880644Y-24428686D01*
X143897957Y-24450395D01*
X143942600Y-24521444D01*
X143954648Y-24546462D01*
X143982362Y-24625666D01*
X143988540Y-24652735D01*
X143998720Y-24743076D01*
X143999500Y-24756961D01*
X143999500Y-40413258D01*
X143979815Y-40480297D01*
X143927011Y-40526052D01*
X143857853Y-40535996D01*
X143794297Y-40506971D01*
X143756523Y-40448193D01*
X143756234Y-40447193D01*
X143735251Y-40373445D01*
X143735249Y-40373440D01*
X143735249Y-40373439D01*
X143640403Y-40182962D01*
X143594051Y-40121583D01*
X143512165Y-40013149D01*
X143354909Y-39869791D01*
X143286011Y-39827131D01*
X143173990Y-39757770D01*
X143122916Y-39737984D01*
X143067515Y-39695411D01*
X143054636Y-39673250D01*
X143008567Y-39570891D01*
X142999003Y-39501679D01*
X143008564Y-39469114D01*
X143111497Y-39240410D01*
X143211837Y-38918408D01*
X143272632Y-38586658D01*
X143292996Y-38250000D01*
X143272632Y-37913342D01*
X143211837Y-37581592D01*
X143166923Y-37437458D01*
X143111503Y-37259607D01*
X143111499Y-37259599D01*
X143111497Y-37259590D01*
X142973075Y-36952030D01*
X142798591Y-36663397D01*
X142782418Y-36642754D01*
X142590585Y-36397897D01*
X142352102Y-36159414D01*
X142086609Y-35951413D01*
X142086601Y-35951407D01*
X141852074Y-35809632D01*
X141804887Y-35758104D01*
X141792696Y-35714322D01*
X141772685Y-35485596D01*
X141772683Y-35485585D01*
X141714384Y-35268008D01*
X141714380Y-35267999D01*
X141693622Y-35223483D01*
X141381929Y-35535176D01*
X141320606Y-35568661D01*
X141257358Y-35565881D01*
X141168408Y-35538163D01*
X141152108Y-35535176D01*
X140997795Y-35506897D01*
X140997050Y-35504115D01*
X140926826Y-35382485D01*
X140827515Y-35283174D01*
X140705885Y-35212950D01*
X140570223Y-35176600D01*
X140429777Y-35176600D01*
X140294115Y-35212950D01*
X140172485Y-35283174D01*
X140073174Y-35382485D01*
X140002950Y-35504115D01*
X140002204Y-35506896D01*
X139831597Y-35538161D01*
X139742640Y-35565881D01*
X139672780Y-35567031D01*
X139618070Y-35535176D01*
X139306376Y-35223482D01*
X139306375Y-35223483D01*
X139285618Y-35267998D01*
X139285618Y-35268000D01*
X139227316Y-35485585D01*
X139227314Y-35485595D01*
X139207303Y-35714323D01*
X139181850Y-35779391D01*
X139147925Y-35809632D01*
X138913398Y-35951407D01*
X138913390Y-35951413D01*
X138647897Y-36159414D01*
X138409414Y-36397897D01*
X138201413Y-36663390D01*
X138201403Y-36663405D01*
X138026928Y-36952024D01*
X138026922Y-36952034D01*
X137888502Y-37259592D01*
X137888496Y-37259607D01*
X137788165Y-37581583D01*
X137727367Y-37913347D01*
X137707004Y-38250000D01*
X137727367Y-38586652D01*
X137727367Y-38586657D01*
X137727368Y-38586658D01*
X137788163Y-38918408D01*
X137788164Y-38918412D01*
X137788165Y-38918416D01*
X137888496Y-39240391D01*
X137888500Y-39240402D01*
X137888501Y-39240405D01*
X137888503Y-39240410D01*
X137991431Y-39469107D01*
X137991432Y-39469109D01*
X138000995Y-39538321D01*
X137991432Y-39570891D01*
X137888500Y-39799597D01*
X137888496Y-39799608D01*
X137788165Y-40121583D01*
X137788163Y-40121589D01*
X137788163Y-40121592D01*
X137776917Y-40182961D01*
X137727367Y-40453347D01*
X137707004Y-40790000D01*
X137727367Y-41126652D01*
X137727367Y-41126657D01*
X137727368Y-41126658D01*
X137788163Y-41458408D01*
X137788164Y-41458412D01*
X137788165Y-41458416D01*
X137888496Y-41780391D01*
X137888500Y-41780402D01*
X137888501Y-41780405D01*
X137888503Y-41780410D01*
X137921486Y-41853695D01*
X137991432Y-42009109D01*
X138000995Y-42078321D01*
X137991432Y-42110890D01*
X137991432Y-42110892D01*
X137888500Y-42339597D01*
X137888496Y-42339608D01*
X137788165Y-42661583D01*
X137727367Y-42993347D01*
X137707004Y-43330000D01*
X137727367Y-43666652D01*
X137727367Y-43666657D01*
X137727368Y-43666658D01*
X137788163Y-43998408D01*
X137788164Y-43998412D01*
X137788165Y-43998416D01*
X137888496Y-44320392D01*
X137888502Y-44320407D01*
X137888503Y-44320410D01*
X137890853Y-44325631D01*
X138026922Y-44627965D01*
X138026928Y-44627975D01*
X138201403Y-44916594D01*
X138201413Y-44916609D01*
X138409414Y-45182102D01*
X138647897Y-45420585D01*
X138913390Y-45628586D01*
X138913405Y-45628596D01*
X138974158Y-45665322D01*
X139202030Y-45803075D01*
X139509590Y-45941497D01*
X139509599Y-45941499D01*
X139509607Y-45941503D01*
X139757115Y-46018629D01*
X139831592Y-46041837D01*
X140163342Y-46102632D01*
X140500000Y-46122996D01*
X140836658Y-46102632D01*
X141168408Y-46041837D01*
X141416360Y-45964572D01*
X141490392Y-45941503D01*
X141490396Y-45941501D01*
X141490410Y-45941497D01*
X141797970Y-45803075D01*
X142086603Y-45628591D01*
X142352099Y-45420588D01*
X142590588Y-45182099D01*
X142798591Y-44916603D01*
X142973075Y-44627970D01*
X143111497Y-44320410D01*
X143133594Y-44249500D01*
X143155181Y-44180221D01*
X143211837Y-43998408D01*
X143272632Y-43666658D01*
X143292996Y-43330000D01*
X143272632Y-42993342D01*
X143211837Y-42661592D01*
X143111503Y-42339608D01*
X143111503Y-42339607D01*
X143111499Y-42339597D01*
X143111497Y-42339590D01*
X143008566Y-42110889D01*
X142999003Y-42041680D01*
X143008563Y-42009116D01*
X143054636Y-41906747D01*
X143100099Y-41853695D01*
X143122908Y-41842018D01*
X143173989Y-41822230D01*
X143354909Y-41710209D01*
X143512165Y-41566851D01*
X143640402Y-41397039D01*
X143675152Y-41327252D01*
X143735249Y-41206560D01*
X143735249Y-41206558D01*
X143735251Y-41206555D01*
X143756234Y-41132806D01*
X143793513Y-41073713D01*
X143856823Y-41044156D01*
X143926062Y-41053518D01*
X143979249Y-41098828D01*
X143999496Y-41165699D01*
X143999500Y-41166741D01*
X143999500Y-118893298D01*
X143979815Y-118960337D01*
X143927011Y-119006092D01*
X143878943Y-119017250D01*
X135500000Y-119250000D01*
X126004304Y-132993770D01*
X125994964Y-133005665D01*
X117309710Y-142776576D01*
X108759711Y-152395326D01*
X108036995Y-153208381D01*
X107977744Y-153245409D01*
X107944316Y-153250000D01*
X77250000Y-153250000D01*
X77492365Y-173123988D01*
X77473499Y-173191262D01*
X77421257Y-173237658D01*
X77368374Y-173249500D01*
X45506962Y-173249500D01*
X45493078Y-173248720D01*
X45480553Y-173247308D01*
X45402735Y-173238540D01*
X45375666Y-173232362D01*
X45296462Y-173204648D01*
X45271444Y-173192600D01*
X45200395Y-173147957D01*
X45178686Y-173130644D01*
X45119355Y-173071313D01*
X45102042Y-173049604D01*
X45057399Y-172978555D01*
X45045351Y-172953537D01*
X45017637Y-172874333D01*
X45011459Y-172847263D01*
X45007665Y-172813594D01*
X45001280Y-172756922D01*
X45000500Y-172743038D01*
X45000500Y-167625000D01*
X49244473Y-167625000D01*
X49264563Y-167957136D01*
X49264563Y-167957141D01*
X49264564Y-167957142D01*
X49324544Y-168284441D01*
X49324545Y-168284445D01*
X49324546Y-168284449D01*
X49423530Y-168602104D01*
X49423534Y-168602116D01*
X49423537Y-168602123D01*
X49560102Y-168905557D01*
X49686715Y-169115000D01*
X49732251Y-169190326D01*
X49937460Y-169452255D01*
X50172744Y-169687539D01*
X50434673Y-169892748D01*
X50434678Y-169892751D01*
X50434682Y-169892754D01*
X50719443Y-170064898D01*
X51022877Y-170201463D01*
X51022890Y-170201467D01*
X51022895Y-170201469D01*
X51178639Y-170250000D01*
X51340559Y-170300456D01*
X51667858Y-170360436D01*
X52000000Y-170380527D01*
X52332142Y-170360436D01*
X52659441Y-170300456D01*
X52977123Y-170201463D01*
X53280557Y-170064898D01*
X53565318Y-169892754D01*
X53579280Y-169881816D01*
X53641740Y-169832881D01*
X53827252Y-169687542D01*
X53886083Y-169628711D01*
X62149500Y-169628711D01*
X62149500Y-169871288D01*
X62181161Y-170111785D01*
X62243947Y-170346104D01*
X62335963Y-170568249D01*
X62336776Y-170570212D01*
X62458064Y-170780289D01*
X62458066Y-170780292D01*
X62458067Y-170780293D01*
X62605733Y-170972736D01*
X62605739Y-170972743D01*
X62777256Y-171144260D01*
X62777262Y-171144265D01*
X62969711Y-171291936D01*
X63179788Y-171413224D01*
X63403900Y-171506054D01*
X63638211Y-171568838D01*
X63818586Y-171592584D01*
X63878711Y-171600500D01*
X63878712Y-171600500D01*
X64121289Y-171600500D01*
X64169388Y-171594167D01*
X64361789Y-171568838D01*
X64596100Y-171506054D01*
X64820212Y-171413224D01*
X65030289Y-171291936D01*
X65222738Y-171144265D01*
X65394265Y-170972738D01*
X65541936Y-170780289D01*
X65663224Y-170570212D01*
X65756054Y-170346100D01*
X65781804Y-170249999D01*
X69612938Y-170249999D01*
X69612938Y-170250000D01*
X69632345Y-170459446D01*
X69677508Y-170618182D01*
X70045693Y-170250000D01*
X69995533Y-170199840D01*
X70371800Y-170199840D01*
X70371800Y-170300160D01*
X70397764Y-170397061D01*
X70447924Y-170483940D01*
X70518860Y-170554876D01*
X70605739Y-170605036D01*
X70702640Y-170631000D01*
X70802960Y-170631000D01*
X70899861Y-170605036D01*
X70986740Y-170554876D01*
X71057676Y-170483940D01*
X71107836Y-170397061D01*
X71116599Y-170364353D01*
X71126289Y-170524541D01*
X71110688Y-170592647D01*
X71090196Y-170619709D01*
X70385142Y-171324762D01*
X70440862Y-171346348D01*
X70647629Y-171385000D01*
X70857971Y-171385000D01*
X71064735Y-171346348D01*
X71064745Y-171346345D01*
X71200841Y-171293622D01*
X71270464Y-171287759D01*
X71332204Y-171320469D01*
X71358711Y-171358357D01*
X71412112Y-171477011D01*
X71412113Y-171477012D01*
X71412115Y-171477016D01*
X71486764Y-171600500D01*
X71577067Y-171749879D01*
X71773696Y-172000857D01*
X71999142Y-172226303D01*
X72250120Y-172422932D01*
X72250125Y-172422935D01*
X72250129Y-172422938D01*
X72522984Y-172587885D01*
X72813731Y-172718739D01*
X72813741Y-172718742D01*
X72813749Y-172718745D01*
X72936264Y-172756922D01*
X73118131Y-172813594D01*
X73431745Y-172871066D01*
X73750000Y-172890317D01*
X74068255Y-172871066D01*
X74381869Y-172813594D01*
X74686269Y-172718739D01*
X74977016Y-172587885D01*
X75249871Y-172422938D01*
X75500854Y-172226306D01*
X75726306Y-172000854D01*
X75922938Y-171749871D01*
X76087885Y-171477016D01*
X76218739Y-171186269D01*
X76313594Y-170881869D01*
X76371066Y-170568255D01*
X76390317Y-170250000D01*
X76371066Y-169931745D01*
X76313594Y-169618131D01*
X76218739Y-169313731D01*
X76087885Y-169022984D01*
X75922938Y-168750129D01*
X75922935Y-168750125D01*
X75922932Y-168750120D01*
X75726303Y-168499142D01*
X75500857Y-168273696D01*
X75249879Y-168077067D01*
X75112382Y-167993947D01*
X74977016Y-167912115D01*
X74686269Y-167781261D01*
X74686264Y-167781259D01*
X74686261Y-167781258D01*
X74686250Y-167781254D01*
X74381877Y-167686408D01*
X74381873Y-167686407D01*
X74381869Y-167686406D01*
X74068255Y-167628934D01*
X74068254Y-167628933D01*
X74068249Y-167628933D01*
X73750000Y-167609683D01*
X73431750Y-167628933D01*
X73431745Y-167628934D01*
X73118131Y-167686406D01*
X73118128Y-167686406D01*
X73118122Y-167686408D01*
X72813749Y-167781254D01*
X72813738Y-167781258D01*
X72551014Y-167899500D01*
X72522984Y-167912115D01*
X72448510Y-167957136D01*
X72250120Y-168077067D01*
X71999142Y-168273696D01*
X71773696Y-168499142D01*
X71577067Y-168750120D01*
X71412114Y-169022986D01*
X71412109Y-169022996D01*
X71358710Y-169141643D01*
X71313246Y-169194697D01*
X71246316Y-169214749D01*
X71200841Y-169206378D01*
X71064736Y-169153651D01*
X70857971Y-169115000D01*
X70647629Y-169115000D01*
X70440860Y-169153651D01*
X70440857Y-169153652D01*
X70385143Y-169175235D01*
X70385143Y-169175236D01*
X71090196Y-169880289D01*
X71123681Y-169941612D01*
X71126289Y-169975456D01*
X71116599Y-170135646D01*
X71107836Y-170102939D01*
X71057676Y-170016060D01*
X70986740Y-169945124D01*
X70899861Y-169894964D01*
X70802960Y-169869000D01*
X70702640Y-169869000D01*
X70605739Y-169894964D01*
X70518860Y-169945124D01*
X70447924Y-170016060D01*
X70397764Y-170102939D01*
X70371800Y-170199840D01*
X69995533Y-170199840D01*
X69677509Y-169881816D01*
X69632345Y-170040553D01*
X69612938Y-170249999D01*
X65781804Y-170249999D01*
X65818838Y-170111789D01*
X65850500Y-169871288D01*
X65850500Y-169628712D01*
X65818838Y-169388211D01*
X65756054Y-169153900D01*
X65663224Y-168929788D01*
X65541936Y-168719711D01*
X65394265Y-168527262D01*
X65394260Y-168527256D01*
X65222743Y-168355739D01*
X65222736Y-168355733D01*
X65030293Y-168208067D01*
X65030292Y-168208066D01*
X65030289Y-168208064D01*
X64820212Y-168086776D01*
X64820205Y-168086773D01*
X64596104Y-167993947D01*
X64361785Y-167931161D01*
X64121289Y-167899500D01*
X64121288Y-167899500D01*
X63878712Y-167899500D01*
X63878711Y-167899500D01*
X63638214Y-167931161D01*
X63403895Y-167993947D01*
X63179794Y-168086773D01*
X63179785Y-168086777D01*
X62969706Y-168208067D01*
X62777263Y-168355733D01*
X62777256Y-168355739D01*
X62605739Y-168527256D01*
X62605733Y-168527263D01*
X62458067Y-168719706D01*
X62336777Y-168929785D01*
X62336773Y-168929794D01*
X62243947Y-169153895D01*
X62181161Y-169388214D01*
X62149500Y-169628711D01*
X53886083Y-169628711D01*
X54062542Y-169452252D01*
X54255172Y-169206378D01*
X54267748Y-169190326D01*
X54267748Y-169190324D01*
X54267754Y-169190318D01*
X54439898Y-168905557D01*
X54576463Y-168602123D01*
X54675456Y-168284441D01*
X54735436Y-167957142D01*
X54755527Y-167625000D01*
X54735436Y-167292858D01*
X54675456Y-166965559D01*
X54576463Y-166647877D01*
X54439898Y-166344443D01*
X54267754Y-166059682D01*
X54267751Y-166059678D01*
X54267748Y-166059673D01*
X54062539Y-165797744D01*
X53827255Y-165562460D01*
X53565326Y-165357251D01*
X53565318Y-165357246D01*
X53280557Y-165185102D01*
X52977123Y-165048537D01*
X52977116Y-165048534D01*
X52977104Y-165048530D01*
X52659449Y-164949546D01*
X52659445Y-164949545D01*
X52659441Y-164949544D01*
X52332142Y-164889564D01*
X52332141Y-164889563D01*
X52332136Y-164889563D01*
X52000000Y-164869473D01*
X51667863Y-164889563D01*
X51667858Y-164889564D01*
X51340559Y-164949544D01*
X51340556Y-164949544D01*
X51340550Y-164949546D01*
X51022895Y-165048530D01*
X51022879Y-165048536D01*
X51022877Y-165048537D01*
X50829656Y-165135498D01*
X50719447Y-165185100D01*
X50719445Y-165185101D01*
X50434673Y-165357251D01*
X50172744Y-165562460D01*
X49937460Y-165797744D01*
X49732251Y-166059673D01*
X49560101Y-166344445D01*
X49560100Y-166344447D01*
X49423536Y-166647880D01*
X49423530Y-166647895D01*
X49324546Y-166965550D01*
X49264563Y-167292863D01*
X49244473Y-167625000D01*
X45000500Y-167625000D01*
X45000500Y-160750000D01*
X58744473Y-160750000D01*
X58764563Y-161082136D01*
X58764563Y-161082141D01*
X58764564Y-161082142D01*
X58824544Y-161409441D01*
X58824545Y-161409445D01*
X58824546Y-161409449D01*
X58923530Y-161727104D01*
X58923534Y-161727116D01*
X58923537Y-161727123D01*
X59060102Y-162030557D01*
X59106116Y-162106673D01*
X59232251Y-162315326D01*
X59437460Y-162577255D01*
X59672744Y-162812539D01*
X59934673Y-163017748D01*
X59934678Y-163017751D01*
X59934682Y-163017754D01*
X60219443Y-163189898D01*
X60522877Y-163326463D01*
X60522890Y-163326467D01*
X60522895Y-163326469D01*
X60734665Y-163392458D01*
X60840559Y-163425456D01*
X61167858Y-163485436D01*
X61500000Y-163505527D01*
X61832142Y-163485436D01*
X62159441Y-163425456D01*
X62477123Y-163326463D01*
X62780557Y-163189898D01*
X63065318Y-163017754D01*
X63327252Y-162812542D01*
X63562542Y-162577252D01*
X63767754Y-162315318D01*
X63893885Y-162106670D01*
X63945411Y-162059486D01*
X64014270Y-162047647D01*
X64078599Y-162074916D01*
X64106112Y-162106668D01*
X64232246Y-162315318D01*
X64232251Y-162315324D01*
X64232252Y-162315326D01*
X64437460Y-162577255D01*
X64672744Y-162812539D01*
X64934673Y-163017748D01*
X64934678Y-163017751D01*
X64934682Y-163017754D01*
X65219443Y-163189898D01*
X65522877Y-163326463D01*
X65522890Y-163326467D01*
X65522895Y-163326469D01*
X65734665Y-163392458D01*
X65840559Y-163425456D01*
X66167858Y-163485436D01*
X66500000Y-163505527D01*
X66832142Y-163485436D01*
X67159441Y-163425456D01*
X67477123Y-163326463D01*
X67780557Y-163189898D01*
X68065318Y-163017754D01*
X68327252Y-162812542D01*
X68562542Y-162577252D01*
X68767754Y-162315318D01*
X68939898Y-162030557D01*
X69076463Y-161727123D01*
X69175456Y-161409441D01*
X69235436Y-161082142D01*
X69255527Y-160750000D01*
X69235436Y-160417858D01*
X69175456Y-160090559D01*
X69076463Y-159772877D01*
X68939898Y-159469443D01*
X68767754Y-159184682D01*
X68767751Y-159184678D01*
X68767748Y-159184673D01*
X68562539Y-158922744D01*
X68327255Y-158687460D01*
X68065326Y-158482251D01*
X68065318Y-158482246D01*
X67780557Y-158310102D01*
X67477123Y-158173537D01*
X67477116Y-158173534D01*
X67477104Y-158173530D01*
X67159449Y-158074546D01*
X67159445Y-158074545D01*
X67159441Y-158074544D01*
X66832142Y-158014564D01*
X66832141Y-158014563D01*
X66832136Y-158014563D01*
X66500000Y-157994473D01*
X66167863Y-158014563D01*
X66167858Y-158014564D01*
X65840559Y-158074544D01*
X65840556Y-158074544D01*
X65840550Y-158074546D01*
X65522895Y-158173530D01*
X65522879Y-158173536D01*
X65522877Y-158173537D01*
X65329656Y-158260498D01*
X65219447Y-158310100D01*
X65219445Y-158310101D01*
X64934673Y-158482251D01*
X64672744Y-158687460D01*
X64437460Y-158922744D01*
X64232251Y-159184673D01*
X64232246Y-159184682D01*
X64106115Y-159393327D01*
X64054589Y-159440513D01*
X63985730Y-159452352D01*
X63921401Y-159425083D01*
X63893885Y-159393328D01*
X63767754Y-159184682D01*
X63767751Y-159184678D01*
X63767748Y-159184673D01*
X63562539Y-158922744D01*
X63327255Y-158687460D01*
X63065326Y-158482251D01*
X63065318Y-158482246D01*
X62780557Y-158310102D01*
X62477123Y-158173537D01*
X62477116Y-158173534D01*
X62477104Y-158173530D01*
X62159449Y-158074546D01*
X62159445Y-158074545D01*
X62159441Y-158074544D01*
X61832142Y-158014564D01*
X61832141Y-158014563D01*
X61832136Y-158014563D01*
X61500000Y-157994473D01*
X61167863Y-158014563D01*
X61167858Y-158014564D01*
X60840559Y-158074544D01*
X60840556Y-158074544D01*
X60840550Y-158074546D01*
X60522895Y-158173530D01*
X60522879Y-158173536D01*
X60522877Y-158173537D01*
X60329656Y-158260498D01*
X60219447Y-158310100D01*
X60219445Y-158310101D01*
X59934673Y-158482251D01*
X59672744Y-158687460D01*
X59437460Y-158922744D01*
X59232251Y-159184673D01*
X59060101Y-159469445D01*
X59060100Y-159469447D01*
X58923536Y-159772880D01*
X58923530Y-159772895D01*
X58824546Y-160090550D01*
X58764563Y-160417863D01*
X58744473Y-160750000D01*
X45000500Y-160750000D01*
X45000500Y-144303549D01*
X49249500Y-144303549D01*
X49249500Y-145946450D01*
X49264804Y-146160433D01*
X49325628Y-146440037D01*
X49325630Y-146440043D01*
X49325631Y-146440046D01*
X49369069Y-146556508D01*
X49425635Y-146708166D01*
X49562770Y-146959309D01*
X49562775Y-146959317D01*
X49734254Y-147188387D01*
X49734270Y-147188405D01*
X49936594Y-147390729D01*
X49936612Y-147390745D01*
X50165682Y-147562224D01*
X50165690Y-147562229D01*
X50416833Y-147699364D01*
X50416832Y-147699364D01*
X50416836Y-147699365D01*
X50416839Y-147699367D01*
X50684954Y-147799369D01*
X50684960Y-147799370D01*
X50684962Y-147799371D01*
X50964566Y-147860195D01*
X50964568Y-147860195D01*
X50964572Y-147860196D01*
X51178552Y-147875500D01*
X52821448Y-147875500D01*
X53035428Y-147860196D01*
X53240898Y-147815499D01*
X53315037Y-147799371D01*
X53315037Y-147799370D01*
X53315046Y-147799369D01*
X53583161Y-147699367D01*
X53834315Y-147562226D01*
X54063395Y-147390739D01*
X54265739Y-147188395D01*
X54437226Y-146959315D01*
X54574367Y-146708161D01*
X54674369Y-146440046D01*
X54735196Y-146160428D01*
X54750500Y-145946448D01*
X54750500Y-145250000D01*
X57854674Y-145250000D01*
X57873960Y-145568853D01*
X57873960Y-145568858D01*
X57873961Y-145568859D01*
X57931542Y-145883068D01*
X57931543Y-145883072D01*
X57931544Y-145883076D01*
X58026570Y-146188028D01*
X58026576Y-146188043D01*
X58157677Y-146479339D01*
X58157678Y-146479340D01*
X58157680Y-146479344D01*
X58204328Y-146556509D01*
X58322937Y-146752714D01*
X58322943Y-146752723D01*
X58519947Y-147004179D01*
X58745820Y-147230052D01*
X58965791Y-147402389D01*
X59006424Y-147459229D01*
X59009876Y-147529014D01*
X58975052Y-147589586D01*
X58965791Y-147597611D01*
X58745820Y-147769947D01*
X58519947Y-147995820D01*
X58322943Y-148247276D01*
X58322937Y-148247285D01*
X58157679Y-148520658D01*
X58157677Y-148520660D01*
X58026576Y-148811956D01*
X58026570Y-148811971D01*
X57931544Y-149116923D01*
X57931542Y-149116929D01*
X57931542Y-149116932D01*
X57890356Y-149341678D01*
X57873960Y-149431146D01*
X57854674Y-149750000D01*
X57873960Y-150068853D01*
X57873960Y-150068858D01*
X57873961Y-150068859D01*
X57931542Y-150383068D01*
X57931543Y-150383072D01*
X57931544Y-150383076D01*
X58026570Y-150688028D01*
X58026576Y-150688043D01*
X58157677Y-150979339D01*
X58157678Y-150979340D01*
X58157680Y-150979344D01*
X58241471Y-151117953D01*
X58322937Y-151252714D01*
X58322943Y-151252723D01*
X58519947Y-151504179D01*
X58745820Y-151730052D01*
X58997276Y-151927056D01*
X58997285Y-151927062D01*
X59064665Y-151967794D01*
X59270656Y-152092320D01*
X59561954Y-152223423D01*
X59561963Y-152223425D01*
X59561971Y-152223429D01*
X59800543Y-152297770D01*
X59866932Y-152318458D01*
X60181141Y-152376039D01*
X60500000Y-152395326D01*
X60818859Y-152376039D01*
X61133068Y-152318458D01*
X61305268Y-152264798D01*
X61438028Y-152223429D01*
X61438032Y-152223427D01*
X61438046Y-152223423D01*
X61729344Y-152092320D01*
X62002716Y-151927061D01*
X62002718Y-151927058D01*
X62002723Y-151927056D01*
X62110096Y-151842933D01*
X62254176Y-151730055D01*
X62480055Y-151504176D01*
X62677061Y-151252716D01*
X62842320Y-150979344D01*
X62886925Y-150880235D01*
X62932388Y-150827183D01*
X62999319Y-150807130D01*
X63066465Y-150826446D01*
X63112510Y-150878998D01*
X63113036Y-150880151D01*
X63157680Y-150979344D01*
X63241471Y-151117953D01*
X63322937Y-151252714D01*
X63322943Y-151252723D01*
X63519947Y-151504179D01*
X63745820Y-151730052D01*
X63997276Y-151927056D01*
X63997285Y-151927062D01*
X64064665Y-151967794D01*
X64270656Y-152092320D01*
X64561954Y-152223423D01*
X64561963Y-152223425D01*
X64561971Y-152223429D01*
X64800543Y-152297770D01*
X64866932Y-152318458D01*
X65181141Y-152376039D01*
X65500000Y-152395326D01*
X65818859Y-152376039D01*
X66133068Y-152318458D01*
X66305268Y-152264798D01*
X66438028Y-152223429D01*
X66438032Y-152223427D01*
X66438046Y-152223423D01*
X66729344Y-152092320D01*
X67002716Y-151927061D01*
X67002718Y-151927058D01*
X67002723Y-151927056D01*
X67110096Y-151842933D01*
X67254176Y-151730055D01*
X67480055Y-151504176D01*
X67677061Y-151252716D01*
X67842320Y-150979344D01*
X67973423Y-150688046D01*
X68068458Y-150383068D01*
X68126039Y-150068859D01*
X68145326Y-149750000D01*
X68126039Y-149431141D01*
X68068458Y-149116932D01*
X67990888Y-148868000D01*
X67990887Y-148867998D01*
X84564891Y-148867998D01*
X84564891Y-148868001D01*
X84585300Y-149153362D01*
X84646109Y-149432895D01*
X84746091Y-149700958D01*
X84846341Y-149884550D01*
X85602252Y-149128639D01*
X85608429Y-149159689D01*
X85683811Y-149341678D01*
X85793249Y-149505463D01*
X85932537Y-149644751D01*
X86096322Y-149754189D01*
X86278311Y-149829571D01*
X86309359Y-149835746D01*
X85553448Y-150591657D01*
X85553448Y-150591658D01*
X85737042Y-150691908D01*
X85737041Y-150691908D01*
X86005104Y-150791890D01*
X86284637Y-150852699D01*
X86569999Y-150873109D01*
X86570001Y-150873109D01*
X86855362Y-150852699D01*
X87134895Y-150791890D01*
X87402957Y-150691908D01*
X87586550Y-150591658D01*
X87586550Y-150591657D01*
X86830639Y-149835746D01*
X86861689Y-149829571D01*
X87043678Y-149754189D01*
X87207463Y-149644751D01*
X87346751Y-149505463D01*
X87456189Y-149341678D01*
X87531571Y-149159689D01*
X87537746Y-149128639D01*
X88293657Y-149884550D01*
X88293658Y-149884550D01*
X88393908Y-149700957D01*
X88493890Y-149432895D01*
X88554699Y-149153362D01*
X88575109Y-148868001D01*
X88575109Y-148867998D01*
X88554699Y-148582637D01*
X88493890Y-148303104D01*
X88393908Y-148035042D01*
X88293657Y-147851448D01*
X87537746Y-148607358D01*
X87531571Y-148576311D01*
X87456189Y-148394322D01*
X87346751Y-148230537D01*
X87207463Y-148091249D01*
X87043678Y-147981811D01*
X86861689Y-147906429D01*
X86830640Y-147900253D01*
X87586550Y-147144341D01*
X87586550Y-147144340D01*
X87402957Y-147044091D01*
X87402958Y-147044091D01*
X87134895Y-146944109D01*
X86855362Y-146883300D01*
X86570001Y-146862891D01*
X86569999Y-146862891D01*
X86284637Y-146883300D01*
X86005104Y-146944109D01*
X85737041Y-147044091D01*
X85737035Y-147044094D01*
X85553448Y-147144339D01*
X85553448Y-147144341D01*
X86309360Y-147900253D01*
X86278311Y-147906429D01*
X86096322Y-147981811D01*
X85932537Y-148091249D01*
X85793249Y-148230537D01*
X85683811Y-148394322D01*
X85608429Y-148576311D01*
X85602253Y-148607359D01*
X84846341Y-147851448D01*
X84846339Y-147851448D01*
X84746094Y-148035035D01*
X84746091Y-148035041D01*
X84646109Y-148303104D01*
X84585300Y-148582637D01*
X84564891Y-148867998D01*
X67990887Y-148867998D01*
X67973429Y-148811971D01*
X67973425Y-148811963D01*
X67973423Y-148811954D01*
X67842320Y-148520656D01*
X67677061Y-148247284D01*
X67677056Y-148247276D01*
X67480052Y-147995820D01*
X67254179Y-147769947D01*
X67034208Y-147597611D01*
X66993575Y-147540771D01*
X66990123Y-147470987D01*
X67024947Y-147410414D01*
X67034208Y-147402389D01*
X67113364Y-147340373D01*
X67254176Y-147230055D01*
X67480055Y-147004176D01*
X67625781Y-146818170D01*
X67677056Y-146752723D01*
X67677062Y-146752714D01*
X67703995Y-146708161D01*
X67842320Y-146479344D01*
X67973423Y-146188046D01*
X68068458Y-145883068D01*
X68126039Y-145568859D01*
X68145326Y-145250000D01*
X68131111Y-145014996D01*
X102194754Y-145014996D01*
X102194754Y-145015003D01*
X102213722Y-145340669D01*
X102213723Y-145340680D01*
X102270367Y-145661924D01*
X102270369Y-145661932D01*
X102363931Y-145974452D01*
X102493137Y-146273983D01*
X102493143Y-146273996D01*
X102656251Y-146556509D01*
X102851045Y-146818162D01*
X102851050Y-146818168D01*
X102851057Y-146818177D01*
X103074923Y-147055462D01*
X103074929Y-147055467D01*
X103074930Y-147055468D01*
X103074931Y-147055469D01*
X103324815Y-147265147D01*
X103324818Y-147265149D01*
X103324823Y-147265153D01*
X103597377Y-147444414D01*
X103888899Y-147590822D01*
X104195446Y-147702396D01*
X104195452Y-147702397D01*
X104195454Y-147702398D01*
X104512858Y-147777625D01*
X104512865Y-147777626D01*
X104512874Y-147777628D01*
X104836889Y-147815500D01*
X104836896Y-147815500D01*
X105163104Y-147815500D01*
X105163111Y-147815500D01*
X105487126Y-147777628D01*
X105487135Y-147777625D01*
X105487141Y-147777625D01*
X105743176Y-147716942D01*
X105804554Y-147702396D01*
X106111101Y-147590822D01*
X106402623Y-147444414D01*
X106675177Y-147265153D01*
X106925077Y-147055462D01*
X107148943Y-146818177D01*
X107343749Y-146556508D01*
X107506859Y-146273992D01*
X107636069Y-145974451D01*
X107729630Y-145661934D01*
X107786278Y-145340669D01*
X107805246Y-145015000D01*
X107786278Y-144689331D01*
X107773512Y-144616932D01*
X107729632Y-144368075D01*
X107729630Y-144368067D01*
X107710315Y-144303549D01*
X107636069Y-144055549D01*
X107506859Y-143756008D01*
X107343749Y-143473492D01*
X107192215Y-143269947D01*
X107148954Y-143211837D01*
X107148947Y-143211829D01*
X107148943Y-143211823D01*
X106925077Y-142974538D01*
X106925069Y-142974531D01*
X106925068Y-142974530D01*
X106675184Y-142764852D01*
X106675179Y-142764848D01*
X106675177Y-142764847D01*
X106402623Y-142585586D01*
X106333026Y-142550633D01*
X106111108Y-142439181D01*
X106111102Y-142439178D01*
X105804566Y-142327608D01*
X105804545Y-142327601D01*
X105487141Y-142252374D01*
X105487126Y-142252372D01*
X105163111Y-142214500D01*
X104836889Y-142214500D01*
X104553375Y-142247638D01*
X104512873Y-142252372D01*
X104512858Y-142252374D01*
X104195454Y-142327601D01*
X104195433Y-142327608D01*
X103888897Y-142439178D01*
X103888891Y-142439181D01*
X103597380Y-142585584D01*
X103324815Y-142764852D01*
X103074931Y-142974530D01*
X103074930Y-142974531D01*
X103074924Y-142974536D01*
X103074923Y-142974538D01*
X102851057Y-143211823D01*
X102851054Y-143211826D01*
X102851052Y-143211829D01*
X102851045Y-143211837D01*
X102656251Y-143473490D01*
X102493143Y-143756003D01*
X102493137Y-143756016D01*
X102363931Y-144055547D01*
X102270369Y-144368067D01*
X102270367Y-144368075D01*
X102213723Y-144689319D01*
X102213722Y-144689330D01*
X102194754Y-145014996D01*
X68131111Y-145014996D01*
X68126039Y-144931141D01*
X68068458Y-144616932D01*
X68000000Y-144397242D01*
X67973429Y-144311971D01*
X67973425Y-144311963D01*
X67973423Y-144311954D01*
X67842320Y-144020656D01*
X67677061Y-143747284D01*
X67677056Y-143747276D01*
X67480052Y-143495820D01*
X67254179Y-143269947D01*
X67002723Y-143072943D01*
X67002714Y-143072937D01*
X66867953Y-142991471D01*
X66729344Y-142907680D01*
X66729340Y-142907678D01*
X66729339Y-142907677D01*
X66530790Y-142818318D01*
X66438046Y-142776577D01*
X66438043Y-142776576D01*
X66438028Y-142776570D01*
X66133076Y-142681544D01*
X66133072Y-142681543D01*
X66133068Y-142681542D01*
X65818859Y-142623961D01*
X65818858Y-142623960D01*
X65818853Y-142623960D01*
X65500000Y-142604674D01*
X65181146Y-142623960D01*
X65181141Y-142623961D01*
X64866932Y-142681542D01*
X64866929Y-142681542D01*
X64866923Y-142681544D01*
X64561971Y-142776570D01*
X64561956Y-142776576D01*
X64270660Y-142907677D01*
X64270658Y-142907679D01*
X63997285Y-143072937D01*
X63997276Y-143072943D01*
X63745820Y-143269947D01*
X63519947Y-143495820D01*
X63322943Y-143747276D01*
X63322937Y-143747285D01*
X63157679Y-144020658D01*
X63157677Y-144020660D01*
X63113076Y-144119762D01*
X63067611Y-144172817D01*
X63000681Y-144192869D01*
X62933534Y-144173553D01*
X62887490Y-144121001D01*
X62886924Y-144119762D01*
X62842322Y-144020660D01*
X62842321Y-144020659D01*
X62842320Y-144020656D01*
X62677061Y-143747284D01*
X62677056Y-143747276D01*
X62480052Y-143495820D01*
X62254179Y-143269947D01*
X62002723Y-143072943D01*
X62002714Y-143072937D01*
X61867953Y-142991471D01*
X61729344Y-142907680D01*
X61729340Y-142907678D01*
X61729339Y-142907677D01*
X61530790Y-142818318D01*
X61438046Y-142776577D01*
X61438043Y-142776576D01*
X61438028Y-142776570D01*
X61133076Y-142681544D01*
X61133072Y-142681543D01*
X61133068Y-142681542D01*
X60818859Y-142623961D01*
X60818858Y-142623960D01*
X60818853Y-142623960D01*
X60500000Y-142604674D01*
X60181146Y-142623960D01*
X60181141Y-142623961D01*
X59866932Y-142681542D01*
X59866929Y-142681542D01*
X59866923Y-142681544D01*
X59561971Y-142776570D01*
X59561956Y-142776576D01*
X59270660Y-142907677D01*
X59270658Y-142907679D01*
X58997285Y-143072937D01*
X58997276Y-143072943D01*
X58745820Y-143269947D01*
X58519947Y-143495820D01*
X58322943Y-143747276D01*
X58322937Y-143747285D01*
X58157679Y-144020658D01*
X58157677Y-144020660D01*
X58026576Y-144311956D01*
X58026570Y-144311971D01*
X57931544Y-144616923D01*
X57931542Y-144616929D01*
X57931542Y-144616932D01*
X57885057Y-144870591D01*
X57873960Y-144931146D01*
X57854674Y-145250000D01*
X54750500Y-145250000D01*
X54750500Y-144303552D01*
X54735196Y-144089572D01*
X54727794Y-144055547D01*
X54674371Y-143809962D01*
X54674370Y-143809960D01*
X54674369Y-143809954D01*
X54574367Y-143541839D01*
X54537045Y-143473490D01*
X54437229Y-143290690D01*
X54437224Y-143290682D01*
X54265745Y-143061612D01*
X54265729Y-143061594D01*
X54063405Y-142859270D01*
X54063387Y-142859254D01*
X53834317Y-142687775D01*
X53834309Y-142687770D01*
X53583166Y-142550635D01*
X53583167Y-142550635D01*
X53475915Y-142510632D01*
X53315046Y-142450631D01*
X53315043Y-142450630D01*
X53315037Y-142450628D01*
X53035433Y-142389804D01*
X52821450Y-142374500D01*
X52821448Y-142374500D01*
X51178552Y-142374500D01*
X51178549Y-142374500D01*
X50964566Y-142389804D01*
X50684962Y-142450628D01*
X50416833Y-142550635D01*
X50165690Y-142687770D01*
X50165682Y-142687775D01*
X49936612Y-142859254D01*
X49936594Y-142859270D01*
X49734270Y-143061594D01*
X49734254Y-143061612D01*
X49562775Y-143290682D01*
X49562770Y-143290690D01*
X49425635Y-143541833D01*
X49325628Y-143809962D01*
X49264804Y-144089566D01*
X49249500Y-144303549D01*
X45000500Y-144303549D01*
X45000500Y-141138103D01*
X104504002Y-141138103D01*
X104553673Y-141161265D01*
X104553682Y-141161269D01*
X104773389Y-141220139D01*
X104773400Y-141220141D01*
X104999998Y-141239966D01*
X105000002Y-141239966D01*
X105226599Y-141220141D01*
X105226606Y-141220140D01*
X105446328Y-141161265D01*
X105495997Y-141138103D01*
X105000001Y-140642107D01*
X105000000Y-140642107D01*
X104504002Y-141138103D01*
X45000500Y-141138103D01*
X45000500Y-139934997D01*
X103695034Y-139934997D01*
X103695034Y-139935002D01*
X103714858Y-140161599D01*
X103714860Y-140161610D01*
X103773731Y-140381320D01*
X103796895Y-140430996D01*
X104292893Y-139935000D01*
X104292893Y-139934999D01*
X104240233Y-139882339D01*
X104600000Y-139882339D01*
X104600000Y-139987661D01*
X104627259Y-140089394D01*
X104679920Y-140180606D01*
X104754394Y-140255080D01*
X104845606Y-140307741D01*
X104947339Y-140335000D01*
X105052661Y-140335000D01*
X105154394Y-140307741D01*
X105245606Y-140255080D01*
X105320080Y-140180606D01*
X105372741Y-140089394D01*
X105400000Y-139987661D01*
X105400000Y-139934999D01*
X105707107Y-139934999D01*
X105707107Y-139935001D01*
X106203103Y-140430997D01*
X106226265Y-140381328D01*
X106285140Y-140161606D01*
X106285141Y-140161599D01*
X106304966Y-139935002D01*
X106304966Y-139934997D01*
X106285141Y-139708400D01*
X106285139Y-139708389D01*
X106226269Y-139488682D01*
X106226265Y-139488673D01*
X106203103Y-139439002D01*
X105707107Y-139934999D01*
X105400000Y-139934999D01*
X105400000Y-139882339D01*
X105372741Y-139780606D01*
X105320080Y-139689394D01*
X105245606Y-139614920D01*
X105154394Y-139562259D01*
X105052661Y-139535000D01*
X104947339Y-139535000D01*
X104845606Y-139562259D01*
X104754394Y-139614920D01*
X104679920Y-139689394D01*
X104627259Y-139780606D01*
X104600000Y-139882339D01*
X104240233Y-139882339D01*
X103796895Y-139439002D01*
X103773731Y-139488677D01*
X103714860Y-139708389D01*
X103714858Y-139708400D01*
X103695034Y-139934997D01*
X45000500Y-139934997D01*
X45000500Y-133428549D01*
X45374500Y-133428549D01*
X45374500Y-135071450D01*
X45389804Y-135285433D01*
X45450628Y-135565037D01*
X45550635Y-135833166D01*
X45687770Y-136084309D01*
X45687775Y-136084317D01*
X45859254Y-136313387D01*
X45859270Y-136313405D01*
X46061594Y-136515729D01*
X46061612Y-136515745D01*
X46290682Y-136687224D01*
X46290690Y-136687229D01*
X46541833Y-136824364D01*
X46541832Y-136824364D01*
X46541836Y-136824365D01*
X46541839Y-136824367D01*
X46809954Y-136924369D01*
X46809960Y-136924370D01*
X46809962Y-136924371D01*
X47089566Y-136985195D01*
X47089568Y-136985195D01*
X47089572Y-136985196D01*
X47303552Y-137000500D01*
X48946448Y-137000500D01*
X49160428Y-136985196D01*
X49440046Y-136924369D01*
X49708161Y-136824367D01*
X49959315Y-136687226D01*
X50188395Y-136515739D01*
X50390739Y-136313395D01*
X50562226Y-136084315D01*
X50699367Y-135833161D01*
X50799369Y-135565046D01*
X50860196Y-135285428D01*
X50875500Y-135071448D01*
X50875500Y-134250000D01*
X67869473Y-134250000D01*
X67889563Y-134582136D01*
X67889563Y-134582141D01*
X67889564Y-134582142D01*
X67949544Y-134909441D01*
X67949545Y-134909445D01*
X67949546Y-134909449D01*
X68048530Y-135227104D01*
X68048534Y-135227116D01*
X68048537Y-135227123D01*
X68185102Y-135530557D01*
X68349026Y-135801720D01*
X68357251Y-135815326D01*
X68562460Y-136077255D01*
X68797744Y-136312539D01*
X69059673Y-136517748D01*
X69059678Y-136517751D01*
X69059682Y-136517754D01*
X69344443Y-136689898D01*
X69647877Y-136826463D01*
X69647890Y-136826467D01*
X69647895Y-136826469D01*
X69859665Y-136892458D01*
X69965559Y-136925456D01*
X70292858Y-136985436D01*
X70625000Y-137005527D01*
X70716372Y-137000000D01*
X95245172Y-137000000D01*
X95264462Y-137294312D01*
X95264464Y-137294324D01*
X95322001Y-137583584D01*
X95322005Y-137583599D01*
X95416812Y-137862888D01*
X95547259Y-138127410D01*
X95594612Y-138198279D01*
X96532252Y-137260639D01*
X96538429Y-137291689D01*
X96613811Y-137473678D01*
X96723249Y-137637463D01*
X96862537Y-137776751D01*
X97026322Y-137886189D01*
X97208311Y-137961571D01*
X97239359Y-137967746D01*
X96301719Y-138905386D01*
X96372590Y-138952740D01*
X96372589Y-138952740D01*
X96637111Y-139083187D01*
X96916400Y-139177994D01*
X96916415Y-139177998D01*
X97205675Y-139235535D01*
X97205687Y-139235537D01*
X97500000Y-139254827D01*
X97794312Y-139235537D01*
X97794324Y-139235535D01*
X98083584Y-139177998D01*
X98083599Y-139177994D01*
X98362888Y-139083187D01*
X98627407Y-138952741D01*
X98627422Y-138952732D01*
X98698278Y-138905386D01*
X98698279Y-138905385D01*
X98524789Y-138731895D01*
X104504002Y-138731895D01*
X105000000Y-139227893D01*
X105000001Y-139227893D01*
X105495996Y-138731895D01*
X105446320Y-138708731D01*
X105226610Y-138649860D01*
X105226599Y-138649858D01*
X105000002Y-138630034D01*
X104999998Y-138630034D01*
X104773400Y-138649858D01*
X104773389Y-138649860D01*
X104553677Y-138708731D01*
X104504002Y-138731895D01*
X98524789Y-138731895D01*
X97760640Y-137967746D01*
X97791689Y-137961571D01*
X97973678Y-137886189D01*
X98137463Y-137776751D01*
X98276751Y-137637463D01*
X98386189Y-137473678D01*
X98461571Y-137291689D01*
X98467746Y-137260640D01*
X99405385Y-138198279D01*
X99405386Y-138198278D01*
X99452732Y-138127422D01*
X99452741Y-138127407D01*
X99583188Y-137862886D01*
X99592946Y-137834142D01*
X99633134Y-137776988D01*
X99697843Y-137750634D01*
X99710365Y-137750000D01*
X108724031Y-137750000D01*
X108791070Y-137769685D01*
X108836825Y-137822489D01*
X108844070Y-137842912D01*
X108909316Y-138094905D01*
X108916904Y-138124212D01*
X109049016Y-138480925D01*
X109049022Y-138480940D01*
X109216548Y-138822463D01*
X109216553Y-138822472D01*
X109297751Y-138952741D01*
X109417771Y-139145295D01*
X109650620Y-139446112D01*
X109881877Y-139689394D01*
X109912709Y-139721829D01*
X110201343Y-139969614D01*
X110201346Y-139969616D01*
X110513571Y-140186931D01*
X110846179Y-140371543D01*
X111195758Y-140521559D01*
X111195761Y-140521560D01*
X111195766Y-140521562D01*
X111558709Y-140635436D01*
X111558712Y-140635436D01*
X111558720Y-140635439D01*
X111931340Y-140712015D01*
X112234104Y-140742803D01*
X112309795Y-140750500D01*
X112309796Y-140750500D01*
X112690205Y-140750500D01*
X112753280Y-140744085D01*
X113068660Y-140712015D01*
X113441280Y-140635439D01*
X113441290Y-140635436D01*
X113804233Y-140521562D01*
X113804234Y-140521561D01*
X113804242Y-140521559D01*
X114153821Y-140371543D01*
X114486429Y-140186931D01*
X114798654Y-139969616D01*
X115087291Y-139721829D01*
X115349380Y-139446112D01*
X115582229Y-139145295D01*
X115783451Y-138822464D01*
X115950981Y-138480932D01*
X116083098Y-138124204D01*
X116178448Y-137755940D01*
X116236053Y-137379919D01*
X116255320Y-137000000D01*
X116236053Y-136620081D01*
X116178448Y-136244060D01*
X116083098Y-135875796D01*
X116060702Y-135815326D01*
X115950983Y-135519074D01*
X115950977Y-135519059D01*
X115783451Y-135177536D01*
X115783446Y-135177527D01*
X115659068Y-134977982D01*
X115582229Y-134854705D01*
X115349380Y-134553888D01*
X115087291Y-134278171D01*
X115054476Y-134250000D01*
X114798656Y-134030385D01*
X114486429Y-133813069D01*
X114486424Y-133813066D01*
X114153820Y-133628456D01*
X113804233Y-133478437D01*
X113441290Y-133364563D01*
X113441284Y-133364562D01*
X113441281Y-133364561D01*
X113441280Y-133364561D01*
X113068660Y-133287985D01*
X113068659Y-133287984D01*
X113068655Y-133287984D01*
X112690205Y-133249500D01*
X112690204Y-133249500D01*
X112309796Y-133249500D01*
X112309795Y-133249500D01*
X111931344Y-133287984D01*
X111558715Y-133364562D01*
X111558709Y-133364563D01*
X111411121Y-133410870D01*
X111341263Y-133412158D01*
X111281799Y-133375473D01*
X111251608Y-133312462D01*
X111250000Y-133292557D01*
X111250000Y-126250000D01*
X99250000Y-126250000D01*
X99250000Y-135905745D01*
X99230315Y-135972784D01*
X99213681Y-135993426D01*
X98467746Y-136739360D01*
X98461571Y-136708311D01*
X98386189Y-136526322D01*
X98276751Y-136362537D01*
X98137463Y-136223249D01*
X97973678Y-136113811D01*
X97791689Y-136038429D01*
X97760640Y-136032253D01*
X98698279Y-135094612D01*
X98627410Y-135047259D01*
X98362888Y-134916812D01*
X98083599Y-134822005D01*
X98083584Y-134822001D01*
X97794324Y-134764464D01*
X97794312Y-134764462D01*
X97500000Y-134745172D01*
X97205687Y-134764462D01*
X97205675Y-134764464D01*
X96916415Y-134822001D01*
X96916400Y-134822005D01*
X96637111Y-134916812D01*
X96372585Y-135047262D01*
X96301720Y-135094612D01*
X96301720Y-135094613D01*
X97239360Y-136032253D01*
X97208311Y-136038429D01*
X97026322Y-136113811D01*
X96862537Y-136223249D01*
X96723249Y-136362537D01*
X96613811Y-136526322D01*
X96538429Y-136708311D01*
X96532253Y-136739360D01*
X95594613Y-135801720D01*
X95594612Y-135801720D01*
X95547262Y-135872585D01*
X95416812Y-136137111D01*
X95322005Y-136416400D01*
X95322001Y-136416415D01*
X95264464Y-136705675D01*
X95264462Y-136705687D01*
X95245172Y-137000000D01*
X70716372Y-137000000D01*
X70957142Y-136985436D01*
X71284441Y-136925456D01*
X71602123Y-136826463D01*
X71905557Y-136689898D01*
X72190318Y-136517754D01*
X72192883Y-136515745D01*
X72319687Y-136416400D01*
X72452252Y-136312542D01*
X72687542Y-136077252D01*
X72892754Y-135815318D01*
X73064898Y-135530557D01*
X73201463Y-135227123D01*
X73300456Y-134909441D01*
X73360436Y-134582142D01*
X73380527Y-134250000D01*
X73360436Y-133917858D01*
X73300456Y-133590559D01*
X73249972Y-133428549D01*
X73201469Y-133272895D01*
X73201467Y-133272890D01*
X73201463Y-133272877D01*
X73064898Y-132969443D01*
X72892754Y-132684682D01*
X72892751Y-132684678D01*
X72892748Y-132684673D01*
X72687539Y-132422744D01*
X72452255Y-132187460D01*
X72190326Y-131982251D01*
X72190318Y-131982246D01*
X71905557Y-131810102D01*
X71602123Y-131673537D01*
X71602116Y-131673534D01*
X71602104Y-131673530D01*
X71284449Y-131574546D01*
X71284445Y-131574545D01*
X71284441Y-131574544D01*
X70957142Y-131514564D01*
X70957141Y-131514563D01*
X70957136Y-131514563D01*
X70625000Y-131494473D01*
X70292863Y-131514563D01*
X70292858Y-131514564D01*
X69965559Y-131574544D01*
X69965556Y-131574544D01*
X69965550Y-131574546D01*
X69647895Y-131673530D01*
X69647879Y-131673536D01*
X69647877Y-131673537D01*
X69344443Y-131810102D01*
X69252823Y-131865487D01*
X69059673Y-131982251D01*
X68797744Y-132187460D01*
X68562460Y-132422744D01*
X68357251Y-132684673D01*
X68357246Y-132684682D01*
X68205947Y-132934962D01*
X68185101Y-132969445D01*
X68185100Y-132969447D01*
X68048536Y-133272880D01*
X68048530Y-133272895D01*
X67949546Y-133590550D01*
X67889563Y-133917863D01*
X67869473Y-134250000D01*
X50875500Y-134250000D01*
X50875500Y-133428552D01*
X50860196Y-133214572D01*
X50806872Y-132969447D01*
X50799371Y-132934962D01*
X50799370Y-132934960D01*
X50799369Y-132934954D01*
X50699367Y-132666839D01*
X50562226Y-132415685D01*
X50562224Y-132415682D01*
X50390745Y-132186612D01*
X50390729Y-132186594D01*
X50188405Y-131984270D01*
X50188387Y-131984254D01*
X49959317Y-131812775D01*
X49959309Y-131812770D01*
X49708166Y-131675635D01*
X49708167Y-131675635D01*
X49600915Y-131635632D01*
X49440046Y-131575631D01*
X49440043Y-131575630D01*
X49440037Y-131575628D01*
X49160433Y-131514804D01*
X48946450Y-131499500D01*
X48946448Y-131499500D01*
X47303552Y-131499500D01*
X47303549Y-131499500D01*
X47089566Y-131514804D01*
X46809962Y-131575628D01*
X46541833Y-131675635D01*
X46290690Y-131812770D01*
X46290682Y-131812775D01*
X46061612Y-131984254D01*
X46061594Y-131984270D01*
X45859270Y-132186594D01*
X45859254Y-132186612D01*
X45687775Y-132415682D01*
X45687770Y-132415690D01*
X45550635Y-132666833D01*
X45450628Y-132934962D01*
X45389804Y-133214566D01*
X45374500Y-133428549D01*
X45000500Y-133428549D01*
X45000500Y-116750000D01*
X45644680Y-116750000D01*
X45663946Y-117129918D01*
X45694208Y-117327451D01*
X45721552Y-117505940D01*
X45798314Y-117802413D01*
X45816904Y-117874212D01*
X45949016Y-118230925D01*
X45949022Y-118230940D01*
X46116548Y-118572463D01*
X46116553Y-118572472D01*
X46317771Y-118895295D01*
X46424707Y-119033446D01*
X46550620Y-119196112D01*
X46697327Y-119350447D01*
X46812709Y-119471829D01*
X47101343Y-119719614D01*
X47101346Y-119719616D01*
X47413571Y-119936931D01*
X47746179Y-120121543D01*
X48095758Y-120271559D01*
X48095761Y-120271560D01*
X48095766Y-120271562D01*
X48458709Y-120385436D01*
X48458712Y-120385436D01*
X48458720Y-120385439D01*
X48831340Y-120462015D01*
X49134104Y-120492803D01*
X49209795Y-120500500D01*
X49209796Y-120500500D01*
X49590205Y-120500500D01*
X49653280Y-120494085D01*
X49968660Y-120462015D01*
X50341280Y-120385439D01*
X50341290Y-120385436D01*
X50704233Y-120271562D01*
X50704234Y-120271561D01*
X50704242Y-120271559D01*
X51053821Y-120121543D01*
X51386429Y-119936931D01*
X51698654Y-119719616D01*
X51987291Y-119471829D01*
X52249380Y-119196112D01*
X52482229Y-118895295D01*
X52683451Y-118572464D01*
X52850981Y-118230932D01*
X52983098Y-117874204D01*
X53078448Y-117505940D01*
X53136053Y-117129919D01*
X53155320Y-116750000D01*
X58244680Y-116750000D01*
X58263946Y-117129918D01*
X58294208Y-117327451D01*
X58321552Y-117505940D01*
X58398314Y-117802413D01*
X58416904Y-117874212D01*
X58549016Y-118230925D01*
X58549022Y-118230940D01*
X58716548Y-118572463D01*
X58716553Y-118572472D01*
X58917771Y-118895295D01*
X59024707Y-119033446D01*
X59150620Y-119196112D01*
X59297327Y-119350447D01*
X59412709Y-119471829D01*
X59701343Y-119719614D01*
X59701346Y-119719616D01*
X60013571Y-119936931D01*
X60346179Y-120121543D01*
X60695758Y-120271559D01*
X60695761Y-120271560D01*
X60695766Y-120271562D01*
X61058709Y-120385436D01*
X61058712Y-120385436D01*
X61058720Y-120385439D01*
X61431340Y-120462015D01*
X61734104Y-120492803D01*
X61809795Y-120500500D01*
X61809796Y-120500500D01*
X62190205Y-120500500D01*
X62253280Y-120494085D01*
X62568660Y-120462015D01*
X62941280Y-120385439D01*
X62941290Y-120385436D01*
X63304233Y-120271562D01*
X63304234Y-120271561D01*
X63304242Y-120271559D01*
X63653821Y-120121543D01*
X63986429Y-119936931D01*
X64298654Y-119719616D01*
X64587291Y-119471829D01*
X64849380Y-119196112D01*
X65082229Y-118895295D01*
X65283451Y-118572464D01*
X65450981Y-118230932D01*
X65583098Y-117874204D01*
X65678448Y-117505940D01*
X65736053Y-117129919D01*
X65742642Y-117000000D01*
X67533344Y-117000000D01*
X67553150Y-117327451D01*
X67553150Y-117327456D01*
X67553151Y-117327457D01*
X67612285Y-117650138D01*
X67612286Y-117650142D01*
X67612287Y-117650146D01*
X67709876Y-117963320D01*
X67709880Y-117963331D01*
X67709881Y-117963334D01*
X67709883Y-117963339D01*
X67844521Y-118262493D01*
X67844523Y-118262497D01*
X67844524Y-118262498D01*
X68014229Y-118543227D01*
X68014234Y-118543234D01*
X68014236Y-118543237D01*
X68115395Y-118672356D01*
X68216556Y-118801479D01*
X68448520Y-119033443D01*
X68448524Y-119033446D01*
X68706763Y-119235764D01*
X68706765Y-119235765D01*
X68720913Y-119244318D01*
X68768100Y-119295846D01*
X68779939Y-119364705D01*
X68752671Y-119429034D01*
X68709508Y-119462278D01*
X68709526Y-119462310D01*
X68709323Y-119462420D01*
X68708270Y-119463232D01*
X68705628Y-119464438D01*
X68454490Y-119601570D01*
X68454482Y-119601575D01*
X68225412Y-119773054D01*
X68225394Y-119773070D01*
X68023070Y-119975394D01*
X68023054Y-119975412D01*
X67851575Y-120204482D01*
X67851570Y-120204490D01*
X67714435Y-120455633D01*
X67614428Y-120723762D01*
X67553604Y-121003366D01*
X67538300Y-121217349D01*
X67538300Y-122782650D01*
X67553604Y-122996633D01*
X67614428Y-123276237D01*
X67714435Y-123544366D01*
X67851570Y-123795509D01*
X67851575Y-123795517D01*
X68023054Y-124024587D01*
X68023070Y-124024605D01*
X68225394Y-124226929D01*
X68225412Y-124226945D01*
X68454482Y-124398424D01*
X68454490Y-124398429D01*
X68705633Y-124535564D01*
X68705632Y-124535564D01*
X68705636Y-124535565D01*
X68705639Y-124535567D01*
X68973754Y-124635569D01*
X68973760Y-124635570D01*
X68973762Y-124635571D01*
X69253366Y-124696395D01*
X69253368Y-124696395D01*
X69253372Y-124696396D01*
X69467352Y-124711700D01*
X71032648Y-124711700D01*
X71246628Y-124696396D01*
X71526246Y-124635569D01*
X71794361Y-124535567D01*
X72045515Y-124398426D01*
X72274595Y-124226939D01*
X72476939Y-124024595D01*
X72648426Y-123795515D01*
X72785567Y-123544361D01*
X72885569Y-123276246D01*
X72946396Y-122996628D01*
X72961700Y-122782648D01*
X72961700Y-121217352D01*
X72946396Y-121003372D01*
X72885569Y-120723754D01*
X72785567Y-120455639D01*
X72685051Y-120271559D01*
X72648429Y-120204490D01*
X72648424Y-120204482D01*
X72476945Y-119975412D01*
X72476929Y-119975394D01*
X72274605Y-119773070D01*
X72274587Y-119773054D01*
X72045517Y-119601575D01*
X72045509Y-119601570D01*
X71794372Y-119464438D01*
X71791736Y-119463235D01*
X71790999Y-119462596D01*
X71790474Y-119462310D01*
X71790536Y-119462195D01*
X71738927Y-119417485D01*
X71719236Y-119350447D01*
X71738914Y-119283406D01*
X71779087Y-119244317D01*
X71793237Y-119235764D01*
X72051476Y-119033446D01*
X72283446Y-118801476D01*
X72485764Y-118543237D01*
X72655479Y-118262493D01*
X72790117Y-117963339D01*
X72887715Y-117650138D01*
X72946849Y-117327457D01*
X72966656Y-117000000D01*
X72946849Y-116672543D01*
X72887715Y-116349862D01*
X72790117Y-116036661D01*
X72655479Y-115737507D01*
X72587593Y-115625209D01*
X72485770Y-115456772D01*
X72485765Y-115456765D01*
X72485764Y-115456763D01*
X72283446Y-115198524D01*
X72283443Y-115198520D01*
X72051479Y-114966556D01*
X71793234Y-114764234D01*
X71793227Y-114764229D01*
X71512498Y-114594524D01*
X71512497Y-114594523D01*
X71512493Y-114594521D01*
X71213339Y-114459883D01*
X71213334Y-114459881D01*
X71213331Y-114459880D01*
X71213320Y-114459876D01*
X70900146Y-114362287D01*
X70900142Y-114362286D01*
X70900138Y-114362285D01*
X70577457Y-114303151D01*
X70577456Y-114303150D01*
X70577451Y-114303150D01*
X70250000Y-114283344D01*
X69922548Y-114303150D01*
X69922543Y-114303151D01*
X69599862Y-114362285D01*
X69599859Y-114362285D01*
X69599853Y-114362287D01*
X69286679Y-114459876D01*
X69286668Y-114459880D01*
X68987511Y-114594519D01*
X68987501Y-114594524D01*
X68706772Y-114764229D01*
X68706765Y-114764234D01*
X68448520Y-114966556D01*
X68216556Y-115198520D01*
X68014234Y-115456765D01*
X68014229Y-115456772D01*
X67844524Y-115737501D01*
X67844519Y-115737511D01*
X67709880Y-116036668D01*
X67709876Y-116036679D01*
X67612287Y-116349853D01*
X67553150Y-116672548D01*
X67533344Y-117000000D01*
X65742642Y-117000000D01*
X65755320Y-116750000D01*
X65736053Y-116370081D01*
X65678448Y-115994060D01*
X65583098Y-115625796D01*
X65450981Y-115269068D01*
X65416377Y-115198524D01*
X65283451Y-114927536D01*
X65283446Y-114927527D01*
X65119637Y-114664721D01*
X65082229Y-114604705D01*
X64849380Y-114303888D01*
X64587291Y-114028171D01*
X64556406Y-114001657D01*
X64298656Y-113780385D01*
X63986429Y-113563069D01*
X63986424Y-113563066D01*
X63653820Y-113378456D01*
X63304233Y-113228437D01*
X62941290Y-113114563D01*
X62941284Y-113114562D01*
X62941281Y-113114561D01*
X62941280Y-113114561D01*
X62568660Y-113037985D01*
X62568659Y-113037984D01*
X62568655Y-113037984D01*
X62190205Y-112999500D01*
X62190204Y-112999500D01*
X61809796Y-112999500D01*
X61809795Y-112999500D01*
X61431344Y-113037984D01*
X61058715Y-113114562D01*
X61058709Y-113114563D01*
X60695766Y-113228437D01*
X60346179Y-113378456D01*
X60013575Y-113563066D01*
X60013570Y-113563069D01*
X59701343Y-113780385D01*
X59412709Y-114028170D01*
X59150615Y-114303893D01*
X58917771Y-114604704D01*
X58716553Y-114927527D01*
X58716548Y-114927536D01*
X58549022Y-115269059D01*
X58549016Y-115269074D01*
X58416904Y-115625787D01*
X58321551Y-115994064D01*
X58263946Y-116370081D01*
X58244680Y-116750000D01*
X53155320Y-116750000D01*
X53136053Y-116370081D01*
X53078448Y-115994060D01*
X52983098Y-115625796D01*
X52850981Y-115269068D01*
X52816377Y-115198524D01*
X52683451Y-114927536D01*
X52683446Y-114927527D01*
X52519637Y-114664721D01*
X52482229Y-114604705D01*
X52249380Y-114303888D01*
X51987291Y-114028171D01*
X51956406Y-114001657D01*
X51698656Y-113780385D01*
X51386429Y-113563069D01*
X51386424Y-113563066D01*
X51053820Y-113378456D01*
X50704233Y-113228437D01*
X50341290Y-113114563D01*
X50341284Y-113114562D01*
X50341281Y-113114561D01*
X50341280Y-113114561D01*
X49968660Y-113037985D01*
X49968659Y-113037984D01*
X49968655Y-113037984D01*
X49590205Y-112999500D01*
X49590204Y-112999500D01*
X49209796Y-112999500D01*
X49209795Y-112999500D01*
X48831344Y-113037984D01*
X48458715Y-113114562D01*
X48458709Y-113114563D01*
X48095766Y-113228437D01*
X47746179Y-113378456D01*
X47413575Y-113563066D01*
X47413570Y-113563069D01*
X47101343Y-113780385D01*
X46812709Y-114028170D01*
X46550615Y-114303893D01*
X46317771Y-114604704D01*
X46116553Y-114927527D01*
X46116548Y-114927536D01*
X45949022Y-115269059D01*
X45949016Y-115269074D01*
X45816904Y-115625787D01*
X45721551Y-115994064D01*
X45663946Y-116370081D01*
X45644680Y-116750000D01*
X45000500Y-116750000D01*
X45000500Y-111368000D01*
X101314680Y-111368000D01*
X101333946Y-111747918D01*
X101391551Y-112123935D01*
X101486904Y-112492212D01*
X101619016Y-112848925D01*
X101619022Y-112848940D01*
X101786548Y-113190463D01*
X101786553Y-113190472D01*
X101987771Y-113513295D01*
X102212203Y-113803239D01*
X102220620Y-113814112D01*
X102348844Y-113949003D01*
X102482709Y-114089829D01*
X102771343Y-114337614D01*
X102771346Y-114337616D01*
X103083571Y-114554931D01*
X103416179Y-114739543D01*
X103765758Y-114889559D01*
X103765761Y-114889560D01*
X103765766Y-114889562D01*
X104128709Y-115003436D01*
X104128712Y-115003436D01*
X104128720Y-115003439D01*
X104501340Y-115080015D01*
X104804104Y-115110803D01*
X104879795Y-115118500D01*
X104879796Y-115118500D01*
X105260205Y-115118500D01*
X105323280Y-115112085D01*
X105638660Y-115080015D01*
X106011280Y-115003439D01*
X106128835Y-114966556D01*
X106374233Y-114889562D01*
X106374234Y-114889561D01*
X106374242Y-114889559D01*
X106723821Y-114739543D01*
X106885295Y-114649918D01*
X141137188Y-114649918D01*
X141164531Y-114664715D01*
X141164545Y-114664721D01*
X141392207Y-114742879D01*
X141629642Y-114782500D01*
X141870358Y-114782500D01*
X142107792Y-114742879D01*
X142335458Y-114664720D01*
X142362810Y-114649917D01*
X141750001Y-114037107D01*
X141750000Y-114037107D01*
X141137188Y-114649918D01*
X106885295Y-114649918D01*
X107056429Y-114554931D01*
X107368654Y-114337616D01*
X107657291Y-114089829D01*
X107919380Y-113814112D01*
X108152229Y-113513295D01*
X108266481Y-113329994D01*
X140292522Y-113329994D01*
X140292522Y-113330005D01*
X140312399Y-113569889D01*
X140371491Y-113803240D01*
X140431910Y-113940982D01*
X141042893Y-113330000D01*
X141042893Y-113329999D01*
X140974098Y-113261204D01*
X141051500Y-113261204D01*
X141051500Y-113398796D01*
X141078343Y-113533745D01*
X141130997Y-113660864D01*
X141207439Y-113775268D01*
X141304732Y-113872561D01*
X141419136Y-113949003D01*
X141546255Y-114001657D01*
X141681204Y-114028500D01*
X141818796Y-114028500D01*
X141953745Y-114001657D01*
X142080864Y-113949003D01*
X142195268Y-113872561D01*
X142292561Y-113775268D01*
X142369003Y-113660864D01*
X142421657Y-113533745D01*
X142448500Y-113398796D01*
X142448500Y-113329999D01*
X142457107Y-113329999D01*
X142457107Y-113330001D01*
X143068088Y-113940982D01*
X143128508Y-113803239D01*
X143187600Y-113569889D01*
X143207478Y-113330005D01*
X143207478Y-113329994D01*
X143187600Y-113090110D01*
X143128507Y-112856757D01*
X143068089Y-112719017D01*
X143068088Y-112719016D01*
X142457107Y-113329999D01*
X142448500Y-113329999D01*
X142448500Y-113261204D01*
X142421657Y-113126255D01*
X142369003Y-112999136D01*
X142292561Y-112884732D01*
X142195268Y-112787439D01*
X142080864Y-112710997D01*
X141953745Y-112658343D01*
X141818796Y-112631500D01*
X141681204Y-112631500D01*
X141546255Y-112658343D01*
X141419136Y-112710997D01*
X141304732Y-112787439D01*
X141207439Y-112884732D01*
X141130997Y-112999136D01*
X141078343Y-113126255D01*
X141051500Y-113261204D01*
X140974098Y-113261204D01*
X140431910Y-112719017D01*
X140371491Y-112856759D01*
X140312399Y-113090110D01*
X140292522Y-113329994D01*
X108266481Y-113329994D01*
X108353451Y-113190464D01*
X108520981Y-112848932D01*
X108653098Y-112492204D01*
X108748448Y-112123940D01*
X108765891Y-112010080D01*
X141137188Y-112010080D01*
X141137188Y-112010081D01*
X141750000Y-112622893D01*
X141750001Y-112622893D01*
X142362811Y-112010081D01*
X142335469Y-111995284D01*
X142335456Y-111995279D01*
X142107790Y-111917119D01*
X141870358Y-111877500D01*
X141629642Y-111877500D01*
X141392209Y-111917119D01*
X141164534Y-111995282D01*
X141137188Y-112010080D01*
X108765891Y-112010080D01*
X108806053Y-111747919D01*
X108825320Y-111368000D01*
X108806053Y-110988081D01*
X108748448Y-110612060D01*
X108653098Y-110243796D01*
X108520981Y-109887068D01*
X108427305Y-109696098D01*
X108353451Y-109545536D01*
X108353446Y-109545527D01*
X108206565Y-109309879D01*
X108169457Y-109250344D01*
X140297500Y-109250344D01*
X140303901Y-109309872D01*
X140303903Y-109309879D01*
X140354145Y-109444586D01*
X140354149Y-109444593D01*
X140440309Y-109559687D01*
X140440312Y-109559690D01*
X140555406Y-109645850D01*
X140555413Y-109645854D01*
X140690120Y-109696096D01*
X140690127Y-109696098D01*
X140749655Y-109702499D01*
X140749672Y-109702500D01*
X141250000Y-109702500D01*
X142250000Y-109702500D01*
X142750328Y-109702500D01*
X142750344Y-109702499D01*
X142809872Y-109696098D01*
X142809879Y-109696096D01*
X142944586Y-109645854D01*
X142944593Y-109645850D01*
X143059687Y-109559690D01*
X143059690Y-109559687D01*
X143145850Y-109444593D01*
X143145854Y-109444586D01*
X143196096Y-109309879D01*
X143196098Y-109309872D01*
X143202499Y-109250344D01*
X143202500Y-109250327D01*
X143202500Y-108750000D01*
X142250000Y-108750000D01*
X142250000Y-109702500D01*
X141250000Y-109702500D01*
X141250000Y-108750000D01*
X140297500Y-108750000D01*
X140297500Y-109250344D01*
X108169457Y-109250344D01*
X108152229Y-109222705D01*
X107919380Y-108921888D01*
X107657291Y-108646171D01*
X107433142Y-108453745D01*
X107368656Y-108398385D01*
X107056429Y-108181069D01*
X107056424Y-108181066D01*
X106723820Y-107996456D01*
X106374233Y-107846437D01*
X106011290Y-107732563D01*
X106011284Y-107732562D01*
X106011281Y-107732561D01*
X106011280Y-107732561D01*
X105638660Y-107655985D01*
X105638659Y-107655984D01*
X105638655Y-107655984D01*
X105260205Y-107617500D01*
X105260204Y-107617500D01*
X104879796Y-107617500D01*
X104879795Y-107617500D01*
X104501344Y-107655984D01*
X104128715Y-107732562D01*
X104128709Y-107732563D01*
X103765766Y-107846437D01*
X103416179Y-107996456D01*
X103083575Y-108181066D01*
X103083570Y-108181069D01*
X102771343Y-108398385D01*
X102482709Y-108646170D01*
X102220615Y-108921893D01*
X101987771Y-109222704D01*
X101786553Y-109545527D01*
X101786548Y-109545536D01*
X101619022Y-109887059D01*
X101619016Y-109887074D01*
X101486904Y-110243787D01*
X101391551Y-110612064D01*
X101333946Y-110988081D01*
X101314680Y-111368000D01*
X45000500Y-111368000D01*
X45000500Y-106750000D01*
X45644680Y-106750000D01*
X45663946Y-107129918D01*
X45685100Y-107268000D01*
X45721552Y-107505940D01*
X45760401Y-107655984D01*
X45816904Y-107874212D01*
X45949016Y-108230925D01*
X45949022Y-108230940D01*
X46116548Y-108572463D01*
X46116553Y-108572472D01*
X46193093Y-108695268D01*
X46317771Y-108895295D01*
X46550620Y-109196112D01*
X46658764Y-109309879D01*
X46812709Y-109471829D01*
X47101343Y-109719614D01*
X47101346Y-109719616D01*
X47413571Y-109936931D01*
X47746179Y-110121543D01*
X48095758Y-110271559D01*
X48095761Y-110271560D01*
X48095766Y-110271562D01*
X48458709Y-110385436D01*
X48458712Y-110385436D01*
X48458720Y-110385439D01*
X48831340Y-110462015D01*
X49134104Y-110492803D01*
X49209795Y-110500500D01*
X49209796Y-110500500D01*
X49590205Y-110500500D01*
X49653280Y-110494085D01*
X49968660Y-110462015D01*
X50341280Y-110385439D01*
X50341290Y-110385436D01*
X50704233Y-110271562D01*
X50704234Y-110271561D01*
X50704242Y-110271559D01*
X51053821Y-110121543D01*
X51386429Y-109936931D01*
X51698654Y-109719616D01*
X51987291Y-109471829D01*
X52249380Y-109196112D01*
X52482229Y-108895295D01*
X52683451Y-108572464D01*
X52850981Y-108230932D01*
X52983098Y-107874204D01*
X53078448Y-107505940D01*
X53136053Y-107129919D01*
X53155320Y-106750000D01*
X58244680Y-106750000D01*
X58263946Y-107129918D01*
X58285100Y-107268000D01*
X58321552Y-107505940D01*
X58360401Y-107655984D01*
X58416904Y-107874212D01*
X58549016Y-108230925D01*
X58549022Y-108230940D01*
X58716548Y-108572463D01*
X58716553Y-108572472D01*
X58793093Y-108695268D01*
X58917771Y-108895295D01*
X59150620Y-109196112D01*
X59258764Y-109309879D01*
X59412709Y-109471829D01*
X59701343Y-109719614D01*
X59701346Y-109719616D01*
X60013571Y-109936931D01*
X60346179Y-110121543D01*
X60695758Y-110271559D01*
X60695761Y-110271560D01*
X60695766Y-110271562D01*
X61058709Y-110385436D01*
X61058712Y-110385436D01*
X61058720Y-110385439D01*
X61431340Y-110462015D01*
X61734104Y-110492803D01*
X61809795Y-110500500D01*
X61809796Y-110500500D01*
X62190205Y-110500500D01*
X62253280Y-110494085D01*
X62568660Y-110462015D01*
X62941280Y-110385439D01*
X62941290Y-110385436D01*
X63304233Y-110271562D01*
X63304234Y-110271561D01*
X63304242Y-110271559D01*
X63653821Y-110121543D01*
X63986429Y-109936931D01*
X64298654Y-109719616D01*
X64587291Y-109471829D01*
X64849380Y-109196112D01*
X65082229Y-108895295D01*
X65283451Y-108572464D01*
X65450981Y-108230932D01*
X65583098Y-107874204D01*
X65678448Y-107505940D01*
X65736053Y-107129919D01*
X65755320Y-106750000D01*
X65736053Y-106370081D01*
X65678448Y-105994060D01*
X65645807Y-105867994D01*
X85365057Y-105867994D01*
X85365057Y-105868005D01*
X85384807Y-106181942D01*
X85384808Y-106181949D01*
X85443755Y-106490958D01*
X85540963Y-106790132D01*
X85540965Y-106790137D01*
X85674900Y-107074761D01*
X85674905Y-107074771D01*
X85784083Y-107246807D01*
X85784084Y-107246808D01*
X86590428Y-106440464D01*
X86672613Y-106601760D01*
X86802140Y-106780039D01*
X86957961Y-106935860D01*
X87136240Y-107065387D01*
X87297534Y-107147570D01*
X86489747Y-107955357D01*
X86489748Y-107955358D01*
X86527777Y-107982988D01*
X86527796Y-107983000D01*
X86803447Y-108134540D01*
X86803455Y-108134544D01*
X87095926Y-108250340D01*
X87400620Y-108328573D01*
X87400629Y-108328575D01*
X87712701Y-108367999D01*
X87712715Y-108368000D01*
X88027285Y-108368000D01*
X88027298Y-108367999D01*
X88339370Y-108328575D01*
X88339379Y-108328573D01*
X88644073Y-108250340D01*
X88936544Y-108134544D01*
X88936545Y-108134543D01*
X89212216Y-107982991D01*
X89212222Y-107982988D01*
X89250250Y-107955358D01*
X89250250Y-107955357D01*
X88442464Y-107147571D01*
X88603760Y-107065387D01*
X88782039Y-106935860D01*
X88937860Y-106780039D01*
X89067387Y-106601760D01*
X89149571Y-106440464D01*
X89955914Y-107246808D01*
X89955915Y-107246807D01*
X90065092Y-107074773D01*
X90065103Y-107074754D01*
X90199034Y-106790137D01*
X90199036Y-106790132D01*
X90296244Y-106490958D01*
X90355191Y-106181949D01*
X90355192Y-106181942D01*
X90374943Y-105868005D01*
X90374943Y-105867994D01*
X120065057Y-105867994D01*
X120065057Y-105868005D01*
X120084807Y-106181942D01*
X120084808Y-106181949D01*
X120143755Y-106490958D01*
X120240963Y-106790132D01*
X120240965Y-106790137D01*
X120374900Y-107074761D01*
X120374905Y-107074771D01*
X120484083Y-107246807D01*
X120484084Y-107246808D01*
X121290428Y-106440464D01*
X121372613Y-106601760D01*
X121502140Y-106780039D01*
X121657961Y-106935860D01*
X121836240Y-107065387D01*
X121997534Y-107147570D01*
X121189747Y-107955357D01*
X121189748Y-107955358D01*
X121227777Y-107982988D01*
X121227796Y-107983000D01*
X121503447Y-108134540D01*
X121503455Y-108134544D01*
X121795926Y-108250340D01*
X122100620Y-108328573D01*
X122100629Y-108328575D01*
X122412701Y-108367999D01*
X122412715Y-108368000D01*
X122727285Y-108368000D01*
X122727298Y-108367999D01*
X123039370Y-108328575D01*
X123039379Y-108328573D01*
X123344073Y-108250340D01*
X123518693Y-108181204D01*
X141051500Y-108181204D01*
X141051500Y-108318796D01*
X141078343Y-108453745D01*
X141130997Y-108580864D01*
X141207439Y-108695268D01*
X141304732Y-108792561D01*
X141419136Y-108869003D01*
X141546255Y-108921657D01*
X141681204Y-108948500D01*
X141818796Y-108948500D01*
X141953745Y-108921657D01*
X142080864Y-108869003D01*
X142195268Y-108792561D01*
X142292561Y-108695268D01*
X142369003Y-108580864D01*
X142421657Y-108453745D01*
X142448500Y-108318796D01*
X142448500Y-108181204D01*
X142421657Y-108046255D01*
X142369003Y-107919136D01*
X142292561Y-107804732D01*
X142237829Y-107750000D01*
X142250000Y-107750000D01*
X143202500Y-107750000D01*
X143202500Y-107249672D01*
X143202499Y-107249655D01*
X143196098Y-107190127D01*
X143196096Y-107190120D01*
X143145854Y-107055413D01*
X143145850Y-107055406D01*
X143059690Y-106940312D01*
X143059687Y-106940309D01*
X142944593Y-106854149D01*
X142944586Y-106854145D01*
X142809879Y-106803903D01*
X142809872Y-106803901D01*
X142750344Y-106797500D01*
X142250000Y-106797500D01*
X142250000Y-107750000D01*
X142237829Y-107750000D01*
X142195268Y-107707439D01*
X142080864Y-107630997D01*
X141953745Y-107578343D01*
X141818796Y-107551500D01*
X141681204Y-107551500D01*
X141546255Y-107578343D01*
X141419136Y-107630997D01*
X141304732Y-107707439D01*
X141207439Y-107804732D01*
X141130997Y-107919136D01*
X141078343Y-108046255D01*
X141051500Y-108181204D01*
X123518693Y-108181204D01*
X123636544Y-108134544D01*
X123636545Y-108134543D01*
X123912216Y-107982991D01*
X123912222Y-107982988D01*
X123950250Y-107955358D01*
X123950250Y-107955357D01*
X123244548Y-107249655D01*
X140297500Y-107249655D01*
X140297500Y-107750000D01*
X141250000Y-107750000D01*
X141250000Y-106797500D01*
X140749655Y-106797500D01*
X140690127Y-106803901D01*
X140690120Y-106803903D01*
X140555413Y-106854145D01*
X140555406Y-106854149D01*
X140440312Y-106940309D01*
X140440309Y-106940312D01*
X140354149Y-107055406D01*
X140354145Y-107055413D01*
X140303903Y-107190120D01*
X140303901Y-107190127D01*
X140297500Y-107249655D01*
X123244548Y-107249655D01*
X123142464Y-107147571D01*
X123303760Y-107065387D01*
X123482039Y-106935860D01*
X123637860Y-106780039D01*
X123767387Y-106601760D01*
X123849571Y-106440464D01*
X124655914Y-107246808D01*
X124655915Y-107246807D01*
X124765092Y-107074773D01*
X124765103Y-107074754D01*
X124899034Y-106790137D01*
X124899036Y-106790132D01*
X124996244Y-106490958D01*
X125055191Y-106181949D01*
X125055192Y-106181942D01*
X125074943Y-105868005D01*
X125074943Y-105867994D01*
X125055192Y-105554057D01*
X125055191Y-105554050D01*
X124996244Y-105245041D01*
X124899036Y-104945867D01*
X124899034Y-104945862D01*
X124765099Y-104661237D01*
X124765091Y-104661222D01*
X124707147Y-104569918D01*
X141137188Y-104569918D01*
X141164531Y-104584715D01*
X141164545Y-104584721D01*
X141392207Y-104662879D01*
X141629642Y-104702500D01*
X141870358Y-104702500D01*
X142107792Y-104662879D01*
X142335458Y-104584720D01*
X142362810Y-104569917D01*
X141750001Y-103957107D01*
X141750000Y-103957107D01*
X141137188Y-104569918D01*
X124707147Y-104569918D01*
X124655915Y-104489191D01*
X123849571Y-105295534D01*
X123767387Y-105134240D01*
X123637860Y-104955961D01*
X123482039Y-104800140D01*
X123303760Y-104670613D01*
X123142464Y-104588428D01*
X123950251Y-103780641D01*
X123950250Y-103780639D01*
X123912227Y-103753014D01*
X123912209Y-103753003D01*
X123636552Y-103601459D01*
X123636544Y-103601455D01*
X123344073Y-103485659D01*
X123039379Y-103407426D01*
X123039370Y-103407424D01*
X122727298Y-103368000D01*
X122412701Y-103368000D01*
X122100629Y-103407424D01*
X122100620Y-103407426D01*
X121795926Y-103485659D01*
X121503455Y-103601455D01*
X121503447Y-103601459D01*
X121227787Y-103753004D01*
X121227784Y-103753006D01*
X121189748Y-103780640D01*
X121189748Y-103780641D01*
X121997535Y-104588428D01*
X121836240Y-104670613D01*
X121657961Y-104800140D01*
X121502140Y-104955961D01*
X121372613Y-105134240D01*
X121290428Y-105295535D01*
X120484083Y-104489190D01*
X120374903Y-104661232D01*
X120374900Y-104661238D01*
X120240965Y-104945862D01*
X120240963Y-104945867D01*
X120143755Y-105245041D01*
X120084808Y-105554050D01*
X120084807Y-105554057D01*
X120065057Y-105867994D01*
X90374943Y-105867994D01*
X90355192Y-105554057D01*
X90355191Y-105554050D01*
X90296244Y-105245041D01*
X90199036Y-104945867D01*
X90199034Y-104945862D01*
X90065099Y-104661237D01*
X90065091Y-104661222D01*
X89955915Y-104489191D01*
X89149571Y-105295534D01*
X89067387Y-105134240D01*
X88937860Y-104955961D01*
X88782039Y-104800140D01*
X88603760Y-104670613D01*
X88442464Y-104588428D01*
X89250251Y-103780641D01*
X89250250Y-103780639D01*
X89212227Y-103753014D01*
X89212209Y-103753003D01*
X88936552Y-103601459D01*
X88936544Y-103601455D01*
X88644073Y-103485659D01*
X88339379Y-103407426D01*
X88339370Y-103407424D01*
X88027298Y-103368000D01*
X87712701Y-103368000D01*
X87400629Y-103407424D01*
X87400620Y-103407426D01*
X87095926Y-103485659D01*
X86803455Y-103601455D01*
X86803447Y-103601459D01*
X86527787Y-103753004D01*
X86527784Y-103753006D01*
X86489748Y-103780640D01*
X86489748Y-103780641D01*
X87297535Y-104588428D01*
X87136240Y-104670613D01*
X86957961Y-104800140D01*
X86802140Y-104955961D01*
X86672613Y-105134240D01*
X86590428Y-105295535D01*
X85784083Y-104489190D01*
X85674903Y-104661232D01*
X85674900Y-104661238D01*
X85540965Y-104945862D01*
X85540963Y-104945867D01*
X85443755Y-105245041D01*
X85384808Y-105554050D01*
X85384807Y-105554057D01*
X85365057Y-105867994D01*
X65645807Y-105867994D01*
X65583098Y-105625796D01*
X65556526Y-105554050D01*
X65450983Y-105269074D01*
X65450977Y-105269059D01*
X65283451Y-104927536D01*
X65283446Y-104927527D01*
X65117466Y-104661238D01*
X65082229Y-104604705D01*
X64849380Y-104303888D01*
X64587291Y-104028171D01*
X64587290Y-104028170D01*
X64298656Y-103780385D01*
X63986429Y-103563069D01*
X63986424Y-103563066D01*
X63653820Y-103378456D01*
X63304233Y-103228437D01*
X62941290Y-103114563D01*
X62941284Y-103114562D01*
X62941281Y-103114561D01*
X62941280Y-103114561D01*
X62568660Y-103037985D01*
X62568659Y-103037984D01*
X62568655Y-103037984D01*
X62190205Y-102999500D01*
X62190204Y-102999500D01*
X61809796Y-102999500D01*
X61809795Y-102999500D01*
X61431344Y-103037984D01*
X61058715Y-103114562D01*
X61058709Y-103114563D01*
X60695766Y-103228437D01*
X60346179Y-103378456D01*
X60013575Y-103563066D01*
X60013570Y-103563069D01*
X59701343Y-103780385D01*
X59412709Y-104028170D01*
X59150615Y-104303893D01*
X58917771Y-104604704D01*
X58716553Y-104927527D01*
X58716548Y-104927536D01*
X58549022Y-105269059D01*
X58549016Y-105269074D01*
X58416904Y-105625787D01*
X58321551Y-105994064D01*
X58263946Y-106370081D01*
X58244680Y-106750000D01*
X53155320Y-106750000D01*
X53136053Y-106370081D01*
X53078448Y-105994060D01*
X52983098Y-105625796D01*
X52956526Y-105554050D01*
X52850983Y-105269074D01*
X52850977Y-105269059D01*
X52683451Y-104927536D01*
X52683446Y-104927527D01*
X52517466Y-104661238D01*
X52482229Y-104604705D01*
X52249380Y-104303888D01*
X51987291Y-104028171D01*
X51987290Y-104028170D01*
X51698656Y-103780385D01*
X51386429Y-103563069D01*
X51386424Y-103563066D01*
X51053820Y-103378456D01*
X50704233Y-103228437D01*
X50341290Y-103114563D01*
X50341284Y-103114562D01*
X50341281Y-103114561D01*
X50341280Y-103114561D01*
X49968660Y-103037985D01*
X49968659Y-103037984D01*
X49968655Y-103037984D01*
X49590205Y-102999500D01*
X49590204Y-102999500D01*
X49209796Y-102999500D01*
X49209795Y-102999500D01*
X48831344Y-103037984D01*
X48458715Y-103114562D01*
X48458709Y-103114563D01*
X48095766Y-103228437D01*
X47746179Y-103378456D01*
X47413575Y-103563066D01*
X47413570Y-103563069D01*
X47101343Y-103780385D01*
X46812709Y-104028170D01*
X46550615Y-104303893D01*
X46317771Y-104604704D01*
X46116553Y-104927527D01*
X46116548Y-104927536D01*
X45949022Y-105269059D01*
X45949016Y-105269074D01*
X45816904Y-105625787D01*
X45721551Y-105994064D01*
X45663946Y-106370081D01*
X45644680Y-106750000D01*
X45000500Y-106750000D01*
X45000500Y-99250000D01*
X75944564Y-99250000D01*
X75959618Y-99479690D01*
X75964287Y-99550918D01*
X75964288Y-99550930D01*
X76023118Y-99846683D01*
X76023123Y-99846703D01*
X76104062Y-100085142D01*
X76106971Y-100154951D01*
X76104062Y-100164858D01*
X76023123Y-100403296D01*
X76023118Y-100403316D01*
X75964288Y-100699069D01*
X75964287Y-100699081D01*
X75944564Y-101000000D01*
X75964287Y-101300918D01*
X75964288Y-101300930D01*
X76023118Y-101596683D01*
X76023122Y-101596698D01*
X76120053Y-101882247D01*
X76120062Y-101882268D01*
X76253431Y-102152713D01*
X76253435Y-102152720D01*
X76420973Y-102403459D01*
X76619810Y-102630189D01*
X76846540Y-102829026D01*
X77097279Y-102996564D01*
X77097286Y-102996568D01*
X77367731Y-103129937D01*
X77367736Y-103129939D01*
X77367748Y-103129945D01*
X77653309Y-103226880D01*
X77853251Y-103266651D01*
X77949069Y-103285711D01*
X77949070Y-103285711D01*
X77949080Y-103285713D01*
X78250000Y-103305436D01*
X78550920Y-103285713D01*
X78730490Y-103249994D01*
X140292522Y-103249994D01*
X140292522Y-103250005D01*
X140312399Y-103489889D01*
X140371491Y-103723240D01*
X140431910Y-103860982D01*
X141042893Y-103250000D01*
X141042893Y-103249999D01*
X140974098Y-103181204D01*
X141051500Y-103181204D01*
X141051500Y-103318796D01*
X141078343Y-103453745D01*
X141130997Y-103580864D01*
X141207439Y-103695268D01*
X141304732Y-103792561D01*
X141419136Y-103869003D01*
X141546255Y-103921657D01*
X141681204Y-103948500D01*
X141818796Y-103948500D01*
X141953745Y-103921657D01*
X142080864Y-103869003D01*
X142195268Y-103792561D01*
X142292561Y-103695268D01*
X142369003Y-103580864D01*
X142421657Y-103453745D01*
X142448500Y-103318796D01*
X142448500Y-103249999D01*
X142457107Y-103249999D01*
X142457107Y-103250001D01*
X143068088Y-103860982D01*
X143128508Y-103723239D01*
X143187600Y-103489889D01*
X143207478Y-103250005D01*
X143207478Y-103249994D01*
X143187600Y-103010110D01*
X143128507Y-102776757D01*
X143068089Y-102639017D01*
X143068088Y-102639016D01*
X142457107Y-103249999D01*
X142448500Y-103249999D01*
X142448500Y-103181204D01*
X142421657Y-103046255D01*
X142369003Y-102919136D01*
X142292561Y-102804732D01*
X142195268Y-102707439D01*
X142080864Y-102630997D01*
X141953745Y-102578343D01*
X141818796Y-102551500D01*
X141681204Y-102551500D01*
X141546255Y-102578343D01*
X141419136Y-102630997D01*
X141304732Y-102707439D01*
X141207439Y-102804732D01*
X141130997Y-102919136D01*
X141078343Y-103046255D01*
X141051500Y-103181204D01*
X140974098Y-103181204D01*
X140431910Y-102639017D01*
X140371491Y-102776759D01*
X140312399Y-103010110D01*
X140292522Y-103249994D01*
X78730490Y-103249994D01*
X78846691Y-103226880D01*
X79132252Y-103129945D01*
X79402718Y-102996566D01*
X79653461Y-102829025D01*
X79880189Y-102630189D01*
X80079025Y-102403461D01*
X80246566Y-102152718D01*
X80356359Y-101930080D01*
X141137188Y-101930080D01*
X141137188Y-101930081D01*
X141750000Y-102542893D01*
X141750001Y-102542893D01*
X142362811Y-101930081D01*
X142335469Y-101915284D01*
X142335456Y-101915279D01*
X142107790Y-101837119D01*
X141870358Y-101797500D01*
X141629642Y-101797500D01*
X141392209Y-101837119D01*
X141164534Y-101915282D01*
X141137188Y-101930080D01*
X80356359Y-101930080D01*
X80379945Y-101882252D01*
X80476880Y-101596691D01*
X80535713Y-101300920D01*
X80555436Y-101000000D01*
X80535713Y-100699080D01*
X80476880Y-100403309D01*
X80395935Y-100164857D01*
X80393026Y-100095050D01*
X80395936Y-100085141D01*
X80476880Y-99846691D01*
X80535713Y-99550920D01*
X80555436Y-99250000D01*
X80535713Y-98949080D01*
X80476880Y-98653309D01*
X80379945Y-98367748D01*
X80246566Y-98097282D01*
X80159017Y-97966255D01*
X80079026Y-97846540D01*
X79880189Y-97619810D01*
X79653459Y-97420973D01*
X79402720Y-97253435D01*
X79402713Y-97253431D01*
X79132268Y-97120062D01*
X79132247Y-97120053D01*
X78846698Y-97023122D01*
X78846692Y-97023120D01*
X78846691Y-97023120D01*
X78846689Y-97023119D01*
X78846683Y-97023118D01*
X78730463Y-97000000D01*
X105194564Y-97000000D01*
X105211174Y-97253431D01*
X105214287Y-97300918D01*
X105214288Y-97300930D01*
X105273118Y-97596683D01*
X105273122Y-97596698D01*
X105370053Y-97882247D01*
X105370062Y-97882268D01*
X105503431Y-98152713D01*
X105503435Y-98152720D01*
X105670973Y-98403459D01*
X105869810Y-98630189D01*
X106096540Y-98829026D01*
X106347279Y-98996564D01*
X106347286Y-98996568D01*
X106617731Y-99129937D01*
X106617736Y-99129939D01*
X106617748Y-99129945D01*
X106903309Y-99226880D01*
X107103251Y-99266651D01*
X107199069Y-99285711D01*
X107199070Y-99285711D01*
X107199080Y-99285713D01*
X107500000Y-99305436D01*
X107800920Y-99285713D01*
X108096691Y-99226880D01*
X108382252Y-99129945D01*
X108652718Y-98996566D01*
X108903461Y-98829025D01*
X109130189Y-98630189D01*
X109329025Y-98403461D01*
X109496566Y-98152718D01*
X109629945Y-97882252D01*
X109726880Y-97596691D01*
X109785713Y-97300920D01*
X109805436Y-97000000D01*
X109785713Y-96699080D01*
X109726880Y-96403309D01*
X109629945Y-96117748D01*
X109496566Y-95847282D01*
X109329025Y-95596539D01*
X109130189Y-95369810D01*
X108903459Y-95170973D01*
X108652720Y-95003435D01*
X108652713Y-95003431D01*
X108382268Y-94870062D01*
X108382247Y-94870053D01*
X108096698Y-94773122D01*
X108096692Y-94773120D01*
X108096691Y-94773120D01*
X108096689Y-94773119D01*
X108096683Y-94773118D01*
X107800930Y-94714288D01*
X107800921Y-94714287D01*
X107800920Y-94714287D01*
X107500000Y-94694564D01*
X107199080Y-94714287D01*
X107199079Y-94714287D01*
X107199069Y-94714288D01*
X106903316Y-94773118D01*
X106903301Y-94773122D01*
X106617752Y-94870053D01*
X106617731Y-94870062D01*
X106347286Y-95003431D01*
X106347279Y-95003435D01*
X106096540Y-95170973D01*
X105869810Y-95369810D01*
X105670973Y-95596540D01*
X105503435Y-95847279D01*
X105503431Y-95847286D01*
X105370062Y-96117731D01*
X105370053Y-96117752D01*
X105273122Y-96403301D01*
X105273118Y-96403316D01*
X105214288Y-96699069D01*
X105214287Y-96699079D01*
X105214287Y-96699080D01*
X105194564Y-97000000D01*
X78730463Y-97000000D01*
X78550930Y-96964288D01*
X78550921Y-96964287D01*
X78550920Y-96964287D01*
X78250000Y-96944564D01*
X77949080Y-96964287D01*
X77949079Y-96964287D01*
X77949069Y-96964288D01*
X77653316Y-97023118D01*
X77653301Y-97023122D01*
X77367752Y-97120053D01*
X77367731Y-97120062D01*
X77097286Y-97253431D01*
X77097279Y-97253435D01*
X76846540Y-97420973D01*
X76619810Y-97619810D01*
X76420973Y-97846540D01*
X76253435Y-98097279D01*
X76253431Y-98097286D01*
X76120062Y-98367731D01*
X76120053Y-98367752D01*
X76023122Y-98653301D01*
X76023118Y-98653316D01*
X75964288Y-98949069D01*
X75964287Y-98949079D01*
X75964287Y-98949080D01*
X75944564Y-99250000D01*
X45000500Y-99250000D01*
X45000500Y-91399997D01*
X79114726Y-91399997D01*
X79114726Y-91400002D01*
X79133808Y-91751954D01*
X79154790Y-91879937D01*
X79180327Y-92035712D01*
X79190833Y-92099793D01*
X79190834Y-92099796D01*
X79285126Y-92439408D01*
X79285127Y-92439410D01*
X79415588Y-92766844D01*
X79415597Y-92766862D01*
X79580695Y-93078269D01*
X79778498Y-93370006D01*
X79778505Y-93370016D01*
X80006685Y-93638649D01*
X80006686Y-93638650D01*
X80262580Y-93881046D01*
X80543182Y-94094354D01*
X80845202Y-94276074D01*
X80845206Y-94276075D01*
X80845210Y-94276078D01*
X81165088Y-94424070D01*
X81165092Y-94424070D01*
X81165099Y-94424074D01*
X81499122Y-94536619D01*
X81843355Y-94612391D01*
X82193763Y-94650500D01*
X82193769Y-94650500D01*
X82546231Y-94650500D01*
X82546237Y-94650500D01*
X82896645Y-94612391D01*
X83240878Y-94536619D01*
X83574901Y-94424074D01*
X83574908Y-94424070D01*
X83574911Y-94424070D01*
X83894789Y-94276078D01*
X83894798Y-94276074D01*
X84196818Y-94094354D01*
X84477420Y-93881046D01*
X84733314Y-93638650D01*
X84961501Y-93370008D01*
X85159305Y-93078269D01*
X85324407Y-92766854D01*
X85454871Y-92439414D01*
X85549168Y-92099788D01*
X85606191Y-91751957D01*
X85625274Y-91400000D01*
X85606191Y-91048043D01*
X85549168Y-90700212D01*
X85478208Y-90444637D01*
X85454873Y-90360591D01*
X85454872Y-90360589D01*
X85449337Y-90346698D01*
X85409441Y-90246566D01*
X85324411Y-90033155D01*
X85324402Y-90033137D01*
X85183835Y-89768000D01*
X85174292Y-89750000D01*
X104444564Y-89750000D01*
X104463121Y-90033137D01*
X104464287Y-90050918D01*
X104464288Y-90050930D01*
X104523118Y-90346683D01*
X104523122Y-90346698D01*
X104620053Y-90632247D01*
X104620055Y-90632252D01*
X104620056Y-90632254D01*
X104620062Y-90632268D01*
X104753431Y-90902713D01*
X104753435Y-90902720D01*
X104920973Y-91153459D01*
X105119810Y-91380189D01*
X105346540Y-91579026D01*
X105597279Y-91746564D01*
X105597286Y-91746568D01*
X105867731Y-91879937D01*
X105867736Y-91879939D01*
X105867748Y-91879945D01*
X106153309Y-91976880D01*
X106353251Y-92016651D01*
X106449069Y-92035711D01*
X106449070Y-92035711D01*
X106449080Y-92035713D01*
X106750000Y-92055436D01*
X107050920Y-92035713D01*
X107225809Y-92000925D01*
X107274191Y-92000925D01*
X107449080Y-92035713D01*
X107750000Y-92055436D01*
X108050920Y-92035713D01*
X108346691Y-91976880D01*
X108632252Y-91879945D01*
X108902718Y-91746566D01*
X109153461Y-91579025D01*
X109380189Y-91380189D01*
X109579025Y-91153461D01*
X109746566Y-90902718D01*
X109879945Y-90632252D01*
X109924230Y-90501789D01*
X109964418Y-90444637D01*
X110001788Y-90424231D01*
X110132252Y-90379945D01*
X110402718Y-90246566D01*
X110653461Y-90079025D01*
X110880189Y-89880189D01*
X111079025Y-89653461D01*
X111246566Y-89402718D01*
X111379945Y-89132252D01*
X111476880Y-88846691D01*
X111535713Y-88550920D01*
X111555436Y-88250000D01*
X111535713Y-87949080D01*
X111476880Y-87653309D01*
X111379945Y-87367748D01*
X111335540Y-87277704D01*
X111246568Y-87097286D01*
X111246564Y-87097279D01*
X111079026Y-86846540D01*
X110880189Y-86619810D01*
X110653459Y-86420973D01*
X110402720Y-86253435D01*
X110402713Y-86253431D01*
X110132268Y-86120062D01*
X110132247Y-86120053D01*
X109846698Y-86023122D01*
X109846692Y-86023120D01*
X109846691Y-86023120D01*
X109846689Y-86023119D01*
X109846683Y-86023118D01*
X109550930Y-85964288D01*
X109550921Y-85964287D01*
X109550920Y-85964287D01*
X109250000Y-85944564D01*
X108949080Y-85964287D01*
X108949079Y-85964287D01*
X108949069Y-85964288D01*
X108653316Y-86023118D01*
X108653301Y-86023122D01*
X108367752Y-86120053D01*
X108367731Y-86120062D01*
X108097286Y-86253431D01*
X108097279Y-86253435D01*
X107846540Y-86420973D01*
X107619810Y-86619810D01*
X107420973Y-86846540D01*
X107253435Y-87097279D01*
X107253431Y-87097286D01*
X107120056Y-87367744D01*
X107117076Y-87376523D01*
X107076885Y-87433676D01*
X107012175Y-87460028D01*
X106991552Y-87460395D01*
X106750000Y-87444564D01*
X106449080Y-87464287D01*
X106449079Y-87464287D01*
X106449069Y-87464288D01*
X106153316Y-87523118D01*
X106153301Y-87523122D01*
X105867752Y-87620053D01*
X105867731Y-87620062D01*
X105597286Y-87753431D01*
X105597279Y-87753435D01*
X105346540Y-87920973D01*
X105119810Y-88119810D01*
X104920973Y-88346540D01*
X104753435Y-88597279D01*
X104753431Y-88597286D01*
X104620062Y-88867731D01*
X104620053Y-88867752D01*
X104523122Y-89153301D01*
X104523118Y-89153316D01*
X104464288Y-89449069D01*
X104464287Y-89449079D01*
X104464287Y-89449080D01*
X104444564Y-89750000D01*
X85174292Y-89750000D01*
X85159305Y-89721731D01*
X84961501Y-89429992D01*
X84961497Y-89429987D01*
X84961494Y-89429983D01*
X84733314Y-89161350D01*
X84724817Y-89153301D01*
X84477420Y-88918954D01*
X84477413Y-88918948D01*
X84477410Y-88918946D01*
X84274167Y-88764445D01*
X84196818Y-88705646D01*
X84196815Y-88705644D01*
X83894802Y-88523928D01*
X83894789Y-88523921D01*
X83574911Y-88375929D01*
X83574906Y-88375928D01*
X83574903Y-88375927D01*
X83574901Y-88375926D01*
X83446127Y-88332537D01*
X83240880Y-88263381D01*
X82896643Y-88187608D01*
X82546238Y-88149500D01*
X82546237Y-88149500D01*
X82193763Y-88149500D01*
X82193761Y-88149500D01*
X81843356Y-88187608D01*
X81499119Y-88263381D01*
X81165093Y-88375928D01*
X81165088Y-88375929D01*
X80845210Y-88523921D01*
X80845197Y-88523928D01*
X80543184Y-88705644D01*
X80262589Y-88918946D01*
X80262580Y-88918954D01*
X80006685Y-89161350D01*
X79778505Y-89429983D01*
X79778498Y-89429993D01*
X79580695Y-89721730D01*
X79415597Y-90033137D01*
X79415588Y-90033155D01*
X79285127Y-90360589D01*
X79285126Y-90360591D01*
X79190834Y-90700203D01*
X79190833Y-90700206D01*
X79133808Y-91048045D01*
X79114726Y-91399997D01*
X45000500Y-91399997D01*
X45000500Y-86061049D01*
X50742000Y-86061049D01*
X50742000Y-87838950D01*
X50757304Y-88052933D01*
X50818128Y-88332537D01*
X50818130Y-88332543D01*
X50818131Y-88332546D01*
X50889512Y-88523926D01*
X50918135Y-88600666D01*
X51055270Y-88851809D01*
X51055275Y-88851817D01*
X51226754Y-89080887D01*
X51226770Y-89080905D01*
X51429094Y-89283229D01*
X51429112Y-89283245D01*
X51658182Y-89454724D01*
X51658190Y-89454729D01*
X51909333Y-89591864D01*
X51909332Y-89591864D01*
X51909336Y-89591865D01*
X51909339Y-89591867D01*
X52177454Y-89691869D01*
X52177460Y-89691870D01*
X52177462Y-89691871D01*
X52457066Y-89752695D01*
X52457068Y-89752695D01*
X52457072Y-89752696D01*
X52671052Y-89768000D01*
X54448948Y-89768000D01*
X54662928Y-89752696D01*
X54675322Y-89750000D01*
X54942537Y-89691871D01*
X54942537Y-89691870D01*
X54942546Y-89691869D01*
X55210661Y-89591867D01*
X55461815Y-89454726D01*
X55690895Y-89283239D01*
X55893239Y-89080895D01*
X56064726Y-88851815D01*
X56201867Y-88600661D01*
X56301869Y-88332546D01*
X56362696Y-88052928D01*
X56378000Y-87838948D01*
X56378000Y-86949996D01*
X60897224Y-86949996D01*
X60897224Y-86950003D01*
X60916311Y-87277704D01*
X60916312Y-87277715D01*
X60973309Y-87600968D01*
X60973312Y-87600978D01*
X61067458Y-87915447D01*
X61197471Y-88216851D01*
X61197477Y-88216864D01*
X61361605Y-88501142D01*
X61557624Y-88764441D01*
X61557629Y-88764447D01*
X61640057Y-88851815D01*
X61782894Y-89003213D01*
X61782900Y-89003218D01*
X61782902Y-89003220D01*
X62034352Y-89214212D01*
X62034360Y-89214218D01*
X62308608Y-89394594D01*
X62601948Y-89541914D01*
X62601949Y-89541915D01*
X62601952Y-89541916D01*
X62601956Y-89541918D01*
X62910419Y-89654190D01*
X62910425Y-89654191D01*
X62910427Y-89654192D01*
X63229814Y-89729889D01*
X63229821Y-89729890D01*
X63229830Y-89729892D01*
X63555870Y-89768000D01*
X63555877Y-89768000D01*
X63884123Y-89768000D01*
X63884130Y-89768000D01*
X64210170Y-89729892D01*
X64210179Y-89729889D01*
X64210185Y-89729889D01*
X64467819Y-89668827D01*
X64529581Y-89654190D01*
X64838044Y-89541918D01*
X65131388Y-89394596D01*
X65405645Y-89214214D01*
X65657106Y-89003213D01*
X65882372Y-88764445D01*
X66078395Y-88501141D01*
X66242525Y-88216860D01*
X66372542Y-87915446D01*
X66466688Y-87600977D01*
X66480417Y-87523118D01*
X66523687Y-87277715D01*
X66523686Y-87277715D01*
X66523689Y-87277704D01*
X66542776Y-86950000D01*
X66523689Y-86622296D01*
X66518762Y-86594354D01*
X66466690Y-86299031D01*
X66466687Y-86299021D01*
X66453040Y-86253435D01*
X66372542Y-85984554D01*
X66242525Y-85683140D01*
X66078395Y-85398859D01*
X66078394Y-85398857D01*
X65882375Y-85135558D01*
X65882370Y-85135552D01*
X65773447Y-85020101D01*
X65657106Y-84896787D01*
X65657099Y-84896781D01*
X65657097Y-84896779D01*
X65405647Y-84685787D01*
X65405639Y-84685781D01*
X65131391Y-84505405D01*
X64838051Y-84358085D01*
X64838050Y-84358084D01*
X64529587Y-84245812D01*
X64529572Y-84245807D01*
X64210185Y-84170110D01*
X64210170Y-84170108D01*
X63884130Y-84132000D01*
X63555870Y-84132000D01*
X63270585Y-84165344D01*
X63229829Y-84170108D01*
X63229814Y-84170110D01*
X62910427Y-84245807D01*
X62910412Y-84245812D01*
X62601949Y-84358084D01*
X62601948Y-84358085D01*
X62308608Y-84505405D01*
X62034360Y-84685781D01*
X62034352Y-84685787D01*
X61782902Y-84896779D01*
X61782892Y-84896789D01*
X61557629Y-85135552D01*
X61557624Y-85135558D01*
X61361605Y-85398857D01*
X61197477Y-85683135D01*
X61197471Y-85683148D01*
X61067458Y-85984552D01*
X60973312Y-86299021D01*
X60973309Y-86299031D01*
X60916312Y-86622284D01*
X60916311Y-86622295D01*
X60897224Y-86949996D01*
X56378000Y-86949996D01*
X56378000Y-86061052D01*
X56362696Y-85847072D01*
X56301869Y-85567454D01*
X56201867Y-85299339D01*
X56184123Y-85266844D01*
X56064729Y-85048190D01*
X56064724Y-85048182D01*
X55893245Y-84819112D01*
X55893229Y-84819094D01*
X55690905Y-84616770D01*
X55690887Y-84616754D01*
X55461817Y-84445275D01*
X55461809Y-84445270D01*
X55210666Y-84308135D01*
X55210667Y-84308135D01*
X55103415Y-84268132D01*
X54942546Y-84208131D01*
X54942543Y-84208130D01*
X54942537Y-84208128D01*
X54662933Y-84147304D01*
X54448950Y-84132000D01*
X54448948Y-84132000D01*
X52671052Y-84132000D01*
X52671049Y-84132000D01*
X52457066Y-84147304D01*
X52177462Y-84208128D01*
X51909333Y-84308135D01*
X51658190Y-84445270D01*
X51658182Y-84445275D01*
X51429112Y-84616754D01*
X51429094Y-84616770D01*
X51226770Y-84819094D01*
X51226754Y-84819112D01*
X51055275Y-85048182D01*
X51055270Y-85048190D01*
X50918135Y-85299333D01*
X50818128Y-85567462D01*
X50757304Y-85847066D01*
X50742000Y-86061049D01*
X45000500Y-86061049D01*
X45000500Y-83899997D01*
X79114726Y-83899997D01*
X79114726Y-83900002D01*
X79133808Y-84251954D01*
X79190833Y-84599793D01*
X79190834Y-84599796D01*
X79285126Y-84939408D01*
X79285127Y-84939410D01*
X79415588Y-85266844D01*
X79415597Y-85266862D01*
X79580695Y-85578269D01*
X79778498Y-85870006D01*
X79778505Y-85870016D01*
X79990891Y-86120055D01*
X80006686Y-86138650D01*
X80262580Y-86381046D01*
X80543182Y-86594354D01*
X80845202Y-86776074D01*
X80845206Y-86776075D01*
X80845210Y-86776078D01*
X81165088Y-86924070D01*
X81165092Y-86924070D01*
X81165099Y-86924074D01*
X81499122Y-87036619D01*
X81843355Y-87112391D01*
X82193763Y-87150500D01*
X82193769Y-87150500D01*
X82546231Y-87150500D01*
X82546237Y-87150500D01*
X82896645Y-87112391D01*
X83240878Y-87036619D01*
X83574901Y-86924074D01*
X83574908Y-86924070D01*
X83574911Y-86924070D01*
X83894789Y-86776078D01*
X83894798Y-86776074D01*
X84196818Y-86594354D01*
X84477420Y-86381046D01*
X84733314Y-86138650D01*
X84961501Y-85870008D01*
X85159305Y-85578269D01*
X85324407Y-85266854D01*
X85454871Y-84939414D01*
X85466707Y-84896787D01*
X85525290Y-84685787D01*
X85549168Y-84599788D01*
X85606191Y-84251957D01*
X85625274Y-83900000D01*
X85606191Y-83548043D01*
X85549168Y-83200212D01*
X85506704Y-83047271D01*
X85454873Y-82860591D01*
X85454872Y-82860589D01*
X85324411Y-82533155D01*
X85324402Y-82533137D01*
X85159304Y-82221730D01*
X84961501Y-81929992D01*
X84961497Y-81929987D01*
X84961494Y-81929983D01*
X84733314Y-81661350D01*
X84477420Y-81418954D01*
X84477413Y-81418948D01*
X84477410Y-81418946D01*
X84196815Y-81205644D01*
X83894802Y-81023928D01*
X83894789Y-81023921D01*
X83574911Y-80875929D01*
X83574906Y-80875928D01*
X83574903Y-80875927D01*
X83574901Y-80875926D01*
X83468432Y-80840052D01*
X83240880Y-80763381D01*
X82896643Y-80687608D01*
X82546238Y-80649500D01*
X82546237Y-80649500D01*
X82193763Y-80649500D01*
X82193761Y-80649500D01*
X81843356Y-80687608D01*
X81499119Y-80763381D01*
X81165093Y-80875928D01*
X81165088Y-80875929D01*
X80845210Y-81023921D01*
X80845197Y-81023928D01*
X80543184Y-81205644D01*
X80262589Y-81418946D01*
X80262580Y-81418954D01*
X80006685Y-81661350D01*
X79778505Y-81929983D01*
X79778498Y-81929993D01*
X79580695Y-82221730D01*
X79415597Y-82533137D01*
X79415588Y-82533155D01*
X79285127Y-82860589D01*
X79285126Y-82860591D01*
X79190834Y-83200203D01*
X79190833Y-83200206D01*
X79133808Y-83548045D01*
X79114726Y-83899997D01*
X45000500Y-83899997D01*
X45000500Y-74250000D01*
X46259717Y-74250000D01*
X46278837Y-74614834D01*
X46335988Y-74975671D01*
X46405192Y-75233944D01*
X46430546Y-75328564D01*
X46561469Y-75669629D01*
X46727328Y-75995146D01*
X46926296Y-76301530D01*
X46926298Y-76301532D01*
X46926301Y-76301536D01*
X46926302Y-76301537D01*
X47156214Y-76585455D01*
X47414545Y-76843786D01*
X47414549Y-76843789D01*
X47698467Y-77073701D01*
X47698469Y-77073703D01*
X48004853Y-77272671D01*
X48004858Y-77272674D01*
X48330374Y-77438532D01*
X48671443Y-77569456D01*
X49024329Y-77664012D01*
X49385166Y-77721163D01*
X49729821Y-77739225D01*
X49749999Y-77740283D01*
X49750000Y-77740283D01*
X49750001Y-77740283D01*
X49769121Y-77739280D01*
X50114834Y-77721163D01*
X50475671Y-77664012D01*
X50828557Y-77569456D01*
X51169626Y-77438532D01*
X51495142Y-77272674D01*
X51708323Y-77134232D01*
X51801530Y-77073703D01*
X51801532Y-77073701D01*
X51801537Y-77073698D01*
X52085455Y-76843786D01*
X52343786Y-76585455D01*
X52493967Y-76399997D01*
X79114726Y-76399997D01*
X79114726Y-76400002D01*
X79133808Y-76751954D01*
X79190833Y-77099793D01*
X79190834Y-77099796D01*
X79285126Y-77439408D01*
X79285127Y-77439410D01*
X79415588Y-77766844D01*
X79415597Y-77766862D01*
X79580695Y-78078269D01*
X79778498Y-78370006D01*
X79778505Y-78370016D01*
X80006685Y-78638649D01*
X80006686Y-78638650D01*
X80262580Y-78881046D01*
X80543182Y-79094354D01*
X80845202Y-79276074D01*
X80845206Y-79276075D01*
X80845210Y-79276078D01*
X81165088Y-79424070D01*
X81165092Y-79424070D01*
X81165099Y-79424074D01*
X81499122Y-79536619D01*
X81843355Y-79612391D01*
X82193763Y-79650500D01*
X82193769Y-79650500D01*
X82546231Y-79650500D01*
X82546237Y-79650500D01*
X82896645Y-79612391D01*
X83240878Y-79536619D01*
X83574901Y-79424074D01*
X83574908Y-79424070D01*
X83574911Y-79424070D01*
X83894789Y-79276078D01*
X83894798Y-79276074D01*
X84196818Y-79094354D01*
X84477420Y-78881046D01*
X84733314Y-78638650D01*
X84961501Y-78370008D01*
X85159305Y-78078269D01*
X85324407Y-77766854D01*
X85454871Y-77439414D01*
X85455117Y-77438530D01*
X85501167Y-77272671D01*
X85549168Y-77099788D01*
X85606191Y-76751957D01*
X85625274Y-76400000D01*
X85606191Y-76048043D01*
X85549168Y-75700212D01*
X85506704Y-75547271D01*
X85454873Y-75360591D01*
X85454872Y-75360589D01*
X85324411Y-75033155D01*
X85324402Y-75033137D01*
X85159305Y-74721731D01*
X84961501Y-74429992D01*
X84961497Y-74429987D01*
X84961494Y-74429983D01*
X84733314Y-74161350D01*
X84648456Y-74080968D01*
X84477420Y-73918954D01*
X84477413Y-73918948D01*
X84477410Y-73918946D01*
X84196815Y-73705644D01*
X83894802Y-73523928D01*
X83894789Y-73523921D01*
X83574911Y-73375929D01*
X83574906Y-73375928D01*
X83574903Y-73375927D01*
X83574901Y-73375926D01*
X83468432Y-73340052D01*
X83240880Y-73263381D01*
X82896643Y-73187608D01*
X82546238Y-73149500D01*
X82546237Y-73149500D01*
X82193763Y-73149500D01*
X82193761Y-73149500D01*
X81843356Y-73187608D01*
X81499119Y-73263381D01*
X81165093Y-73375928D01*
X81165088Y-73375929D01*
X80845210Y-73523921D01*
X80845197Y-73523928D01*
X80543184Y-73705644D01*
X80262589Y-73918946D01*
X80262580Y-73918954D01*
X80006685Y-74161350D01*
X79778505Y-74429983D01*
X79778498Y-74429993D01*
X79580695Y-74721730D01*
X79415597Y-75033137D01*
X79415588Y-75033155D01*
X79285127Y-75360589D01*
X79285126Y-75360591D01*
X79190834Y-75700203D01*
X79190833Y-75700206D01*
X79133808Y-76048045D01*
X79114726Y-76399997D01*
X52493967Y-76399997D01*
X52573698Y-76301537D01*
X52772674Y-75995142D01*
X52938532Y-75669626D01*
X53069456Y-75328557D01*
X53164012Y-74975671D01*
X53221163Y-74614834D01*
X53240283Y-74250000D01*
X53221163Y-73885166D01*
X53164012Y-73524329D01*
X53069456Y-73171443D01*
X52938532Y-72830374D01*
X52772674Y-72504859D01*
X52772671Y-72504854D01*
X52573699Y-72198464D01*
X52343789Y-71914549D01*
X52343786Y-71914545D01*
X52139240Y-71709999D01*
X63986644Y-71709999D01*
X63986644Y-71710000D01*
X64006055Y-72080383D01*
X64064074Y-72446699D01*
X64064074Y-72446701D01*
X64160070Y-72804964D01*
X64292984Y-73151216D01*
X64461366Y-73481682D01*
X64663363Y-73792730D01*
X64765577Y-73918954D01*
X64896773Y-74080968D01*
X65159032Y-74343227D01*
X65159036Y-74343230D01*
X65447269Y-74576636D01*
X65670696Y-74721731D01*
X65758322Y-74778636D01*
X66088787Y-74947017D01*
X66435043Y-75079932D01*
X66793295Y-75175925D01*
X67159618Y-75233945D01*
X67509514Y-75252282D01*
X67529999Y-75253356D01*
X67530000Y-75253356D01*
X67530001Y-75253356D01*
X67549412Y-75252338D01*
X67900382Y-75233945D01*
X68266705Y-75175925D01*
X68624957Y-75079932D01*
X68971213Y-74947017D01*
X69301678Y-74778636D01*
X69612732Y-74576635D01*
X69900968Y-74343227D01*
X70163227Y-74080968D01*
X70396635Y-73792732D01*
X70598636Y-73481678D01*
X70767017Y-73151213D01*
X70899932Y-72804957D01*
X70995925Y-72446705D01*
X71027080Y-72250000D01*
X120750000Y-72250000D01*
X120750000Y-99250000D01*
X132750000Y-99250000D01*
X132750000Y-99170344D01*
X140297500Y-99170344D01*
X140303901Y-99229872D01*
X140303903Y-99229879D01*
X140354145Y-99364586D01*
X140354149Y-99364593D01*
X140440309Y-99479687D01*
X140440312Y-99479690D01*
X140555406Y-99565850D01*
X140555413Y-99565854D01*
X140690120Y-99616096D01*
X140690127Y-99616098D01*
X140749655Y-99622499D01*
X140749672Y-99622500D01*
X141250000Y-99622500D01*
X142250000Y-99622500D01*
X142750328Y-99622500D01*
X142750344Y-99622499D01*
X142809872Y-99616098D01*
X142809879Y-99616096D01*
X142944586Y-99565854D01*
X142944593Y-99565850D01*
X143059687Y-99479690D01*
X143059690Y-99479687D01*
X143145850Y-99364593D01*
X143145854Y-99364586D01*
X143196096Y-99229879D01*
X143196098Y-99229872D01*
X143202499Y-99170344D01*
X143202500Y-99170327D01*
X143202500Y-98670000D01*
X142250000Y-98670000D01*
X142250000Y-99622500D01*
X141250000Y-99622500D01*
X141250000Y-98670000D01*
X140297500Y-98670000D01*
X140297500Y-99170344D01*
X132750000Y-99170344D01*
X132750000Y-98101204D01*
X141051500Y-98101204D01*
X141051500Y-98238796D01*
X141078343Y-98373745D01*
X141130997Y-98500864D01*
X141207439Y-98615268D01*
X141304732Y-98712561D01*
X141419136Y-98789003D01*
X141546255Y-98841657D01*
X141681204Y-98868500D01*
X141818796Y-98868500D01*
X141953745Y-98841657D01*
X142080864Y-98789003D01*
X142195268Y-98712561D01*
X142292561Y-98615268D01*
X142369003Y-98500864D01*
X142421657Y-98373745D01*
X142448500Y-98238796D01*
X142448500Y-98101204D01*
X142421657Y-97966255D01*
X142369003Y-97839136D01*
X142292561Y-97724732D01*
X142237829Y-97670000D01*
X142250000Y-97670000D01*
X143202500Y-97670000D01*
X143202500Y-97169672D01*
X143202499Y-97169655D01*
X143196098Y-97110127D01*
X143196096Y-97110120D01*
X143145854Y-96975413D01*
X143145850Y-96975406D01*
X143059690Y-96860312D01*
X143059687Y-96860309D01*
X142944593Y-96774149D01*
X142944586Y-96774145D01*
X142809879Y-96723903D01*
X142809872Y-96723901D01*
X142750344Y-96717500D01*
X142250000Y-96717500D01*
X142250000Y-97670000D01*
X142237829Y-97670000D01*
X142195268Y-97627439D01*
X142080864Y-97550997D01*
X141953745Y-97498343D01*
X141818796Y-97471500D01*
X141681204Y-97471500D01*
X141546255Y-97498343D01*
X141419136Y-97550997D01*
X141304732Y-97627439D01*
X141207439Y-97724732D01*
X141130997Y-97839136D01*
X141078343Y-97966255D01*
X141051500Y-98101204D01*
X132750000Y-98101204D01*
X132750000Y-97169655D01*
X140297500Y-97169655D01*
X140297500Y-97670000D01*
X141250000Y-97670000D01*
X141250000Y-96717500D01*
X140749655Y-96717500D01*
X140690127Y-96723901D01*
X140690120Y-96723903D01*
X140555413Y-96774145D01*
X140555406Y-96774149D01*
X140440312Y-96860309D01*
X140440309Y-96860312D01*
X140354149Y-96975406D01*
X140354145Y-96975413D01*
X140303903Y-97110120D01*
X140303901Y-97110127D01*
X140297500Y-97169655D01*
X132750000Y-97169655D01*
X132750000Y-79420611D01*
X132769685Y-79353572D01*
X132822489Y-79307817D01*
X132891647Y-79297873D01*
X132955203Y-79326898D01*
X132985211Y-79365765D01*
X133003434Y-79402718D01*
X133003435Y-79402719D01*
X133003435Y-79402720D01*
X133170973Y-79653459D01*
X133369810Y-79880189D01*
X133596540Y-80079026D01*
X133847279Y-80246564D01*
X133847286Y-80246568D01*
X134117731Y-80379937D01*
X134117736Y-80379939D01*
X134117748Y-80379945D01*
X134403309Y-80476880D01*
X134603251Y-80516651D01*
X134699069Y-80535711D01*
X134699070Y-80535711D01*
X134699080Y-80535713D01*
X135000000Y-80555436D01*
X135300920Y-80535713D01*
X135596691Y-80476880D01*
X135882252Y-80379945D01*
X136152718Y-80246566D01*
X136403461Y-80079025D01*
X136630189Y-79880189D01*
X136829025Y-79653461D01*
X136996566Y-79402718D01*
X137129945Y-79132252D01*
X137226880Y-78846691D01*
X137285713Y-78550920D01*
X137305436Y-78250000D01*
X137285713Y-77949080D01*
X137226880Y-77653309D01*
X137129945Y-77367748D01*
X136996566Y-77097282D01*
X136829025Y-76846539D01*
X136826607Y-76843782D01*
X136630189Y-76619810D01*
X136403459Y-76420973D01*
X136152720Y-76253435D01*
X136152713Y-76253431D01*
X135882268Y-76120062D01*
X135882247Y-76120053D01*
X135596698Y-76023122D01*
X135596692Y-76023120D01*
X135596691Y-76023120D01*
X135596689Y-76023119D01*
X135596683Y-76023118D01*
X135300930Y-75964288D01*
X135300921Y-75964287D01*
X135300920Y-75964287D01*
X135000000Y-75944564D01*
X134699080Y-75964287D01*
X134699079Y-75964287D01*
X134699069Y-75964288D01*
X134403316Y-76023118D01*
X134403301Y-76023122D01*
X134117752Y-76120053D01*
X134117731Y-76120062D01*
X133847286Y-76253431D01*
X133847279Y-76253435D01*
X133596540Y-76420973D01*
X133369810Y-76619810D01*
X133170973Y-76846540D01*
X133003435Y-77097279D01*
X133003431Y-77097286D01*
X132985212Y-77134232D01*
X132937906Y-77185652D01*
X132870311Y-77203333D01*
X132803887Y-77181663D01*
X132759723Y-77127521D01*
X132750000Y-77079388D01*
X132750000Y-72250000D01*
X129093422Y-72250000D01*
X129026383Y-72230315D01*
X128998916Y-72206278D01*
X128993316Y-72199685D01*
X128992026Y-72198463D01*
X128737420Y-71957287D01*
X128737413Y-71957281D01*
X128737410Y-71957279D01*
X128456815Y-71743977D01*
X128154802Y-71562261D01*
X128154789Y-71562254D01*
X127834911Y-71414262D01*
X127834906Y-71414261D01*
X127834903Y-71414260D01*
X127834901Y-71414259D01*
X127613368Y-71339616D01*
X127500882Y-71301715D01*
X127500879Y-71301714D01*
X127500878Y-71301714D01*
X127426490Y-71285339D01*
X127239788Y-71244243D01*
X127178548Y-71210607D01*
X127145214Y-71149201D01*
X127150370Y-71079522D01*
X127192379Y-71023692D01*
X127229897Y-71004650D01*
X127271146Y-70991926D01*
X127463739Y-70899179D01*
X126672893Y-70108333D01*
X126703869Y-70108333D01*
X126848767Y-70079511D01*
X126985258Y-70022974D01*
X127108097Y-69940896D01*
X127212563Y-69836430D01*
X127294641Y-69713591D01*
X127351178Y-69577100D01*
X127380000Y-69432202D01*
X127380000Y-69401227D01*
X128169907Y-70191134D01*
X128169908Y-70191134D01*
X128211116Y-70119759D01*
X128306941Y-69875603D01*
X128365306Y-69619883D01*
X128365307Y-69619878D01*
X128384907Y-69358337D01*
X128384907Y-69358328D01*
X128365307Y-69096787D01*
X128365306Y-69096782D01*
X128306941Y-68841062D01*
X128211116Y-68596906D01*
X128169907Y-68525530D01*
X127380000Y-69315438D01*
X127380000Y-69284464D01*
X127351178Y-69139566D01*
X127294641Y-69003075D01*
X127212563Y-68880236D01*
X127108097Y-68775770D01*
X126985258Y-68693692D01*
X126848767Y-68637155D01*
X126703869Y-68608333D01*
X126672893Y-68608333D01*
X127494907Y-67786319D01*
X127556230Y-67752834D01*
X127582588Y-67750000D01*
X128000000Y-67750000D01*
X128000000Y-67205219D01*
X128010444Y-67155409D01*
X128053588Y-67057050D01*
X128114612Y-66816073D01*
X128124775Y-66693418D01*
X128149928Y-66628233D01*
X128180208Y-66600060D01*
X128424811Y-66439182D01*
X128692558Y-66214516D01*
X128932412Y-65960286D01*
X129141130Y-65679929D01*
X129219834Y-65543608D01*
X129270398Y-65495396D01*
X129339005Y-65482172D01*
X129403870Y-65508140D01*
X129444399Y-65565054D01*
X129450954Y-65597502D01*
X129459421Y-65726698D01*
X129444162Y-65794881D01*
X129417448Y-65828033D01*
X129387344Y-65854434D01*
X129369811Y-65869811D01*
X129369809Y-65869813D01*
X129369807Y-65869815D01*
X129369803Y-65869819D01*
X129170973Y-66096540D01*
X129003435Y-66347279D01*
X129003431Y-66347286D01*
X128870062Y-66617731D01*
X128870053Y-66617752D01*
X128773122Y-66903301D01*
X128773118Y-66903316D01*
X128714288Y-67199069D01*
X128714287Y-67199081D01*
X128694564Y-67500000D01*
X128714287Y-67800918D01*
X128714288Y-67800930D01*
X128773118Y-68096683D01*
X128773122Y-68096698D01*
X128870053Y-68382247D01*
X128870062Y-68382268D01*
X129003431Y-68652713D01*
X129003435Y-68652720D01*
X129170973Y-68903459D01*
X129369810Y-69130189D01*
X129596540Y-69329026D01*
X129847279Y-69496564D01*
X129847286Y-69496568D01*
X130117731Y-69629937D01*
X130117736Y-69629939D01*
X130117748Y-69629945D01*
X130403309Y-69726880D01*
X130603251Y-69766651D01*
X130699069Y-69785711D01*
X130699070Y-69785711D01*
X130699080Y-69785713D01*
X131000000Y-69805436D01*
X131300920Y-69785713D01*
X131596691Y-69726880D01*
X131882252Y-69629945D01*
X132152718Y-69496566D01*
X132403461Y-69329025D01*
X132630189Y-69130189D01*
X132829025Y-68903461D01*
X132996566Y-68652718D01*
X133129945Y-68382252D01*
X133226880Y-68096691D01*
X133285713Y-67800920D01*
X133305436Y-67500000D01*
X133290577Y-67273300D01*
X133305835Y-67205119D01*
X133332552Y-67171964D01*
X133380189Y-67130189D01*
X133579025Y-66903461D01*
X133746566Y-66652718D01*
X133879945Y-66382252D01*
X133976880Y-66096691D01*
X134035713Y-65800920D01*
X134055436Y-65500000D01*
X134035713Y-65199080D01*
X133976880Y-64903309D01*
X133879945Y-64617748D01*
X133746566Y-64347282D01*
X133658212Y-64215051D01*
X133579026Y-64096540D01*
X133380189Y-63869810D01*
X133153459Y-63670973D01*
X132902720Y-63503435D01*
X132902713Y-63503431D01*
X132632268Y-63370062D01*
X132632247Y-63370053D01*
X132346698Y-63273122D01*
X132346692Y-63273120D01*
X132346691Y-63273120D01*
X132346689Y-63273119D01*
X132346683Y-63273118D01*
X132050930Y-63214288D01*
X132050921Y-63214287D01*
X132050920Y-63214287D01*
X131750000Y-63194564D01*
X131449080Y-63214287D01*
X131449079Y-63214287D01*
X131449069Y-63214288D01*
X131153316Y-63273118D01*
X131153301Y-63273122D01*
X130867752Y-63370053D01*
X130867731Y-63370062D01*
X130597286Y-63503431D01*
X130597279Y-63503435D01*
X130346540Y-63670973D01*
X130119810Y-63869810D01*
X129920975Y-64096537D01*
X129857394Y-64191694D01*
X129803782Y-64236499D01*
X129734457Y-64245206D01*
X129671429Y-64215051D01*
X129634710Y-64155608D01*
X129630502Y-64115596D01*
X129635585Y-64028333D01*
X129615262Y-63679406D01*
X129615260Y-63679394D01*
X129554571Y-63335205D01*
X129554569Y-63335198D01*
X129535984Y-63273120D01*
X129454326Y-63000362D01*
X129315889Y-62679429D01*
X129141130Y-62376737D01*
X129141129Y-62376735D01*
X128932415Y-62096383D01*
X128932410Y-62096377D01*
X128816433Y-61973450D01*
X128692558Y-61842150D01*
X128544488Y-61717905D01*
X128424813Y-61617485D01*
X128424805Y-61617479D01*
X128132796Y-61425421D01*
X127820458Y-61268559D01*
X127820452Y-61268556D01*
X127492012Y-61149014D01*
X127492009Y-61149013D01*
X127151915Y-61068410D01*
X127108519Y-61063337D01*
X126804759Y-61027833D01*
X126455241Y-61027833D01*
X126151480Y-61063337D01*
X126108085Y-61068410D01*
X126108083Y-61068410D01*
X125767990Y-61149013D01*
X125767987Y-61149014D01*
X125439547Y-61268556D01*
X125439541Y-61268559D01*
X125127203Y-61425421D01*
X124835194Y-61617479D01*
X124835186Y-61617485D01*
X124567442Y-61842150D01*
X124567440Y-61842152D01*
X124327589Y-62096377D01*
X124327584Y-62096383D01*
X124118870Y-62376735D01*
X123944113Y-62679424D01*
X123944107Y-62679437D01*
X123805674Y-63000360D01*
X123705430Y-63335198D01*
X123705428Y-63335205D01*
X123644739Y-63679394D01*
X123644738Y-63679405D01*
X123624415Y-64028329D01*
X123624415Y-64028336D01*
X123644738Y-64377260D01*
X123644739Y-64377271D01*
X123705428Y-64721460D01*
X123705430Y-64721467D01*
X123805674Y-65056305D01*
X123944107Y-65377228D01*
X123944113Y-65377241D01*
X124118870Y-65679930D01*
X124327584Y-65960282D01*
X124327589Y-65960288D01*
X124410384Y-66048045D01*
X124567442Y-66214516D01*
X124743903Y-66362584D01*
X124835186Y-66439180D01*
X124835194Y-66439186D01*
X125079786Y-66600057D01*
X125124980Y-66653342D01*
X125135223Y-66693417D01*
X125145385Y-66816062D01*
X125145387Y-66816071D01*
X125206411Y-67057050D01*
X125239556Y-67132611D01*
X125250000Y-67182421D01*
X125250000Y-67750000D01*
X125677412Y-67750000D01*
X125744451Y-67769685D01*
X125765093Y-67786319D01*
X126587107Y-68608333D01*
X126556131Y-68608333D01*
X126411233Y-68637155D01*
X126274742Y-68693692D01*
X126151903Y-68775770D01*
X126047437Y-68880236D01*
X125965359Y-69003075D01*
X125908822Y-69139566D01*
X125880000Y-69284464D01*
X125880000Y-69315440D01*
X125090091Y-68525531D01*
X125048883Y-68596906D01*
X124953058Y-68841062D01*
X124894693Y-69096782D01*
X124894692Y-69096787D01*
X124875093Y-69358328D01*
X124875093Y-69358337D01*
X124894692Y-69619878D01*
X124894693Y-69619883D01*
X124953058Y-69875603D01*
X125048880Y-70119752D01*
X125048882Y-70119756D01*
X125090091Y-70191133D01*
X125880000Y-69401225D01*
X125880000Y-69432202D01*
X125908822Y-69577100D01*
X125965359Y-69713591D01*
X126047437Y-69836430D01*
X126151903Y-69940896D01*
X126274742Y-70022974D01*
X126411233Y-70079511D01*
X126556131Y-70108333D01*
X126587107Y-70108333D01*
X125796261Y-70899177D01*
X125988855Y-70991927D01*
X125988864Y-70991931D01*
X126030102Y-71004651D01*
X126088362Y-71043220D01*
X126116520Y-71107165D01*
X126105638Y-71176182D01*
X126059170Y-71228359D01*
X126020211Y-71244243D01*
X125759117Y-71301714D01*
X125425093Y-71414261D01*
X125425088Y-71414262D01*
X125105210Y-71562254D01*
X125105197Y-71562261D01*
X124803184Y-71743977D01*
X124522589Y-71957279D01*
X124522580Y-71957287D01*
X124266686Y-72199683D01*
X124266684Y-72199685D01*
X124266683Y-72199685D01*
X124261084Y-72206278D01*
X124202680Y-72244628D01*
X124166578Y-72250000D01*
X120750000Y-72250000D01*
X71027080Y-72250000D01*
X71053945Y-72080382D01*
X71073356Y-71710000D01*
X71053945Y-71339618D01*
X70995925Y-70973295D01*
X70899932Y-70615043D01*
X70767017Y-70268787D01*
X70598636Y-69938322D01*
X70512338Y-69805435D01*
X70396636Y-69627269D01*
X70178857Y-69358334D01*
X70163227Y-69339032D01*
X69900968Y-69076773D01*
X69686945Y-68903461D01*
X69612730Y-68843363D01*
X69301682Y-68641366D01*
X68971216Y-68472984D01*
X68624964Y-68340070D01*
X68624957Y-68340068D01*
X68266705Y-68244075D01*
X68266701Y-68244074D01*
X68266700Y-68244074D01*
X67900383Y-68186055D01*
X67530001Y-68166644D01*
X67529999Y-68166644D01*
X67159616Y-68186055D01*
X66793300Y-68244074D01*
X66793298Y-68244074D01*
X66435035Y-68340070D01*
X66088783Y-68472984D01*
X65758317Y-68641366D01*
X65447269Y-68843363D01*
X65159036Y-69076769D01*
X65159028Y-69076776D01*
X64896776Y-69339028D01*
X64896769Y-69339036D01*
X64663363Y-69627269D01*
X64461366Y-69938317D01*
X64292984Y-70268783D01*
X64160070Y-70615035D01*
X64064074Y-70973298D01*
X64064074Y-70973300D01*
X64006055Y-71339616D01*
X63986644Y-71709999D01*
X52139240Y-71709999D01*
X52085455Y-71656214D01*
X51801537Y-71426302D01*
X51801534Y-71426300D01*
X51801532Y-71426298D01*
X51801530Y-71426296D01*
X51495146Y-71227328D01*
X51169629Y-71061469D01*
X50828564Y-70930546D01*
X50828557Y-70930544D01*
X50475671Y-70835988D01*
X50475667Y-70835987D01*
X50475666Y-70835987D01*
X50114835Y-70778837D01*
X49750001Y-70759717D01*
X49749999Y-70759717D01*
X49385164Y-70778837D01*
X49024334Y-70835987D01*
X49024332Y-70835987D01*
X48671435Y-70930546D01*
X48330370Y-71061469D01*
X48004854Y-71227328D01*
X47698464Y-71426300D01*
X47414549Y-71656210D01*
X47414541Y-71656217D01*
X47156217Y-71914541D01*
X47156210Y-71914549D01*
X46926300Y-72198464D01*
X46727328Y-72504854D01*
X46561469Y-72830370D01*
X46430546Y-73171435D01*
X46335987Y-73524332D01*
X46335987Y-73524334D01*
X46278837Y-73885164D01*
X46268575Y-74080971D01*
X46259717Y-74250000D01*
X45000500Y-74250000D01*
X45000500Y-66399997D01*
X79114726Y-66399997D01*
X79114726Y-66400002D01*
X79133808Y-66751954D01*
X79190833Y-67099793D01*
X79190834Y-67099796D01*
X79285126Y-67439408D01*
X79285127Y-67439410D01*
X79415588Y-67766844D01*
X79415597Y-67766862D01*
X79580695Y-68078269D01*
X79778498Y-68370006D01*
X79778505Y-68370016D01*
X79971228Y-68596906D01*
X80006686Y-68638650D01*
X80262580Y-68881046D01*
X80543182Y-69094354D01*
X80845202Y-69276074D01*
X80845206Y-69276075D01*
X80845210Y-69276078D01*
X81165088Y-69424070D01*
X81165092Y-69424070D01*
X81165099Y-69424074D01*
X81499122Y-69536619D01*
X81843355Y-69612391D01*
X82193763Y-69650500D01*
X82193769Y-69650500D01*
X82546231Y-69650500D01*
X82546237Y-69650500D01*
X82896645Y-69612391D01*
X83240878Y-69536619D01*
X83574901Y-69424074D01*
X83574908Y-69424070D01*
X83574911Y-69424070D01*
X83894789Y-69276078D01*
X83894798Y-69276074D01*
X84196818Y-69094354D01*
X84477420Y-68881046D01*
X84733314Y-68638650D01*
X84961501Y-68370008D01*
X85159305Y-68078269D01*
X85324407Y-67766854D01*
X85454871Y-67439414D01*
X85549168Y-67099788D01*
X85606191Y-66751957D01*
X85625274Y-66400000D01*
X85624311Y-66382247D01*
X85606191Y-66048045D01*
X85606191Y-66048043D01*
X85549168Y-65700212D01*
X85492301Y-65495396D01*
X85454873Y-65360591D01*
X85454872Y-65360589D01*
X85324411Y-65033155D01*
X85324402Y-65033137D01*
X85255575Y-64903316D01*
X85159305Y-64721731D01*
X84961501Y-64429992D01*
X84961497Y-64429987D01*
X84961494Y-64429983D01*
X84733314Y-64161350D01*
X84664892Y-64096537D01*
X84477420Y-63918954D01*
X84477413Y-63918948D01*
X84477410Y-63918946D01*
X84196815Y-63705644D01*
X83894802Y-63523928D01*
X83894789Y-63523921D01*
X83574911Y-63375929D01*
X83574906Y-63375928D01*
X83574903Y-63375927D01*
X83574901Y-63375926D01*
X83454021Y-63335197D01*
X83240880Y-63263381D01*
X82896643Y-63187608D01*
X82546238Y-63149500D01*
X82546237Y-63149500D01*
X82193763Y-63149500D01*
X82193761Y-63149500D01*
X81843356Y-63187608D01*
X81499119Y-63263381D01*
X81165093Y-63375928D01*
X81165088Y-63375929D01*
X80845210Y-63523921D01*
X80845197Y-63523928D01*
X80543184Y-63705644D01*
X80262589Y-63918946D01*
X80262580Y-63918954D01*
X80006685Y-64161350D01*
X79778505Y-64429983D01*
X79778498Y-64429993D01*
X79580695Y-64721730D01*
X79415597Y-65033137D01*
X79415588Y-65033155D01*
X79285127Y-65360589D01*
X79285126Y-65360591D01*
X79190834Y-65700203D01*
X79190833Y-65700206D01*
X79133808Y-66048045D01*
X79114726Y-66399997D01*
X45000500Y-66399997D01*
X45000500Y-27919996D01*
X46541996Y-27919996D01*
X46541996Y-27920003D01*
X46561997Y-28263403D01*
X46561998Y-28263414D01*
X46621726Y-28602154D01*
X46621729Y-28602164D01*
X46720385Y-28931698D01*
X46856627Y-29247541D01*
X46856633Y-29247554D01*
X47028624Y-29545451D01*
X47234033Y-29821364D01*
X47234038Y-29821370D01*
X47333748Y-29927056D01*
X47470094Y-30071574D01*
X47536642Y-30127414D01*
X47575344Y-30185584D01*
X47576453Y-30255445D01*
X47539616Y-30314815D01*
X47516365Y-30331234D01*
X47463190Y-30360270D01*
X47463182Y-30360275D01*
X47234112Y-30531754D01*
X47234094Y-30531770D01*
X47031770Y-30734094D01*
X47031754Y-30734112D01*
X46860275Y-30963182D01*
X46860270Y-30963190D01*
X46723135Y-31214333D01*
X46623128Y-31482462D01*
X46562304Y-31762066D01*
X46547000Y-31976049D01*
X46547000Y-34023950D01*
X46562304Y-34237933D01*
X46623128Y-34517537D01*
X46723135Y-34785666D01*
X46860270Y-35036809D01*
X46860275Y-35036817D01*
X47031754Y-35265887D01*
X47031770Y-35265905D01*
X47234094Y-35468229D01*
X47234112Y-35468245D01*
X47427147Y-35612748D01*
X47469019Y-35668681D01*
X47474003Y-35738373D01*
X47443032Y-35797109D01*
X47234032Y-36018637D01*
X47028624Y-36294548D01*
X46856633Y-36592445D01*
X46856627Y-36592458D01*
X46720385Y-36908301D01*
X46621729Y-37237835D01*
X46621726Y-37237845D01*
X46561998Y-37576585D01*
X46561997Y-37576596D01*
X46541996Y-37919996D01*
X46541996Y-37920003D01*
X46561997Y-38263403D01*
X46561998Y-38263414D01*
X46621726Y-38602154D01*
X46621729Y-38602164D01*
X46720385Y-38931698D01*
X46856627Y-39247541D01*
X46856633Y-39247554D01*
X47028624Y-39545451D01*
X47234033Y-39821364D01*
X47234038Y-39821370D01*
X47355951Y-39950590D01*
X47470094Y-40071574D01*
X47536642Y-40127414D01*
X47575344Y-40185584D01*
X47576453Y-40255445D01*
X47539616Y-40314815D01*
X47516365Y-40331234D01*
X47463190Y-40360270D01*
X47463182Y-40360275D01*
X47234112Y-40531754D01*
X47234094Y-40531770D01*
X47031770Y-40734094D01*
X47031754Y-40734112D01*
X46860275Y-40963182D01*
X46860270Y-40963190D01*
X46723135Y-41214333D01*
X46623128Y-41482462D01*
X46562304Y-41762066D01*
X46547000Y-41976049D01*
X46547000Y-44023950D01*
X46562304Y-44237933D01*
X46623128Y-44517537D01*
X46623130Y-44517543D01*
X46623131Y-44517546D01*
X46664317Y-44627970D01*
X46723135Y-44785666D01*
X46860270Y-45036809D01*
X46860275Y-45036817D01*
X47031754Y-45265887D01*
X47031770Y-45265905D01*
X47234094Y-45468229D01*
X47234112Y-45468245D01*
X47427147Y-45612748D01*
X47469019Y-45668681D01*
X47474003Y-45738373D01*
X47443032Y-45797109D01*
X47234032Y-46018637D01*
X47028624Y-46294548D01*
X46856633Y-46592445D01*
X46856627Y-46592458D01*
X46720385Y-46908301D01*
X46621729Y-47237835D01*
X46621726Y-47237845D01*
X46561998Y-47576585D01*
X46561997Y-47576596D01*
X46541996Y-47919996D01*
X46541996Y-47920003D01*
X46561997Y-48263403D01*
X46561998Y-48263414D01*
X46621726Y-48602154D01*
X46621729Y-48602164D01*
X46720385Y-48931698D01*
X46856627Y-49247541D01*
X46856633Y-49247554D01*
X47028624Y-49545451D01*
X47234033Y-49821364D01*
X47234038Y-49821370D01*
X47291124Y-49881877D01*
X47470094Y-50071574D01*
X47536642Y-50127414D01*
X47575344Y-50185584D01*
X47576453Y-50255445D01*
X47539616Y-50314815D01*
X47516365Y-50331234D01*
X47463190Y-50360270D01*
X47463182Y-50360275D01*
X47234112Y-50531754D01*
X47234094Y-50531770D01*
X47031770Y-50734094D01*
X47031754Y-50734112D01*
X46860275Y-50963182D01*
X46860270Y-50963190D01*
X46723135Y-51214333D01*
X46623128Y-51482462D01*
X46562304Y-51762066D01*
X46547000Y-51976049D01*
X46547000Y-54023950D01*
X46562304Y-54237933D01*
X46623128Y-54517537D01*
X46623130Y-54517543D01*
X46623131Y-54517546D01*
X46710845Y-54752716D01*
X46723135Y-54785666D01*
X46860270Y-55036809D01*
X46860275Y-55036817D01*
X47031754Y-55265887D01*
X47031770Y-55265905D01*
X47234094Y-55468229D01*
X47234112Y-55468245D01*
X47463182Y-55639724D01*
X47463190Y-55639729D01*
X47714333Y-55776864D01*
X47714332Y-55776864D01*
X47714336Y-55776865D01*
X47714339Y-55776867D01*
X47982454Y-55876869D01*
X47982460Y-55876870D01*
X47982462Y-55876871D01*
X48262066Y-55937695D01*
X48262068Y-55937695D01*
X48262072Y-55937696D01*
X48476052Y-55953000D01*
X50523948Y-55953000D01*
X50737928Y-55937696D01*
X50875915Y-55907679D01*
X51017537Y-55876871D01*
X51017537Y-55876870D01*
X51017546Y-55876869D01*
X51285661Y-55776867D01*
X51536815Y-55639726D01*
X51765895Y-55468239D01*
X51968239Y-55265895D01*
X52139726Y-55036815D01*
X52276867Y-54785661D01*
X52376869Y-54517546D01*
X52437696Y-54237928D01*
X52453000Y-54023948D01*
X52453000Y-51976052D01*
X52437696Y-51762072D01*
X52434479Y-51747285D01*
X52376871Y-51482462D01*
X52376870Y-51482460D01*
X52376869Y-51482454D01*
X52276867Y-51214339D01*
X52268076Y-51198240D01*
X52139729Y-50963190D01*
X52139724Y-50963182D01*
X51968245Y-50734112D01*
X51968229Y-50734094D01*
X51765905Y-50531770D01*
X51765887Y-50531754D01*
X51536817Y-50360275D01*
X51536814Y-50360273D01*
X51508579Y-50344856D01*
X51483636Y-50331236D01*
X51434231Y-50281831D01*
X51419379Y-50213559D01*
X51443795Y-50148094D01*
X51463358Y-50127414D01*
X51529906Y-50071574D01*
X51765963Y-49821368D01*
X51971376Y-49545450D01*
X52143369Y-49247550D01*
X52279615Y-48931697D01*
X52378271Y-48602163D01*
X52438003Y-48263403D01*
X52458004Y-47920000D01*
X52438003Y-47576597D01*
X52438001Y-47576585D01*
X52378273Y-47237845D01*
X52378270Y-47237835D01*
X52330140Y-47077067D01*
X52279615Y-46908303D01*
X52143369Y-46592450D01*
X51971376Y-46294550D01*
X51885017Y-46178549D01*
X51765966Y-46018635D01*
X51765961Y-46018629D01*
X51667765Y-45914548D01*
X51556965Y-45797107D01*
X51525279Y-45734839D01*
X51532289Y-45665322D01*
X51572849Y-45612750D01*
X51765895Y-45468239D01*
X51968239Y-45265895D01*
X52139726Y-45036815D01*
X52276867Y-44785661D01*
X52376869Y-44517546D01*
X52396863Y-44425633D01*
X52437695Y-44237933D01*
X52437695Y-44237932D01*
X52437696Y-44237928D01*
X52453000Y-44023948D01*
X52453000Y-41976052D01*
X52437696Y-41762072D01*
X52395228Y-41566851D01*
X52376871Y-41482462D01*
X52376870Y-41482460D01*
X52376869Y-41482454D01*
X52276867Y-41214339D01*
X52272619Y-41206560D01*
X52139729Y-40963190D01*
X52139724Y-40963182D01*
X51968245Y-40734112D01*
X51968229Y-40734094D01*
X51765905Y-40531770D01*
X51765887Y-40531754D01*
X51536817Y-40360275D01*
X51536814Y-40360273D01*
X51508579Y-40344856D01*
X51483636Y-40331236D01*
X51434231Y-40281831D01*
X51419379Y-40213559D01*
X51443795Y-40148094D01*
X51463358Y-40127414D01*
X51529906Y-40071574D01*
X51765963Y-39821368D01*
X51971376Y-39545450D01*
X52143369Y-39247550D01*
X52279615Y-38931697D01*
X52378271Y-38602163D01*
X52438003Y-38263403D01*
X52457149Y-37934682D01*
X52458004Y-37920003D01*
X52458004Y-37919996D01*
X52443603Y-37672748D01*
X52438003Y-37576597D01*
X52413470Y-37437460D01*
X52378273Y-37237845D01*
X52378270Y-37237835D01*
X52376599Y-37232251D01*
X52279615Y-36908303D01*
X52143369Y-36592450D01*
X51971376Y-36294550D01*
X51971375Y-36294548D01*
X51765966Y-36018635D01*
X51765961Y-36018629D01*
X51667765Y-35914548D01*
X51556965Y-35797107D01*
X51525279Y-35734839D01*
X51532289Y-35665322D01*
X51572849Y-35612750D01*
X51765895Y-35468239D01*
X51968239Y-35265895D01*
X52139726Y-35036815D01*
X52276867Y-34785661D01*
X52376869Y-34517546D01*
X52379777Y-34504179D01*
X52437695Y-34237933D01*
X52437695Y-34237932D01*
X52437696Y-34237928D01*
X52453000Y-34023948D01*
X52453000Y-31976052D01*
X52437696Y-31762072D01*
X52424094Y-31699546D01*
X52376871Y-31482462D01*
X52376870Y-31482460D01*
X52376869Y-31482454D01*
X52276867Y-31214339D01*
X52157548Y-30995824D01*
X52139729Y-30963190D01*
X52139724Y-30963182D01*
X51968245Y-30734112D01*
X51968229Y-30734094D01*
X51765905Y-30531770D01*
X51765887Y-30531754D01*
X51536817Y-30360275D01*
X51536814Y-30360273D01*
X51508579Y-30344856D01*
X51483636Y-30331236D01*
X51434231Y-30281831D01*
X51419379Y-30213559D01*
X51443795Y-30148094D01*
X51463358Y-30127414D01*
X51529906Y-30071574D01*
X51765963Y-29821368D01*
X51971376Y-29545450D01*
X52143369Y-29247550D01*
X52279615Y-28931697D01*
X52378271Y-28602163D01*
X52383905Y-28570214D01*
X52438001Y-28263414D01*
X52438000Y-28263414D01*
X52438003Y-28263403D01*
X52458004Y-27920000D01*
X52458004Y-27919996D01*
X55041996Y-27919996D01*
X55041996Y-27920003D01*
X55061997Y-28263403D01*
X55061998Y-28263414D01*
X55121726Y-28602154D01*
X55121729Y-28602164D01*
X55220385Y-28931698D01*
X55356627Y-29247541D01*
X55356633Y-29247554D01*
X55528624Y-29545451D01*
X55734033Y-29821364D01*
X55734038Y-29821370D01*
X55833748Y-29927056D01*
X55970094Y-30071574D01*
X56036642Y-30127414D01*
X56075344Y-30185584D01*
X56076453Y-30255445D01*
X56039616Y-30314815D01*
X56016365Y-30331234D01*
X55963190Y-30360270D01*
X55963182Y-30360275D01*
X55734112Y-30531754D01*
X55734094Y-30531770D01*
X55531770Y-30734094D01*
X55531754Y-30734112D01*
X55360275Y-30963182D01*
X55360270Y-30963190D01*
X55223135Y-31214333D01*
X55123128Y-31482462D01*
X55062304Y-31762066D01*
X55047000Y-31976049D01*
X55047000Y-34023950D01*
X55062304Y-34237933D01*
X55123128Y-34517537D01*
X55223135Y-34785666D01*
X55360270Y-35036809D01*
X55360275Y-35036817D01*
X55531754Y-35265887D01*
X55531770Y-35265905D01*
X55734094Y-35468229D01*
X55734112Y-35468245D01*
X55927147Y-35612748D01*
X55969019Y-35668681D01*
X55974003Y-35738373D01*
X55943032Y-35797109D01*
X55734032Y-36018637D01*
X55528624Y-36294548D01*
X55356633Y-36592445D01*
X55356627Y-36592458D01*
X55220385Y-36908301D01*
X55121729Y-37237835D01*
X55121726Y-37237845D01*
X55061998Y-37576585D01*
X55061997Y-37576596D01*
X55041996Y-37919996D01*
X55041996Y-37920003D01*
X55061997Y-38263403D01*
X55061998Y-38263414D01*
X55121726Y-38602154D01*
X55121729Y-38602164D01*
X55220385Y-38931698D01*
X55356627Y-39247541D01*
X55356633Y-39247554D01*
X55528624Y-39545451D01*
X55734033Y-39821364D01*
X55734038Y-39821370D01*
X55855951Y-39950590D01*
X55970094Y-40071574D01*
X56036642Y-40127414D01*
X56075344Y-40185584D01*
X56076453Y-40255445D01*
X56039616Y-40314815D01*
X56016365Y-40331234D01*
X55963190Y-40360270D01*
X55963182Y-40360275D01*
X55734112Y-40531754D01*
X55734094Y-40531770D01*
X55531770Y-40734094D01*
X55531754Y-40734112D01*
X55360275Y-40963182D01*
X55360270Y-40963190D01*
X55223135Y-41214333D01*
X55123128Y-41482462D01*
X55062304Y-41762066D01*
X55047000Y-41976049D01*
X55047000Y-44023950D01*
X55062304Y-44237933D01*
X55123128Y-44517537D01*
X55123130Y-44517543D01*
X55123131Y-44517546D01*
X55164317Y-44627970D01*
X55223135Y-44785666D01*
X55360270Y-45036809D01*
X55360275Y-45036817D01*
X55531754Y-45265887D01*
X55531770Y-45265905D01*
X55734094Y-45468229D01*
X55734112Y-45468245D01*
X55927147Y-45612748D01*
X55969019Y-45668681D01*
X55974003Y-45738373D01*
X55943032Y-45797109D01*
X55734032Y-46018637D01*
X55528624Y-46294548D01*
X55356633Y-46592445D01*
X55356627Y-46592458D01*
X55220385Y-46908301D01*
X55121729Y-47237835D01*
X55121726Y-47237845D01*
X55061998Y-47576585D01*
X55061997Y-47576596D01*
X55041996Y-47919996D01*
X55041996Y-47920003D01*
X55061997Y-48263403D01*
X55061998Y-48263414D01*
X55121726Y-48602154D01*
X55121729Y-48602164D01*
X55220385Y-48931698D01*
X55356627Y-49247541D01*
X55356633Y-49247554D01*
X55528624Y-49545451D01*
X55734033Y-49821364D01*
X55734038Y-49821370D01*
X55791124Y-49881877D01*
X55970094Y-50071574D01*
X56036642Y-50127414D01*
X56075344Y-50185584D01*
X56076453Y-50255445D01*
X56039616Y-50314815D01*
X56016365Y-50331234D01*
X55963190Y-50360270D01*
X55963182Y-50360275D01*
X55734112Y-50531754D01*
X55734094Y-50531770D01*
X55531770Y-50734094D01*
X55531754Y-50734112D01*
X55360275Y-50963182D01*
X55360270Y-50963190D01*
X55223135Y-51214333D01*
X55123128Y-51482462D01*
X55062304Y-51762066D01*
X55047000Y-51976049D01*
X55047000Y-54023950D01*
X55062304Y-54237933D01*
X55123128Y-54517537D01*
X55123130Y-54517543D01*
X55123131Y-54517546D01*
X55210845Y-54752716D01*
X55223135Y-54785666D01*
X55360270Y-55036809D01*
X55360275Y-55036817D01*
X55531754Y-55265887D01*
X55531770Y-55265905D01*
X55734094Y-55468229D01*
X55734112Y-55468245D01*
X55963182Y-55639724D01*
X55963190Y-55639729D01*
X56214333Y-55776864D01*
X56214332Y-55776864D01*
X56214336Y-55776865D01*
X56214339Y-55776867D01*
X56482454Y-55876869D01*
X56482460Y-55876870D01*
X56482462Y-55876871D01*
X56762066Y-55937695D01*
X56762068Y-55937695D01*
X56762072Y-55937696D01*
X56976052Y-55953000D01*
X59023948Y-55953000D01*
X59237928Y-55937696D01*
X59375915Y-55907679D01*
X59517537Y-55876871D01*
X59517537Y-55876870D01*
X59517546Y-55876869D01*
X59785661Y-55776867D01*
X60036815Y-55639726D01*
X60265895Y-55468239D01*
X60468239Y-55265895D01*
X60639726Y-55036815D01*
X60776867Y-54785661D01*
X60876869Y-54517546D01*
X60937696Y-54237928D01*
X60953000Y-54023948D01*
X60953000Y-53250000D01*
X62604674Y-53250000D01*
X62623960Y-53568853D01*
X62623960Y-53568858D01*
X62623961Y-53568859D01*
X62681542Y-53883068D01*
X62681543Y-53883072D01*
X62681544Y-53883076D01*
X62776570Y-54188028D01*
X62776576Y-54188043D01*
X62776577Y-54188046D01*
X62818318Y-54280790D01*
X62907677Y-54479339D01*
X62907678Y-54479340D01*
X62907680Y-54479344D01*
X62930774Y-54517546D01*
X63072937Y-54752714D01*
X63072943Y-54752723D01*
X63269947Y-55004179D01*
X63495820Y-55230052D01*
X63747276Y-55427056D01*
X63747285Y-55427062D01*
X63814665Y-55467794D01*
X64020656Y-55592320D01*
X64020659Y-55592321D01*
X64020660Y-55592322D01*
X64119762Y-55636924D01*
X64172817Y-55682389D01*
X64192869Y-55749319D01*
X64173553Y-55816466D01*
X64121001Y-55862510D01*
X64119762Y-55863076D01*
X64020660Y-55907677D01*
X64020658Y-55907679D01*
X63747285Y-56072937D01*
X63747276Y-56072943D01*
X63495820Y-56269947D01*
X63269947Y-56495820D01*
X63072943Y-56747276D01*
X63072937Y-56747285D01*
X62907679Y-57020658D01*
X62907677Y-57020660D01*
X62776576Y-57311956D01*
X62776570Y-57311971D01*
X62681544Y-57616923D01*
X62623960Y-57931146D01*
X62604674Y-58250000D01*
X62623960Y-58568853D01*
X62623960Y-58568858D01*
X62623961Y-58568859D01*
X62681542Y-58883068D01*
X62681543Y-58883072D01*
X62681544Y-58883076D01*
X62776570Y-59188028D01*
X62776576Y-59188043D01*
X62907677Y-59479339D01*
X62907678Y-59479340D01*
X62907680Y-59479344D01*
X62950012Y-59549369D01*
X63072937Y-59752714D01*
X63072943Y-59752723D01*
X63269947Y-60004179D01*
X63495820Y-60230052D01*
X63747276Y-60427056D01*
X63747285Y-60427062D01*
X63814665Y-60467794D01*
X64020656Y-60592320D01*
X64311954Y-60723423D01*
X64311963Y-60723425D01*
X64311971Y-60723429D01*
X64550543Y-60797770D01*
X64616932Y-60818458D01*
X64931141Y-60876039D01*
X65250000Y-60895326D01*
X65568859Y-60876039D01*
X65883068Y-60818458D01*
X66055268Y-60764798D01*
X66188028Y-60723429D01*
X66188032Y-60723427D01*
X66188046Y-60723423D01*
X66479344Y-60592320D01*
X66752716Y-60427061D01*
X66752718Y-60427058D01*
X66752723Y-60427056D01*
X66860096Y-60342933D01*
X67004176Y-60230055D01*
X67230055Y-60004176D01*
X67427061Y-59752716D01*
X67592320Y-59479344D01*
X67723423Y-59188046D01*
X67738165Y-59140739D01*
X67801220Y-58938387D01*
X67818458Y-58883068D01*
X67876039Y-58568859D01*
X67895326Y-58250000D01*
X67876039Y-57931141D01*
X67818458Y-57616932D01*
X67797770Y-57550543D01*
X67723429Y-57311971D01*
X67723425Y-57311963D01*
X67723423Y-57311954D01*
X67592320Y-57020656D01*
X67427061Y-56747284D01*
X67427056Y-56747276D01*
X67230052Y-56495820D01*
X67004179Y-56269947D01*
X66752723Y-56072943D01*
X66752714Y-56072937D01*
X66720642Y-56053549D01*
X73999500Y-56053549D01*
X73999500Y-57696450D01*
X74014804Y-57910433D01*
X74075628Y-58190037D01*
X74175635Y-58458166D01*
X74312770Y-58709309D01*
X74312775Y-58709317D01*
X74484254Y-58938387D01*
X74484270Y-58938405D01*
X74686594Y-59140729D01*
X74686612Y-59140745D01*
X74915682Y-59312224D01*
X74915690Y-59312229D01*
X75166833Y-59449364D01*
X75166832Y-59449364D01*
X75166836Y-59449365D01*
X75166839Y-59449367D01*
X75434954Y-59549369D01*
X75434960Y-59549370D01*
X75434962Y-59549371D01*
X75714566Y-59610195D01*
X75714568Y-59610195D01*
X75714572Y-59610196D01*
X75928552Y-59625500D01*
X77571448Y-59625500D01*
X77785428Y-59610196D01*
X78065046Y-59549369D01*
X78333161Y-59449367D01*
X78584315Y-59312226D01*
X78813395Y-59140739D01*
X79015739Y-58938395D01*
X79187226Y-58709315D01*
X79324367Y-58458161D01*
X79424369Y-58190046D01*
X79485196Y-57910428D01*
X79500500Y-57696448D01*
X79500500Y-56053552D01*
X79485196Y-55839572D01*
X79471555Y-55776867D01*
X79424371Y-55559962D01*
X79424370Y-55559960D01*
X79424369Y-55559954D01*
X79324367Y-55291839D01*
X79310200Y-55265895D01*
X79187229Y-55040690D01*
X79187224Y-55040682D01*
X79015745Y-54811612D01*
X79015729Y-54811594D01*
X78813405Y-54609270D01*
X78813387Y-54609254D01*
X78584317Y-54437775D01*
X78584309Y-54437770D01*
X78333166Y-54300635D01*
X78333167Y-54300635D01*
X78165056Y-54237933D01*
X78065046Y-54200631D01*
X78065043Y-54200630D01*
X78065037Y-54200628D01*
X77785433Y-54139804D01*
X77571450Y-54124500D01*
X77571448Y-54124500D01*
X75928552Y-54124500D01*
X75928549Y-54124500D01*
X75714566Y-54139804D01*
X75434962Y-54200628D01*
X75166833Y-54300635D01*
X74915690Y-54437770D01*
X74915682Y-54437775D01*
X74686612Y-54609254D01*
X74686594Y-54609270D01*
X74484270Y-54811594D01*
X74484254Y-54811612D01*
X74312775Y-55040682D01*
X74312770Y-55040690D01*
X74175635Y-55291833D01*
X74075628Y-55559962D01*
X74014804Y-55839566D01*
X73999500Y-56053549D01*
X66720642Y-56053549D01*
X66554312Y-55953000D01*
X66479344Y-55907680D01*
X66380235Y-55863074D01*
X66327183Y-55817612D01*
X66307130Y-55750681D01*
X66326446Y-55683535D01*
X66378998Y-55637490D01*
X66380151Y-55636963D01*
X66479344Y-55592320D01*
X66752716Y-55427061D01*
X66752718Y-55427058D01*
X66752723Y-55427056D01*
X66925322Y-55291833D01*
X67004176Y-55230055D01*
X67230055Y-55004176D01*
X67380919Y-54811612D01*
X67427056Y-54752723D01*
X67427062Y-54752714D01*
X67592320Y-54479344D01*
X67723423Y-54188046D01*
X67818458Y-53883068D01*
X67876039Y-53568859D01*
X67895326Y-53250000D01*
X67876039Y-52931141D01*
X67818458Y-52616932D01*
X67772489Y-52469413D01*
X67723429Y-52311971D01*
X67723425Y-52311963D01*
X67723423Y-52311954D01*
X67592320Y-52020656D01*
X67538722Y-51931994D01*
X85365057Y-51931994D01*
X85365057Y-51932005D01*
X85384807Y-52245942D01*
X85384808Y-52245949D01*
X85443755Y-52554958D01*
X85540963Y-52854132D01*
X85540965Y-52854137D01*
X85674900Y-53138761D01*
X85674905Y-53138771D01*
X85784083Y-53310807D01*
X85784084Y-53310808D01*
X86590428Y-52504464D01*
X86672613Y-52665760D01*
X86802140Y-52844039D01*
X86957961Y-52999860D01*
X87136240Y-53129387D01*
X87297534Y-53211570D01*
X86489747Y-54019357D01*
X86489748Y-54019358D01*
X86527777Y-54046988D01*
X86527796Y-54047000D01*
X86803447Y-54198540D01*
X86803455Y-54198544D01*
X87095926Y-54314340D01*
X87400620Y-54392573D01*
X87400629Y-54392575D01*
X87712701Y-54431999D01*
X87712715Y-54432000D01*
X88027285Y-54432000D01*
X88027298Y-54431999D01*
X88339370Y-54392575D01*
X88339379Y-54392573D01*
X88644073Y-54314340D01*
X88936544Y-54198544D01*
X88936545Y-54198543D01*
X89212216Y-54046991D01*
X89212222Y-54046988D01*
X89250250Y-54019358D01*
X89250250Y-54019357D01*
X88442464Y-53211571D01*
X88603760Y-53129387D01*
X88782039Y-52999860D01*
X88937860Y-52844039D01*
X89067387Y-52665760D01*
X89149571Y-52504464D01*
X89955914Y-53310808D01*
X89955915Y-53310807D01*
X90065092Y-53138773D01*
X90065103Y-53138754D01*
X90199034Y-52854137D01*
X90199036Y-52854132D01*
X90296244Y-52554958D01*
X90355191Y-52245949D01*
X90355192Y-52245942D01*
X90374943Y-51932005D01*
X90374943Y-51931994D01*
X120065057Y-51931994D01*
X120065057Y-51932005D01*
X120084807Y-52245942D01*
X120084808Y-52245949D01*
X120143755Y-52554958D01*
X120240963Y-52854132D01*
X120240965Y-52854137D01*
X120374900Y-53138761D01*
X120374905Y-53138771D01*
X120484083Y-53310807D01*
X120484084Y-53310808D01*
X121290428Y-52504464D01*
X121372613Y-52665760D01*
X121502140Y-52844039D01*
X121657961Y-52999860D01*
X121836240Y-53129387D01*
X121997534Y-53211570D01*
X121189747Y-54019357D01*
X121189748Y-54019358D01*
X121227777Y-54046988D01*
X121227796Y-54047000D01*
X121503447Y-54198540D01*
X121503455Y-54198544D01*
X121795926Y-54314340D01*
X122100620Y-54392573D01*
X122100629Y-54392575D01*
X122412701Y-54431999D01*
X122412715Y-54432000D01*
X122727285Y-54432000D01*
X122727298Y-54431999D01*
X123039370Y-54392575D01*
X123039379Y-54392573D01*
X123344073Y-54314340D01*
X123636544Y-54198544D01*
X123636545Y-54198543D01*
X123912216Y-54046991D01*
X123912222Y-54046988D01*
X123950250Y-54019358D01*
X123950250Y-54019357D01*
X123142464Y-53211571D01*
X123303760Y-53129387D01*
X123482039Y-52999860D01*
X123637860Y-52844039D01*
X123767387Y-52665760D01*
X123849571Y-52504464D01*
X124655914Y-53310808D01*
X124655915Y-53310807D01*
X124765092Y-53138773D01*
X124765103Y-53138754D01*
X124899034Y-52854137D01*
X124899036Y-52854132D01*
X124996244Y-52554958D01*
X125055191Y-52245949D01*
X125055192Y-52245942D01*
X125074943Y-51932005D01*
X125074943Y-51931994D01*
X125055192Y-51618057D01*
X125055191Y-51618050D01*
X124996244Y-51309041D01*
X124899036Y-51009867D01*
X124899034Y-51009862D01*
X124765099Y-50725237D01*
X124765091Y-50725222D01*
X124655915Y-50553191D01*
X123849571Y-51359534D01*
X123767387Y-51198240D01*
X123637860Y-51019961D01*
X123482039Y-50864140D01*
X123303760Y-50734613D01*
X123142464Y-50652428D01*
X123950251Y-49844641D01*
X123950250Y-49844639D01*
X123912227Y-49817014D01*
X123912209Y-49817003D01*
X123636552Y-49665459D01*
X123636544Y-49665455D01*
X123344073Y-49549659D01*
X123039379Y-49471426D01*
X123039370Y-49471424D01*
X122727298Y-49432000D01*
X122412701Y-49432000D01*
X122100629Y-49471424D01*
X122100620Y-49471426D01*
X121795926Y-49549659D01*
X121503455Y-49665455D01*
X121503447Y-49665459D01*
X121227787Y-49817004D01*
X121227784Y-49817006D01*
X121189748Y-49844640D01*
X121189748Y-49844641D01*
X121997535Y-50652428D01*
X121836240Y-50734613D01*
X121657961Y-50864140D01*
X121502140Y-51019961D01*
X121372613Y-51198240D01*
X121290428Y-51359535D01*
X120484083Y-50553190D01*
X120374903Y-50725232D01*
X120374900Y-50725238D01*
X120240965Y-51009862D01*
X120240963Y-51009867D01*
X120143755Y-51309041D01*
X120084808Y-51618050D01*
X120084807Y-51618057D01*
X120065057Y-51931994D01*
X90374943Y-51931994D01*
X90355192Y-51618057D01*
X90355191Y-51618050D01*
X90296244Y-51309041D01*
X90199036Y-51009867D01*
X90199034Y-51009862D01*
X90065099Y-50725237D01*
X90065091Y-50725222D01*
X89955915Y-50553191D01*
X89149571Y-51359534D01*
X89067387Y-51198240D01*
X88937860Y-51019961D01*
X88782039Y-50864140D01*
X88603760Y-50734613D01*
X88442464Y-50652428D01*
X89250251Y-49844641D01*
X89250250Y-49844639D01*
X89212227Y-49817014D01*
X89212209Y-49817003D01*
X88936552Y-49665459D01*
X88936544Y-49665455D01*
X88644073Y-49549659D01*
X88339379Y-49471426D01*
X88339370Y-49471424D01*
X88027298Y-49432000D01*
X87712701Y-49432000D01*
X87400629Y-49471424D01*
X87400620Y-49471426D01*
X87095926Y-49549659D01*
X86803455Y-49665455D01*
X86803447Y-49665459D01*
X86527787Y-49817004D01*
X86527784Y-49817006D01*
X86489748Y-49844640D01*
X86489748Y-49844641D01*
X87297535Y-50652428D01*
X87136240Y-50734613D01*
X86957961Y-50864140D01*
X86802140Y-51019961D01*
X86672613Y-51198240D01*
X86590428Y-51359535D01*
X85784083Y-50553190D01*
X85674903Y-50725232D01*
X85674900Y-50725238D01*
X85540965Y-51009862D01*
X85540963Y-51009867D01*
X85443755Y-51309041D01*
X85384808Y-51618050D01*
X85384807Y-51618057D01*
X85365057Y-51931994D01*
X67538722Y-51931994D01*
X67427061Y-51747284D01*
X67427056Y-51747276D01*
X67230052Y-51495820D01*
X67004179Y-51269947D01*
X66752723Y-51072943D01*
X66752714Y-51072937D01*
X66617953Y-50991471D01*
X66479344Y-50907680D01*
X66479340Y-50907678D01*
X66479339Y-50907677D01*
X66280790Y-50818318D01*
X66188046Y-50776577D01*
X66188043Y-50776576D01*
X66188028Y-50776570D01*
X65883076Y-50681544D01*
X65883072Y-50681543D01*
X65883068Y-50681542D01*
X65568859Y-50623961D01*
X65568858Y-50623960D01*
X65568853Y-50623960D01*
X65250000Y-50604674D01*
X64931146Y-50623960D01*
X64931141Y-50623961D01*
X64616932Y-50681542D01*
X64616929Y-50681542D01*
X64616923Y-50681544D01*
X64311971Y-50776570D01*
X64311956Y-50776576D01*
X64020660Y-50907677D01*
X64020658Y-50907679D01*
X63747285Y-51072937D01*
X63747276Y-51072943D01*
X63495820Y-51269947D01*
X63269947Y-51495820D01*
X63072943Y-51747276D01*
X63072937Y-51747285D01*
X62907679Y-52020658D01*
X62907677Y-52020660D01*
X62776576Y-52311956D01*
X62776570Y-52311971D01*
X62681544Y-52616923D01*
X62681542Y-52616929D01*
X62681542Y-52616932D01*
X62672594Y-52665760D01*
X62623960Y-52931146D01*
X62604674Y-53250000D01*
X60953000Y-53250000D01*
X60953000Y-51976052D01*
X60937696Y-51762072D01*
X60934479Y-51747285D01*
X60876871Y-51482462D01*
X60876870Y-51482460D01*
X60876869Y-51482454D01*
X60776867Y-51214339D01*
X60768076Y-51198240D01*
X60639729Y-50963190D01*
X60639724Y-50963182D01*
X60468245Y-50734112D01*
X60468229Y-50734094D01*
X60265905Y-50531770D01*
X60265887Y-50531754D01*
X60036817Y-50360275D01*
X60036814Y-50360273D01*
X60008579Y-50344856D01*
X59983636Y-50331236D01*
X59934231Y-50281831D01*
X59919379Y-50213559D01*
X59943795Y-50148094D01*
X59963358Y-50127414D01*
X60029906Y-50071574D01*
X60265963Y-49821368D01*
X60471376Y-49545450D01*
X60643369Y-49247550D01*
X60779615Y-48931697D01*
X60878271Y-48602163D01*
X60938003Y-48263403D01*
X60958004Y-47920000D01*
X60938003Y-47576597D01*
X60938001Y-47576585D01*
X60878273Y-47237845D01*
X60878270Y-47237835D01*
X60830140Y-47077067D01*
X60779615Y-46908303D01*
X60643369Y-46592450D01*
X60471376Y-46294550D01*
X60385017Y-46178549D01*
X61599500Y-46178549D01*
X61599500Y-47821450D01*
X61614804Y-48035433D01*
X61675628Y-48315037D01*
X61675630Y-48315043D01*
X61675631Y-48315046D01*
X61775633Y-48583161D01*
X61775635Y-48583166D01*
X61912770Y-48834309D01*
X61912775Y-48834317D01*
X62084254Y-49063387D01*
X62084270Y-49063405D01*
X62286594Y-49265729D01*
X62286612Y-49265745D01*
X62515682Y-49437224D01*
X62515690Y-49437229D01*
X62766833Y-49574364D01*
X62766832Y-49574364D01*
X62766836Y-49574365D01*
X62766839Y-49574367D01*
X63034954Y-49674369D01*
X63034960Y-49674370D01*
X63034962Y-49674371D01*
X63314566Y-49735195D01*
X63314568Y-49735195D01*
X63314572Y-49735196D01*
X63528552Y-49750500D01*
X65171448Y-49750500D01*
X65385428Y-49735196D01*
X65665046Y-49674369D01*
X65933161Y-49574367D01*
X66184315Y-49437226D01*
X66413395Y-49265739D01*
X66429134Y-49250000D01*
X135746083Y-49250000D01*
X135765333Y-49568249D01*
X135765333Y-49568254D01*
X135765334Y-49568255D01*
X135822806Y-49881869D01*
X135822807Y-49881873D01*
X135822808Y-49881877D01*
X135917654Y-50186250D01*
X135917658Y-50186261D01*
X135917659Y-50186264D01*
X135917661Y-50186269D01*
X136048515Y-50477016D01*
X136204238Y-50734613D01*
X136213467Y-50749879D01*
X136410096Y-51000857D01*
X136635542Y-51226303D01*
X136886520Y-51422932D01*
X136886525Y-51422935D01*
X136886529Y-51422938D01*
X137159384Y-51587885D01*
X137450131Y-51718739D01*
X137450141Y-51718742D01*
X137450149Y-51718745D01*
X137541738Y-51747285D01*
X137754531Y-51813594D01*
X138068145Y-51871066D01*
X138386400Y-51890317D01*
X138704655Y-51871066D01*
X139018269Y-51813594D01*
X139322669Y-51718739D01*
X139613416Y-51587885D01*
X139886271Y-51422938D01*
X139922459Y-51394587D01*
X140081550Y-51269947D01*
X140137254Y-51226306D01*
X140362706Y-51000854D01*
X140559338Y-50749871D01*
X140724285Y-50477016D01*
X140777688Y-50358357D01*
X140823152Y-50305303D01*
X140890082Y-50285250D01*
X140935558Y-50293621D01*
X141071664Y-50346348D01*
X141278429Y-50385000D01*
X141488771Y-50385000D01*
X141695536Y-50346348D01*
X141695542Y-50346347D01*
X141751255Y-50324762D01*
X141751256Y-50324762D01*
X141046202Y-49619709D01*
X141012717Y-49558386D01*
X141010109Y-49524549D01*
X141019799Y-49364352D01*
X141028564Y-49397061D01*
X141078724Y-49483940D01*
X141149660Y-49554876D01*
X141236539Y-49605036D01*
X141333440Y-49631000D01*
X141433760Y-49631000D01*
X141530661Y-49605036D01*
X141617540Y-49554876D01*
X141688476Y-49483940D01*
X141738636Y-49397061D01*
X141764600Y-49300160D01*
X141764600Y-49249999D01*
X142090707Y-49249999D01*
X142090707Y-49250000D01*
X142458889Y-49618183D01*
X142458890Y-49618183D01*
X142504053Y-49459450D01*
X142504054Y-49459448D01*
X142523462Y-49250000D01*
X142523462Y-49249999D01*
X142504054Y-49040551D01*
X142504053Y-49040549D01*
X142458889Y-48881815D01*
X142090707Y-49249999D01*
X141764600Y-49249999D01*
X141764600Y-49199840D01*
X141738636Y-49102939D01*
X141688476Y-49016060D01*
X141617540Y-48945124D01*
X141530661Y-48894964D01*
X141433760Y-48869000D01*
X141333440Y-48869000D01*
X141236539Y-48894964D01*
X141149660Y-48945124D01*
X141078724Y-49016060D01*
X141028564Y-49102939D01*
X141019799Y-49135647D01*
X141010110Y-48975455D01*
X141025711Y-48907350D01*
X141046203Y-48880287D01*
X141383600Y-48542892D01*
X141751256Y-48175236D01*
X141695540Y-48153652D01*
X141488771Y-48115000D01*
X141278429Y-48115000D01*
X141071664Y-48153651D01*
X141071659Y-48153652D01*
X140935557Y-48206378D01*
X140865934Y-48212240D01*
X140804194Y-48179529D01*
X140777688Y-48141642D01*
X140724285Y-48022984D01*
X140559338Y-47750129D01*
X140559335Y-47750125D01*
X140559332Y-47750120D01*
X140362703Y-47499142D01*
X140137257Y-47273696D01*
X139886279Y-47077067D01*
X139886271Y-47077062D01*
X139613416Y-46912115D01*
X139322669Y-46781261D01*
X139322664Y-46781259D01*
X139322661Y-46781258D01*
X139322650Y-46781254D01*
X139018277Y-46686408D01*
X139018273Y-46686407D01*
X139018269Y-46686406D01*
X138704655Y-46628934D01*
X138704654Y-46628933D01*
X138704649Y-46628933D01*
X138386400Y-46609683D01*
X138068150Y-46628933D01*
X138068145Y-46628934D01*
X137754531Y-46686406D01*
X137754528Y-46686406D01*
X137754522Y-46686408D01*
X137450149Y-46781254D01*
X137450138Y-46781258D01*
X137159388Y-46912113D01*
X137159386Y-46912114D01*
X136886520Y-47077067D01*
X136635542Y-47273696D01*
X136410096Y-47499142D01*
X136213467Y-47750120D01*
X136048514Y-48022986D01*
X136048513Y-48022988D01*
X135917658Y-48313738D01*
X135917654Y-48313749D01*
X135822808Y-48618122D01*
X135765333Y-48931750D01*
X135746083Y-49250000D01*
X66429134Y-49250000D01*
X66615739Y-49063395D01*
X66787226Y-48834315D01*
X66924367Y-48583161D01*
X67024369Y-48315046D01*
X67085196Y-48035428D01*
X67100500Y-47821448D01*
X67100500Y-46178552D01*
X67085196Y-45964572D01*
X67080176Y-45941497D01*
X67024371Y-45684962D01*
X67024370Y-45684960D01*
X67024369Y-45684954D01*
X66924367Y-45416839D01*
X66841950Y-45265905D01*
X66787229Y-45165690D01*
X66787224Y-45165682D01*
X66615745Y-44936612D01*
X66615729Y-44936594D01*
X66413405Y-44734270D01*
X66413387Y-44734254D01*
X66184317Y-44562775D01*
X66184309Y-44562770D01*
X65933166Y-44425635D01*
X65933167Y-44425635D01*
X65825915Y-44385632D01*
X65665046Y-44325631D01*
X65665043Y-44325630D01*
X65665037Y-44325628D01*
X65385433Y-44264804D01*
X65171450Y-44249500D01*
X65171448Y-44249500D01*
X63528552Y-44249500D01*
X63528549Y-44249500D01*
X63314566Y-44264804D01*
X63034962Y-44325628D01*
X62766833Y-44425635D01*
X62515690Y-44562770D01*
X62515682Y-44562775D01*
X62286612Y-44734254D01*
X62286594Y-44734270D01*
X62084270Y-44936594D01*
X62084254Y-44936612D01*
X61912775Y-45165682D01*
X61912770Y-45165690D01*
X61775635Y-45416833D01*
X61675628Y-45684962D01*
X61614804Y-45964566D01*
X61599500Y-46178549D01*
X60385017Y-46178549D01*
X60265966Y-46018635D01*
X60265961Y-46018629D01*
X60167765Y-45914548D01*
X60056965Y-45797107D01*
X60025279Y-45734839D01*
X60032289Y-45665322D01*
X60072849Y-45612750D01*
X60265895Y-45468239D01*
X60468239Y-45265895D01*
X60639726Y-45036815D01*
X60776867Y-44785661D01*
X60876869Y-44517546D01*
X60896863Y-44425633D01*
X60937695Y-44237933D01*
X60937695Y-44237932D01*
X60937696Y-44237928D01*
X60953000Y-44023948D01*
X60953000Y-41976052D01*
X60937696Y-41762072D01*
X60895228Y-41566851D01*
X60876871Y-41482462D01*
X60876870Y-41482460D01*
X60876869Y-41482454D01*
X60776867Y-41214339D01*
X60772619Y-41206560D01*
X60639729Y-40963190D01*
X60639724Y-40963182D01*
X60468245Y-40734112D01*
X60468229Y-40734094D01*
X60265905Y-40531770D01*
X60265887Y-40531754D01*
X60036817Y-40360275D01*
X60036814Y-40360273D01*
X60008579Y-40344856D01*
X59983636Y-40331236D01*
X59934231Y-40281831D01*
X59919379Y-40213559D01*
X59943795Y-40148094D01*
X59963358Y-40127414D01*
X60029906Y-40071574D01*
X60265963Y-39821368D01*
X60471376Y-39545450D01*
X60497617Y-39500000D01*
X63394473Y-39500000D01*
X63414563Y-39832136D01*
X63414563Y-39832141D01*
X63414564Y-39832142D01*
X63474544Y-40159441D01*
X63474545Y-40159445D01*
X63474546Y-40159449D01*
X63573530Y-40477104D01*
X63573534Y-40477116D01*
X63573537Y-40477123D01*
X63710102Y-40780557D01*
X63869453Y-41044156D01*
X63882251Y-41065326D01*
X64087460Y-41327255D01*
X64322744Y-41562539D01*
X64584673Y-41767748D01*
X64584678Y-41767751D01*
X64584682Y-41767754D01*
X64869443Y-41939898D01*
X65172877Y-42076463D01*
X65172890Y-42076467D01*
X65172895Y-42076469D01*
X65283361Y-42110891D01*
X65490559Y-42175456D01*
X65817858Y-42235436D01*
X66150000Y-42255527D01*
X66482142Y-42235436D01*
X66809441Y-42175456D01*
X67084099Y-42089869D01*
X67127104Y-42076469D01*
X67127104Y-42076468D01*
X67127123Y-42076463D01*
X67430557Y-41939898D01*
X67715318Y-41767754D01*
X67722579Y-41762066D01*
X67791740Y-41707881D01*
X67977252Y-41562542D01*
X68212542Y-41327252D01*
X68417754Y-41065318D01*
X68589898Y-40780557D01*
X68726463Y-40477123D01*
X68735790Y-40447193D01*
X68762875Y-40360273D01*
X68825456Y-40159441D01*
X68885436Y-39832142D01*
X68905527Y-39500000D01*
X68885436Y-39167858D01*
X68825456Y-38840559D01*
X68751170Y-38602164D01*
X68726469Y-38522895D01*
X68726467Y-38522890D01*
X68726463Y-38522877D01*
X68589898Y-38219443D01*
X68417754Y-37934682D01*
X68417751Y-37934678D01*
X68417748Y-37934673D01*
X68212539Y-37672744D01*
X67977255Y-37437460D01*
X67715326Y-37232251D01*
X67715318Y-37232246D01*
X67430557Y-37060102D01*
X67127123Y-36923537D01*
X67127116Y-36923534D01*
X67127104Y-36923530D01*
X66809449Y-36824546D01*
X66809445Y-36824545D01*
X66809441Y-36824544D01*
X66482142Y-36764564D01*
X66482141Y-36764563D01*
X66482136Y-36764563D01*
X66150000Y-36744473D01*
X65817863Y-36764563D01*
X65817858Y-36764564D01*
X65490559Y-36824544D01*
X65490556Y-36824544D01*
X65490550Y-36824546D01*
X65172895Y-36923530D01*
X65172879Y-36923536D01*
X65172877Y-36923537D01*
X64979656Y-37010498D01*
X64869447Y-37060100D01*
X64869445Y-37060101D01*
X64584673Y-37232251D01*
X64322744Y-37437460D01*
X64087460Y-37672744D01*
X63882251Y-37934673D01*
X63710101Y-38219445D01*
X63710100Y-38219447D01*
X63573536Y-38522880D01*
X63573530Y-38522895D01*
X63474546Y-38840550D01*
X63474544Y-38840556D01*
X63474544Y-38840559D01*
X63457842Y-38931698D01*
X63414563Y-39167863D01*
X63394473Y-39500000D01*
X60497617Y-39500000D01*
X60643369Y-39247550D01*
X60779615Y-38931697D01*
X60878271Y-38602163D01*
X60938003Y-38263403D01*
X60957149Y-37934682D01*
X60958004Y-37920003D01*
X60958004Y-37919996D01*
X60943603Y-37672748D01*
X60938003Y-37576597D01*
X60913470Y-37437460D01*
X60878273Y-37237845D01*
X60878270Y-37237835D01*
X60876599Y-37232251D01*
X60779615Y-36908303D01*
X60643369Y-36592450D01*
X60471376Y-36294550D01*
X60471375Y-36294548D01*
X60265966Y-36018635D01*
X60265961Y-36018629D01*
X60167765Y-35914548D01*
X60056965Y-35797107D01*
X60025279Y-35734839D01*
X60032289Y-35665322D01*
X60072849Y-35612750D01*
X60265895Y-35468239D01*
X60468239Y-35265895D01*
X60639726Y-35036815D01*
X60776867Y-34785661D01*
X60876869Y-34517546D01*
X60879777Y-34504179D01*
X60937695Y-34237933D01*
X60937695Y-34237932D01*
X60937696Y-34237928D01*
X60953000Y-34023948D01*
X60953000Y-31976052D01*
X60937696Y-31762072D01*
X60924094Y-31699546D01*
X60876871Y-31482462D01*
X60876870Y-31482460D01*
X60876869Y-31482454D01*
X60776867Y-31214339D01*
X60657548Y-30995824D01*
X60639729Y-30963190D01*
X60639724Y-30963182D01*
X60468245Y-30734112D01*
X60468229Y-30734094D01*
X60265905Y-30531770D01*
X60265887Y-30531754D01*
X60036817Y-30360275D01*
X60036814Y-30360273D01*
X60008579Y-30344856D01*
X59983636Y-30331236D01*
X59934231Y-30281831D01*
X59919379Y-30213559D01*
X59943795Y-30148094D01*
X59963358Y-30127414D01*
X60029906Y-30071574D01*
X60265963Y-29821368D01*
X60471376Y-29545450D01*
X60643369Y-29247550D01*
X60779615Y-28931697D01*
X60878271Y-28602163D01*
X60883905Y-28570214D01*
X60938001Y-28263414D01*
X60938000Y-28263414D01*
X60938003Y-28263403D01*
X60958004Y-27920000D01*
X60948103Y-27750000D01*
X62604674Y-27750000D01*
X62623960Y-28068853D01*
X62623960Y-28068858D01*
X62623961Y-28068859D01*
X62681542Y-28383068D01*
X62681543Y-28383072D01*
X62681544Y-28383076D01*
X62776570Y-28688028D01*
X62776576Y-28688043D01*
X62907677Y-28979339D01*
X62907678Y-28979340D01*
X62907680Y-28979344D01*
X62991471Y-29117953D01*
X63072937Y-29252714D01*
X63072943Y-29252723D01*
X63269947Y-29504179D01*
X63495820Y-29730052D01*
X63747276Y-29927056D01*
X63747285Y-29927062D01*
X63814665Y-29967794D01*
X64020656Y-30092320D01*
X64098631Y-30127414D01*
X64119762Y-30136924D01*
X64172817Y-30182389D01*
X64192869Y-30249319D01*
X64173553Y-30316466D01*
X64121001Y-30362510D01*
X64119762Y-30363076D01*
X64020660Y-30407677D01*
X64020658Y-30407679D01*
X63747285Y-30572937D01*
X63747276Y-30572943D01*
X63495820Y-30769947D01*
X63269947Y-30995820D01*
X63072943Y-31247276D01*
X63072937Y-31247285D01*
X62907679Y-31520658D01*
X62907677Y-31520660D01*
X62776576Y-31811956D01*
X62776570Y-31811971D01*
X62681544Y-32116923D01*
X62681542Y-32116929D01*
X62681542Y-32116932D01*
X62645710Y-32312460D01*
X62623960Y-32431146D01*
X62604674Y-32750000D01*
X62623960Y-33068853D01*
X62623960Y-33068858D01*
X62623961Y-33068859D01*
X62681542Y-33383068D01*
X62681543Y-33383072D01*
X62681544Y-33383076D01*
X62776570Y-33688028D01*
X62776576Y-33688043D01*
X62907677Y-33979339D01*
X62907678Y-33979340D01*
X62907680Y-33979344D01*
X62946076Y-34042858D01*
X63072937Y-34252714D01*
X63072943Y-34252723D01*
X63269947Y-34504179D01*
X63495820Y-34730052D01*
X63747276Y-34927056D01*
X63747285Y-34927062D01*
X63814665Y-34967794D01*
X64020656Y-35092320D01*
X64311954Y-35223423D01*
X64311963Y-35223425D01*
X64311971Y-35223429D01*
X64550543Y-35297770D01*
X64616932Y-35318458D01*
X64931141Y-35376039D01*
X65250000Y-35395326D01*
X65568859Y-35376039D01*
X65883068Y-35318458D01*
X66055268Y-35264798D01*
X66188028Y-35223429D01*
X66188032Y-35223427D01*
X66188046Y-35223423D01*
X66479344Y-35092320D01*
X66752716Y-34927061D01*
X66752718Y-34927058D01*
X66752723Y-34927056D01*
X66860096Y-34842933D01*
X67004176Y-34730055D01*
X67230055Y-34504176D01*
X67331258Y-34375000D01*
X73994473Y-34375000D01*
X74014563Y-34707136D01*
X74014563Y-34707141D01*
X74014564Y-34707142D01*
X74074544Y-35034441D01*
X74074545Y-35034445D01*
X74074546Y-35034449D01*
X74173530Y-35352104D01*
X74173534Y-35352116D01*
X74173537Y-35352123D01*
X74310102Y-35655557D01*
X74395674Y-35797110D01*
X74482251Y-35940326D01*
X74687460Y-36202255D01*
X74922744Y-36437539D01*
X75184673Y-36642748D01*
X75184678Y-36642751D01*
X75184682Y-36642754D01*
X75469443Y-36814898D01*
X75772877Y-36951463D01*
X75772890Y-36951467D01*
X75772895Y-36951469D01*
X75984665Y-37017458D01*
X76090559Y-37050456D01*
X76417858Y-37110436D01*
X76750000Y-37130527D01*
X77082142Y-37110436D01*
X77409441Y-37050456D01*
X77725291Y-36952034D01*
X77727104Y-36951469D01*
X77727104Y-36951468D01*
X77727123Y-36951463D01*
X78030557Y-36814898D01*
X78315318Y-36642754D01*
X78577252Y-36437542D01*
X78812542Y-36202252D01*
X79009065Y-35951409D01*
X79017748Y-35940326D01*
X79017748Y-35940324D01*
X79017754Y-35940318D01*
X79189898Y-35655557D01*
X79326463Y-35352123D01*
X79425456Y-35034441D01*
X79485436Y-34707142D01*
X79496975Y-34516376D01*
X140013482Y-34516376D01*
X140500000Y-35002893D01*
X140500001Y-35002893D01*
X140986516Y-34516376D01*
X140941996Y-34495616D01*
X140724414Y-34437316D01*
X140724403Y-34437314D01*
X140500002Y-34417682D01*
X140499998Y-34417682D01*
X140275596Y-34437314D01*
X140275585Y-34437316D01*
X140058000Y-34495618D01*
X140057998Y-34495618D01*
X140013483Y-34516375D01*
X140013482Y-34516376D01*
X79496975Y-34516376D01*
X79505527Y-34375000D01*
X79485436Y-34042858D01*
X79425456Y-33715559D01*
X79326463Y-33397877D01*
X79189898Y-33094443D01*
X79017754Y-32809682D01*
X79017751Y-32809678D01*
X79017748Y-32809673D01*
X78812539Y-32547744D01*
X78577255Y-32312460D01*
X78315326Y-32107251D01*
X78315318Y-32107246D01*
X78030557Y-31935102D01*
X77727123Y-31798537D01*
X77727116Y-31798534D01*
X77727104Y-31798530D01*
X77409449Y-31699546D01*
X77409445Y-31699545D01*
X77409441Y-31699544D01*
X77082142Y-31639564D01*
X77082141Y-31639563D01*
X77082136Y-31639563D01*
X76750000Y-31619473D01*
X76417863Y-31639563D01*
X76417858Y-31639564D01*
X76090559Y-31699544D01*
X76090556Y-31699544D01*
X76090550Y-31699546D01*
X75772895Y-31798530D01*
X75772879Y-31798536D01*
X75772877Y-31798537D01*
X75469443Y-31935102D01*
X75377823Y-31990487D01*
X75184673Y-32107251D01*
X74922744Y-32312460D01*
X74687460Y-32547744D01*
X74482251Y-32809673D01*
X74482246Y-32809682D01*
X74310102Y-33094443D01*
X74180199Y-33383076D01*
X74173536Y-33397880D01*
X74173530Y-33397895D01*
X74074546Y-33715550D01*
X74014563Y-34042863D01*
X73994473Y-34375000D01*
X67331258Y-34375000D01*
X67427061Y-34252716D01*
X67592320Y-33979344D01*
X67723423Y-33688046D01*
X67818458Y-33383068D01*
X67876039Y-33068859D01*
X67895326Y-32750000D01*
X67876039Y-32431141D01*
X67818458Y-32116932D01*
X67774557Y-31976049D01*
X67723429Y-31811971D01*
X67723425Y-31811963D01*
X67723423Y-31811954D01*
X67592320Y-31520656D01*
X67427061Y-31247284D01*
X67427056Y-31247276D01*
X67230052Y-30995820D01*
X67004179Y-30769947D01*
X66752723Y-30572943D01*
X66752714Y-30572937D01*
X66617953Y-30491471D01*
X66479344Y-30407680D01*
X66380235Y-30363074D01*
X66327183Y-30317612D01*
X66307130Y-30250681D01*
X66326446Y-30183535D01*
X66378998Y-30137490D01*
X66380151Y-30136963D01*
X66479344Y-30092320D01*
X66752716Y-29927061D01*
X66752718Y-29927058D01*
X66752723Y-29927056D01*
X66887628Y-29821364D01*
X67004176Y-29730055D01*
X67230055Y-29504176D01*
X67396334Y-29291936D01*
X67427056Y-29252723D01*
X67427062Y-29252714D01*
X67592320Y-28979344D01*
X67723423Y-28688046D01*
X67818458Y-28383068D01*
X67876039Y-28068859D01*
X67895326Y-27750000D01*
X67887990Y-27628711D01*
X74649500Y-27628711D01*
X74649500Y-27871288D01*
X74681161Y-28111785D01*
X74743947Y-28346104D01*
X74836773Y-28570205D01*
X74836776Y-28570212D01*
X74958064Y-28780289D01*
X74958066Y-28780292D01*
X74958067Y-28780293D01*
X75105733Y-28972736D01*
X75105739Y-28972743D01*
X75277256Y-29144260D01*
X75277262Y-29144265D01*
X75469711Y-29291936D01*
X75679788Y-29413224D01*
X75903900Y-29506054D01*
X76138211Y-29568838D01*
X76318586Y-29592584D01*
X76378711Y-29600500D01*
X76378712Y-29600500D01*
X76621289Y-29600500D01*
X76669388Y-29594167D01*
X76861789Y-29568838D01*
X77096100Y-29506054D01*
X77320212Y-29413224D01*
X77530289Y-29291936D01*
X77722738Y-29144265D01*
X77894265Y-28972738D01*
X78041936Y-28780289D01*
X78163224Y-28570212D01*
X78256054Y-28346100D01*
X78318838Y-28111789D01*
X78350500Y-27871288D01*
X78350500Y-27628712D01*
X78350500Y-27628711D01*
X138649500Y-27628711D01*
X138649500Y-27871288D01*
X138681161Y-28111785D01*
X138743947Y-28346104D01*
X138836773Y-28570205D01*
X138836776Y-28570212D01*
X138958064Y-28780289D01*
X138958066Y-28780292D01*
X138958067Y-28780293D01*
X139105733Y-28972736D01*
X139105739Y-28972743D01*
X139277256Y-29144260D01*
X139277262Y-29144265D01*
X139469711Y-29291936D01*
X139679788Y-29413224D01*
X139903900Y-29506054D01*
X140138211Y-29568838D01*
X140318586Y-29592584D01*
X140378711Y-29600500D01*
X140378712Y-29600500D01*
X140621289Y-29600500D01*
X140669388Y-29594167D01*
X140861789Y-29568838D01*
X141096100Y-29506054D01*
X141320212Y-29413224D01*
X141530289Y-29291936D01*
X141722738Y-29144265D01*
X141894265Y-28972738D01*
X142041936Y-28780289D01*
X142163224Y-28570212D01*
X142256054Y-28346100D01*
X142318838Y-28111789D01*
X142350500Y-27871288D01*
X142350500Y-27628712D01*
X142318838Y-27388211D01*
X142256054Y-27153900D01*
X142163224Y-26929788D01*
X142041936Y-26719711D01*
X141944292Y-26592458D01*
X141894266Y-26527263D01*
X141894260Y-26527256D01*
X141722743Y-26355739D01*
X141722736Y-26355733D01*
X141530293Y-26208067D01*
X141530292Y-26208066D01*
X141530289Y-26208064D01*
X141320212Y-26086776D01*
X141320205Y-26086773D01*
X141096104Y-25993947D01*
X140861785Y-25931161D01*
X140621289Y-25899500D01*
X140621288Y-25899500D01*
X140378712Y-25899500D01*
X140378711Y-25899500D01*
X140138214Y-25931161D01*
X139903895Y-25993947D01*
X139679794Y-26086773D01*
X139679785Y-26086777D01*
X139469706Y-26208067D01*
X139277263Y-26355733D01*
X139277256Y-26355739D01*
X139105739Y-26527256D01*
X139105733Y-26527263D01*
X138958067Y-26719706D01*
X138836777Y-26929785D01*
X138836773Y-26929794D01*
X138743947Y-27153895D01*
X138681161Y-27388214D01*
X138649500Y-27628711D01*
X78350500Y-27628711D01*
X78318838Y-27388211D01*
X78256054Y-27153900D01*
X78163224Y-26929788D01*
X78041936Y-26719711D01*
X77944292Y-26592458D01*
X77894266Y-26527263D01*
X77894260Y-26527256D01*
X77722743Y-26355739D01*
X77722736Y-26355733D01*
X77530293Y-26208067D01*
X77530292Y-26208066D01*
X77530289Y-26208064D01*
X77320212Y-26086776D01*
X77320205Y-26086773D01*
X77096104Y-25993947D01*
X76861785Y-25931161D01*
X76621289Y-25899500D01*
X76621288Y-25899500D01*
X76378712Y-25899500D01*
X76378711Y-25899500D01*
X76138214Y-25931161D01*
X75903895Y-25993947D01*
X75679794Y-26086773D01*
X75679785Y-26086777D01*
X75469706Y-26208067D01*
X75277263Y-26355733D01*
X75277256Y-26355739D01*
X75105739Y-26527256D01*
X75105733Y-26527263D01*
X74958067Y-26719706D01*
X74836777Y-26929785D01*
X74836773Y-26929794D01*
X74743947Y-27153895D01*
X74681161Y-27388214D01*
X74649500Y-27628711D01*
X67887990Y-27628711D01*
X67876039Y-27431141D01*
X67818458Y-27116932D01*
X67797770Y-27050543D01*
X67723429Y-26811971D01*
X67723425Y-26811963D01*
X67723423Y-26811954D01*
X67595293Y-26527262D01*
X67592322Y-26520660D01*
X67592321Y-26520659D01*
X67592320Y-26520656D01*
X67427061Y-26247284D01*
X67427056Y-26247276D01*
X67230052Y-25995820D01*
X67004179Y-25769947D01*
X66752723Y-25572943D01*
X66752714Y-25572937D01*
X66617953Y-25491471D01*
X66479344Y-25407680D01*
X66479340Y-25407678D01*
X66479339Y-25407677D01*
X66280790Y-25318318D01*
X66188046Y-25276577D01*
X66188043Y-25276576D01*
X66188028Y-25276570D01*
X65883076Y-25181544D01*
X65883072Y-25181543D01*
X65883068Y-25181542D01*
X65568859Y-25123961D01*
X65568858Y-25123960D01*
X65568853Y-25123960D01*
X65250000Y-25104674D01*
X64931146Y-25123960D01*
X64931141Y-25123961D01*
X64616932Y-25181542D01*
X64616929Y-25181542D01*
X64616923Y-25181544D01*
X64311971Y-25276570D01*
X64311956Y-25276576D01*
X64020660Y-25407677D01*
X64020658Y-25407679D01*
X63747285Y-25572937D01*
X63747276Y-25572943D01*
X63495820Y-25769947D01*
X63269947Y-25995820D01*
X63072943Y-26247276D01*
X63072937Y-26247285D01*
X62907679Y-26520658D01*
X62907677Y-26520660D01*
X62776576Y-26811956D01*
X62776570Y-26811971D01*
X62681544Y-27116923D01*
X62681542Y-27116929D01*
X62681542Y-27116932D01*
X62659386Y-27237835D01*
X62623960Y-27431146D01*
X62604674Y-27750000D01*
X60948103Y-27750000D01*
X60938003Y-27576597D01*
X60938001Y-27576585D01*
X60878273Y-27237845D01*
X60878270Y-27237835D01*
X60842072Y-27116923D01*
X60779615Y-26908303D01*
X60643369Y-26592450D01*
X60471376Y-26294550D01*
X60406990Y-26208064D01*
X60265966Y-26018635D01*
X60265961Y-26018629D01*
X60151820Y-25897648D01*
X60029906Y-25768426D01*
X60029899Y-25768420D01*
X60029897Y-25768418D01*
X59766402Y-25547318D01*
X59554091Y-25407680D01*
X59479002Y-25358293D01*
X59473796Y-25355678D01*
X59171613Y-25203916D01*
X59171607Y-25203913D01*
X58848366Y-25086263D01*
X58848363Y-25086262D01*
X58513654Y-25006935D01*
X58445320Y-24998948D01*
X58171993Y-24967000D01*
X57828007Y-24967000D01*
X57579527Y-24996043D01*
X57486345Y-25006935D01*
X57151636Y-25086262D01*
X57151633Y-25086263D01*
X56828392Y-25203913D01*
X56828386Y-25203916D01*
X56521001Y-25358291D01*
X56233597Y-25547318D01*
X55970102Y-25768418D01*
X55970092Y-25768428D01*
X55734038Y-26018629D01*
X55734033Y-26018635D01*
X55528624Y-26294548D01*
X55356633Y-26592445D01*
X55356627Y-26592458D01*
X55220385Y-26908301D01*
X55121729Y-27237835D01*
X55121726Y-27237845D01*
X55061998Y-27576585D01*
X55061997Y-27576596D01*
X55041996Y-27919996D01*
X52458004Y-27919996D01*
X52438003Y-27576597D01*
X52438001Y-27576585D01*
X52378273Y-27237845D01*
X52378270Y-27237835D01*
X52342072Y-27116923D01*
X52279615Y-26908303D01*
X52143369Y-26592450D01*
X51971376Y-26294550D01*
X51906990Y-26208064D01*
X51765966Y-26018635D01*
X51765961Y-26018629D01*
X51651820Y-25897648D01*
X51529906Y-25768426D01*
X51529899Y-25768420D01*
X51529897Y-25768418D01*
X51266402Y-25547318D01*
X51054091Y-25407680D01*
X50979002Y-25358293D01*
X50973796Y-25355678D01*
X50671613Y-25203916D01*
X50671607Y-25203913D01*
X50348366Y-25086263D01*
X50348363Y-25086262D01*
X50013654Y-25006935D01*
X49945320Y-24998948D01*
X49671993Y-24967000D01*
X49328007Y-24967000D01*
X49079527Y-24996043D01*
X48986345Y-25006935D01*
X48651636Y-25086262D01*
X48651633Y-25086263D01*
X48328392Y-25203913D01*
X48328386Y-25203916D01*
X48021001Y-25358291D01*
X47733597Y-25547318D01*
X47470102Y-25768418D01*
X47470092Y-25768428D01*
X47234038Y-26018629D01*
X47234033Y-26018635D01*
X47028624Y-26294548D01*
X46856633Y-26592445D01*
X46856627Y-26592458D01*
X46720385Y-26908301D01*
X46621729Y-27237835D01*
X46621726Y-27237845D01*
X46561998Y-27576585D01*
X46561997Y-27576596D01*
X46541996Y-27919996D01*
X45000500Y-27919996D01*
X45000500Y-24756961D01*
X45001280Y-24743077D01*
X45001280Y-24743076D01*
X45011459Y-24652731D01*
X45017635Y-24625670D01*
X45045353Y-24546456D01*
X45057396Y-24521450D01*
X45102046Y-24450389D01*
X45119351Y-24428690D01*
X45178690Y-24369351D01*
X45200389Y-24352046D01*
X45271450Y-24307396D01*
X45296456Y-24295353D01*
X45375670Y-24267635D01*
X45402733Y-24261459D01*
X45465419Y-24254396D01*
X45493079Y-24251280D01*
X45506962Y-24250500D01*
X45565892Y-24250500D01*
X143434108Y-24250500D01*
X143493038Y-24250500D01*
X143506922Y-24251280D01*
G37*
%TD.AperFunction*%
%TD*%
M02*
