%TF.GenerationSoftware,KiCad,Pcbnew,8.0.4*%
%TF.CreationDate,2024-10-11T12:17:29-04:00*%
%TF.ProjectId,SmallBooster,536d616c-6c42-46f6-9f73-7465722e6b69,rev?*%
%TF.SameCoordinates,Original*%
%TF.FileFunction,Copper,L2,Inr*%
%TF.FilePolarity,Positive*%
%FSLAX46Y46*%
G04 Gerber Fmt 4.6, Leading zero omitted, Abs format (unit mm)*
G04 Created by KiCad (PCBNEW 8.0.4) date 2024-10-11 12:17:29*
%MOMM*%
%LPD*%
G01*
G04 APERTURE LIST*
%TA.AperFunction,ComponentPad*%
%ADD10C,1.600000*%
%TD*%
%TA.AperFunction,ComponentPad*%
%ADD11O,1.600000X1.600000*%
%TD*%
%TA.AperFunction,ComponentPad*%
%ADD12C,1.000000*%
%TD*%
%TA.AperFunction,ComponentPad*%
%ADD13C,1.574800*%
%TD*%
%TA.AperFunction,ComponentPad*%
%ADD14C,3.500000*%
%TD*%
%TA.AperFunction,ComponentPad*%
%ADD15R,3.000000X3.000000*%
%TD*%
%TA.AperFunction,ComponentPad*%
%ADD16C,3.000000*%
%TD*%
%TA.AperFunction,ComponentPad*%
%ADD17C,1.280000*%
%TD*%
%TA.AperFunction,ComponentPad*%
%ADD18R,1.500000X1.500000*%
%TD*%
%TA.AperFunction,ComponentPad*%
%ADD19C,1.500000*%
%TD*%
%TA.AperFunction,ComponentPad*%
%ADD20R,1.422400X1.422400*%
%TD*%
%TA.AperFunction,ComponentPad*%
%ADD21C,1.422400*%
%TD*%
%TA.AperFunction,ComponentPad*%
%ADD22R,1.905000X1.905000*%
%TD*%
%TA.AperFunction,ComponentPad*%
%ADD23C,1.905000*%
%TD*%
%TA.AperFunction,ComponentPad*%
%ADD24C,1.270000*%
%TD*%
%TA.AperFunction,ComponentPad*%
%ADD25C,4.000000*%
%TD*%
%TA.AperFunction,ComponentPad*%
%ADD26C,2.500000*%
%TD*%
%TA.AperFunction,ComponentPad*%
%ADD27C,2.000000*%
%TD*%
%TA.AperFunction,ComponentPad*%
%ADD28R,1.635000X1.635000*%
%TD*%
%TA.AperFunction,ComponentPad*%
%ADD29C,1.635000*%
%TD*%
%TA.AperFunction,ComponentPad*%
%ADD30C,2.970000*%
%TD*%
%TA.AperFunction,ComponentPad*%
%ADD31C,3.076000*%
%TD*%
%TA.AperFunction,ViaPad*%
%ADD32C,0.600000*%
%TD*%
%TA.AperFunction,Conductor*%
%ADD33C,0.500000*%
%TD*%
%TA.AperFunction,Conductor*%
%ADD34C,1.000000*%
%TD*%
G04 APERTURE END LIST*
D10*
%TO.N,PGND*%
%TO.C,R48*%
X105000000Y-139935000D03*
D11*
%TO.N,Net-(NE1-Pad1)*%
X105000000Y-145015000D03*
%TD*%
D12*
%TO.N,Net-(NE1-Pad1)*%
%TO.C,NE1*%
X105000000Y-164750000D03*
%TO.N,BUCK+*%
X105000000Y-167750000D03*
%TD*%
D13*
%TO.N,PGND*%
%TO.C,J18*%
X140500000Y-35710000D03*
%TO.N,+12V*%
X140500000Y-38250000D03*
%TO.N,unconnected-(J18-Pin_3-Pad3)*%
X140500000Y-40790000D03*
%TO.N,unconnected-(J18-Pin_4-Pad4)*%
X140500000Y-43330000D03*
%TD*%
D14*
%TO.N,Net-(D3-A)*%
%TO.C,L1*%
X105070000Y-111368000D03*
%TO.N,Net-(U1-D-Anode(2))*%
X105070000Y-132368000D03*
%TD*%
D15*
%TO.N,BUCK+*%
%TO.C,C5*%
X86570000Y-158868000D03*
D16*
%TO.N,PGND*%
X86570000Y-148868000D03*
%TD*%
D17*
%TO.N,G_AC2*%
%TO.C,C10*%
X60500000Y-145250000D03*
%TO.N,Earth*%
X65500000Y-145250000D03*
%TD*%
%TO.N,Earth*%
%TO.C,C9*%
X65250000Y-58250000D03*
%TO.N,IN_AC2*%
X65250000Y-53250000D03*
%TD*%
D18*
%TO.N,IN_AC2*%
%TO.C,C7*%
X76750000Y-56875000D03*
D19*
%TO.N,IN_AC1*%
X76750000Y-34375000D03*
%TD*%
D20*
%TO.N,IN_AC2*%
%TO.C,TH1*%
X70250000Y-122000000D03*
D21*
%TO.N,Net-(FL1-Pad3)*%
X70250000Y-117000000D03*
%TD*%
D14*
%TO.N,PGND*%
%TO.C,J3*%
X97500000Y-137000000D03*
%TD*%
D22*
%TO.N,IN_AC2*%
%TO.C,J9*%
X49500000Y-53000000D03*
D23*
X49500000Y-47920000D03*
%TD*%
D24*
%TO.N,+18*%
%TO.C,C17*%
X73750000Y-170250000D03*
%TO.N,PGND*%
X70752800Y-170250000D03*
%TD*%
D18*
%TO.N,IN_AC2*%
%TO.C,RV1*%
X64350000Y-47000000D03*
D19*
%TO.N,IN_AC1*%
X66150000Y-39500000D03*
%TD*%
D22*
%TO.N,IN_AC1*%
%TO.C,J10*%
X58000000Y-43000000D03*
D23*
X58000000Y-37920000D03*
%TD*%
D22*
%TO.N,Earth*%
%TO.C,J12*%
X49500000Y-33000000D03*
D23*
X49500000Y-27920000D03*
%TD*%
D24*
%TO.N,+18*%
%TO.C,C21*%
X138386400Y-49250000D03*
%TO.N,PGND*%
X141383600Y-49250000D03*
%TD*%
D14*
%TO.N,Net-(J5-Pin_1)*%
%TO.C,J5*%
X112500000Y-137000000D03*
%TD*%
D17*
%TO.N,Earth*%
%TO.C,C11*%
X65500000Y-149750000D03*
%TO.N,G_AC1*%
X60500000Y-149750000D03*
%TD*%
D22*
%TO.N,Earth*%
%TO.C,J13*%
X58000000Y-33000000D03*
D23*
X58000000Y-27920000D03*
%TD*%
D22*
%TO.N,PGND*%
%TO.C,J16*%
X141750000Y-108250000D03*
D23*
X141750000Y-113330000D03*
%TD*%
D22*
%TO.N,IN_AC2*%
%TO.C,J8*%
X58000000Y-53000000D03*
D23*
X58000000Y-47920000D03*
%TD*%
D22*
%TO.N,OUT_P*%
%TO.C,J15*%
X141750000Y-136750000D03*
D23*
X141750000Y-141830000D03*
%TD*%
D14*
%TO.N,BUCK+*%
%TO.C,J2*%
X97500000Y-170500000D03*
%TD*%
D22*
%TO.N,OUT_P*%
%TO.C,J14*%
X141750000Y-125000000D03*
D23*
X141750000Y-130080000D03*
%TD*%
D18*
%TO.N,G_AC1*%
%TO.C,C6*%
X52000000Y-145125000D03*
D19*
%TO.N,G_AC2*%
X52000000Y-167625000D03*
%TD*%
D15*
%TO.N,OUT_P*%
%TO.C,C4*%
X123570000Y-158868000D03*
D16*
%TO.N,Net-(J5-Pin_1)*%
X123570000Y-148868000D03*
%TD*%
D14*
%TO.N,IN_AC1*%
%TO.C,FL1*%
X49400000Y-106750000D03*
%TO.N,G_AC1*%
X62000000Y-106750000D03*
%TO.N,Net-(FL1-Pad3)*%
X49400000Y-116750000D03*
%TO.N,G_AC2*%
X62000000Y-116750000D03*
%TD*%
%TO.N,OUT_P*%
%TO.C,J4*%
X112500000Y-170500000D03*
%TD*%
D18*
%TO.N,Net-(U1-GBJ-N)*%
%TO.C,C1*%
X48125000Y-134250000D03*
D19*
%TO.N,Net-(D3-A)*%
X70625000Y-134250000D03*
%TD*%
D25*
%TO.N,PGND*%
%TO.C,U1*%
X87870000Y-51932000D03*
X87870000Y-105868000D03*
X122570000Y-51932000D03*
X122570000Y-105868000D03*
D26*
%TO.N,Net-(D3-A)*%
X82370000Y-66400000D03*
%TO.N,G_AC1*%
X82370000Y-76400000D03*
%TO.N,G_AC2*%
X82370000Y-83900000D03*
%TO.N,Net-(U1-GBJ-N)*%
X82370000Y-91400000D03*
%TO.N,OUT_P*%
X126630000Y-94006667D03*
%TO.N,Net-(U1-D-Anode(2))*%
X126630000Y-83126667D03*
X126630000Y-74438333D03*
%TO.N,PGND*%
X126630000Y-69358333D03*
D27*
X126630000Y-66568333D03*
%TO.N,GATE2*%
X126630000Y-64028333D03*
%TD*%
D22*
%TO.N,IN_AC1*%
%TO.C,J11*%
X49500000Y-43000000D03*
D23*
X49500000Y-37920000D03*
%TD*%
D22*
%TO.N,PGND*%
%TO.C,J17*%
X141750000Y-98170000D03*
D23*
X141750000Y-103250000D03*
%TD*%
D17*
%TO.N,IN_AC1*%
%TO.C,C8*%
X65250000Y-32750000D03*
%TO.N,Earth*%
X65250000Y-27750000D03*
%TD*%
D28*
%TO.N,+12V*%
%TO.C,K1*%
X53560000Y-86950000D03*
D29*
%TO.N,Net-(D4-A)*%
X63720000Y-86950000D03*
D30*
%TO.N,IN_AC2*%
X49750000Y-74250000D03*
D31*
%TO.N,Net-(FL1-Pad3)*%
X67530000Y-71710000D03*
%TD*%
D19*
%TO.N,Net-(D5-K)*%
%TO.C,L2*%
X66500000Y-160750000D03*
%TO.N,+18*%
X61500000Y-160750000D03*
%TD*%
D32*
%TO.N,PGND*%
X52250000Y-90000000D03*
X134250000Y-66750000D03*
%TO.N,GATE1*%
X135000000Y-78250000D03*
%TO.N,+18*%
X107500000Y-97000000D03*
%TO.N,BOP*%
X78250000Y-99250000D03*
%TO.N,PGND*%
X74000000Y-98000000D03*
%TO.N,VB_OK*%
X78250000Y-101000000D03*
%TO.N,GATE1*%
X106750000Y-89750000D03*
%TO.N,VB_OK*%
X109250000Y-88250000D03*
%TO.N,BOP*%
X107750000Y-89750000D03*
%TO.N,PGND*%
X105750000Y-93250000D03*
X104500000Y-80250000D03*
X105500000Y-80250000D03*
X106500000Y-80250000D03*
X107500000Y-80250000D03*
X106500000Y-79250000D03*
X104500000Y-78250000D03*
X105500000Y-78250000D03*
X106500000Y-78250000D03*
X104500000Y-79250000D03*
X105500000Y-79250000D03*
X107500000Y-78250000D03*
X107500000Y-79250000D03*
X106500000Y-77250000D03*
X104500000Y-76250000D03*
X105500000Y-76250000D03*
X106500000Y-76250000D03*
X104500000Y-77250000D03*
X105500000Y-77250000D03*
X107500000Y-76250000D03*
X107500000Y-77250000D03*
X106500000Y-75250000D03*
X104500000Y-74250000D03*
X105500000Y-74250000D03*
X106500000Y-74250000D03*
X104500000Y-75250000D03*
X105500000Y-75250000D03*
X107500000Y-74250000D03*
X107500000Y-75250000D03*
X106500000Y-73250000D03*
X104500000Y-72250000D03*
X105500000Y-72250000D03*
X106500000Y-72250000D03*
X104500000Y-73250000D03*
X105500000Y-73250000D03*
X107500000Y-72250000D03*
X107500000Y-73250000D03*
X106500000Y-71250000D03*
X104500000Y-70250000D03*
X105500000Y-70250000D03*
X106500000Y-70250000D03*
X104500000Y-71250000D03*
X105500000Y-71250000D03*
X107500000Y-70250000D03*
X107500000Y-71250000D03*
X106500000Y-69250000D03*
X104500000Y-68250000D03*
X105500000Y-68250000D03*
X106500000Y-68250000D03*
X104500000Y-69250000D03*
X105500000Y-69250000D03*
X107500000Y-68250000D03*
X107500000Y-69250000D03*
X106500000Y-67250000D03*
X104500000Y-66250000D03*
X105500000Y-66250000D03*
X106500000Y-66250000D03*
X104500000Y-67250000D03*
X105500000Y-67250000D03*
X107500000Y-66250000D03*
X107500000Y-67250000D03*
X107500000Y-65250000D03*
X106500000Y-65250000D03*
X105500000Y-65250000D03*
X104500000Y-65250000D03*
X107500000Y-64250000D03*
X106500000Y-64250000D03*
X105500000Y-64250000D03*
X104500000Y-64250000D03*
X76250000Y-164500000D03*
X56500000Y-162750000D03*
X64750000Y-84000000D03*
%TO.N,+18*%
X131000000Y-67500000D03*
X131750000Y-65500000D03*
%TD*%
D33*
%TO.N,+18*%
X138386400Y-65500000D02*
X138386400Y-64863600D01*
X131750000Y-65500000D02*
X138386400Y-65500000D01*
D34*
%TO.N,G_AC1*%
X54875000Y-145125000D02*
X52000000Y-145125000D01*
X59500000Y-149750000D02*
X54875000Y-145125000D01*
X60500000Y-149750000D02*
X59500000Y-149750000D01*
X55000000Y-145125000D02*
X55000000Y-113750000D01*
X55000000Y-113750000D02*
X62000000Y-106750000D01*
X52000000Y-145125000D02*
X55000000Y-145125000D01*
D33*
%TO.N,+18*%
X138136400Y-79750000D02*
X138386400Y-80000000D01*
X120250000Y-79750000D02*
X138136400Y-79750000D01*
X109500000Y-95000000D02*
X109500000Y-90500000D01*
D34*
X138386400Y-80000000D02*
X138386400Y-117613600D01*
D33*
X107500000Y-97000000D02*
X109500000Y-95000000D01*
X109500000Y-90500000D02*
X120250000Y-79750000D01*
D34*
X138386400Y-64863600D02*
X138386400Y-80000000D01*
X85750000Y-170250000D02*
X73750000Y-170250000D01*
X138386400Y-117613600D02*
X85750000Y-170250000D01*
X138386400Y-64863600D02*
X138386400Y-49250000D01*
D33*
%TO.N,GATE1*%
X118000000Y-78250000D02*
X135000000Y-78250000D01*
X106750000Y-89500000D02*
X118000000Y-78250000D01*
X106750000Y-89750000D02*
X106750000Y-89500000D01*
%TO.N,BOP*%
X107750000Y-92750000D02*
X107750000Y-89750000D01*
X101250000Y-99250000D02*
X107750000Y-92750000D01*
X78250000Y-99250000D02*
X101250000Y-99250000D01*
%TO.N,VB_OK*%
X101750000Y-101000000D02*
X78250000Y-101000000D01*
X108500000Y-94250000D02*
X101750000Y-101000000D01*
X108500000Y-89000000D02*
X108500000Y-94250000D01*
X109250000Y-88250000D02*
X108500000Y-89000000D01*
D34*
%TO.N,G_AC2*%
X52000000Y-167625000D02*
X52000000Y-163500000D01*
X63250000Y-146500000D02*
X62000000Y-145250000D01*
X63250000Y-152250000D02*
X63250000Y-146500000D01*
X62000000Y-145250000D02*
X62000000Y-116750000D01*
X60500000Y-145250000D02*
X62000000Y-145250000D01*
X52000000Y-163500000D02*
X63250000Y-152250000D01*
D33*
%TO.N,+18*%
X131000000Y-66250000D02*
X131750000Y-65500000D01*
X131000000Y-67500000D02*
X131000000Y-66250000D01*
D34*
%TO.N,Net-(FL1-Pad3)*%
X70250000Y-117000000D02*
X70250000Y-74430000D01*
X70250000Y-74430000D02*
X67530000Y-71710000D01*
%TO.N,Earth*%
X75000000Y-68000000D02*
X65250000Y-58250000D01*
X65500000Y-149750000D02*
X65500000Y-145250000D01*
X65500000Y-145250000D02*
X75000000Y-135750000D01*
X75000000Y-135750000D02*
X75000000Y-68000000D01*
%TO.N,IN_AC2*%
X49750000Y-76000000D02*
X49750000Y-74250000D01*
X70250000Y-122000000D02*
X66500000Y-118250000D01*
X66500000Y-92750000D02*
X49750000Y-76000000D01*
X66500000Y-118250000D02*
X66500000Y-92750000D01*
%TD*%
%TA.AperFunction,Conductor*%
%TO.N,Earth*%
G36*
X68693039Y-24270185D02*
G01*
X68738794Y-24322989D01*
X68750000Y-24374500D01*
X68750000Y-59876000D01*
X68730315Y-59943039D01*
X68677511Y-59988794D01*
X68626000Y-60000000D01*
X45124500Y-60000000D01*
X45057461Y-59980315D01*
X45011706Y-59927511D01*
X45000500Y-59876000D01*
X45000500Y-58249999D01*
X64105116Y-58249999D01*
X64105116Y-58250000D01*
X64124609Y-58460369D01*
X64182427Y-58663581D01*
X64276600Y-58852703D01*
X64283975Y-58862470D01*
X64828274Y-58318172D01*
X64853963Y-58414044D01*
X64909916Y-58510956D01*
X64989044Y-58590084D01*
X65085956Y-58646037D01*
X65181827Y-58671725D01*
X64640255Y-59213295D01*
X64739680Y-59274857D01*
X64739681Y-59274858D01*
X64936685Y-59351177D01*
X65144365Y-59390000D01*
X65355635Y-59390000D01*
X65563319Y-59351176D01*
X65760309Y-59274861D01*
X65760327Y-59274852D01*
X65859742Y-59213296D01*
X65859742Y-59213295D01*
X65318173Y-58671725D01*
X65414044Y-58646037D01*
X65510956Y-58590084D01*
X65590084Y-58510956D01*
X65646037Y-58414044D01*
X65671725Y-58318172D01*
X66216023Y-58862470D01*
X66223401Y-58852700D01*
X66223403Y-58852697D01*
X66317572Y-58663582D01*
X66375390Y-58460369D01*
X66394884Y-58250000D01*
X66394884Y-58249999D01*
X66375390Y-58039630D01*
X66317572Y-57836418D01*
X66223399Y-57647295D01*
X66216024Y-57637528D01*
X65671725Y-58181826D01*
X65646037Y-58085956D01*
X65590084Y-57989044D01*
X65510956Y-57909916D01*
X65414044Y-57853963D01*
X65318173Y-57828274D01*
X65859743Y-57286703D01*
X65760319Y-57225142D01*
X65760318Y-57225141D01*
X65563314Y-57148822D01*
X65355635Y-57110000D01*
X65144365Y-57110000D01*
X64936685Y-57148822D01*
X64739683Y-57225140D01*
X64739677Y-57225143D01*
X64640256Y-57286702D01*
X64640255Y-57286703D01*
X65181827Y-57828274D01*
X65085956Y-57853963D01*
X64989044Y-57909916D01*
X64909916Y-57989044D01*
X64853963Y-58085956D01*
X64828274Y-58181827D01*
X64283974Y-57637527D01*
X64276602Y-57647292D01*
X64276598Y-57647298D01*
X64182427Y-57836418D01*
X64124609Y-58039630D01*
X64105116Y-58249999D01*
X45000500Y-58249999D01*
X45000500Y-51989466D01*
X47547000Y-51989466D01*
X47547000Y-54010528D01*
X47547001Y-54010534D01*
X47557613Y-54129915D01*
X47613589Y-54325545D01*
X47613590Y-54325548D01*
X47613591Y-54325549D01*
X47707802Y-54505907D01*
X47707804Y-54505909D01*
X47836390Y-54663609D01*
X47900908Y-54716216D01*
X47994093Y-54792198D01*
X48174451Y-54886409D01*
X48370082Y-54942386D01*
X48489463Y-54953000D01*
X50510536Y-54952999D01*
X50629918Y-54942386D01*
X50825549Y-54886409D01*
X51005907Y-54792198D01*
X51163609Y-54663609D01*
X51292198Y-54505907D01*
X51386409Y-54325549D01*
X51442386Y-54129918D01*
X51453000Y-54010537D01*
X51452999Y-51989466D01*
X56047000Y-51989466D01*
X56047000Y-54010528D01*
X56047001Y-54010534D01*
X56057613Y-54129915D01*
X56113589Y-54325545D01*
X56113590Y-54325548D01*
X56113591Y-54325549D01*
X56207802Y-54505907D01*
X56207804Y-54505909D01*
X56336390Y-54663609D01*
X56400908Y-54716216D01*
X56494093Y-54792198D01*
X56674451Y-54886409D01*
X56870082Y-54942386D01*
X56989463Y-54953000D01*
X59010536Y-54952999D01*
X59129918Y-54942386D01*
X59325549Y-54886409D01*
X59505907Y-54792198D01*
X59663609Y-54663609D01*
X59792198Y-54505907D01*
X59886409Y-54325549D01*
X59942386Y-54129918D01*
X59953000Y-54010537D01*
X59953000Y-53250000D01*
X63604427Y-53250000D01*
X63624687Y-53507427D01*
X63684964Y-53758500D01*
X63684968Y-53758512D01*
X63783781Y-53997070D01*
X63783783Y-53997074D01*
X63783784Y-53997075D01*
X63918703Y-54217244D01*
X64086404Y-54413596D01*
X64282756Y-54581297D01*
X64502925Y-54716216D01*
X64502927Y-54716216D01*
X64502929Y-54716218D01*
X64577312Y-54747028D01*
X64741490Y-54815033D01*
X64992576Y-54875313D01*
X65250000Y-54895573D01*
X65507424Y-54875313D01*
X65758510Y-54815033D01*
X65997075Y-54716216D01*
X66217244Y-54581297D01*
X66413596Y-54413596D01*
X66581297Y-54217244D01*
X66716216Y-53997075D01*
X66815033Y-53758510D01*
X66875313Y-53507424D01*
X66895573Y-53250000D01*
X66875313Y-52992576D01*
X66815033Y-52741490D01*
X66716216Y-52502925D01*
X66581297Y-52282756D01*
X66413596Y-52086404D01*
X66217244Y-51918703D01*
X65997075Y-51783784D01*
X65997074Y-51783783D01*
X65997070Y-51783781D01*
X65758512Y-51684968D01*
X65758514Y-51684968D01*
X65758510Y-51684967D01*
X65758506Y-51684966D01*
X65758500Y-51684964D01*
X65507427Y-51624687D01*
X65250000Y-51604427D01*
X64992572Y-51624687D01*
X64741499Y-51684964D01*
X64741487Y-51684968D01*
X64502929Y-51783781D01*
X64282755Y-51918703D01*
X64086404Y-52086404D01*
X63918703Y-52282755D01*
X63783781Y-52502929D01*
X63684968Y-52741487D01*
X63684964Y-52741499D01*
X63624687Y-52992572D01*
X63604427Y-53250000D01*
X59953000Y-53250000D01*
X59952999Y-51989464D01*
X59942386Y-51870082D01*
X59886409Y-51674451D01*
X59792198Y-51494093D01*
X59740184Y-51430303D01*
X59663609Y-51336390D01*
X59505909Y-51207804D01*
X59505910Y-51207804D01*
X59505907Y-51207802D01*
X59325549Y-51113591D01*
X59325548Y-51113590D01*
X59325545Y-51113589D01*
X59208329Y-51080050D01*
X59129918Y-51057614D01*
X59129915Y-51057613D01*
X59129913Y-51057613D01*
X59063602Y-51051717D01*
X59010537Y-51047000D01*
X59010532Y-51047000D01*
X56989471Y-51047000D01*
X56989465Y-51047000D01*
X56989464Y-51047001D01*
X56977816Y-51048036D01*
X56870084Y-51057613D01*
X56674454Y-51113589D01*
X56584272Y-51160696D01*
X56494093Y-51207802D01*
X56494091Y-51207803D01*
X56494090Y-51207804D01*
X56336390Y-51336390D01*
X56207804Y-51494090D01*
X56113589Y-51674454D01*
X56057614Y-51870083D01*
X56057613Y-51870086D01*
X56047000Y-51989466D01*
X51452999Y-51989466D01*
X51452999Y-51989464D01*
X51442386Y-51870082D01*
X51386409Y-51674451D01*
X51292198Y-51494093D01*
X51240184Y-51430303D01*
X51163609Y-51336390D01*
X51005909Y-51207804D01*
X51005910Y-51207804D01*
X51005907Y-51207802D01*
X50825549Y-51113591D01*
X50825548Y-51113590D01*
X50825545Y-51113589D01*
X50708329Y-51080050D01*
X50629918Y-51057614D01*
X50629915Y-51057613D01*
X50629913Y-51057613D01*
X50563602Y-51051717D01*
X50510537Y-51047000D01*
X50510532Y-51047000D01*
X48489471Y-51047000D01*
X48489465Y-51047000D01*
X48489464Y-51047001D01*
X48477816Y-51048036D01*
X48370084Y-51057613D01*
X48174454Y-51113589D01*
X48084272Y-51160696D01*
X47994093Y-51207802D01*
X47994091Y-51207803D01*
X47994090Y-51207804D01*
X47836390Y-51336390D01*
X47707804Y-51494090D01*
X47613589Y-51674454D01*
X47557614Y-51870083D01*
X47557613Y-51870086D01*
X47547000Y-51989466D01*
X45000500Y-51989466D01*
X45000500Y-47919998D01*
X47542011Y-47919998D01*
X47542011Y-47920001D01*
X47561940Y-48198647D01*
X47561942Y-48198661D01*
X47621321Y-48471621D01*
X47621323Y-48471629D01*
X47665360Y-48589695D01*
X47718953Y-48733384D01*
X47852831Y-48978563D01*
X47852836Y-48978571D01*
X48020244Y-49202202D01*
X48020260Y-49202220D01*
X48217779Y-49399739D01*
X48217797Y-49399755D01*
X48441428Y-49567163D01*
X48441436Y-49567168D01*
X48686616Y-49701046D01*
X48686615Y-49701046D01*
X48686619Y-49701047D01*
X48686622Y-49701049D01*
X48948371Y-49798677D01*
X49104215Y-49832578D01*
X49221338Y-49858057D01*
X49221343Y-49858057D01*
X49221349Y-49858059D01*
X49430337Y-49873006D01*
X49499999Y-49877989D01*
X49500000Y-49877989D01*
X49500001Y-49877989D01*
X49555730Y-49874003D01*
X49778651Y-49858059D01*
X49778658Y-49858057D01*
X49778661Y-49858057D01*
X49830932Y-49846685D01*
X50051629Y-49798677D01*
X50313378Y-49701049D01*
X50313382Y-49701046D01*
X50313384Y-49701046D01*
X50435973Y-49634107D01*
X50558569Y-49567165D01*
X50782210Y-49399749D01*
X50979749Y-49202210D01*
X51147165Y-48978569D01*
X51271701Y-48750498D01*
X51281046Y-48733384D01*
X51281046Y-48733382D01*
X51281049Y-48733378D01*
X51378677Y-48471629D01*
X51438059Y-48198651D01*
X51454003Y-47975730D01*
X51457989Y-47920001D01*
X51457989Y-47919998D01*
X56042011Y-47919998D01*
X56042011Y-47920001D01*
X56061940Y-48198647D01*
X56061942Y-48198661D01*
X56121321Y-48471621D01*
X56121323Y-48471629D01*
X56165360Y-48589695D01*
X56218953Y-48733384D01*
X56352831Y-48978563D01*
X56352836Y-48978571D01*
X56520244Y-49202202D01*
X56520260Y-49202220D01*
X56717779Y-49399739D01*
X56717797Y-49399755D01*
X56941428Y-49567163D01*
X56941436Y-49567168D01*
X57186616Y-49701046D01*
X57186615Y-49701046D01*
X57186619Y-49701047D01*
X57186622Y-49701049D01*
X57448371Y-49798677D01*
X57604215Y-49832578D01*
X57721338Y-49858057D01*
X57721343Y-49858057D01*
X57721349Y-49858059D01*
X57930337Y-49873006D01*
X57999999Y-49877989D01*
X58000000Y-49877989D01*
X58000001Y-49877989D01*
X58055730Y-49874003D01*
X58278651Y-49858059D01*
X58278658Y-49858057D01*
X58278661Y-49858057D01*
X58330932Y-49846685D01*
X58551629Y-49798677D01*
X58813378Y-49701049D01*
X58813382Y-49701046D01*
X58813384Y-49701046D01*
X58935973Y-49634107D01*
X59058569Y-49567165D01*
X59282210Y-49399749D01*
X59479749Y-49202210D01*
X59647165Y-48978569D01*
X59771701Y-48750498D01*
X59781046Y-48733384D01*
X59781046Y-48733382D01*
X59781049Y-48733378D01*
X59878677Y-48471629D01*
X59938059Y-48198651D01*
X59954003Y-47975730D01*
X59957989Y-47920001D01*
X59957989Y-47919998D01*
X59938059Y-47641352D01*
X59938057Y-47641338D01*
X59912578Y-47524215D01*
X59878677Y-47368371D01*
X59781049Y-47106622D01*
X59781047Y-47106619D01*
X59781046Y-47106615D01*
X59647168Y-46861436D01*
X59647163Y-46861428D01*
X59479755Y-46637797D01*
X59479739Y-46637779D01*
X59282220Y-46440260D01*
X59282202Y-46440244D01*
X59058571Y-46272836D01*
X59058563Y-46272831D01*
X58910469Y-46191966D01*
X62599500Y-46191966D01*
X62599500Y-47808028D01*
X62599501Y-47808034D01*
X62610113Y-47927415D01*
X62666089Y-48123045D01*
X62666090Y-48123048D01*
X62666091Y-48123049D01*
X62760302Y-48303407D01*
X62760304Y-48303409D01*
X62888890Y-48461109D01*
X62982803Y-48537684D01*
X63046593Y-48589698D01*
X63226951Y-48683909D01*
X63422582Y-48739886D01*
X63541963Y-48750500D01*
X65158036Y-48750499D01*
X65277418Y-48739886D01*
X65473049Y-48683909D01*
X65653407Y-48589698D01*
X65811109Y-48461109D01*
X65939698Y-48303407D01*
X66033909Y-48123049D01*
X66089886Y-47927418D01*
X66100500Y-47808037D01*
X66100499Y-46191964D01*
X66089886Y-46072582D01*
X66033909Y-45876951D01*
X65939698Y-45696593D01*
X65887684Y-45632803D01*
X65811109Y-45538890D01*
X65653409Y-45410304D01*
X65653410Y-45410304D01*
X65653407Y-45410302D01*
X65473049Y-45316091D01*
X65473048Y-45316090D01*
X65473045Y-45316089D01*
X65355829Y-45282550D01*
X65277418Y-45260114D01*
X65277415Y-45260113D01*
X65277413Y-45260113D01*
X65211102Y-45254217D01*
X65158037Y-45249500D01*
X65158032Y-45249500D01*
X63541971Y-45249500D01*
X63541965Y-45249500D01*
X63541964Y-45249501D01*
X63530316Y-45250536D01*
X63422584Y-45260113D01*
X63226954Y-45316089D01*
X63136772Y-45363196D01*
X63046593Y-45410302D01*
X63046591Y-45410303D01*
X63046590Y-45410304D01*
X62888890Y-45538890D01*
X62760304Y-45696590D01*
X62666089Y-45876954D01*
X62610114Y-46072583D01*
X62610113Y-46072586D01*
X62599500Y-46191966D01*
X58910469Y-46191966D01*
X58813383Y-46138953D01*
X58813384Y-46138953D01*
X58762414Y-46119942D01*
X58551629Y-46041323D01*
X58551622Y-46041321D01*
X58551621Y-46041321D01*
X58278661Y-45981942D01*
X58278647Y-45981940D01*
X58000001Y-45962011D01*
X57999999Y-45962011D01*
X57721352Y-45981940D01*
X57721338Y-45981942D01*
X57448378Y-46041321D01*
X57448374Y-46041322D01*
X57448371Y-46041323D01*
X57317496Y-46090137D01*
X57186615Y-46138953D01*
X56941436Y-46272831D01*
X56941428Y-46272836D01*
X56717797Y-46440244D01*
X56717779Y-46440260D01*
X56520260Y-46637779D01*
X56520244Y-46637797D01*
X56352836Y-46861428D01*
X56352831Y-46861436D01*
X56218953Y-47106615D01*
X56170137Y-47237496D01*
X56121323Y-47368371D01*
X56121322Y-47368374D01*
X56121321Y-47368378D01*
X56061942Y-47641338D01*
X56061940Y-47641352D01*
X56042011Y-47919998D01*
X51457989Y-47919998D01*
X51438059Y-47641352D01*
X51438057Y-47641338D01*
X51412578Y-47524215D01*
X51378677Y-47368371D01*
X51281049Y-47106622D01*
X51281047Y-47106619D01*
X51281046Y-47106615D01*
X51147168Y-46861436D01*
X51147163Y-46861428D01*
X50979755Y-46637797D01*
X50979739Y-46637779D01*
X50782220Y-46440260D01*
X50782202Y-46440244D01*
X50558571Y-46272836D01*
X50558563Y-46272831D01*
X50313383Y-46138953D01*
X50313384Y-46138953D01*
X50262414Y-46119942D01*
X50051629Y-46041323D01*
X50051622Y-46041321D01*
X50051621Y-46041321D01*
X49778661Y-45981942D01*
X49778647Y-45981940D01*
X49500001Y-45962011D01*
X49499999Y-45962011D01*
X49221352Y-45981940D01*
X49221338Y-45981942D01*
X48948378Y-46041321D01*
X48948374Y-46041322D01*
X48948371Y-46041323D01*
X48817496Y-46090137D01*
X48686615Y-46138953D01*
X48441436Y-46272831D01*
X48441428Y-46272836D01*
X48217797Y-46440244D01*
X48217779Y-46440260D01*
X48020260Y-46637779D01*
X48020244Y-46637797D01*
X47852836Y-46861428D01*
X47852831Y-46861436D01*
X47718953Y-47106615D01*
X47670137Y-47237496D01*
X47621323Y-47368371D01*
X47621322Y-47368374D01*
X47621321Y-47368378D01*
X47561942Y-47641338D01*
X47561940Y-47641352D01*
X47542011Y-47919998D01*
X45000500Y-47919998D01*
X45000500Y-41989466D01*
X47547000Y-41989466D01*
X47547000Y-44010528D01*
X47547001Y-44010534D01*
X47557613Y-44129915D01*
X47613589Y-44325545D01*
X47613590Y-44325548D01*
X47613591Y-44325549D01*
X47707802Y-44505907D01*
X47707804Y-44505909D01*
X47836390Y-44663609D01*
X47930303Y-44740184D01*
X47994093Y-44792198D01*
X48174451Y-44886409D01*
X48370082Y-44942386D01*
X48489463Y-44953000D01*
X50510536Y-44952999D01*
X50629918Y-44942386D01*
X50825549Y-44886409D01*
X51005907Y-44792198D01*
X51163609Y-44663609D01*
X51292198Y-44505907D01*
X51386409Y-44325549D01*
X51442386Y-44129918D01*
X51453000Y-44010537D01*
X51452999Y-41989466D01*
X56047000Y-41989466D01*
X56047000Y-44010528D01*
X56047001Y-44010534D01*
X56057613Y-44129915D01*
X56113589Y-44325545D01*
X56113590Y-44325548D01*
X56113591Y-44325549D01*
X56207802Y-44505907D01*
X56207804Y-44505909D01*
X56336390Y-44663609D01*
X56430303Y-44740184D01*
X56494093Y-44792198D01*
X56674451Y-44886409D01*
X56870082Y-44942386D01*
X56989463Y-44953000D01*
X59010536Y-44952999D01*
X59129918Y-44942386D01*
X59325549Y-44886409D01*
X59505907Y-44792198D01*
X59663609Y-44663609D01*
X59792198Y-44505907D01*
X59886409Y-44325549D01*
X59942386Y-44129918D01*
X59953000Y-44010537D01*
X59952999Y-41989464D01*
X59942386Y-41870082D01*
X59886409Y-41674451D01*
X59792198Y-41494093D01*
X59740184Y-41430303D01*
X59663609Y-41336390D01*
X59548433Y-41242477D01*
X59505907Y-41207802D01*
X59325549Y-41113591D01*
X59325548Y-41113590D01*
X59325545Y-41113589D01*
X59208329Y-41080050D01*
X59129918Y-41057614D01*
X59129915Y-41057613D01*
X59129913Y-41057613D01*
X59063602Y-41051717D01*
X59010537Y-41047000D01*
X59010532Y-41047000D01*
X56989471Y-41047000D01*
X56989465Y-41047000D01*
X56989464Y-41047001D01*
X56977816Y-41048036D01*
X56870084Y-41057613D01*
X56674454Y-41113589D01*
X56635263Y-41134061D01*
X56494093Y-41207802D01*
X56494091Y-41207803D01*
X56494090Y-41207804D01*
X56336390Y-41336390D01*
X56207804Y-41494090D01*
X56113589Y-41674454D01*
X56057614Y-41870083D01*
X56057613Y-41870086D01*
X56047000Y-41989466D01*
X51452999Y-41989466D01*
X51452999Y-41989464D01*
X51442386Y-41870082D01*
X51386409Y-41674451D01*
X51292198Y-41494093D01*
X51240184Y-41430303D01*
X51163609Y-41336390D01*
X51048433Y-41242477D01*
X51005907Y-41207802D01*
X50825549Y-41113591D01*
X50825548Y-41113590D01*
X50825545Y-41113589D01*
X50708329Y-41080050D01*
X50629918Y-41057614D01*
X50629915Y-41057613D01*
X50629913Y-41057613D01*
X50563602Y-41051717D01*
X50510537Y-41047000D01*
X50510532Y-41047000D01*
X48489471Y-41047000D01*
X48489465Y-41047000D01*
X48489464Y-41047001D01*
X48477816Y-41048036D01*
X48370084Y-41057613D01*
X48174454Y-41113589D01*
X48135263Y-41134061D01*
X47994093Y-41207802D01*
X47994091Y-41207803D01*
X47994090Y-41207804D01*
X47836390Y-41336390D01*
X47707804Y-41494090D01*
X47613589Y-41674454D01*
X47557614Y-41870083D01*
X47557613Y-41870086D01*
X47547000Y-41989466D01*
X45000500Y-41989466D01*
X45000500Y-37919998D01*
X47542011Y-37919998D01*
X47542011Y-37920001D01*
X47561940Y-38198647D01*
X47561942Y-38198661D01*
X47621321Y-38471621D01*
X47621323Y-38471629D01*
X47699942Y-38682414D01*
X47718953Y-38733384D01*
X47852831Y-38978563D01*
X47852836Y-38978571D01*
X48020244Y-39202202D01*
X48020260Y-39202220D01*
X48217779Y-39399739D01*
X48217797Y-39399755D01*
X48441428Y-39567163D01*
X48441436Y-39567168D01*
X48686616Y-39701046D01*
X48686615Y-39701046D01*
X48686619Y-39701047D01*
X48686622Y-39701049D01*
X48948371Y-39798677D01*
X49104215Y-39832578D01*
X49221338Y-39858057D01*
X49221343Y-39858057D01*
X49221349Y-39858059D01*
X49430337Y-39873006D01*
X49499999Y-39877989D01*
X49500000Y-39877989D01*
X49500001Y-39877989D01*
X49555730Y-39874003D01*
X49778651Y-39858059D01*
X49778658Y-39858057D01*
X49778661Y-39858057D01*
X49830932Y-39846685D01*
X50051629Y-39798677D01*
X50313378Y-39701049D01*
X50313382Y-39701046D01*
X50313384Y-39701046D01*
X50435973Y-39634107D01*
X50558569Y-39567165D01*
X50782210Y-39399749D01*
X50979749Y-39202210D01*
X51147165Y-38978569D01*
X51214107Y-38855973D01*
X51281046Y-38733384D01*
X51281046Y-38733382D01*
X51281049Y-38733378D01*
X51378677Y-38471629D01*
X51438059Y-38198651D01*
X51457989Y-37920000D01*
X51457989Y-37919998D01*
X56042011Y-37919998D01*
X56042011Y-37920001D01*
X56061940Y-38198647D01*
X56061942Y-38198661D01*
X56121321Y-38471621D01*
X56121323Y-38471629D01*
X56199942Y-38682414D01*
X56218953Y-38733384D01*
X56352831Y-38978563D01*
X56352836Y-38978571D01*
X56520244Y-39202202D01*
X56520260Y-39202220D01*
X56717779Y-39399739D01*
X56717797Y-39399755D01*
X56941428Y-39567163D01*
X56941436Y-39567168D01*
X57186616Y-39701046D01*
X57186615Y-39701046D01*
X57186619Y-39701047D01*
X57186622Y-39701049D01*
X57448371Y-39798677D01*
X57604215Y-39832578D01*
X57721338Y-39858057D01*
X57721343Y-39858057D01*
X57721349Y-39858059D01*
X57930337Y-39873006D01*
X57999999Y-39877989D01*
X58000000Y-39877989D01*
X58000001Y-39877989D01*
X58055730Y-39874003D01*
X58278651Y-39858059D01*
X58278658Y-39858057D01*
X58278661Y-39858057D01*
X58330932Y-39846685D01*
X58551629Y-39798677D01*
X58813378Y-39701049D01*
X58813382Y-39701046D01*
X58813384Y-39701046D01*
X58935973Y-39634107D01*
X59058569Y-39567165D01*
X59148297Y-39499995D01*
X64394592Y-39499995D01*
X64394592Y-39500004D01*
X64414196Y-39761620D01*
X64414197Y-39761625D01*
X64472576Y-40017402D01*
X64472578Y-40017411D01*
X64472580Y-40017416D01*
X64568432Y-40261643D01*
X64699614Y-40488857D01*
X64831736Y-40654533D01*
X64863198Y-40693985D01*
X65044753Y-40862441D01*
X65055521Y-40872433D01*
X65272296Y-41020228D01*
X65272301Y-41020230D01*
X65272302Y-41020231D01*
X65272303Y-41020232D01*
X65397843Y-41080688D01*
X65508673Y-41134061D01*
X65508674Y-41134061D01*
X65508677Y-41134063D01*
X65759385Y-41211396D01*
X66018818Y-41250500D01*
X66281182Y-41250500D01*
X66540615Y-41211396D01*
X66791323Y-41134063D01*
X67027704Y-41020228D01*
X67244479Y-40872433D01*
X67436805Y-40693981D01*
X67600386Y-40488857D01*
X67731568Y-40261643D01*
X67827420Y-40017416D01*
X67885802Y-39761630D01*
X67905408Y-39500000D01*
X67897895Y-39399749D01*
X67885803Y-39238379D01*
X67885802Y-39238374D01*
X67885802Y-39238370D01*
X67827420Y-38982584D01*
X67731568Y-38738357D01*
X67600386Y-38511143D01*
X67436805Y-38306019D01*
X67436804Y-38306018D01*
X67436801Y-38306014D01*
X67244479Y-38127567D01*
X67027704Y-37979772D01*
X67027700Y-37979770D01*
X67027697Y-37979768D01*
X67027696Y-37979767D01*
X66791325Y-37865938D01*
X66791327Y-37865938D01*
X66540623Y-37788606D01*
X66540619Y-37788605D01*
X66540615Y-37788604D01*
X66415823Y-37769794D01*
X66281187Y-37749500D01*
X66281182Y-37749500D01*
X66018818Y-37749500D01*
X66018812Y-37749500D01*
X65857247Y-37773853D01*
X65759385Y-37788604D01*
X65759382Y-37788605D01*
X65759376Y-37788606D01*
X65508673Y-37865938D01*
X65272303Y-37979767D01*
X65272302Y-37979768D01*
X65055520Y-38127567D01*
X64863198Y-38306014D01*
X64699614Y-38511143D01*
X64568432Y-38738356D01*
X64472582Y-38982578D01*
X64472576Y-38982597D01*
X64414197Y-39238374D01*
X64414196Y-39238379D01*
X64394592Y-39499995D01*
X59148297Y-39499995D01*
X59282210Y-39399749D01*
X59479749Y-39202210D01*
X59647165Y-38978569D01*
X59714107Y-38855973D01*
X59781046Y-38733384D01*
X59781046Y-38733382D01*
X59781049Y-38733378D01*
X59878677Y-38471629D01*
X59938059Y-38198651D01*
X59957989Y-37920000D01*
X59938059Y-37641349D01*
X59878677Y-37368371D01*
X59781049Y-37106622D01*
X59781047Y-37106619D01*
X59781046Y-37106615D01*
X59647168Y-36861436D01*
X59647163Y-36861428D01*
X59479755Y-36637797D01*
X59479739Y-36637779D01*
X59282220Y-36440260D01*
X59282202Y-36440244D01*
X59058571Y-36272836D01*
X59058563Y-36272831D01*
X58813383Y-36138953D01*
X58813384Y-36138953D01*
X58762414Y-36119942D01*
X58551629Y-36041323D01*
X58551622Y-36041321D01*
X58551621Y-36041321D01*
X58278661Y-35981942D01*
X58278647Y-35981940D01*
X58000001Y-35962011D01*
X57999999Y-35962011D01*
X57721352Y-35981940D01*
X57721338Y-35981942D01*
X57448378Y-36041321D01*
X57448374Y-36041322D01*
X57448371Y-36041323D01*
X57317496Y-36090137D01*
X57186615Y-36138953D01*
X56941436Y-36272831D01*
X56941428Y-36272836D01*
X56717797Y-36440244D01*
X56717779Y-36440260D01*
X56520260Y-36637779D01*
X56520244Y-36637797D01*
X56352836Y-36861428D01*
X56352831Y-36861436D01*
X56218953Y-37106615D01*
X56170137Y-37237496D01*
X56121323Y-37368371D01*
X56121322Y-37368374D01*
X56121321Y-37368378D01*
X56061942Y-37641338D01*
X56061940Y-37641352D01*
X56042011Y-37919998D01*
X51457989Y-37919998D01*
X51438059Y-37641349D01*
X51378677Y-37368371D01*
X51281049Y-37106622D01*
X51281047Y-37106619D01*
X51281046Y-37106615D01*
X51147168Y-36861436D01*
X51147163Y-36861428D01*
X50979755Y-36637797D01*
X50979739Y-36637779D01*
X50782220Y-36440260D01*
X50782202Y-36440244D01*
X50558571Y-36272836D01*
X50558563Y-36272831D01*
X50313383Y-36138953D01*
X50313384Y-36138953D01*
X50262414Y-36119942D01*
X50051629Y-36041323D01*
X50051622Y-36041321D01*
X50051621Y-36041321D01*
X49778661Y-35981942D01*
X49778647Y-35981940D01*
X49500001Y-35962011D01*
X49499999Y-35962011D01*
X49221352Y-35981940D01*
X49221338Y-35981942D01*
X48948378Y-36041321D01*
X48948374Y-36041322D01*
X48948371Y-36041323D01*
X48817496Y-36090137D01*
X48686615Y-36138953D01*
X48441436Y-36272831D01*
X48441428Y-36272836D01*
X48217797Y-36440244D01*
X48217779Y-36440260D01*
X48020260Y-36637779D01*
X48020244Y-36637797D01*
X47852836Y-36861428D01*
X47852831Y-36861436D01*
X47718953Y-37106615D01*
X47670137Y-37237496D01*
X47621323Y-37368371D01*
X47621322Y-37368374D01*
X47621321Y-37368378D01*
X47561942Y-37641338D01*
X47561940Y-37641352D01*
X47542011Y-37919998D01*
X45000500Y-37919998D01*
X45000500Y-31999655D01*
X48047500Y-31999655D01*
X48047500Y-32750000D01*
X48847502Y-32750000D01*
X48828343Y-32796255D01*
X48801500Y-32931204D01*
X48801500Y-33068796D01*
X48828343Y-33203745D01*
X48847502Y-33250000D01*
X48047500Y-33250000D01*
X48047500Y-34000344D01*
X48053901Y-34059872D01*
X48053903Y-34059879D01*
X48104145Y-34194586D01*
X48104149Y-34194593D01*
X48190309Y-34309687D01*
X48190312Y-34309690D01*
X48305406Y-34395850D01*
X48305413Y-34395854D01*
X48440120Y-34446096D01*
X48440127Y-34446098D01*
X48499655Y-34452499D01*
X48499672Y-34452500D01*
X49250000Y-34452500D01*
X49250000Y-33652497D01*
X49296255Y-33671657D01*
X49431204Y-33698500D01*
X49568796Y-33698500D01*
X49703745Y-33671657D01*
X49750000Y-33652497D01*
X49750000Y-34452500D01*
X50500328Y-34452500D01*
X50500344Y-34452499D01*
X50559872Y-34446098D01*
X50559879Y-34446096D01*
X50694586Y-34395854D01*
X50694593Y-34395850D01*
X50809687Y-34309690D01*
X50809690Y-34309687D01*
X50895850Y-34194593D01*
X50895854Y-34194586D01*
X50946096Y-34059879D01*
X50946098Y-34059872D01*
X50952499Y-34000344D01*
X50952500Y-34000327D01*
X50952500Y-33250000D01*
X50152498Y-33250000D01*
X50171657Y-33203745D01*
X50198500Y-33068796D01*
X50198500Y-32931204D01*
X50171657Y-32796255D01*
X50152498Y-32750000D01*
X50952500Y-32750000D01*
X50952500Y-31999672D01*
X50952499Y-31999655D01*
X56547500Y-31999655D01*
X56547500Y-32750000D01*
X57347502Y-32750000D01*
X57328343Y-32796255D01*
X57301500Y-32931204D01*
X57301500Y-33068796D01*
X57328343Y-33203745D01*
X57347502Y-33250000D01*
X56547500Y-33250000D01*
X56547500Y-34000344D01*
X56553901Y-34059872D01*
X56553903Y-34059879D01*
X56604145Y-34194586D01*
X56604149Y-34194593D01*
X56690309Y-34309687D01*
X56690312Y-34309690D01*
X56805406Y-34395850D01*
X56805413Y-34395854D01*
X56940120Y-34446096D01*
X56940127Y-34446098D01*
X56999655Y-34452499D01*
X56999672Y-34452500D01*
X57750000Y-34452500D01*
X57750000Y-33652497D01*
X57796255Y-33671657D01*
X57931204Y-33698500D01*
X58068796Y-33698500D01*
X58203745Y-33671657D01*
X58250000Y-33652497D01*
X58250000Y-34452500D01*
X59000328Y-34452500D01*
X59000344Y-34452499D01*
X59059872Y-34446098D01*
X59059879Y-34446096D01*
X59194586Y-34395854D01*
X59194593Y-34395850D01*
X59309687Y-34309690D01*
X59309690Y-34309687D01*
X59395850Y-34194593D01*
X59395854Y-34194586D01*
X59446096Y-34059879D01*
X59446098Y-34059872D01*
X59452499Y-34000344D01*
X59452500Y-34000327D01*
X59452500Y-33250000D01*
X58652498Y-33250000D01*
X58671657Y-33203745D01*
X58698500Y-33068796D01*
X58698500Y-32931204D01*
X58671657Y-32796255D01*
X58652498Y-32750000D01*
X59452500Y-32750000D01*
X63604427Y-32750000D01*
X63624687Y-33007427D01*
X63684964Y-33258500D01*
X63684968Y-33258512D01*
X63783781Y-33497070D01*
X63783783Y-33497074D01*
X63783784Y-33497075D01*
X63918703Y-33717244D01*
X64086404Y-33913596D01*
X64282756Y-34081297D01*
X64502925Y-34216216D01*
X64502927Y-34216216D01*
X64502929Y-34216218D01*
X64577312Y-34247028D01*
X64741490Y-34315033D01*
X64992576Y-34375313D01*
X65250000Y-34395573D01*
X65507424Y-34375313D01*
X65758510Y-34315033D01*
X65997075Y-34216216D01*
X66217244Y-34081297D01*
X66413596Y-33913596D01*
X66581297Y-33717244D01*
X66716216Y-33497075D01*
X66815033Y-33258510D01*
X66875313Y-33007424D01*
X66895573Y-32750000D01*
X66875313Y-32492576D01*
X66815033Y-32241490D01*
X66716216Y-32002925D01*
X66581297Y-31782756D01*
X66413596Y-31586404D01*
X66217244Y-31418703D01*
X65997075Y-31283784D01*
X65997074Y-31283783D01*
X65997070Y-31283781D01*
X65758512Y-31184968D01*
X65758514Y-31184968D01*
X65758510Y-31184967D01*
X65758506Y-31184966D01*
X65758500Y-31184964D01*
X65507427Y-31124687D01*
X65250000Y-31104427D01*
X64992572Y-31124687D01*
X64741499Y-31184964D01*
X64741487Y-31184968D01*
X64502929Y-31283781D01*
X64282755Y-31418703D01*
X64086404Y-31586404D01*
X63918703Y-31782755D01*
X63783781Y-32002929D01*
X63684968Y-32241487D01*
X63684964Y-32241499D01*
X63624687Y-32492572D01*
X63604427Y-32750000D01*
X59452500Y-32750000D01*
X59452500Y-31999672D01*
X59452499Y-31999655D01*
X59446098Y-31940127D01*
X59446096Y-31940120D01*
X59395854Y-31805413D01*
X59395850Y-31805406D01*
X59309690Y-31690312D01*
X59309687Y-31690309D01*
X59194593Y-31604149D01*
X59194586Y-31604145D01*
X59059879Y-31553903D01*
X59059872Y-31553901D01*
X59000344Y-31547500D01*
X58250000Y-31547500D01*
X58250000Y-32347502D01*
X58203745Y-32328343D01*
X58068796Y-32301500D01*
X57931204Y-32301500D01*
X57796255Y-32328343D01*
X57750000Y-32347502D01*
X57750000Y-31547500D01*
X56999655Y-31547500D01*
X56940127Y-31553901D01*
X56940120Y-31553903D01*
X56805413Y-31604145D01*
X56805406Y-31604149D01*
X56690312Y-31690309D01*
X56690309Y-31690312D01*
X56604149Y-31805406D01*
X56604145Y-31805413D01*
X56553903Y-31940120D01*
X56553901Y-31940127D01*
X56547500Y-31999655D01*
X50952499Y-31999655D01*
X50946098Y-31940127D01*
X50946096Y-31940120D01*
X50895854Y-31805413D01*
X50895850Y-31805406D01*
X50809690Y-31690312D01*
X50809687Y-31690309D01*
X50694593Y-31604149D01*
X50694586Y-31604145D01*
X50559879Y-31553903D01*
X50559872Y-31553901D01*
X50500344Y-31547500D01*
X49750000Y-31547500D01*
X49750000Y-32347502D01*
X49703745Y-32328343D01*
X49568796Y-32301500D01*
X49431204Y-32301500D01*
X49296255Y-32328343D01*
X49250000Y-32347502D01*
X49250000Y-31547500D01*
X48499655Y-31547500D01*
X48440127Y-31553901D01*
X48440120Y-31553903D01*
X48305413Y-31604145D01*
X48305406Y-31604149D01*
X48190312Y-31690309D01*
X48190309Y-31690312D01*
X48104149Y-31805406D01*
X48104145Y-31805413D01*
X48053903Y-31940120D01*
X48053901Y-31940127D01*
X48047500Y-31999655D01*
X45000500Y-31999655D01*
X45000500Y-27919994D01*
X48042522Y-27919994D01*
X48042522Y-27920005D01*
X48062399Y-28159889D01*
X48121491Y-28393240D01*
X48218185Y-28613682D01*
X48310880Y-28755563D01*
X48861837Y-28204607D01*
X48880997Y-28250864D01*
X48957439Y-28365268D01*
X49054732Y-28462561D01*
X49169136Y-28539003D01*
X49215390Y-28558162D01*
X48663790Y-29109761D01*
X48663791Y-29109762D01*
X48702832Y-29140149D01*
X48702838Y-29140153D01*
X48914531Y-29254715D01*
X48914545Y-29254721D01*
X49142207Y-29332879D01*
X49379642Y-29372500D01*
X49620358Y-29372500D01*
X49857792Y-29332879D01*
X50085454Y-29254721D01*
X50085468Y-29254715D01*
X50297160Y-29140154D01*
X50297168Y-29140149D01*
X50336207Y-29109762D01*
X50336208Y-29109760D01*
X49784609Y-28558161D01*
X49830864Y-28539003D01*
X49945268Y-28462561D01*
X50042561Y-28365268D01*
X50119003Y-28250864D01*
X50138162Y-28204609D01*
X50689117Y-28755564D01*
X50781815Y-28613679D01*
X50878508Y-28393240D01*
X50937600Y-28159889D01*
X50957478Y-27920005D01*
X50957478Y-27919994D01*
X56542522Y-27919994D01*
X56542522Y-27920005D01*
X56562399Y-28159889D01*
X56621491Y-28393240D01*
X56718185Y-28613682D01*
X56810880Y-28755563D01*
X57361837Y-28204607D01*
X57380997Y-28250864D01*
X57457439Y-28365268D01*
X57554732Y-28462561D01*
X57669136Y-28539003D01*
X57715390Y-28558162D01*
X57163790Y-29109761D01*
X57163791Y-29109762D01*
X57202832Y-29140149D01*
X57202838Y-29140153D01*
X57414531Y-29254715D01*
X57414545Y-29254721D01*
X57642207Y-29332879D01*
X57879642Y-29372500D01*
X58120358Y-29372500D01*
X58357792Y-29332879D01*
X58585454Y-29254721D01*
X58585468Y-29254715D01*
X58797160Y-29140154D01*
X58797168Y-29140149D01*
X58836207Y-29109762D01*
X58836208Y-29109760D01*
X58284609Y-28558161D01*
X58330864Y-28539003D01*
X58445268Y-28462561D01*
X58542561Y-28365268D01*
X58619003Y-28250864D01*
X58638162Y-28204609D01*
X59189117Y-28755564D01*
X59281815Y-28613679D01*
X59378508Y-28393240D01*
X59437600Y-28159889D01*
X59457478Y-27920005D01*
X59457478Y-27919994D01*
X59443391Y-27749999D01*
X64105116Y-27749999D01*
X64105116Y-27750000D01*
X64124609Y-27960369D01*
X64182427Y-28163581D01*
X64276600Y-28352703D01*
X64283975Y-28362470D01*
X64828274Y-27818172D01*
X64853963Y-27914044D01*
X64909916Y-28010956D01*
X64989044Y-28090084D01*
X65085956Y-28146037D01*
X65181827Y-28171725D01*
X64640255Y-28713295D01*
X64739680Y-28774857D01*
X64739681Y-28774858D01*
X64936685Y-28851177D01*
X65144365Y-28890000D01*
X65355635Y-28890000D01*
X65563319Y-28851176D01*
X65760309Y-28774861D01*
X65760327Y-28774852D01*
X65859742Y-28713296D01*
X65859742Y-28713295D01*
X65318173Y-28171725D01*
X65414044Y-28146037D01*
X65510956Y-28090084D01*
X65590084Y-28010956D01*
X65646037Y-27914044D01*
X65671725Y-27818172D01*
X66216023Y-28362470D01*
X66223401Y-28352700D01*
X66223403Y-28352697D01*
X66317572Y-28163582D01*
X66375390Y-27960369D01*
X66394884Y-27750000D01*
X66394884Y-27749999D01*
X66375390Y-27539630D01*
X66317572Y-27336418D01*
X66223399Y-27147295D01*
X66216024Y-27137528D01*
X65671725Y-27681826D01*
X65646037Y-27585956D01*
X65590084Y-27489044D01*
X65510956Y-27409916D01*
X65414044Y-27353963D01*
X65318173Y-27328274D01*
X65859743Y-26786703D01*
X65760319Y-26725142D01*
X65760318Y-26725141D01*
X65563314Y-26648822D01*
X65355635Y-26610000D01*
X65144365Y-26610000D01*
X64936685Y-26648822D01*
X64739683Y-26725140D01*
X64739677Y-26725143D01*
X64640256Y-26786702D01*
X64640255Y-26786703D01*
X65181827Y-27328274D01*
X65085956Y-27353963D01*
X64989044Y-27409916D01*
X64909916Y-27489044D01*
X64853963Y-27585956D01*
X64828274Y-27681827D01*
X64283974Y-27137527D01*
X64276602Y-27147292D01*
X64276598Y-27147298D01*
X64182427Y-27336418D01*
X64124609Y-27539630D01*
X64105116Y-27749999D01*
X59443391Y-27749999D01*
X59437600Y-27680110D01*
X59378508Y-27446759D01*
X59281815Y-27226320D01*
X59189117Y-27084434D01*
X58638161Y-27635389D01*
X58619003Y-27589136D01*
X58542561Y-27474732D01*
X58445268Y-27377439D01*
X58330864Y-27300997D01*
X58284608Y-27281837D01*
X58836208Y-26730237D01*
X58836208Y-26730236D01*
X58797166Y-26699849D01*
X58797161Y-26699846D01*
X58585468Y-26585284D01*
X58585454Y-26585278D01*
X58357792Y-26507120D01*
X58120358Y-26467500D01*
X57879642Y-26467500D01*
X57642207Y-26507120D01*
X57414545Y-26585278D01*
X57414531Y-26585284D01*
X57202837Y-26699846D01*
X57202826Y-26699853D01*
X57163791Y-26730235D01*
X57163791Y-26730237D01*
X57715391Y-27281837D01*
X57669136Y-27300997D01*
X57554732Y-27377439D01*
X57457439Y-27474732D01*
X57380997Y-27589136D01*
X57361837Y-27635391D01*
X56810881Y-27084435D01*
X56718185Y-27226317D01*
X56621491Y-27446759D01*
X56562399Y-27680110D01*
X56542522Y-27919994D01*
X50957478Y-27919994D01*
X50937600Y-27680110D01*
X50878508Y-27446759D01*
X50781815Y-27226320D01*
X50689117Y-27084434D01*
X50138161Y-27635389D01*
X50119003Y-27589136D01*
X50042561Y-27474732D01*
X49945268Y-27377439D01*
X49830864Y-27300997D01*
X49784608Y-27281837D01*
X50336208Y-26730237D01*
X50336208Y-26730236D01*
X50297166Y-26699849D01*
X50297161Y-26699846D01*
X50085468Y-26585284D01*
X50085454Y-26585278D01*
X49857792Y-26507120D01*
X49620358Y-26467500D01*
X49379642Y-26467500D01*
X49142207Y-26507120D01*
X48914545Y-26585278D01*
X48914531Y-26585284D01*
X48702837Y-26699846D01*
X48702826Y-26699853D01*
X48663791Y-26730235D01*
X48663791Y-26730237D01*
X49215391Y-27281837D01*
X49169136Y-27300997D01*
X49054732Y-27377439D01*
X48957439Y-27474732D01*
X48880997Y-27589136D01*
X48861837Y-27635391D01*
X48310881Y-27084435D01*
X48218185Y-27226317D01*
X48121491Y-27446759D01*
X48062399Y-27680110D01*
X48042522Y-27919994D01*
X45000500Y-27919994D01*
X45000500Y-24756961D01*
X45001280Y-24743077D01*
X45011459Y-24652731D01*
X45017635Y-24625670D01*
X45045353Y-24546456D01*
X45057396Y-24521450D01*
X45102046Y-24450389D01*
X45119351Y-24428690D01*
X45178690Y-24369351D01*
X45200389Y-24352046D01*
X45271450Y-24307396D01*
X45296456Y-24295353D01*
X45375670Y-24267635D01*
X45402733Y-24261459D01*
X45465419Y-24254396D01*
X45493079Y-24251280D01*
X45506962Y-24250500D01*
X68626000Y-24250500D01*
X68693039Y-24270185D01*
G37*
%TD.AperFunction*%
%TD*%
M02*
