%TF.GenerationSoftware,KiCad,Pcbnew,8.0.4*%
%TF.CreationDate,2024-10-11T12:17:29-04:00*%
%TF.ProjectId,SmallBooster,536d616c-6c42-46f6-9f73-7465722e6b69,rev?*%
%TF.SameCoordinates,Original*%
%TF.FileFunction,Copper,L1,Top*%
%TF.FilePolarity,Positive*%
%FSLAX46Y46*%
G04 Gerber Fmt 4.6, Leading zero omitted, Abs format (unit mm)*
G04 Created by KiCad (PCBNEW 8.0.4) date 2024-10-11 12:17:29*
%MOMM*%
%LPD*%
G01*
G04 APERTURE LIST*
%TA.AperFunction,ComponentPad*%
%ADD10C,1.600000*%
%TD*%
%TA.AperFunction,ComponentPad*%
%ADD11O,1.600000X1.600000*%
%TD*%
%TA.AperFunction,ComponentPad*%
%ADD12C,1.000000*%
%TD*%
%TA.AperFunction,ComponentPad*%
%ADD13C,1.574800*%
%TD*%
%TA.AperFunction,ComponentPad*%
%ADD14C,3.500000*%
%TD*%
%TA.AperFunction,ComponentPad*%
%ADD15R,3.000000X3.000000*%
%TD*%
%TA.AperFunction,ComponentPad*%
%ADD16C,3.000000*%
%TD*%
%TA.AperFunction,ComponentPad*%
%ADD17C,1.280000*%
%TD*%
%TA.AperFunction,ComponentPad*%
%ADD18R,1.500000X1.500000*%
%TD*%
%TA.AperFunction,ComponentPad*%
%ADD19C,1.500000*%
%TD*%
%TA.AperFunction,ComponentPad*%
%ADD20R,1.422400X1.422400*%
%TD*%
%TA.AperFunction,ComponentPad*%
%ADD21C,1.422400*%
%TD*%
%TA.AperFunction,ComponentPad*%
%ADD22R,1.905000X1.905000*%
%TD*%
%TA.AperFunction,ComponentPad*%
%ADD23C,1.905000*%
%TD*%
%TA.AperFunction,ComponentPad*%
%ADD24C,1.270000*%
%TD*%
%TA.AperFunction,ComponentPad*%
%ADD25C,4.000000*%
%TD*%
%TA.AperFunction,ComponentPad*%
%ADD26C,2.500000*%
%TD*%
%TA.AperFunction,ComponentPad*%
%ADD27C,2.000000*%
%TD*%
%TA.AperFunction,ComponentPad*%
%ADD28R,1.635000X1.635000*%
%TD*%
%TA.AperFunction,ComponentPad*%
%ADD29C,1.635000*%
%TD*%
%TA.AperFunction,ComponentPad*%
%ADD30C,2.970000*%
%TD*%
%TA.AperFunction,ComponentPad*%
%ADD31C,3.076000*%
%TD*%
%TA.AperFunction,ViaPad*%
%ADD32C,0.600000*%
%TD*%
%TA.AperFunction,Conductor*%
%ADD33C,1.000000*%
%TD*%
%TA.AperFunction,Conductor*%
%ADD34C,5.000000*%
%TD*%
G04 APERTURE END LIST*
D10*
%TO.P,R48,1*%
%TO.N,PGND*%
X105000000Y-139935000D03*
D11*
%TO.P,R48,2*%
%TO.N,Net-(NE1-Pad1)*%
X105000000Y-145015000D03*
%TD*%
D12*
%TO.P,NE1,1*%
%TO.N,Net-(NE1-Pad1)*%
X105000000Y-164750000D03*
%TO.P,NE1,2*%
%TO.N,BUCK+*%
X105000000Y-167750000D03*
%TD*%
D13*
%TO.P,J18,1,Pin_1*%
%TO.N,PGND*%
X140500000Y-35710000D03*
%TO.P,J18,2,Pin_2*%
%TO.N,+12V*%
X140500000Y-38250000D03*
%TO.P,J18,3,Pin_3*%
%TO.N,unconnected-(J18-Pin_3-Pad3)*%
X140500000Y-40790000D03*
%TO.P,J18,4,Pin_4*%
%TO.N,unconnected-(J18-Pin_4-Pad4)*%
X140500000Y-43330000D03*
%TD*%
D14*
%TO.P,L1,1,1*%
%TO.N,Net-(D3-A)*%
X105070000Y-111368000D03*
%TO.P,L1,2,2*%
%TO.N,Net-(U1-D-Anode(2))*%
X105070000Y-132368000D03*
%TD*%
D15*
%TO.P,C5,1*%
%TO.N,BUCK+*%
X86570000Y-158868000D03*
D16*
%TO.P,C5,2*%
%TO.N,PGND*%
X86570000Y-148868000D03*
%TD*%
D17*
%TO.P,C10,1*%
%TO.N,G_AC2*%
X60500000Y-145250000D03*
%TO.P,C10,2*%
%TO.N,Earth*%
X65500000Y-145250000D03*
%TD*%
%TO.P,C9,1*%
%TO.N,Earth*%
X65250000Y-58250000D03*
%TO.P,C9,2*%
%TO.N,IN_AC2*%
X65250000Y-53250000D03*
%TD*%
D18*
%TO.P,C7,1*%
%TO.N,IN_AC2*%
X76750000Y-56875000D03*
D19*
%TO.P,C7,2*%
%TO.N,IN_AC1*%
X76750000Y-34375000D03*
%TD*%
D20*
%TO.P,TH1,1*%
%TO.N,IN_AC2*%
X70250000Y-122000000D03*
D21*
%TO.P,TH1,2*%
%TO.N,Net-(FL1-Pad3)*%
X70250000Y-117000000D03*
%TD*%
D14*
%TO.P,J3,1,Pin_1*%
%TO.N,PGND*%
X97500000Y-137000000D03*
%TD*%
D22*
%TO.P,J9,1,Pin_1*%
%TO.N,IN_AC2*%
X49500000Y-53000000D03*
D23*
X49500000Y-47920000D03*
%TD*%
D24*
%TO.P,C17,1*%
%TO.N,+18*%
X73750000Y-170250000D03*
%TO.P,C17,2*%
%TO.N,PGND*%
X70752800Y-170250000D03*
%TD*%
D18*
%TO.P,RV1,1*%
%TO.N,IN_AC2*%
X64350000Y-47000000D03*
D19*
%TO.P,RV1,2*%
%TO.N,IN_AC1*%
X66150000Y-39500000D03*
%TD*%
D22*
%TO.P,J10,1,Pin_1*%
%TO.N,IN_AC1*%
X58000000Y-43000000D03*
D23*
X58000000Y-37920000D03*
%TD*%
D22*
%TO.P,J12,1,Pin_1*%
%TO.N,Earth*%
X49500000Y-33000000D03*
D23*
X49500000Y-27920000D03*
%TD*%
D24*
%TO.P,C21,1*%
%TO.N,+18*%
X138386400Y-49250000D03*
%TO.P,C21,2*%
%TO.N,PGND*%
X141383600Y-49250000D03*
%TD*%
D14*
%TO.P,J5,1,Pin_1*%
%TO.N,Net-(J5-Pin_1)*%
X112500000Y-137000000D03*
%TD*%
D17*
%TO.P,C11,1*%
%TO.N,Earth*%
X65500000Y-149750000D03*
%TO.P,C11,2*%
%TO.N,G_AC1*%
X60500000Y-149750000D03*
%TD*%
D22*
%TO.P,J13,1,Pin_1*%
%TO.N,Earth*%
X58000000Y-33000000D03*
D23*
X58000000Y-27920000D03*
%TD*%
D22*
%TO.P,J16,1,Pin_1*%
%TO.N,PGND*%
X141750000Y-108250000D03*
D23*
X141750000Y-113330000D03*
%TD*%
D22*
%TO.P,J8,1,Pin_1*%
%TO.N,IN_AC2*%
X58000000Y-53000000D03*
D23*
X58000000Y-47920000D03*
%TD*%
D22*
%TO.P,J15,1,Pin_1*%
%TO.N,OUT_P*%
X141750000Y-136750000D03*
D23*
X141750000Y-141830000D03*
%TD*%
D14*
%TO.P,J2,1,Pin_1*%
%TO.N,BUCK+*%
X97500000Y-170500000D03*
%TD*%
D22*
%TO.P,J14,1,Pin_1*%
%TO.N,OUT_P*%
X141750000Y-125000000D03*
D23*
X141750000Y-130080000D03*
%TD*%
D18*
%TO.P,C6,1*%
%TO.N,G_AC1*%
X52000000Y-145125000D03*
D19*
%TO.P,C6,2*%
%TO.N,G_AC2*%
X52000000Y-167625000D03*
%TD*%
D15*
%TO.P,C4,1*%
%TO.N,OUT_P*%
X123570000Y-158868000D03*
D16*
%TO.P,C4,2*%
%TO.N,Net-(J5-Pin_1)*%
X123570000Y-148868000D03*
%TD*%
D14*
%TO.P,FL1,1,1*%
%TO.N,IN_AC1*%
X49400000Y-106750000D03*
%TO.P,FL1,2,2*%
%TO.N,G_AC1*%
X62000000Y-106750000D03*
%TO.P,FL1,3,3*%
%TO.N,Net-(FL1-Pad3)*%
X49400000Y-116750000D03*
%TO.P,FL1,4,4*%
%TO.N,G_AC2*%
X62000000Y-116750000D03*
%TD*%
%TO.P,J4,1,Pin_1*%
%TO.N,OUT_P*%
X112500000Y-170500000D03*
%TD*%
D18*
%TO.P,C1,1*%
%TO.N,Net-(U1-GBJ-N)*%
X48125000Y-134250000D03*
D19*
%TO.P,C1,2*%
%TO.N,Net-(D3-A)*%
X70625000Y-134250000D03*
%TD*%
D25*
%TO.P,U1,1,HS/GND*%
%TO.N,PGND*%
X87870000Y-51932000D03*
X87870000Y-105868000D03*
X122570000Y-51932000D03*
X122570000Y-105868000D03*
D26*
%TO.P,U1,2,GBJ-P*%
%TO.N,Net-(D3-A)*%
X82370000Y-66400000D03*
%TO.P,U1,3,GBJ-AC1*%
%TO.N,G_AC1*%
X82370000Y-76400000D03*
%TO.P,U1,4,GBJ-AC2*%
%TO.N,G_AC2*%
X82370000Y-83900000D03*
%TO.P,U1,5,GBJ-N*%
%TO.N,Net-(U1-GBJ-N)*%
X82370000Y-91400000D03*
%TO.P,U1,6,D-Cathode(1)*%
%TO.N,OUT_P*%
X126630000Y-94006667D03*
%TO.P,U1,7,D-Anode(2)*%
%TO.N,Net-(U1-D-Anode(2))*%
X126630000Y-83126667D03*
%TO.P,U1,8,T-Drain(1)*%
X126630000Y-74438333D03*
%TO.P,U1,9,T-Source(2)*%
%TO.N,PGND*%
X126630000Y-69358333D03*
D27*
%TO.P,U1,10,T-Source-Kelvin(3)*%
X126630000Y-66568333D03*
%TO.P,U1,11,T-Gate(4)*%
%TO.N,GATE2*%
X126630000Y-64028333D03*
%TD*%
D22*
%TO.P,J11,1,Pin_1*%
%TO.N,IN_AC1*%
X49500000Y-43000000D03*
D23*
X49500000Y-37920000D03*
%TD*%
D22*
%TO.P,J17,1,Pin_1*%
%TO.N,PGND*%
X141750000Y-98170000D03*
D23*
X141750000Y-103250000D03*
%TD*%
D17*
%TO.P,C8,1*%
%TO.N,IN_AC1*%
X65250000Y-32750000D03*
%TO.P,C8,2*%
%TO.N,Earth*%
X65250000Y-27750000D03*
%TD*%
D28*
%TO.P,K1,A1*%
%TO.N,+12V*%
X53560000Y-86950000D03*
D29*
%TO.P,K1,A2*%
%TO.N,Net-(D4-A)*%
X63720000Y-86950000D03*
D30*
%TO.P,K1,C*%
%TO.N,IN_AC2*%
X49750000Y-74250000D03*
D31*
%TO.P,K1,NO*%
%TO.N,Net-(FL1-Pad3)*%
X67530000Y-71710000D03*
%TD*%
D19*
%TO.P,L2,1,1*%
%TO.N,Net-(D5-K)*%
X66500000Y-160750000D03*
%TO.P,L2,2,2*%
%TO.N,+18*%
X61500000Y-160750000D03*
%TD*%
D32*
%TO.N,PGND*%
X52250000Y-90000000D03*
X134250000Y-66750000D03*
%TO.N,GATE1*%
X135000000Y-78250000D03*
%TO.N,+18*%
X107500000Y-97000000D03*
%TO.N,BOP*%
X78250000Y-99250000D03*
%TO.N,PGND*%
X74000000Y-98000000D03*
%TO.N,VB_OK*%
X78250000Y-101000000D03*
%TO.N,GATE1*%
X106750000Y-89750000D03*
%TO.N,VB_OK*%
X109250000Y-88250000D03*
%TO.N,BOP*%
X107750000Y-89750000D03*
%TO.N,PGND*%
X105750000Y-93250000D03*
X104500000Y-80250000D03*
X105500000Y-80250000D03*
X106500000Y-80250000D03*
X107500000Y-80250000D03*
X106500000Y-79250000D03*
X104500000Y-78250000D03*
X105500000Y-78250000D03*
X106500000Y-78250000D03*
X104500000Y-79250000D03*
X105500000Y-79250000D03*
X107500000Y-78250000D03*
X107500000Y-79250000D03*
X106500000Y-77250000D03*
X104500000Y-76250000D03*
X105500000Y-76250000D03*
X106500000Y-76250000D03*
X104500000Y-77250000D03*
X105500000Y-77250000D03*
X107500000Y-76250000D03*
X107500000Y-77250000D03*
X106500000Y-75250000D03*
X104500000Y-74250000D03*
X105500000Y-74250000D03*
X106500000Y-74250000D03*
X104500000Y-75250000D03*
X105500000Y-75250000D03*
X107500000Y-74250000D03*
X107500000Y-75250000D03*
X106500000Y-73250000D03*
X104500000Y-72250000D03*
X105500000Y-72250000D03*
X106500000Y-72250000D03*
X104500000Y-73250000D03*
X105500000Y-73250000D03*
X107500000Y-72250000D03*
X107500000Y-73250000D03*
X106500000Y-71250000D03*
X104500000Y-70250000D03*
X105500000Y-70250000D03*
X106500000Y-70250000D03*
X104500000Y-71250000D03*
X105500000Y-71250000D03*
X107500000Y-70250000D03*
X107500000Y-71250000D03*
X106500000Y-69250000D03*
X104500000Y-68250000D03*
X105500000Y-68250000D03*
X106500000Y-68250000D03*
X104500000Y-69250000D03*
X105500000Y-69250000D03*
X107500000Y-68250000D03*
X107500000Y-69250000D03*
X106500000Y-67250000D03*
X104500000Y-66250000D03*
X105500000Y-66250000D03*
X106500000Y-66250000D03*
X104500000Y-67250000D03*
X105500000Y-67250000D03*
X107500000Y-66250000D03*
X107500000Y-67250000D03*
X107500000Y-65250000D03*
X106500000Y-65250000D03*
X105500000Y-65250000D03*
X104500000Y-65250000D03*
X107500000Y-64250000D03*
X106500000Y-64250000D03*
X105500000Y-64250000D03*
X104500000Y-64250000D03*
X76250000Y-164500000D03*
X56500000Y-162750000D03*
X64750000Y-84000000D03*
%TO.N,+18*%
X131000000Y-67500000D03*
X131750000Y-65500000D03*
%TD*%
D33*
%TO.N,Net-(U1-GBJ-N)*%
X53500000Y-134250000D02*
X48125000Y-134250000D01*
X68500000Y-119250000D02*
X53500000Y-134250000D01*
X82370000Y-108630000D02*
X71750000Y-119250000D01*
X71750000Y-119250000D02*
X68500000Y-119250000D01*
X82370000Y-91400000D02*
X82370000Y-108630000D01*
D34*
%TO.N,G_AC2*%
X69250000Y-97750000D02*
X69250000Y-109500000D01*
X82370000Y-83900000D02*
X82370000Y-84630000D01*
X82370000Y-84630000D02*
X69250000Y-97750000D01*
X69250000Y-109500000D02*
X62000000Y-116750000D01*
%TO.N,G_AC1*%
X62000000Y-96000000D02*
X81600000Y-76400000D01*
X62000000Y-106750000D02*
X62000000Y-96000000D01*
X81600000Y-76400000D02*
X82370000Y-76400000D01*
%TO.N,OUT_P*%
X112500000Y-170500000D02*
X112500000Y-169938000D01*
X133500000Y-155000000D02*
X129632000Y-158868000D01*
X128250000Y-139500000D02*
X133500000Y-144750000D01*
X112500000Y-169938000D02*
X123570000Y-158868000D01*
X126630000Y-94006667D02*
X128250000Y-95626667D01*
X129632000Y-158868000D02*
X123570000Y-158868000D01*
X133500000Y-144750000D02*
X133500000Y-155000000D01*
X128250000Y-95626667D02*
X128250000Y-139500000D01*
%TO.N,Net-(J5-Pin_1)*%
X112500000Y-137000000D02*
X112500000Y-137798000D01*
X112500000Y-137798000D02*
X123570000Y-148868000D01*
D33*
%TO.N,Net-(D3-A)*%
X89500000Y-115375000D02*
X89500000Y-114500000D01*
X70625000Y-134250000D02*
X89500000Y-115375000D01*
D34*
%TO.N,Net-(FL1-Pad3)*%
X67530000Y-71710000D02*
X58750000Y-80490000D01*
X55250000Y-94000000D02*
X55250000Y-110900000D01*
X58750000Y-90500000D02*
X55250000Y-94000000D01*
X55250000Y-110900000D02*
X49400000Y-116750000D01*
X58750000Y-80490000D02*
X58750000Y-90500000D01*
%TO.N,BUCK+*%
X86570000Y-159570000D02*
X97500000Y-170500000D01*
X86570000Y-158868000D02*
X86570000Y-159570000D01*
D33*
%TO.N,IN_AC2*%
X58920000Y-47000000D02*
X58000000Y-47920000D01*
X65250000Y-53250000D02*
X73250000Y-53250000D01*
X63330000Y-53250000D02*
X58000000Y-47920000D01*
X76625000Y-56625000D02*
X76750000Y-56625000D01*
D34*
X49750000Y-74250000D02*
X49750000Y-53250000D01*
D33*
X65250000Y-53250000D02*
X63330000Y-53250000D01*
X65375000Y-53375000D02*
X65250000Y-53250000D01*
X64350000Y-47000000D02*
X58920000Y-47000000D01*
X73250000Y-53250000D02*
X76625000Y-56625000D01*
D34*
X49750000Y-53250000D02*
X49500000Y-53000000D01*
D33*
%TO.N,IN_AC1*%
X65250000Y-32750000D02*
X63170000Y-32750000D01*
X66150000Y-39500000D02*
X59580000Y-39500000D01*
X63170000Y-32750000D02*
X58000000Y-37920000D01*
X59580000Y-39500000D02*
X58000000Y-37920000D01*
X65250000Y-32750000D02*
X75375000Y-32750000D01*
X75375000Y-32750000D02*
X76750000Y-34125000D01*
%TD*%
%TA.AperFunction,Conductor*%
%TO.N,Net-(U1-D-Anode(2))*%
G36*
X122694304Y-71019685D02*
G01*
X122740059Y-71072488D01*
X122847717Y-71308225D01*
X122847725Y-71308241D01*
X123050200Y-71658939D01*
X123050206Y-71658947D01*
X123285083Y-71988785D01*
X123285092Y-71988795D01*
X123285093Y-71988797D01*
X123550280Y-72294840D01*
X123843358Y-72574289D01*
X124161672Y-72824614D01*
X124502340Y-73043548D01*
X124862276Y-73229108D01*
X125090996Y-73320673D01*
X125145916Y-73363864D01*
X125168769Y-73429891D01*
X125152296Y-73497791D01*
X125048883Y-73676906D01*
X124953058Y-73921062D01*
X124894693Y-74176782D01*
X124894692Y-74176787D01*
X124875093Y-74438328D01*
X124875093Y-74438337D01*
X124894692Y-74699878D01*
X124894693Y-74699883D01*
X124953058Y-74955603D01*
X125048880Y-75199752D01*
X125048882Y-75199756D01*
X125090091Y-75271133D01*
X125880000Y-74481224D01*
X125880000Y-74512202D01*
X125908822Y-74657100D01*
X125965359Y-74793591D01*
X126047437Y-74916430D01*
X126151903Y-75020896D01*
X126274742Y-75102974D01*
X126411233Y-75159511D01*
X126556131Y-75188333D01*
X126587107Y-75188333D01*
X125796261Y-75979177D01*
X125988855Y-76071927D01*
X125988858Y-76071928D01*
X126239494Y-76149240D01*
X126239500Y-76149242D01*
X126498848Y-76188332D01*
X126498857Y-76188333D01*
X126761143Y-76188333D01*
X126761151Y-76188332D01*
X127020499Y-76149242D01*
X127020505Y-76149240D01*
X127271143Y-76071928D01*
X127463739Y-75979179D01*
X126672893Y-75188333D01*
X126703869Y-75188333D01*
X126848767Y-75159511D01*
X126985258Y-75102974D01*
X127108097Y-75020896D01*
X127212563Y-74916430D01*
X127294641Y-74793591D01*
X127351178Y-74657100D01*
X127380000Y-74512202D01*
X127380000Y-74481227D01*
X128169907Y-75271134D01*
X128169908Y-75271134D01*
X128211116Y-75199759D01*
X128306941Y-74955603D01*
X128365306Y-74699883D01*
X128365307Y-74699878D01*
X128384907Y-74438337D01*
X128384907Y-74438328D01*
X128365307Y-74176787D01*
X128365306Y-74176782D01*
X128306941Y-73921062D01*
X128211116Y-73676906D01*
X128211117Y-73676906D01*
X128107703Y-73497790D01*
X128091230Y-73429890D01*
X128114082Y-73363863D01*
X128168999Y-73320675D01*
X128397724Y-73229108D01*
X128757660Y-73043548D01*
X129098328Y-72824614D01*
X129416642Y-72574289D01*
X129709720Y-72294840D01*
X129745419Y-72253640D01*
X129804192Y-72215869D01*
X129874061Y-72215867D01*
X129932840Y-72253640D01*
X129940258Y-72263089D01*
X130036141Y-72398222D01*
X130043540Y-72409997D01*
X130199539Y-72692255D01*
X130205572Y-72704784D01*
X130328983Y-73002727D01*
X130333576Y-73015851D01*
X130422856Y-73325747D01*
X130425950Y-73339304D01*
X130479970Y-73657240D01*
X130481527Y-73671058D01*
X130499805Y-73996527D01*
X130500000Y-74003480D01*
X130500000Y-89491852D01*
X130499988Y-89499879D01*
X130499987Y-89500193D01*
X130499955Y-89508143D01*
X130499954Y-89508333D01*
X130498285Y-89808573D01*
X130478228Y-89875502D01*
X130425171Y-89920963D01*
X130355958Y-89930522D01*
X130293755Y-89902174D01*
X130262526Y-89875502D01*
X130240748Y-89856901D01*
X130037960Y-89683702D01*
X130037946Y-89683692D01*
X129688273Y-89429641D01*
X129688262Y-89429633D01*
X129319753Y-89203810D01*
X129319747Y-89203807D01*
X129319743Y-89203805D01*
X129319735Y-89203800D01*
X128934614Y-89007571D01*
X128934600Y-89007565D01*
X128535280Y-88842160D01*
X128124221Y-88708600D01*
X128124214Y-88708598D01*
X128124210Y-88708597D01*
X127703922Y-88607695D01*
X127701876Y-88607371D01*
X127277013Y-88540079D01*
X126846120Y-88506167D01*
X126846115Y-88506167D01*
X126413885Y-88506167D01*
X126413879Y-88506167D01*
X125982986Y-88540079D01*
X125982985Y-88540079D01*
X125556083Y-88607694D01*
X125556080Y-88607694D01*
X125556078Y-88607695D01*
X125135790Y-88708597D01*
X125135778Y-88708600D01*
X124724719Y-88842160D01*
X124325399Y-89007565D01*
X124325386Y-89007571D01*
X123940265Y-89203800D01*
X123940261Y-89203802D01*
X123940252Y-89203807D01*
X123940246Y-89203810D01*
X123571737Y-89429633D01*
X123571726Y-89429641D01*
X123222053Y-89683692D01*
X123222039Y-89683702D01*
X122893382Y-89964404D01*
X122893368Y-89964417D01*
X122587750Y-90270035D01*
X122587737Y-90270049D01*
X122307035Y-90598706D01*
X122307025Y-90598720D01*
X122052974Y-90948393D01*
X122052966Y-90948404D01*
X121827143Y-91316913D01*
X121827140Y-91316919D01*
X121630904Y-91702053D01*
X121630898Y-91702066D01*
X121465493Y-92101386D01*
X121331933Y-92512445D01*
X121231027Y-92932750D01*
X121163412Y-93359652D01*
X121163412Y-93359653D01*
X121129500Y-93790546D01*
X121129500Y-94222787D01*
X121163412Y-94653680D01*
X121163412Y-94653681D01*
X121231027Y-95080583D01*
X121331933Y-95500888D01*
X121465493Y-95911947D01*
X121621860Y-96289448D01*
X121630904Y-96311281D01*
X121827133Y-96696402D01*
X121827138Y-96696410D01*
X121827140Y-96696414D01*
X121827143Y-96696420D01*
X122052966Y-97064929D01*
X122052974Y-97064940D01*
X122307025Y-97414613D01*
X122307035Y-97414627D01*
X122559781Y-97710552D01*
X122587743Y-97743291D01*
X122587750Y-97743298D01*
X122713181Y-97868729D01*
X122746666Y-97930052D01*
X122749500Y-97956410D01*
X122749500Y-100743500D01*
X122729815Y-100810539D01*
X122677011Y-100856294D01*
X122625500Y-100867500D01*
X122345427Y-100867500D01*
X121898090Y-100907761D01*
X121898085Y-100907761D01*
X121898083Y-100907762D01*
X121456156Y-100987960D01*
X121023214Y-101107445D01*
X121023189Y-101107453D01*
X120602702Y-101265264D01*
X120602688Y-101265270D01*
X120198039Y-101460139D01*
X120198033Y-101460142D01*
X119812458Y-101690512D01*
X119449108Y-101954502D01*
X119449080Y-101954524D01*
X119110868Y-102250011D01*
X119110865Y-102250014D01*
X118800465Y-102574667D01*
X118520429Y-102925821D01*
X118520428Y-102925822D01*
X118273004Y-103300654D01*
X118273004Y-103300655D01*
X118060165Y-103696175D01*
X118060164Y-103696178D01*
X117916758Y-104031695D01*
X117883636Y-104109187D01*
X117744843Y-104536347D01*
X117644901Y-104974223D01*
X117584611Y-105419307D01*
X117584610Y-105419316D01*
X117564460Y-105867996D01*
X117564460Y-105868003D01*
X117584610Y-106316683D01*
X117584611Y-106316692D01*
X117644901Y-106761776D01*
X117744843Y-107199652D01*
X117883552Y-107626555D01*
X117883639Y-107626821D01*
X118060164Y-108039822D01*
X118273000Y-108435338D01*
X118273004Y-108435344D01*
X118273004Y-108435345D01*
X118520428Y-108810177D01*
X118520429Y-108810178D01*
X118767127Y-109119528D01*
X118800471Y-109161339D01*
X119110858Y-109485979D01*
X119110865Y-109485985D01*
X119110868Y-109485988D01*
X119449080Y-109781475D01*
X119449089Y-109781482D01*
X119449097Y-109781489D01*
X119449107Y-109781496D01*
X119449108Y-109781497D01*
X119812458Y-110045487D01*
X120198033Y-110275857D01*
X120198039Y-110275860D01*
X120602688Y-110470729D01*
X120602702Y-110470735D01*
X121023189Y-110628546D01*
X121023193Y-110628547D01*
X121023203Y-110628551D01*
X121456163Y-110748041D01*
X121898090Y-110828239D01*
X122345427Y-110868500D01*
X122625500Y-110868500D01*
X122692539Y-110888185D01*
X122738294Y-110940989D01*
X122749500Y-110992500D01*
X122749500Y-134510926D01*
X122729815Y-134577965D01*
X122677011Y-134623720D01*
X122627694Y-134634907D01*
X117891934Y-134718726D01*
X117591884Y-134724036D01*
X117524508Y-134705541D01*
X117479208Y-134656353D01*
X117302867Y-134310265D01*
X117302857Y-134310248D01*
X117077033Y-133941737D01*
X117077029Y-133941732D01*
X117077027Y-133941728D01*
X116822969Y-133592046D01*
X116822964Y-133592039D01*
X116542262Y-133263382D01*
X116542257Y-133263376D01*
X116236624Y-132957743D01*
X116229413Y-132951584D01*
X115907960Y-132677035D01*
X115907946Y-132677025D01*
X115754525Y-132565559D01*
X115558272Y-132422973D01*
X115558269Y-132422971D01*
X115558262Y-132422966D01*
X115189751Y-132197142D01*
X115189740Y-132197136D01*
X115189739Y-132197135D01*
X115189735Y-132197133D01*
X114804615Y-132000904D01*
X114547303Y-131894322D01*
X114405280Y-131835494D01*
X114082253Y-131730537D01*
X113994210Y-131701930D01*
X113573922Y-131601028D01*
X113147013Y-131533412D01*
X112716120Y-131499500D01*
X112716115Y-131499500D01*
X112283885Y-131499500D01*
X112283879Y-131499500D01*
X111852986Y-131533412D01*
X111852985Y-131533412D01*
X111426083Y-131601027D01*
X111426080Y-131601027D01*
X111426078Y-131601028D01*
X111275562Y-131637163D01*
X111005801Y-131701927D01*
X111005795Y-131701928D01*
X111005790Y-131701930D01*
X111005778Y-131701934D01*
X110594719Y-131835494D01*
X110195387Y-132000903D01*
X109810259Y-132197136D01*
X109810248Y-132197142D01*
X109441737Y-132422966D01*
X109441726Y-132422974D01*
X109092053Y-132677025D01*
X109092039Y-132677035D01*
X108763382Y-132957737D01*
X108763368Y-132957750D01*
X108457750Y-133263368D01*
X108457737Y-133263382D01*
X108177035Y-133592039D01*
X108177025Y-133592053D01*
X107922974Y-133941726D01*
X107922966Y-133941737D01*
X107697142Y-134310248D01*
X107697136Y-134310259D01*
X107500904Y-134695385D01*
X107500902Y-134695390D01*
X107445525Y-134829080D01*
X107401683Y-134883483D01*
X107335389Y-134905547D01*
X107333158Y-134905607D01*
X105056607Y-134945900D01*
X105049574Y-134945825D01*
X104720171Y-134932960D01*
X104706173Y-134931615D01*
X104383838Y-134882075D01*
X104370083Y-134879154D01*
X104055428Y-134793437D01*
X104042092Y-134788978D01*
X103739159Y-134668185D01*
X103726417Y-134662245D01*
X103439108Y-134507930D01*
X103427118Y-134500585D01*
X103355888Y-134451187D01*
X103159130Y-134314735D01*
X103148056Y-134306085D01*
X102902828Y-134091083D01*
X102892797Y-134081228D01*
X102824701Y-134006277D01*
X102673488Y-133839843D01*
X102664647Y-133828926D01*
X102474077Y-133564262D01*
X102466523Y-133552406D01*
X102454004Y-133530056D01*
X102307151Y-133267877D01*
X102300986Y-133255240D01*
X102290773Y-133230888D01*
X102174844Y-132954478D01*
X102170162Y-132941257D01*
X102078881Y-132628139D01*
X102075719Y-132614441D01*
X102033366Y-132368000D01*
X102815172Y-132368000D01*
X102834462Y-132662312D01*
X102834464Y-132662324D01*
X102892001Y-132951584D01*
X102892005Y-132951599D01*
X102986812Y-133230888D01*
X103117259Y-133495410D01*
X103164612Y-133566279D01*
X104102252Y-132628639D01*
X104108429Y-132659689D01*
X104183811Y-132841678D01*
X104293249Y-133005463D01*
X104432537Y-133144751D01*
X104596322Y-133254189D01*
X104778311Y-133329571D01*
X104809359Y-133335746D01*
X103871719Y-134273386D01*
X103942590Y-134320740D01*
X103942589Y-134320740D01*
X104207111Y-134451187D01*
X104486400Y-134545994D01*
X104486415Y-134545998D01*
X104775675Y-134603535D01*
X104775687Y-134603537D01*
X105070000Y-134622827D01*
X105364312Y-134603537D01*
X105364324Y-134603535D01*
X105653584Y-134545998D01*
X105653599Y-134545994D01*
X105932888Y-134451187D01*
X106197407Y-134320741D01*
X106197422Y-134320732D01*
X106268278Y-134273386D01*
X106268279Y-134273385D01*
X105330640Y-133335746D01*
X105361689Y-133329571D01*
X105543678Y-133254189D01*
X105707463Y-133144751D01*
X105846751Y-133005463D01*
X105956189Y-132841678D01*
X106031571Y-132659689D01*
X106037746Y-132628640D01*
X106975385Y-133566279D01*
X106975386Y-133566278D01*
X107022732Y-133495422D01*
X107022741Y-133495407D01*
X107153187Y-133230888D01*
X107247994Y-132951599D01*
X107247998Y-132951584D01*
X107305535Y-132662324D01*
X107305537Y-132662312D01*
X107324827Y-132368000D01*
X107305537Y-132073687D01*
X107305535Y-132073675D01*
X107247998Y-131784415D01*
X107247994Y-131784400D01*
X107153187Y-131505111D01*
X107022740Y-131240589D01*
X106975386Y-131169719D01*
X106037746Y-132107359D01*
X106031571Y-132076311D01*
X105956189Y-131894322D01*
X105846751Y-131730537D01*
X105707463Y-131591249D01*
X105543678Y-131481811D01*
X105361689Y-131406429D01*
X105330640Y-131400253D01*
X106268279Y-130462612D01*
X106197410Y-130415259D01*
X105932888Y-130284812D01*
X105653599Y-130190005D01*
X105653584Y-130190001D01*
X105364324Y-130132464D01*
X105364312Y-130132462D01*
X105070000Y-130113172D01*
X104775687Y-130132462D01*
X104775675Y-130132464D01*
X104486415Y-130190001D01*
X104486400Y-130190005D01*
X104207111Y-130284812D01*
X103942585Y-130415262D01*
X103871720Y-130462612D01*
X103871720Y-130462613D01*
X104809360Y-131400253D01*
X104778311Y-131406429D01*
X104596322Y-131481811D01*
X104432537Y-131591249D01*
X104293249Y-131730537D01*
X104183811Y-131894322D01*
X104108429Y-132076311D01*
X104102253Y-132107360D01*
X103164613Y-131169720D01*
X103164612Y-131169720D01*
X103117262Y-131240585D01*
X102986812Y-131505111D01*
X102892005Y-131784400D01*
X102892001Y-131784415D01*
X102834464Y-132073675D01*
X102834462Y-132073687D01*
X102815172Y-132368000D01*
X102033366Y-132368000D01*
X102020484Y-132293041D01*
X102018891Y-132279070D01*
X102000199Y-131949937D01*
X102000000Y-131942906D01*
X102000000Y-123672502D01*
X102000189Y-123665657D01*
X102017905Y-123345209D01*
X102019411Y-123331622D01*
X102071781Y-123018446D01*
X102074775Y-123005115D01*
X102161346Y-122699628D01*
X102165799Y-122686689D01*
X102285512Y-122392624D01*
X102291366Y-122380249D01*
X102442770Y-122101160D01*
X102449930Y-122089541D01*
X102631191Y-121828825D01*
X102639603Y-121818047D01*
X102848488Y-121578913D01*
X102858029Y-121569136D01*
X103094562Y-121352137D01*
X103099665Y-121347710D01*
X110652950Y-115150144D01*
X110652954Y-115150140D01*
X111750000Y-114250000D01*
X111750000Y-110861620D01*
X111750127Y-110856007D01*
X111751385Y-110828237D01*
X111753902Y-110772697D01*
X111754128Y-110765221D01*
X111755500Y-110674406D01*
X111755500Y-100234270D01*
X111755500Y-100234256D01*
X111755499Y-100234253D01*
X111750129Y-100116410D01*
X111750000Y-100110764D01*
X111750000Y-90450520D01*
X111769685Y-90383481D01*
X111779478Y-90370260D01*
X111881365Y-90250311D01*
X112082211Y-89954085D01*
X112249853Y-89637880D01*
X112382324Y-89305403D01*
X112478071Y-88960552D01*
X112497480Y-88842160D01*
X112535970Y-88607385D01*
X112535970Y-88607382D01*
X112535972Y-88607371D01*
X112555348Y-88250000D01*
X112535972Y-87892629D01*
X112478071Y-87539448D01*
X112382324Y-87194597D01*
X112249853Y-86862120D01*
X112082211Y-86545915D01*
X111881365Y-86249689D01*
X111881361Y-86249684D01*
X111881358Y-86249680D01*
X111779492Y-86129754D01*
X111751094Y-86065915D01*
X111750000Y-86049478D01*
X111750000Y-84978907D01*
X111750210Y-84971697D01*
X111755500Y-84880873D01*
X111755500Y-83484256D01*
X111755499Y-83484253D01*
X111751122Y-83388212D01*
X111750128Y-83366409D01*
X111750000Y-83360764D01*
X111750000Y-83126662D01*
X124875093Y-83126662D01*
X124875093Y-83126671D01*
X124894692Y-83388212D01*
X124894693Y-83388217D01*
X124953058Y-83643937D01*
X125048880Y-83888086D01*
X125048882Y-83888090D01*
X125090091Y-83959467D01*
X125880000Y-83169559D01*
X125880000Y-83200536D01*
X125908822Y-83345434D01*
X125965359Y-83481925D01*
X126047437Y-83604764D01*
X126151903Y-83709230D01*
X126274742Y-83791308D01*
X126411233Y-83847845D01*
X126556131Y-83876667D01*
X126587107Y-83876667D01*
X125796261Y-84667511D01*
X125988855Y-84760261D01*
X125988858Y-84760262D01*
X126239494Y-84837574D01*
X126239500Y-84837576D01*
X126498848Y-84876666D01*
X126498857Y-84876667D01*
X126761143Y-84876667D01*
X126761151Y-84876666D01*
X127020499Y-84837576D01*
X127020505Y-84837574D01*
X127271143Y-84760262D01*
X127463739Y-84667513D01*
X126672893Y-83876667D01*
X126703869Y-83876667D01*
X126848767Y-83847845D01*
X126985258Y-83791308D01*
X127108097Y-83709230D01*
X127212563Y-83604764D01*
X127294641Y-83481925D01*
X127351178Y-83345434D01*
X127380000Y-83200536D01*
X127380000Y-83169561D01*
X128169907Y-83959468D01*
X128169908Y-83959468D01*
X128211116Y-83888093D01*
X128306941Y-83643937D01*
X128365306Y-83388217D01*
X128365307Y-83388212D01*
X128384907Y-83126671D01*
X128384907Y-83126662D01*
X128365307Y-82865121D01*
X128365306Y-82865116D01*
X128306941Y-82609396D01*
X128211116Y-82365240D01*
X128169907Y-82293864D01*
X127380000Y-83083772D01*
X127380000Y-83052798D01*
X127351178Y-82907900D01*
X127294641Y-82771409D01*
X127212563Y-82648570D01*
X127108097Y-82544104D01*
X126985258Y-82462026D01*
X126848767Y-82405489D01*
X126703869Y-82376667D01*
X126672894Y-82376667D01*
X127463739Y-81585821D01*
X127463738Y-81585819D01*
X127271142Y-81493071D01*
X127271144Y-81493071D01*
X127020505Y-81415759D01*
X127020499Y-81415757D01*
X126761151Y-81376667D01*
X126498848Y-81376667D01*
X126239500Y-81415757D01*
X126239494Y-81415759D01*
X125988856Y-81493071D01*
X125796260Y-81585820D01*
X126587107Y-82376667D01*
X126556131Y-82376667D01*
X126411233Y-82405489D01*
X126274742Y-82462026D01*
X126151903Y-82544104D01*
X126047437Y-82648570D01*
X125965359Y-82771409D01*
X125908822Y-82907900D01*
X125880000Y-83052798D01*
X125880000Y-83083774D01*
X125090091Y-82293865D01*
X125048883Y-82365240D01*
X124953058Y-82609396D01*
X124894693Y-82865116D01*
X124894692Y-82865121D01*
X124875093Y-83126662D01*
X111750000Y-83126662D01*
X111750000Y-74003480D01*
X111750195Y-73996528D01*
X111754433Y-73921062D01*
X111768473Y-73671048D01*
X111770027Y-73657253D01*
X111824049Y-73339299D01*
X111827143Y-73325747D01*
X111908444Y-73043549D01*
X111916424Y-73015847D01*
X111921016Y-73002727D01*
X111944728Y-72945479D01*
X112044430Y-72704775D01*
X112050452Y-72692269D01*
X112206467Y-72409983D01*
X112213854Y-72398228D01*
X112400482Y-72135201D01*
X112409128Y-72124358D01*
X112624049Y-71883861D01*
X112633861Y-71874049D01*
X112874358Y-71659128D01*
X112885201Y-71650482D01*
X113148228Y-71463854D01*
X113159983Y-71456467D01*
X113442269Y-71300452D01*
X113454775Y-71294430D01*
X113752727Y-71171016D01*
X113765847Y-71166424D01*
X114075753Y-71077141D01*
X114089299Y-71074049D01*
X114407253Y-71020027D01*
X114421048Y-71018473D01*
X114709283Y-71002286D01*
X114746529Y-71000195D01*
X114753481Y-71000000D01*
X122627265Y-71000000D01*
X122694304Y-71019685D01*
G37*
%TD.AperFunction*%
%TD*%
%TA.AperFunction,Conductor*%
%TO.N,OUT_P*%
G36*
X140402095Y-123519685D02*
G01*
X140447850Y-123572489D01*
X140457794Y-123641647D01*
X140434322Y-123698312D01*
X140354147Y-123805410D01*
X140354145Y-123805413D01*
X140303903Y-123940120D01*
X140303901Y-123940127D01*
X140297500Y-123999655D01*
X140297500Y-124500000D01*
X141262171Y-124500000D01*
X141207439Y-124554732D01*
X141130997Y-124669136D01*
X141078343Y-124796255D01*
X141051500Y-124931204D01*
X141051500Y-125068796D01*
X141078343Y-125203745D01*
X141130997Y-125330864D01*
X141207439Y-125445268D01*
X141304732Y-125542561D01*
X141419136Y-125619003D01*
X141546255Y-125671657D01*
X141681204Y-125698500D01*
X141818796Y-125698500D01*
X141953745Y-125671657D01*
X142080864Y-125619003D01*
X142195268Y-125542561D01*
X142250000Y-125487829D01*
X142250000Y-126452500D01*
X142750328Y-126452500D01*
X142750344Y-126452499D01*
X142809872Y-126446098D01*
X142809879Y-126446096D01*
X142944586Y-126395854D01*
X142944593Y-126395850D01*
X143059687Y-126309690D01*
X143059690Y-126309687D01*
X143145850Y-126194593D01*
X143145854Y-126194586D01*
X143196096Y-126059879D01*
X143196098Y-126059872D01*
X143202499Y-126000344D01*
X143202500Y-126000327D01*
X143202500Y-125994250D01*
X143222185Y-125927211D01*
X143274989Y-125881456D01*
X143344147Y-125871512D01*
X143407703Y-125900537D01*
X143445477Y-125959315D01*
X143448748Y-125973479D01*
X143479970Y-126157240D01*
X143481527Y-126171058D01*
X143499805Y-126496527D01*
X143500000Y-126503480D01*
X143500000Y-140746519D01*
X143499805Y-140753472D01*
X143481527Y-141078941D01*
X143479970Y-141092759D01*
X143425950Y-141410695D01*
X143422856Y-141424251D01*
X143402164Y-141496077D01*
X143364690Y-141555047D01*
X143301284Y-141584396D01*
X143232075Y-141574806D01*
X143179038Y-141529322D01*
X143162804Y-141492190D01*
X143128507Y-141356757D01*
X143068089Y-141219017D01*
X143068088Y-141219016D01*
X142448500Y-141838605D01*
X142448500Y-141761204D01*
X142421657Y-141626255D01*
X142369003Y-141499136D01*
X142292561Y-141384732D01*
X142195268Y-141287439D01*
X142080864Y-141210997D01*
X141953745Y-141158343D01*
X141818796Y-141131500D01*
X141681204Y-141131500D01*
X141546255Y-141158343D01*
X141419136Y-141210997D01*
X141304732Y-141287439D01*
X141207439Y-141384732D01*
X141130997Y-141499136D01*
X141078343Y-141626255D01*
X141051500Y-141761204D01*
X141051500Y-141898796D01*
X141078343Y-142033745D01*
X141130997Y-142160864D01*
X141207439Y-142275268D01*
X141304732Y-142372561D01*
X141419136Y-142449003D01*
X141546255Y-142501657D01*
X141681204Y-142528500D01*
X141758607Y-142528500D01*
X141750000Y-142537107D01*
X141137188Y-143149918D01*
X141164531Y-143164715D01*
X141164545Y-143164721D01*
X141392207Y-143242879D01*
X141618599Y-143280657D01*
X141681485Y-143311107D01*
X141717924Y-143370722D01*
X141716349Y-143440574D01*
X141677260Y-143498486D01*
X141645642Y-143517527D01*
X141497272Y-143578983D01*
X141484148Y-143583576D01*
X141174252Y-143672856D01*
X141160695Y-143675950D01*
X140842759Y-143729970D01*
X140828941Y-143731527D01*
X140503472Y-143749805D01*
X140496519Y-143750000D01*
X131438619Y-143750000D01*
X131431659Y-143749804D01*
X131105834Y-143731486D01*
X131092001Y-143729926D01*
X130773749Y-143675794D01*
X130760179Y-143672694D01*
X130449973Y-143583226D01*
X130436836Y-143578623D01*
X130138639Y-143454961D01*
X130126100Y-143448916D01*
X129843623Y-143292599D01*
X129831841Y-143285186D01*
X129568671Y-143098198D01*
X129557794Y-143089511D01*
X129317242Y-142874208D01*
X129307407Y-142864357D01*
X129092493Y-142623436D01*
X129083834Y-142612558D01*
X128897278Y-142349068D01*
X128889887Y-142337277D01*
X128871125Y-142303240D01*
X128734043Y-142054546D01*
X128728019Y-142041999D01*
X128640514Y-141829994D01*
X140292522Y-141829994D01*
X140292522Y-141830005D01*
X140312399Y-142069889D01*
X140371491Y-142303240D01*
X140431910Y-142440982D01*
X141042893Y-141830000D01*
X140431910Y-141219017D01*
X140371491Y-141356759D01*
X140312399Y-141590110D01*
X140292522Y-141829994D01*
X128640514Y-141829994D01*
X128604846Y-141743580D01*
X128600266Y-141730435D01*
X128531980Y-141492190D01*
X128511317Y-141420098D01*
X128508242Y-141406539D01*
X128454050Y-141084701D01*
X128453095Y-141077864D01*
X128416666Y-140750000D01*
X128390008Y-140510080D01*
X141137188Y-140510080D01*
X141137188Y-140510081D01*
X141750000Y-141122893D01*
X141750001Y-141122893D01*
X142362811Y-140510081D01*
X142335469Y-140495284D01*
X142335456Y-140495279D01*
X142107790Y-140417119D01*
X141870358Y-140377500D01*
X141629642Y-140377500D01*
X141392209Y-140417119D01*
X141164534Y-140495282D01*
X141137188Y-140510080D01*
X128390008Y-140510080D01*
X128083371Y-137750344D01*
X140297500Y-137750344D01*
X140303901Y-137809872D01*
X140303903Y-137809879D01*
X140354145Y-137944586D01*
X140354149Y-137944593D01*
X140440309Y-138059687D01*
X140440312Y-138059690D01*
X140555406Y-138145850D01*
X140555413Y-138145854D01*
X140690120Y-138196096D01*
X140690127Y-138196098D01*
X140749655Y-138202499D01*
X140749672Y-138202500D01*
X141250000Y-138202500D01*
X142250000Y-138202500D01*
X142750328Y-138202500D01*
X142750344Y-138202499D01*
X142809872Y-138196098D01*
X142809879Y-138196096D01*
X142944586Y-138145854D01*
X142944593Y-138145850D01*
X143059687Y-138059690D01*
X143059690Y-138059687D01*
X143145850Y-137944593D01*
X143145854Y-137944586D01*
X143196096Y-137809879D01*
X143196098Y-137809872D01*
X143202499Y-137750344D01*
X143202500Y-137750327D01*
X143202500Y-137250000D01*
X142250000Y-137250000D01*
X142250000Y-138202500D01*
X141250000Y-138202500D01*
X141250000Y-137250000D01*
X140297500Y-137250000D01*
X140297500Y-137750344D01*
X128083371Y-137750344D01*
X127964578Y-136681204D01*
X141051500Y-136681204D01*
X141051500Y-136818796D01*
X141078343Y-136953745D01*
X141130997Y-137080864D01*
X141207439Y-137195268D01*
X141304732Y-137292561D01*
X141419136Y-137369003D01*
X141546255Y-137421657D01*
X141681204Y-137448500D01*
X141818796Y-137448500D01*
X141953745Y-137421657D01*
X142080864Y-137369003D01*
X142195268Y-137292561D01*
X142292561Y-137195268D01*
X142369003Y-137080864D01*
X142421657Y-136953745D01*
X142448500Y-136818796D01*
X142448500Y-136681204D01*
X142421657Y-136546255D01*
X142369003Y-136419136D01*
X142292561Y-136304732D01*
X142237829Y-136250000D01*
X142250000Y-136250000D01*
X143202500Y-136250000D01*
X143202500Y-135749672D01*
X143202499Y-135749655D01*
X143196098Y-135690127D01*
X143196096Y-135690120D01*
X143145854Y-135555413D01*
X143145850Y-135555406D01*
X143059690Y-135440312D01*
X143059687Y-135440309D01*
X142944593Y-135354149D01*
X142944586Y-135354145D01*
X142809879Y-135303903D01*
X142809872Y-135303901D01*
X142750344Y-135297500D01*
X142250000Y-135297500D01*
X142250000Y-136250000D01*
X142237829Y-136250000D01*
X142195268Y-136207439D01*
X142080864Y-136130997D01*
X141953745Y-136078343D01*
X141818796Y-136051500D01*
X141681204Y-136051500D01*
X141546255Y-136078343D01*
X141419136Y-136130997D01*
X141304732Y-136207439D01*
X141207439Y-136304732D01*
X141130997Y-136419136D01*
X141078343Y-136546255D01*
X141051500Y-136681204D01*
X127964578Y-136681204D01*
X127861072Y-135749655D01*
X140297500Y-135749655D01*
X140297500Y-136250000D01*
X141250000Y-136250000D01*
X141250000Y-135297500D01*
X140749655Y-135297500D01*
X140690127Y-135303901D01*
X140690120Y-135303903D01*
X140555413Y-135354145D01*
X140555406Y-135354149D01*
X140440312Y-135440309D01*
X140440309Y-135440312D01*
X140354149Y-135555406D01*
X140354145Y-135555413D01*
X140303903Y-135690120D01*
X140303901Y-135690127D01*
X140297500Y-135749655D01*
X127861072Y-135749655D01*
X127377768Y-131399918D01*
X141137188Y-131399918D01*
X141164531Y-131414715D01*
X141164545Y-131414721D01*
X141392207Y-131492879D01*
X141629642Y-131532500D01*
X141870358Y-131532500D01*
X142107792Y-131492879D01*
X142335458Y-131414720D01*
X142362810Y-131399917D01*
X141750001Y-130787107D01*
X141750000Y-130787107D01*
X141137188Y-131399918D01*
X127377768Y-131399918D01*
X127231110Y-130079994D01*
X140292522Y-130079994D01*
X140292522Y-130080005D01*
X140312399Y-130319889D01*
X140371491Y-130553240D01*
X140431910Y-130690982D01*
X141042893Y-130080000D01*
X141042893Y-130079999D01*
X140974098Y-130011204D01*
X141051500Y-130011204D01*
X141051500Y-130148796D01*
X141078343Y-130283745D01*
X141130997Y-130410864D01*
X141207439Y-130525268D01*
X141304732Y-130622561D01*
X141419136Y-130699003D01*
X141546255Y-130751657D01*
X141681204Y-130778500D01*
X141818796Y-130778500D01*
X141953745Y-130751657D01*
X142080864Y-130699003D01*
X142195268Y-130622561D01*
X142292561Y-130525268D01*
X142369003Y-130410864D01*
X142421657Y-130283745D01*
X142448500Y-130148796D01*
X142448500Y-130079999D01*
X142457107Y-130079999D01*
X142457107Y-130080001D01*
X143068088Y-130690982D01*
X143128508Y-130553239D01*
X143187600Y-130319889D01*
X143207478Y-130080005D01*
X143207478Y-130079994D01*
X143187600Y-129840110D01*
X143128507Y-129606757D01*
X143068089Y-129469017D01*
X143068088Y-129469016D01*
X142457107Y-130079999D01*
X142448500Y-130079999D01*
X142448500Y-130011204D01*
X142421657Y-129876255D01*
X142369003Y-129749136D01*
X142292561Y-129634732D01*
X142195268Y-129537439D01*
X142080864Y-129460997D01*
X141953745Y-129408343D01*
X141818796Y-129381500D01*
X141681204Y-129381500D01*
X141546255Y-129408343D01*
X141419136Y-129460997D01*
X141304732Y-129537439D01*
X141207439Y-129634732D01*
X141130997Y-129749136D01*
X141078343Y-129876255D01*
X141051500Y-130011204D01*
X140974098Y-130011204D01*
X140431910Y-129469017D01*
X140371491Y-129606759D01*
X140312399Y-129840110D01*
X140292522Y-130079994D01*
X127231110Y-130079994D01*
X127084453Y-128760080D01*
X141137188Y-128760080D01*
X141137188Y-128760081D01*
X141750000Y-129372893D01*
X141750001Y-129372893D01*
X142362811Y-128760081D01*
X142335469Y-128745284D01*
X142335456Y-128745279D01*
X142107790Y-128667119D01*
X141870358Y-128627500D01*
X141629642Y-128627500D01*
X141392209Y-128667119D01*
X141164534Y-128745282D01*
X141137188Y-128760080D01*
X127084453Y-128760080D01*
X126870524Y-126834718D01*
X126869954Y-126827833D01*
X126852177Y-126502614D01*
X126852196Y-126488748D01*
X126870710Y-126167059D01*
X126872284Y-126153263D01*
X126888274Y-126059879D01*
X126898468Y-126000344D01*
X140297500Y-126000344D01*
X140303901Y-126059872D01*
X140303903Y-126059879D01*
X140354145Y-126194586D01*
X140354149Y-126194593D01*
X140440309Y-126309687D01*
X140440312Y-126309690D01*
X140555406Y-126395850D01*
X140555413Y-126395854D01*
X140690120Y-126446096D01*
X140690127Y-126446098D01*
X140749655Y-126452499D01*
X140749672Y-126452500D01*
X141250000Y-126452500D01*
X141250000Y-125500000D01*
X140297500Y-125500000D01*
X140297500Y-126000344D01*
X126898468Y-126000344D01*
X126926664Y-125835677D01*
X126929767Y-125822156D01*
X127019336Y-125512635D01*
X127023937Y-125499535D01*
X127147559Y-125201993D01*
X127153600Y-125189482D01*
X127309727Y-124907643D01*
X127317129Y-124895887D01*
X127380428Y-124806838D01*
X127503816Y-124633262D01*
X127512469Y-124622429D01*
X127727371Y-124382326D01*
X127737180Y-124372531D01*
X127977591Y-124157976D01*
X127988441Y-124149335D01*
X128251339Y-123963021D01*
X128263087Y-123955649D01*
X128545173Y-123799915D01*
X128557668Y-123793904D01*
X128855412Y-123670699D01*
X128868499Y-123666124D01*
X129178167Y-123576997D01*
X129191683Y-123573916D01*
X129509354Y-123519992D01*
X129523151Y-123518439D01*
X129848320Y-123500195D01*
X129855266Y-123500000D01*
X140335056Y-123500000D01*
X140402095Y-123519685D01*
G37*
%TD.AperFunction*%
%TD*%
%TA.AperFunction,Conductor*%
%TO.N,Net-(D3-A)*%
G36*
X101144232Y-64269685D02*
G01*
X101189987Y-64322489D01*
X101201011Y-64367287D01*
X101210615Y-64544430D01*
X101214028Y-64607368D01*
X101214028Y-64607371D01*
X101234121Y-64729940D01*
X101234121Y-64770060D01*
X101214028Y-64892629D01*
X101206277Y-65035577D01*
X101194652Y-65249997D01*
X101194652Y-65250002D01*
X101214028Y-65607368D01*
X101214028Y-65607371D01*
X101234121Y-65729940D01*
X101234121Y-65770060D01*
X101215651Y-65882729D01*
X101214028Y-65892629D01*
X101194652Y-66250000D01*
X101212313Y-66575747D01*
X101214028Y-66607368D01*
X101214028Y-66607371D01*
X101234121Y-66729940D01*
X101234121Y-66770060D01*
X101214028Y-66892628D01*
X101214028Y-66892631D01*
X101194652Y-67249997D01*
X101194652Y-67250002D01*
X101214028Y-67607368D01*
X101214028Y-67607371D01*
X101234121Y-67729940D01*
X101234121Y-67770060D01*
X101214028Y-67892628D01*
X101214028Y-67892631D01*
X101194652Y-68249997D01*
X101194652Y-68250002D01*
X101214028Y-68607368D01*
X101214028Y-68607371D01*
X101234121Y-68729940D01*
X101234121Y-68770060D01*
X101214028Y-68892628D01*
X101214028Y-68892631D01*
X101194652Y-69249997D01*
X101194652Y-69250002D01*
X101214028Y-69607368D01*
X101214028Y-69607371D01*
X101234121Y-69729940D01*
X101234121Y-69770060D01*
X101214028Y-69892629D01*
X101206277Y-70035577D01*
X101194652Y-70249997D01*
X101194652Y-70250002D01*
X101214028Y-70607368D01*
X101214028Y-70607371D01*
X101234121Y-70729940D01*
X101234121Y-70770060D01*
X101214028Y-70892629D01*
X101194652Y-71250000D01*
X101213473Y-71597142D01*
X101214028Y-71607368D01*
X101214028Y-71607371D01*
X101234121Y-71729940D01*
X101234121Y-71770060D01*
X101214028Y-71892628D01*
X101214028Y-71892631D01*
X101194652Y-72249997D01*
X101194652Y-72250002D01*
X101214028Y-72607368D01*
X101214028Y-72607371D01*
X101234121Y-72729940D01*
X101234121Y-72770060D01*
X101214028Y-72892628D01*
X101214028Y-72892631D01*
X101194652Y-73249997D01*
X101194652Y-73250002D01*
X101214028Y-73607368D01*
X101214028Y-73607371D01*
X101234121Y-73729940D01*
X101234121Y-73770060D01*
X101214028Y-73892628D01*
X101214028Y-73892631D01*
X101194652Y-74249997D01*
X101194652Y-74250002D01*
X101214028Y-74607368D01*
X101214028Y-74607371D01*
X101234121Y-74729940D01*
X101234121Y-74770060D01*
X101214028Y-74892629D01*
X101213314Y-74905801D01*
X101194652Y-75249997D01*
X101194652Y-75250002D01*
X101214028Y-75607368D01*
X101214028Y-75607371D01*
X101234121Y-75729940D01*
X101234121Y-75770060D01*
X101214028Y-75892628D01*
X101214028Y-75892631D01*
X101194652Y-76249997D01*
X101194652Y-76250002D01*
X101214028Y-76607368D01*
X101214028Y-76607371D01*
X101234121Y-76729940D01*
X101234121Y-76770060D01*
X101214028Y-76892628D01*
X101214028Y-76892631D01*
X101194652Y-77249997D01*
X101194652Y-77250002D01*
X101214028Y-77607368D01*
X101214028Y-77607371D01*
X101234121Y-77729940D01*
X101234121Y-77770060D01*
X101214028Y-77892628D01*
X101214028Y-77892631D01*
X101194652Y-78249997D01*
X101194652Y-78250002D01*
X101214028Y-78607368D01*
X101214028Y-78607371D01*
X101234121Y-78729940D01*
X101234121Y-78770060D01*
X101214028Y-78892628D01*
X101214028Y-78892631D01*
X101194652Y-79249997D01*
X101194652Y-79250002D01*
X101214028Y-79607368D01*
X101214028Y-79607371D01*
X101234121Y-79729940D01*
X101234121Y-79770060D01*
X101214028Y-79892628D01*
X101214028Y-79892631D01*
X101194652Y-80249997D01*
X101194652Y-80250002D01*
X101214028Y-80607368D01*
X101214029Y-80607385D01*
X101271926Y-80960539D01*
X101271932Y-80960565D01*
X101367672Y-81305392D01*
X101367674Y-81305399D01*
X101500142Y-81637870D01*
X101500151Y-81637888D01*
X101667784Y-81954077D01*
X101667790Y-81954086D01*
X101868634Y-82250309D01*
X101868641Y-82250319D01*
X102000700Y-82405790D01*
X102100332Y-82523086D01*
X102360163Y-82769211D01*
X102645081Y-82985800D01*
X102951747Y-83170315D01*
X102951749Y-83170316D01*
X102951751Y-83170317D01*
X102951755Y-83170319D01*
X103276552Y-83320585D01*
X103276565Y-83320591D01*
X103615726Y-83434868D01*
X103965254Y-83511805D01*
X104321052Y-83550500D01*
X104321058Y-83550500D01*
X104678943Y-83550500D01*
X104678948Y-83550500D01*
X104986594Y-83517041D01*
X105013406Y-83517041D01*
X105321052Y-83550500D01*
X105321057Y-83550500D01*
X105678943Y-83550500D01*
X105678948Y-83550500D01*
X105986594Y-83517041D01*
X106013406Y-83517041D01*
X106321052Y-83550500D01*
X106321057Y-83550500D01*
X106678943Y-83550500D01*
X106678948Y-83550500D01*
X106986594Y-83517041D01*
X107013406Y-83517041D01*
X107321052Y-83550500D01*
X107321057Y-83550500D01*
X107678942Y-83550500D01*
X107678948Y-83550500D01*
X108034746Y-83511805D01*
X108384274Y-83434868D01*
X108586407Y-83366760D01*
X108656222Y-83364009D01*
X108716442Y-83399439D01*
X108747948Y-83461802D01*
X108750000Y-83484270D01*
X108750000Y-84880872D01*
X108730315Y-84947911D01*
X108677511Y-84993666D01*
X108652657Y-85001973D01*
X108365724Y-85065132D01*
X108137170Y-85142141D01*
X108026565Y-85179409D01*
X108026563Y-85179410D01*
X108026552Y-85179414D01*
X107701755Y-85329680D01*
X107701751Y-85329682D01*
X107473367Y-85467096D01*
X107395081Y-85514200D01*
X107306768Y-85581333D01*
X107110172Y-85730781D01*
X107110163Y-85730789D01*
X106850331Y-85976914D01*
X106618637Y-86249685D01*
X106508356Y-86412336D01*
X106454441Y-86456777D01*
X106419130Y-86466021D01*
X106215255Y-86488194D01*
X105865726Y-86565131D01*
X105609970Y-86651306D01*
X105526565Y-86679409D01*
X105526563Y-86679410D01*
X105526552Y-86679414D01*
X105201755Y-86829680D01*
X105201751Y-86829682D01*
X105027357Y-86934612D01*
X104895081Y-87014200D01*
X104806768Y-87081333D01*
X104610172Y-87230781D01*
X104610163Y-87230789D01*
X104350331Y-87476914D01*
X104118641Y-87749680D01*
X104118634Y-87749690D01*
X103917790Y-88045913D01*
X103917784Y-88045922D01*
X103750151Y-88362111D01*
X103750142Y-88362129D01*
X103617674Y-88694600D01*
X103617672Y-88694607D01*
X103521932Y-89039434D01*
X103521926Y-89039460D01*
X103464029Y-89392614D01*
X103464028Y-89392631D01*
X103444652Y-89749997D01*
X103444652Y-89750002D01*
X103464028Y-90107368D01*
X103464029Y-90107385D01*
X103521926Y-90460539D01*
X103521931Y-90460560D01*
X103579749Y-90668801D01*
X103578717Y-90738663D01*
X103545544Y-90791998D01*
X103350329Y-90976916D01*
X103350324Y-90976922D01*
X103118641Y-91249680D01*
X103118634Y-91249690D01*
X102917790Y-91545913D01*
X102917784Y-91545922D01*
X102750151Y-91862111D01*
X102750142Y-91862129D01*
X102617674Y-92194600D01*
X102617672Y-92194607D01*
X102521932Y-92539434D01*
X102521926Y-92539460D01*
X102464029Y-92892614D01*
X102464028Y-92892631D01*
X102444652Y-93249997D01*
X102444652Y-93250002D01*
X102464028Y-93607368D01*
X102464029Y-93607385D01*
X102521926Y-93960539D01*
X102521932Y-93960565D01*
X102617672Y-94305392D01*
X102617674Y-94305399D01*
X102750142Y-94637870D01*
X102750151Y-94637888D01*
X102917784Y-94954077D01*
X102917787Y-94954082D01*
X102917789Y-94954085D01*
X102948709Y-94999689D01*
X103118634Y-95250309D01*
X103118641Y-95250319D01*
X103350331Y-95523085D01*
X103350332Y-95523086D01*
X103610163Y-95769211D01*
X103895081Y-95985800D01*
X104201747Y-96170315D01*
X104201749Y-96170316D01*
X104201751Y-96170317D01*
X104204721Y-96171892D01*
X104204027Y-96173199D01*
X104252168Y-96215338D01*
X104271516Y-96282475D01*
X104269885Y-96301915D01*
X104214027Y-96642631D01*
X104194652Y-96999997D01*
X104194652Y-97000002D01*
X104214028Y-97357368D01*
X104214029Y-97357385D01*
X104271926Y-97710539D01*
X104271932Y-97710565D01*
X104367672Y-98055392D01*
X104367674Y-98055399D01*
X104500142Y-98387870D01*
X104500151Y-98387888D01*
X104667784Y-98704077D01*
X104667790Y-98704086D01*
X104868634Y-99000309D01*
X104868641Y-99000319D01*
X104917867Y-99058272D01*
X105100332Y-99273086D01*
X105360163Y-99519211D01*
X105645081Y-99735800D01*
X105951747Y-99920315D01*
X105951749Y-99920316D01*
X105951751Y-99920317D01*
X105951755Y-99920319D01*
X106038718Y-99960552D01*
X106276565Y-100070591D01*
X106615726Y-100184868D01*
X106965254Y-100261805D01*
X107321052Y-100300500D01*
X107321058Y-100300500D01*
X107678942Y-100300500D01*
X107678948Y-100300500D01*
X108034746Y-100261805D01*
X108384274Y-100184868D01*
X108586407Y-100116760D01*
X108656222Y-100114009D01*
X108716442Y-100149439D01*
X108747948Y-100211802D01*
X108750000Y-100234270D01*
X108750000Y-110674406D01*
X108749774Y-110681882D01*
X108728641Y-111031750D01*
X108726842Y-111046594D01*
X108664422Y-111387712D01*
X108660848Y-111402231D01*
X108557830Y-111733334D01*
X108552536Y-111747317D01*
X108410407Y-112063630D01*
X108403467Y-112076875D01*
X108224304Y-112373771D01*
X108215821Y-112386084D01*
X108002218Y-112659266D01*
X107992314Y-112670468D01*
X107747395Y-112915942D01*
X107736216Y-112925871D01*
X107460568Y-113142409D01*
X107454549Y-113146850D01*
X103023583Y-116214442D01*
X103017284Y-116218526D01*
X102716428Y-116400915D01*
X102703146Y-116407905D01*
X102385883Y-116551065D01*
X102371855Y-116556399D01*
X102039617Y-116660182D01*
X102025047Y-116663781D01*
X101682702Y-116726667D01*
X101667803Y-116728481D01*
X101316615Y-116749773D01*
X101309111Y-116750000D01*
X90253481Y-116750000D01*
X90246528Y-116749805D01*
X89921058Y-116731527D01*
X89907240Y-116729970D01*
X89589304Y-116675950D01*
X89575747Y-116672856D01*
X89265851Y-116583576D01*
X89252727Y-116578983D01*
X88954784Y-116455572D01*
X88942255Y-116449539D01*
X88659993Y-116293538D01*
X88648219Y-116286139D01*
X88385216Y-116099528D01*
X88374344Y-116090859D01*
X88133872Y-115875960D01*
X88124039Y-115866127D01*
X87909140Y-115625655D01*
X87900475Y-115614789D01*
X87713859Y-115351779D01*
X87706461Y-115340006D01*
X87550460Y-115057744D01*
X87544427Y-115045215D01*
X87421016Y-114747272D01*
X87416423Y-114734148D01*
X87327143Y-114424252D01*
X87324049Y-114410695D01*
X87270027Y-114092748D01*
X87268473Y-114078949D01*
X87250195Y-113753471D01*
X87250000Y-113746519D01*
X87250000Y-111368000D01*
X102815172Y-111368000D01*
X102834462Y-111662312D01*
X102834464Y-111662324D01*
X102892001Y-111951584D01*
X102892005Y-111951599D01*
X102986812Y-112230888D01*
X103117259Y-112495410D01*
X103164612Y-112566279D01*
X104102252Y-111628639D01*
X104108429Y-111659689D01*
X104183811Y-111841678D01*
X104293249Y-112005463D01*
X104432537Y-112144751D01*
X104596322Y-112254189D01*
X104778311Y-112329571D01*
X104809359Y-112335746D01*
X103871719Y-113273386D01*
X103942590Y-113320740D01*
X103942589Y-113320740D01*
X104207111Y-113451187D01*
X104486400Y-113545994D01*
X104486415Y-113545998D01*
X104775675Y-113603535D01*
X104775687Y-113603537D01*
X105070000Y-113622827D01*
X105364312Y-113603537D01*
X105364324Y-113603535D01*
X105653584Y-113545998D01*
X105653599Y-113545994D01*
X105932888Y-113451187D01*
X106197407Y-113320741D01*
X106197422Y-113320732D01*
X106268278Y-113273386D01*
X106268279Y-113273385D01*
X105330640Y-112335746D01*
X105361689Y-112329571D01*
X105543678Y-112254189D01*
X105707463Y-112144751D01*
X105846751Y-112005463D01*
X105956189Y-111841678D01*
X106031571Y-111659689D01*
X106037746Y-111628640D01*
X106975385Y-112566279D01*
X106975386Y-112566278D01*
X107022732Y-112495422D01*
X107022741Y-112495407D01*
X107153187Y-112230888D01*
X107247994Y-111951599D01*
X107247998Y-111951584D01*
X107305535Y-111662324D01*
X107305537Y-111662312D01*
X107324827Y-111368000D01*
X107305537Y-111073687D01*
X107305535Y-111073675D01*
X107247998Y-110784415D01*
X107247994Y-110784400D01*
X107153187Y-110505111D01*
X107022740Y-110240589D01*
X106975386Y-110169719D01*
X106037746Y-111107359D01*
X106031571Y-111076311D01*
X105956189Y-110894322D01*
X105846751Y-110730537D01*
X105707463Y-110591249D01*
X105543678Y-110481811D01*
X105361689Y-110406429D01*
X105330640Y-110400253D01*
X106268279Y-109462612D01*
X106197410Y-109415259D01*
X105932888Y-109284812D01*
X105653599Y-109190005D01*
X105653584Y-109190001D01*
X105364324Y-109132464D01*
X105364312Y-109132462D01*
X105070000Y-109113172D01*
X104775687Y-109132462D01*
X104775675Y-109132464D01*
X104486415Y-109190001D01*
X104486400Y-109190005D01*
X104207111Y-109284812D01*
X103942585Y-109415262D01*
X103871720Y-109462612D01*
X103871720Y-109462613D01*
X104809360Y-110400253D01*
X104778311Y-110406429D01*
X104596322Y-110481811D01*
X104432537Y-110591249D01*
X104293249Y-110730537D01*
X104183811Y-110894322D01*
X104108429Y-111076311D01*
X104102253Y-111107360D01*
X103164613Y-110169720D01*
X103164612Y-110169720D01*
X103117262Y-110240585D01*
X102986812Y-110505111D01*
X102892005Y-110784400D01*
X102892001Y-110784415D01*
X102834464Y-111073675D01*
X102834462Y-111073687D01*
X102815172Y-111368000D01*
X87250000Y-111368000D01*
X87250000Y-110968571D01*
X87269685Y-110901532D01*
X87322489Y-110855777D01*
X87385109Y-110845071D01*
X87645427Y-110868500D01*
X87645432Y-110868500D01*
X88094566Y-110868500D01*
X88094573Y-110868500D01*
X88541910Y-110828239D01*
X88983837Y-110748041D01*
X89416797Y-110628551D01*
X89837303Y-110470733D01*
X90241969Y-110275856D01*
X90627537Y-110045490D01*
X90990903Y-109781489D01*
X91329142Y-109485979D01*
X91639529Y-109161339D01*
X91919567Y-108810183D01*
X92167000Y-108435338D01*
X92379836Y-108039822D01*
X92556361Y-107626821D01*
X92695155Y-107199658D01*
X92795099Y-106761774D01*
X92855389Y-106316693D01*
X92875540Y-105868000D01*
X92855389Y-105419307D01*
X92795099Y-104974226D01*
X92695155Y-104536342D01*
X92556361Y-104109179D01*
X92379836Y-103696178D01*
X92167000Y-103300662D01*
X92166995Y-103300654D01*
X91919571Y-102925822D01*
X91919570Y-102925821D01*
X91639534Y-102574667D01*
X91639532Y-102574665D01*
X91639529Y-102574661D01*
X91329142Y-102250021D01*
X91329131Y-102250011D01*
X90990919Y-101954524D01*
X90990907Y-101954515D01*
X90990903Y-101954511D01*
X90990891Y-101954502D01*
X90627541Y-101690512D01*
X90241966Y-101460142D01*
X90241960Y-101460139D01*
X89837311Y-101265270D01*
X89837297Y-101265264D01*
X89416810Y-101107453D01*
X89416785Y-101107445D01*
X88983843Y-100987960D01*
X88541916Y-100907762D01*
X88541915Y-100907761D01*
X88541910Y-100907761D01*
X88094573Y-100867500D01*
X87645427Y-100867500D01*
X87550434Y-100876049D01*
X87385115Y-100890928D01*
X87316581Y-100877332D01*
X87266277Y-100828841D01*
X87250000Y-100767427D01*
X87250000Y-87198122D01*
X87263516Y-87141826D01*
X87276698Y-87115956D01*
X87369096Y-86934615D01*
X87473613Y-86682289D01*
X87534504Y-86535286D01*
X87668070Y-86124210D01*
X87768972Y-85703922D01*
X87836588Y-85277013D01*
X87870500Y-84846115D01*
X87870500Y-84413885D01*
X87870500Y-83683885D01*
X87836588Y-83252987D01*
X87768972Y-82826078D01*
X87668070Y-82405790D01*
X87534503Y-81994714D01*
X87369096Y-81595385D01*
X87337941Y-81534240D01*
X87263515Y-81388169D01*
X87250000Y-81331875D01*
X87250000Y-78968123D01*
X87263515Y-78911828D01*
X87369096Y-78704615D01*
X87534503Y-78305286D01*
X87668070Y-77894210D01*
X87768972Y-77473922D01*
X87836588Y-77047013D01*
X87870500Y-76616115D01*
X87870500Y-76183885D01*
X87836588Y-75752987D01*
X87768972Y-75326078D01*
X87668070Y-74905790D01*
X87534503Y-74494714D01*
X87369096Y-74095385D01*
X87172867Y-73710265D01*
X87172857Y-73710248D01*
X86947033Y-73341737D01*
X86947029Y-73341732D01*
X86947027Y-73341728D01*
X86692969Y-72992046D01*
X86692964Y-72992039D01*
X86412262Y-72663382D01*
X86412257Y-72663376D01*
X86106624Y-72357743D01*
X86106617Y-72357737D01*
X85777960Y-72077035D01*
X85777946Y-72077025D01*
X85524148Y-71892631D01*
X85428272Y-71822973D01*
X85428269Y-71822971D01*
X85428262Y-71822966D01*
X85059751Y-71597142D01*
X85059740Y-71597136D01*
X85059739Y-71597135D01*
X85059735Y-71597133D01*
X84674615Y-71400904D01*
X84502677Y-71329685D01*
X84275280Y-71235494D01*
X83982796Y-71140461D01*
X83864210Y-71101930D01*
X83443922Y-71001028D01*
X83017013Y-70933412D01*
X82586120Y-70899500D01*
X82586115Y-70899500D01*
X81816115Y-70899500D01*
X81383885Y-70899500D01*
X81383879Y-70899500D01*
X80952986Y-70933412D01*
X80952985Y-70933412D01*
X80526083Y-71001027D01*
X80526080Y-71001027D01*
X80526078Y-71001028D01*
X80498450Y-71007661D01*
X80248527Y-71067661D01*
X80178744Y-71064170D01*
X80121927Y-71023506D01*
X80111382Y-71007661D01*
X80056901Y-70910347D01*
X80050741Y-70897713D01*
X79924709Y-70597074D01*
X79920018Y-70583824D01*
X79828814Y-70270833D01*
X79825660Y-70257169D01*
X79770465Y-69935871D01*
X79768875Y-69921906D01*
X79750199Y-69592916D01*
X79750000Y-69585888D01*
X79750000Y-67253480D01*
X79750195Y-67246528D01*
X79754974Y-67161423D01*
X79768473Y-66921048D01*
X79770027Y-66907253D01*
X79824049Y-66589299D01*
X79827143Y-66575747D01*
X79877776Y-66399999D01*
X79877777Y-66399995D01*
X80615093Y-66399995D01*
X80615093Y-66400004D01*
X80634692Y-66661545D01*
X80634693Y-66661550D01*
X80693058Y-66917270D01*
X80788880Y-67161419D01*
X80788882Y-67161423D01*
X80830091Y-67232800D01*
X81620000Y-66442892D01*
X81620000Y-66473869D01*
X81648822Y-66618767D01*
X81705359Y-66755258D01*
X81787437Y-66878097D01*
X81891903Y-66982563D01*
X82014742Y-67064641D01*
X82151233Y-67121178D01*
X82296131Y-67150000D01*
X82327107Y-67150000D01*
X81536261Y-67940844D01*
X81728855Y-68033594D01*
X81728858Y-68033595D01*
X81979494Y-68110907D01*
X81979500Y-68110909D01*
X82238848Y-68149999D01*
X82238857Y-68150000D01*
X82501143Y-68150000D01*
X82501151Y-68149999D01*
X82760499Y-68110909D01*
X82760505Y-68110907D01*
X83011143Y-68033595D01*
X83203739Y-67940846D01*
X82412893Y-67150000D01*
X82443869Y-67150000D01*
X82588767Y-67121178D01*
X82725258Y-67064641D01*
X82848097Y-66982563D01*
X82952563Y-66878097D01*
X83034641Y-66755258D01*
X83091178Y-66618767D01*
X83120000Y-66473869D01*
X83120000Y-66442894D01*
X83909907Y-67232801D01*
X83909908Y-67232801D01*
X83951116Y-67161426D01*
X84046941Y-66917270D01*
X84105306Y-66661550D01*
X84105307Y-66661545D01*
X84124907Y-66400004D01*
X84124907Y-66399995D01*
X84105307Y-66138454D01*
X84105306Y-66138449D01*
X84046941Y-65882729D01*
X83951116Y-65638573D01*
X83909907Y-65567197D01*
X83120000Y-66357105D01*
X83120000Y-66326131D01*
X83091178Y-66181233D01*
X83034641Y-66044742D01*
X82952563Y-65921903D01*
X82848097Y-65817437D01*
X82725258Y-65735359D01*
X82588767Y-65678822D01*
X82443869Y-65650000D01*
X82412894Y-65650000D01*
X83203739Y-64859154D01*
X83203738Y-64859152D01*
X83011142Y-64766404D01*
X83011144Y-64766404D01*
X82760505Y-64689092D01*
X82760499Y-64689090D01*
X82501151Y-64650000D01*
X82238848Y-64650000D01*
X81979500Y-64689090D01*
X81979494Y-64689092D01*
X81728856Y-64766404D01*
X81536260Y-64859153D01*
X82327107Y-65650000D01*
X82296131Y-65650000D01*
X82151233Y-65678822D01*
X82014742Y-65735359D01*
X81891903Y-65817437D01*
X81787437Y-65921903D01*
X81705359Y-66044742D01*
X81648822Y-66181233D01*
X81620000Y-66326131D01*
X81620000Y-66357107D01*
X80830091Y-65567198D01*
X80788883Y-65638573D01*
X80693058Y-65882729D01*
X80634693Y-66138449D01*
X80634692Y-66138454D01*
X80615093Y-66399995D01*
X79877777Y-66399995D01*
X79916424Y-66265847D01*
X79921016Y-66252727D01*
X79968351Y-66138449D01*
X80044430Y-65954775D01*
X80050452Y-65942269D01*
X80206467Y-65659983D01*
X80213854Y-65648228D01*
X80400482Y-65385201D01*
X80409128Y-65374358D01*
X80624049Y-65133861D01*
X80633861Y-65124049D01*
X80874358Y-64909128D01*
X80885201Y-64900482D01*
X81148228Y-64713854D01*
X81159983Y-64706467D01*
X81442269Y-64550452D01*
X81454775Y-64544430D01*
X81752727Y-64421016D01*
X81765847Y-64416424D01*
X82075753Y-64327141D01*
X82089299Y-64324049D01*
X82407253Y-64270027D01*
X82421048Y-64268473D01*
X82709283Y-64252286D01*
X82746529Y-64250195D01*
X82753481Y-64250000D01*
X101077193Y-64250000D01*
X101144232Y-64269685D01*
G37*
%TD.AperFunction*%
%TD*%
%TA.AperFunction,Conductor*%
%TO.N,IN_AC2*%
G36*
X59503471Y-45750195D02*
G01*
X59544136Y-45752478D01*
X59828949Y-45768473D01*
X59842748Y-45770027D01*
X60160695Y-45824049D01*
X60174252Y-45827143D01*
X60484148Y-45916423D01*
X60497272Y-45921016D01*
X60795215Y-46044427D01*
X60807737Y-46050456D01*
X61090006Y-46206461D01*
X61101779Y-46213859D01*
X61364789Y-46400475D01*
X61375649Y-46409135D01*
X61572758Y-46585282D01*
X61616127Y-46624039D01*
X61625960Y-46633872D01*
X61840859Y-46874344D01*
X61849528Y-46885216D01*
X62036139Y-47148219D01*
X62043538Y-47159993D01*
X62199539Y-47442255D01*
X62205572Y-47454784D01*
X62328983Y-47752727D01*
X62333576Y-47765851D01*
X62422856Y-48075747D01*
X62425950Y-48089304D01*
X62479970Y-48407240D01*
X62481527Y-48421058D01*
X62499805Y-48746527D01*
X62500000Y-48753480D01*
X62500000Y-51996519D01*
X62499805Y-52003472D01*
X62481527Y-52328941D01*
X62479970Y-52342759D01*
X62425950Y-52660695D01*
X62422856Y-52674252D01*
X62333576Y-52984148D01*
X62328983Y-52997272D01*
X62205572Y-53295215D01*
X62199539Y-53307744D01*
X62043538Y-53590006D01*
X62036139Y-53601780D01*
X61849528Y-53864783D01*
X61840859Y-53875655D01*
X61625960Y-54116127D01*
X61616127Y-54125960D01*
X61375655Y-54340859D01*
X61364783Y-54349528D01*
X61101780Y-54536139D01*
X61090006Y-54543538D01*
X60807744Y-54699539D01*
X60795215Y-54705572D01*
X60497272Y-54828983D01*
X60484148Y-54833576D01*
X60174252Y-54922856D01*
X60160695Y-54925950D01*
X59842759Y-54979970D01*
X59828941Y-54981527D01*
X59503472Y-54999805D01*
X59496519Y-55000000D01*
X47503481Y-55000000D01*
X47496528Y-54999805D01*
X47171058Y-54981527D01*
X47157240Y-54979970D01*
X46839304Y-54925950D01*
X46825747Y-54922856D01*
X46515851Y-54833576D01*
X46502727Y-54828983D01*
X46204784Y-54705572D01*
X46192255Y-54699539D01*
X45909993Y-54543538D01*
X45898219Y-54536139D01*
X45635216Y-54349528D01*
X45624344Y-54340859D01*
X45460672Y-54194593D01*
X45383870Y-54125958D01*
X45374039Y-54116127D01*
X45270569Y-54000344D01*
X48047500Y-54000344D01*
X48053901Y-54059872D01*
X48053903Y-54059879D01*
X48104145Y-54194586D01*
X48104149Y-54194593D01*
X48190309Y-54309687D01*
X48190312Y-54309690D01*
X48305406Y-54395850D01*
X48305413Y-54395854D01*
X48440120Y-54446096D01*
X48440127Y-54446098D01*
X48499655Y-54452499D01*
X48499672Y-54452500D01*
X49000000Y-54452500D01*
X50000000Y-54452500D01*
X50500328Y-54452500D01*
X50500344Y-54452499D01*
X50559872Y-54446098D01*
X50559879Y-54446096D01*
X50694586Y-54395854D01*
X50694593Y-54395850D01*
X50809687Y-54309690D01*
X50809690Y-54309687D01*
X50895850Y-54194593D01*
X50895854Y-54194586D01*
X50946096Y-54059879D01*
X50946098Y-54059872D01*
X50952499Y-54000344D01*
X56547500Y-54000344D01*
X56553901Y-54059872D01*
X56553903Y-54059879D01*
X56604145Y-54194586D01*
X56604149Y-54194593D01*
X56690309Y-54309687D01*
X56690312Y-54309690D01*
X56805406Y-54395850D01*
X56805413Y-54395854D01*
X56940120Y-54446096D01*
X56940127Y-54446098D01*
X56999655Y-54452499D01*
X56999672Y-54452500D01*
X57500000Y-54452500D01*
X58500000Y-54452500D01*
X59000328Y-54452500D01*
X59000344Y-54452499D01*
X59059872Y-54446098D01*
X59059879Y-54446096D01*
X59194586Y-54395854D01*
X59194593Y-54395850D01*
X59309687Y-54309690D01*
X59309690Y-54309687D01*
X59395850Y-54194593D01*
X59395854Y-54194586D01*
X59446096Y-54059879D01*
X59446098Y-54059872D01*
X59452499Y-54000344D01*
X59452500Y-54000327D01*
X59452500Y-53500000D01*
X58500000Y-53500000D01*
X58500000Y-54452500D01*
X57500000Y-54452500D01*
X57500000Y-53500000D01*
X56547500Y-53500000D01*
X56547500Y-54000344D01*
X50952499Y-54000344D01*
X50952500Y-54000327D01*
X50952500Y-53500000D01*
X50000000Y-53500000D01*
X50000000Y-54452500D01*
X49000000Y-54452500D01*
X49000000Y-53500000D01*
X48047500Y-53500000D01*
X48047500Y-54000344D01*
X45270569Y-54000344D01*
X45159145Y-53875660D01*
X45150475Y-53864788D01*
X45150471Y-53864783D01*
X45135794Y-53844098D01*
X45023370Y-53685650D01*
X45000631Y-53619585D01*
X45000500Y-53613895D01*
X45000500Y-52931204D01*
X48801500Y-52931204D01*
X48801500Y-53068796D01*
X48828343Y-53203745D01*
X48880997Y-53330864D01*
X48957439Y-53445268D01*
X49054732Y-53542561D01*
X49169136Y-53619003D01*
X49296255Y-53671657D01*
X49431204Y-53698500D01*
X49568796Y-53698500D01*
X49703745Y-53671657D01*
X49830864Y-53619003D01*
X49945268Y-53542561D01*
X50042561Y-53445268D01*
X50119003Y-53330864D01*
X50171657Y-53203745D01*
X50198500Y-53068796D01*
X50198500Y-52931204D01*
X57301500Y-52931204D01*
X57301500Y-53068796D01*
X57328343Y-53203745D01*
X57380997Y-53330864D01*
X57457439Y-53445268D01*
X57554732Y-53542561D01*
X57669136Y-53619003D01*
X57796255Y-53671657D01*
X57931204Y-53698500D01*
X58068796Y-53698500D01*
X58203745Y-53671657D01*
X58330864Y-53619003D01*
X58445268Y-53542561D01*
X58542561Y-53445268D01*
X58619003Y-53330864D01*
X58671657Y-53203745D01*
X58698500Y-53068796D01*
X58698500Y-52931204D01*
X58671657Y-52796255D01*
X58619003Y-52669136D01*
X58542561Y-52554732D01*
X58487829Y-52500000D01*
X58500000Y-52500000D01*
X59452500Y-52500000D01*
X59452500Y-51999672D01*
X59452499Y-51999655D01*
X59446098Y-51940127D01*
X59446096Y-51940120D01*
X59395854Y-51805413D01*
X59395850Y-51805406D01*
X59309690Y-51690312D01*
X59309687Y-51690309D01*
X59194593Y-51604149D01*
X59194586Y-51604145D01*
X59059879Y-51553903D01*
X59059872Y-51553901D01*
X59000344Y-51547500D01*
X58500000Y-51547500D01*
X58500000Y-52500000D01*
X58487829Y-52500000D01*
X58445268Y-52457439D01*
X58330864Y-52380997D01*
X58203745Y-52328343D01*
X58068796Y-52301500D01*
X57931204Y-52301500D01*
X57796255Y-52328343D01*
X57669136Y-52380997D01*
X57554732Y-52457439D01*
X57457439Y-52554732D01*
X57380997Y-52669136D01*
X57328343Y-52796255D01*
X57301500Y-52931204D01*
X50198500Y-52931204D01*
X50171657Y-52796255D01*
X50119003Y-52669136D01*
X50042561Y-52554732D01*
X49987829Y-52500000D01*
X50000000Y-52500000D01*
X50952500Y-52500000D01*
X50952500Y-51999672D01*
X50952499Y-51999655D01*
X56547500Y-51999655D01*
X56547500Y-52500000D01*
X57500000Y-52500000D01*
X57500000Y-51547500D01*
X56999655Y-51547500D01*
X56940127Y-51553901D01*
X56940120Y-51553903D01*
X56805413Y-51604145D01*
X56805406Y-51604149D01*
X56690312Y-51690309D01*
X56690309Y-51690312D01*
X56604149Y-51805406D01*
X56604145Y-51805413D01*
X56553903Y-51940120D01*
X56553901Y-51940127D01*
X56547500Y-51999655D01*
X50952499Y-51999655D01*
X50946098Y-51940127D01*
X50946096Y-51940120D01*
X50895854Y-51805413D01*
X50895850Y-51805406D01*
X50809690Y-51690312D01*
X50809687Y-51690309D01*
X50694593Y-51604149D01*
X50694586Y-51604145D01*
X50559879Y-51553903D01*
X50559872Y-51553901D01*
X50500344Y-51547500D01*
X50000000Y-51547500D01*
X50000000Y-52500000D01*
X49987829Y-52500000D01*
X49945268Y-52457439D01*
X49830864Y-52380997D01*
X49703745Y-52328343D01*
X49568796Y-52301500D01*
X49431204Y-52301500D01*
X49296255Y-52328343D01*
X49169136Y-52380997D01*
X49054732Y-52457439D01*
X48957439Y-52554732D01*
X48880997Y-52669136D01*
X48828343Y-52796255D01*
X48801500Y-52931204D01*
X45000500Y-52931204D01*
X45000500Y-51999655D01*
X48047500Y-51999655D01*
X48047500Y-52500000D01*
X49000000Y-52500000D01*
X49000000Y-51547500D01*
X48499655Y-51547500D01*
X48440127Y-51553901D01*
X48440120Y-51553903D01*
X48305413Y-51604145D01*
X48305406Y-51604149D01*
X48190312Y-51690309D01*
X48190309Y-51690312D01*
X48104149Y-51805406D01*
X48104145Y-51805413D01*
X48053903Y-51940120D01*
X48053901Y-51940127D01*
X48047500Y-51999655D01*
X45000500Y-51999655D01*
X45000500Y-49239918D01*
X48887188Y-49239918D01*
X48914531Y-49254715D01*
X48914545Y-49254721D01*
X49142207Y-49332879D01*
X49379642Y-49372500D01*
X49620358Y-49372500D01*
X49857792Y-49332879D01*
X50085458Y-49254720D01*
X50112808Y-49239918D01*
X57387188Y-49239918D01*
X57414531Y-49254715D01*
X57414545Y-49254721D01*
X57642207Y-49332879D01*
X57879642Y-49372500D01*
X58120358Y-49372500D01*
X58357792Y-49332879D01*
X58585458Y-49254720D01*
X58612810Y-49239917D01*
X58000001Y-48627107D01*
X58000000Y-48627107D01*
X57387188Y-49239918D01*
X50112808Y-49239918D01*
X50112810Y-49239917D01*
X49500001Y-48627107D01*
X49500000Y-48627107D01*
X48887188Y-49239918D01*
X45000500Y-49239918D01*
X45000500Y-47919994D01*
X48042522Y-47919994D01*
X48042522Y-47920005D01*
X48062399Y-48159889D01*
X48121491Y-48393240D01*
X48181910Y-48530982D01*
X48792893Y-47920000D01*
X48724097Y-47851204D01*
X48801500Y-47851204D01*
X48801500Y-47988796D01*
X48828343Y-48123745D01*
X48880997Y-48250864D01*
X48957439Y-48365268D01*
X49054732Y-48462561D01*
X49169136Y-48539003D01*
X49296255Y-48591657D01*
X49431204Y-48618500D01*
X49568796Y-48618500D01*
X49703745Y-48591657D01*
X49830864Y-48539003D01*
X49945268Y-48462561D01*
X50042561Y-48365268D01*
X50119003Y-48250864D01*
X50171657Y-48123745D01*
X50198500Y-47988796D01*
X50198500Y-47919999D01*
X50207107Y-47919999D01*
X50207107Y-47920001D01*
X50818088Y-48530982D01*
X50878508Y-48393239D01*
X50937600Y-48159889D01*
X50957478Y-47920005D01*
X50957478Y-47919994D01*
X56542522Y-47919994D01*
X56542522Y-47920005D01*
X56562399Y-48159889D01*
X56621491Y-48393240D01*
X56681910Y-48530982D01*
X57292893Y-47920000D01*
X57224097Y-47851204D01*
X57301500Y-47851204D01*
X57301500Y-47988796D01*
X57328343Y-48123745D01*
X57380997Y-48250864D01*
X57457439Y-48365268D01*
X57554732Y-48462561D01*
X57669136Y-48539003D01*
X57796255Y-48591657D01*
X57931204Y-48618500D01*
X58068796Y-48618500D01*
X58203745Y-48591657D01*
X58330864Y-48539003D01*
X58445268Y-48462561D01*
X58542561Y-48365268D01*
X58619003Y-48250864D01*
X58671657Y-48123745D01*
X58698500Y-47988796D01*
X58698500Y-47919999D01*
X58707107Y-47919999D01*
X58707107Y-47920001D01*
X59318088Y-48530982D01*
X59378508Y-48393239D01*
X59437600Y-48159889D01*
X59457478Y-47920005D01*
X59457478Y-47919994D01*
X59437600Y-47680110D01*
X59378507Y-47446757D01*
X59318089Y-47309017D01*
X59318088Y-47309016D01*
X58707107Y-47919999D01*
X58698500Y-47919999D01*
X58698500Y-47851204D01*
X58671657Y-47716255D01*
X58619003Y-47589136D01*
X58542561Y-47474732D01*
X58445268Y-47377439D01*
X58330864Y-47300997D01*
X58203745Y-47248343D01*
X58068796Y-47221500D01*
X57931204Y-47221500D01*
X57796255Y-47248343D01*
X57669136Y-47300997D01*
X57554732Y-47377439D01*
X57457439Y-47474732D01*
X57380997Y-47589136D01*
X57328343Y-47716255D01*
X57301500Y-47851204D01*
X57224097Y-47851204D01*
X56681910Y-47309017D01*
X56621491Y-47446759D01*
X56562399Y-47680110D01*
X56542522Y-47919994D01*
X50957478Y-47919994D01*
X50937600Y-47680110D01*
X50878507Y-47446757D01*
X50818089Y-47309017D01*
X50818088Y-47309016D01*
X50207107Y-47919999D01*
X50198500Y-47919999D01*
X50198500Y-47851204D01*
X50171657Y-47716255D01*
X50119003Y-47589136D01*
X50042561Y-47474732D01*
X49945268Y-47377439D01*
X49830864Y-47300997D01*
X49703745Y-47248343D01*
X49568796Y-47221500D01*
X49431204Y-47221500D01*
X49296255Y-47248343D01*
X49169136Y-47300997D01*
X49054732Y-47377439D01*
X48957439Y-47474732D01*
X48880997Y-47589136D01*
X48828343Y-47716255D01*
X48801500Y-47851204D01*
X48724097Y-47851204D01*
X48181910Y-47309017D01*
X48121491Y-47446759D01*
X48062399Y-47680110D01*
X48042522Y-47919994D01*
X45000500Y-47919994D01*
X45000500Y-47136102D01*
X45020185Y-47069063D01*
X45023342Y-47064387D01*
X45150490Y-46885190D01*
X45159128Y-46874358D01*
X45374049Y-46633861D01*
X45383861Y-46624049D01*
X45410682Y-46600080D01*
X48887188Y-46600080D01*
X48887188Y-46600081D01*
X49500000Y-47212893D01*
X49500001Y-47212893D01*
X50112811Y-46600081D01*
X50112809Y-46600080D01*
X57387188Y-46600080D01*
X57387188Y-46600081D01*
X58000000Y-47212893D01*
X58000001Y-47212893D01*
X58612811Y-46600081D01*
X58585469Y-46585284D01*
X58585456Y-46585279D01*
X58357790Y-46507119D01*
X58120358Y-46467500D01*
X57879642Y-46467500D01*
X57642209Y-46507119D01*
X57414534Y-46585282D01*
X57387188Y-46600080D01*
X50112809Y-46600080D01*
X50085469Y-46585284D01*
X50085456Y-46585279D01*
X49857790Y-46507119D01*
X49620358Y-46467500D01*
X49379642Y-46467500D01*
X49142209Y-46507119D01*
X48914534Y-46585282D01*
X48887188Y-46600080D01*
X45410682Y-46600080D01*
X45624358Y-46409128D01*
X45635201Y-46400482D01*
X45898228Y-46213854D01*
X45909983Y-46206467D01*
X46192269Y-46050452D01*
X46204775Y-46044430D01*
X46502727Y-45921016D01*
X46515847Y-45916424D01*
X46825753Y-45827141D01*
X46839299Y-45824049D01*
X47157253Y-45770027D01*
X47171048Y-45768473D01*
X47459283Y-45752286D01*
X47496529Y-45750195D01*
X47503481Y-45750000D01*
X59496519Y-45750000D01*
X59503471Y-45750195D01*
G37*
%TD.AperFunction*%
%TD*%
M02*
