%TF.GenerationSoftware,KiCad,Pcbnew,8.0.4*%
%TF.CreationDate,2024-10-11T12:17:29-04:00*%
%TF.ProjectId,SmallBooster,536d616c-6c42-46f6-9f73-7465722e6b69,rev?*%
%TF.SameCoordinates,Original*%
%TF.FileFunction,Legend,Top*%
%TF.FilePolarity,Positive*%
%FSLAX46Y46*%
G04 Gerber Fmt 4.6, Leading zero omitted, Abs format (unit mm)*
G04 Created by KiCad (PCBNEW 8.0.4) date 2024-10-11 12:17:29*
%MOMM*%
%LPD*%
G01*
G04 APERTURE LIST*
%ADD10C,0.200000*%
%ADD11C,0.150000*%
%ADD12C,0.100000*%
%ADD13C,0.254000*%
%ADD14C,0.500000*%
%ADD15C,0.120000*%
%ADD16C,0.152400*%
%ADD17C,0.508000*%
%ADD18C,0.127000*%
%ADD19C,0.300000*%
G04 APERTURE END LIST*
D10*
X54659923Y-29155387D02*
X54755161Y-28964911D01*
X54755161Y-28964911D02*
X54755161Y-28679197D01*
X54755161Y-28679197D02*
X54659923Y-28393482D01*
X54659923Y-28393482D02*
X54469447Y-28203006D01*
X54469447Y-28203006D02*
X54278971Y-28107768D01*
X54278971Y-28107768D02*
X53898019Y-28012530D01*
X53898019Y-28012530D02*
X53612304Y-28012530D01*
X53612304Y-28012530D02*
X53231352Y-28107768D01*
X53231352Y-28107768D02*
X53040876Y-28203006D01*
X53040876Y-28203006D02*
X52850400Y-28393482D01*
X52850400Y-28393482D02*
X52755161Y-28679197D01*
X52755161Y-28679197D02*
X52755161Y-28869673D01*
X52755161Y-28869673D02*
X52850400Y-29155387D01*
X52850400Y-29155387D02*
X52945638Y-29250625D01*
X52945638Y-29250625D02*
X53612304Y-29250625D01*
X53612304Y-29250625D02*
X53612304Y-28869673D01*
X52755161Y-30107768D02*
X54755161Y-30107768D01*
X54755161Y-30107768D02*
X52755161Y-31250625D01*
X52755161Y-31250625D02*
X54755161Y-31250625D01*
X52755161Y-32203006D02*
X54755161Y-32203006D01*
X54755161Y-32203006D02*
X54755161Y-32679196D01*
X54755161Y-32679196D02*
X54659923Y-32964911D01*
X54659923Y-32964911D02*
X54469447Y-33155387D01*
X54469447Y-33155387D02*
X54278971Y-33250625D01*
X54278971Y-33250625D02*
X53898019Y-33345863D01*
X53898019Y-33345863D02*
X53612304Y-33345863D01*
X53612304Y-33345863D02*
X53231352Y-33250625D01*
X53231352Y-33250625D02*
X53040876Y-33155387D01*
X53040876Y-33155387D02*
X52850400Y-32964911D01*
X52850400Y-32964911D02*
X52755161Y-32679196D01*
X52755161Y-32679196D02*
X52755161Y-32203006D01*
X53326590Y-47762530D02*
X53326590Y-48714911D01*
X52755161Y-47572054D02*
X54755161Y-48238720D01*
X54755161Y-48238720D02*
X52755161Y-48905387D01*
X52945638Y-50714911D02*
X52850400Y-50619673D01*
X52850400Y-50619673D02*
X52755161Y-50333959D01*
X52755161Y-50333959D02*
X52755161Y-50143483D01*
X52755161Y-50143483D02*
X52850400Y-49857768D01*
X52850400Y-49857768D02*
X53040876Y-49667292D01*
X53040876Y-49667292D02*
X53231352Y-49572054D01*
X53231352Y-49572054D02*
X53612304Y-49476816D01*
X53612304Y-49476816D02*
X53898019Y-49476816D01*
X53898019Y-49476816D02*
X54278971Y-49572054D01*
X54278971Y-49572054D02*
X54469447Y-49667292D01*
X54469447Y-49667292D02*
X54659923Y-49857768D01*
X54659923Y-49857768D02*
X54755161Y-50143483D01*
X54755161Y-50143483D02*
X54755161Y-50333959D01*
X54755161Y-50333959D02*
X54659923Y-50619673D01*
X54659923Y-50619673D02*
X54564685Y-50714911D01*
X54564685Y-51476816D02*
X54659923Y-51572054D01*
X54659923Y-51572054D02*
X54755161Y-51762530D01*
X54755161Y-51762530D02*
X54755161Y-52238721D01*
X54755161Y-52238721D02*
X54659923Y-52429197D01*
X54659923Y-52429197D02*
X54564685Y-52524435D01*
X54564685Y-52524435D02*
X54374209Y-52619673D01*
X54374209Y-52619673D02*
X54183733Y-52619673D01*
X54183733Y-52619673D02*
X53898019Y-52524435D01*
X53898019Y-52524435D02*
X52755161Y-51381578D01*
X52755161Y-51381578D02*
X52755161Y-52619673D01*
X53326590Y-38012530D02*
X53326590Y-38964911D01*
X52755161Y-37822054D02*
X54755161Y-38488720D01*
X54755161Y-38488720D02*
X52755161Y-39155387D01*
X52945638Y-40964911D02*
X52850400Y-40869673D01*
X52850400Y-40869673D02*
X52755161Y-40583959D01*
X52755161Y-40583959D02*
X52755161Y-40393483D01*
X52755161Y-40393483D02*
X52850400Y-40107768D01*
X52850400Y-40107768D02*
X53040876Y-39917292D01*
X53040876Y-39917292D02*
X53231352Y-39822054D01*
X53231352Y-39822054D02*
X53612304Y-39726816D01*
X53612304Y-39726816D02*
X53898019Y-39726816D01*
X53898019Y-39726816D02*
X54278971Y-39822054D01*
X54278971Y-39822054D02*
X54469447Y-39917292D01*
X54469447Y-39917292D02*
X54659923Y-40107768D01*
X54659923Y-40107768D02*
X54755161Y-40393483D01*
X54755161Y-40393483D02*
X54755161Y-40583959D01*
X54755161Y-40583959D02*
X54659923Y-40869673D01*
X54659923Y-40869673D02*
X54564685Y-40964911D01*
X52755161Y-42869673D02*
X52755161Y-41726816D01*
X52755161Y-42298244D02*
X54755161Y-42298244D01*
X54755161Y-42298244D02*
X54469447Y-42107768D01*
X54469447Y-42107768D02*
X54278971Y-41917292D01*
X54278971Y-41917292D02*
X54183733Y-41726816D01*
X141732933Y-121642231D02*
X141732933Y-120118422D01*
X142494838Y-120880326D02*
X140971028Y-120880326D01*
X141732933Y-117642231D02*
X141732933Y-116118422D01*
D11*
X104704819Y-143392857D02*
X104228628Y-143726190D01*
X104704819Y-143964285D02*
X103704819Y-143964285D01*
X103704819Y-143964285D02*
X103704819Y-143583333D01*
X103704819Y-143583333D02*
X103752438Y-143488095D01*
X103752438Y-143488095D02*
X103800057Y-143440476D01*
X103800057Y-143440476D02*
X103895295Y-143392857D01*
X103895295Y-143392857D02*
X104038152Y-143392857D01*
X104038152Y-143392857D02*
X104133390Y-143440476D01*
X104133390Y-143440476D02*
X104181009Y-143488095D01*
X104181009Y-143488095D02*
X104228628Y-143583333D01*
X104228628Y-143583333D02*
X104228628Y-143964285D01*
X104038152Y-142535714D02*
X104704819Y-142535714D01*
X103657200Y-142773809D02*
X104371485Y-143011904D01*
X104371485Y-143011904D02*
X104371485Y-142392857D01*
X104133390Y-141869047D02*
X104085771Y-141964285D01*
X104085771Y-141964285D02*
X104038152Y-142011904D01*
X104038152Y-142011904D02*
X103942914Y-142059523D01*
X103942914Y-142059523D02*
X103895295Y-142059523D01*
X103895295Y-142059523D02*
X103800057Y-142011904D01*
X103800057Y-142011904D02*
X103752438Y-141964285D01*
X103752438Y-141964285D02*
X103704819Y-141869047D01*
X103704819Y-141869047D02*
X103704819Y-141678571D01*
X103704819Y-141678571D02*
X103752438Y-141583333D01*
X103752438Y-141583333D02*
X103800057Y-141535714D01*
X103800057Y-141535714D02*
X103895295Y-141488095D01*
X103895295Y-141488095D02*
X103942914Y-141488095D01*
X103942914Y-141488095D02*
X104038152Y-141535714D01*
X104038152Y-141535714D02*
X104085771Y-141583333D01*
X104085771Y-141583333D02*
X104133390Y-141678571D01*
X104133390Y-141678571D02*
X104133390Y-141869047D01*
X104133390Y-141869047D02*
X104181009Y-141964285D01*
X104181009Y-141964285D02*
X104228628Y-142011904D01*
X104228628Y-142011904D02*
X104323866Y-142059523D01*
X104323866Y-142059523D02*
X104514342Y-142059523D01*
X104514342Y-142059523D02*
X104609580Y-142011904D01*
X104609580Y-142011904D02*
X104657200Y-141964285D01*
X104657200Y-141964285D02*
X104704819Y-141869047D01*
X104704819Y-141869047D02*
X104704819Y-141678571D01*
X104704819Y-141678571D02*
X104657200Y-141583333D01*
X104657200Y-141583333D02*
X104609580Y-141535714D01*
X104609580Y-141535714D02*
X104514342Y-141488095D01*
X104514342Y-141488095D02*
X104323866Y-141488095D01*
X104323866Y-141488095D02*
X104228628Y-141535714D01*
X104228628Y-141535714D02*
X104181009Y-141583333D01*
X104181009Y-141583333D02*
X104133390Y-141678571D01*
D12*
X103785714Y-166707419D02*
X103785714Y-165707419D01*
X103785714Y-165707419D02*
X104357142Y-166707419D01*
X104357142Y-166707419D02*
X104357142Y-165707419D01*
X104833333Y-166183609D02*
X105166666Y-166183609D01*
X105309523Y-166707419D02*
X104833333Y-166707419D01*
X104833333Y-166707419D02*
X104833333Y-165707419D01*
X104833333Y-165707419D02*
X105309523Y-165707419D01*
X106261904Y-166707419D02*
X105690476Y-166707419D01*
X105976190Y-166707419D02*
X105976190Y-165707419D01*
X105976190Y-165707419D02*
X105880952Y-165850276D01*
X105880952Y-165850276D02*
X105785714Y-165945514D01*
X105785714Y-165945514D02*
X105690476Y-165993133D01*
D11*
X141704819Y-37809523D02*
X142419104Y-37809523D01*
X142419104Y-37809523D02*
X142561961Y-37857142D01*
X142561961Y-37857142D02*
X142657200Y-37952380D01*
X142657200Y-37952380D02*
X142704819Y-38095237D01*
X142704819Y-38095237D02*
X142704819Y-38190475D01*
X142704819Y-36809523D02*
X142704819Y-37380951D01*
X142704819Y-37095237D02*
X141704819Y-37095237D01*
X141704819Y-37095237D02*
X141847676Y-37190475D01*
X141847676Y-37190475D02*
X141942914Y-37285713D01*
X141942914Y-37285713D02*
X141990533Y-37380951D01*
X142133390Y-36238094D02*
X142085771Y-36333332D01*
X142085771Y-36333332D02*
X142038152Y-36380951D01*
X142038152Y-36380951D02*
X141942914Y-36428570D01*
X141942914Y-36428570D02*
X141895295Y-36428570D01*
X141895295Y-36428570D02*
X141800057Y-36380951D01*
X141800057Y-36380951D02*
X141752438Y-36333332D01*
X141752438Y-36333332D02*
X141704819Y-36238094D01*
X141704819Y-36238094D02*
X141704819Y-36047618D01*
X141704819Y-36047618D02*
X141752438Y-35952380D01*
X141752438Y-35952380D02*
X141800057Y-35904761D01*
X141800057Y-35904761D02*
X141895295Y-35857142D01*
X141895295Y-35857142D02*
X141942914Y-35857142D01*
X141942914Y-35857142D02*
X142038152Y-35904761D01*
X142038152Y-35904761D02*
X142085771Y-35952380D01*
X142085771Y-35952380D02*
X142133390Y-36047618D01*
X142133390Y-36047618D02*
X142133390Y-36238094D01*
X142133390Y-36238094D02*
X142181009Y-36333332D01*
X142181009Y-36333332D02*
X142228628Y-36380951D01*
X142228628Y-36380951D02*
X142323866Y-36428570D01*
X142323866Y-36428570D02*
X142514342Y-36428570D01*
X142514342Y-36428570D02*
X142609580Y-36380951D01*
X142609580Y-36380951D02*
X142657200Y-36333332D01*
X142657200Y-36333332D02*
X142704819Y-36238094D01*
X142704819Y-36238094D02*
X142704819Y-36047618D01*
X142704819Y-36047618D02*
X142657200Y-35952380D01*
X142657200Y-35952380D02*
X142609580Y-35904761D01*
X142609580Y-35904761D02*
X142514342Y-35857142D01*
X142514342Y-35857142D02*
X142323866Y-35857142D01*
X142323866Y-35857142D02*
X142228628Y-35904761D01*
X142228628Y-35904761D02*
X142181009Y-35952380D01*
X142181009Y-35952380D02*
X142133390Y-36047618D01*
D12*
X104833333Y-122207419D02*
X104357143Y-122207419D01*
X104357143Y-122207419D02*
X104357143Y-121207419D01*
X105690476Y-122207419D02*
X105119048Y-122207419D01*
X105404762Y-122207419D02*
X105404762Y-121207419D01*
X105404762Y-121207419D02*
X105309524Y-121350276D01*
X105309524Y-121350276D02*
X105214286Y-121445514D01*
X105214286Y-121445514D02*
X105119048Y-121493133D01*
D13*
X87023365Y-154079666D02*
X87083842Y-154140142D01*
X87083842Y-154140142D02*
X87144318Y-154321571D01*
X87144318Y-154321571D02*
X87144318Y-154442523D01*
X87144318Y-154442523D02*
X87083842Y-154623952D01*
X87083842Y-154623952D02*
X86962889Y-154744904D01*
X86962889Y-154744904D02*
X86841937Y-154805381D01*
X86841937Y-154805381D02*
X86600032Y-154865857D01*
X86600032Y-154865857D02*
X86418603Y-154865857D01*
X86418603Y-154865857D02*
X86176699Y-154805381D01*
X86176699Y-154805381D02*
X86055746Y-154744904D01*
X86055746Y-154744904D02*
X85934794Y-154623952D01*
X85934794Y-154623952D02*
X85874318Y-154442523D01*
X85874318Y-154442523D02*
X85874318Y-154321571D01*
X85874318Y-154321571D02*
X85934794Y-154140142D01*
X85934794Y-154140142D02*
X85995270Y-154079666D01*
X85874318Y-152930619D02*
X85874318Y-153535381D01*
X85874318Y-153535381D02*
X86479080Y-153595857D01*
X86479080Y-153595857D02*
X86418603Y-153535381D01*
X86418603Y-153535381D02*
X86358127Y-153414428D01*
X86358127Y-153414428D02*
X86358127Y-153112047D01*
X86358127Y-153112047D02*
X86418603Y-152991095D01*
X86418603Y-152991095D02*
X86479080Y-152930619D01*
X86479080Y-152930619D02*
X86600032Y-152870142D01*
X86600032Y-152870142D02*
X86902413Y-152870142D01*
X86902413Y-152870142D02*
X87023365Y-152930619D01*
X87023365Y-152930619D02*
X87083842Y-152991095D01*
X87083842Y-152991095D02*
X87144318Y-153112047D01*
X87144318Y-153112047D02*
X87144318Y-153414428D01*
X87144318Y-153414428D02*
X87083842Y-153535381D01*
X87083842Y-153535381D02*
X87023365Y-153595857D01*
D14*
X86527333Y-166348576D02*
X86527333Y-162539053D01*
X88432095Y-164443814D02*
X84622571Y-164443814D01*
D11*
X62357142Y-145609580D02*
X62309523Y-145657200D01*
X62309523Y-145657200D02*
X62166666Y-145704819D01*
X62166666Y-145704819D02*
X62071428Y-145704819D01*
X62071428Y-145704819D02*
X61928571Y-145657200D01*
X61928571Y-145657200D02*
X61833333Y-145561961D01*
X61833333Y-145561961D02*
X61785714Y-145466723D01*
X61785714Y-145466723D02*
X61738095Y-145276247D01*
X61738095Y-145276247D02*
X61738095Y-145133390D01*
X61738095Y-145133390D02*
X61785714Y-144942914D01*
X61785714Y-144942914D02*
X61833333Y-144847676D01*
X61833333Y-144847676D02*
X61928571Y-144752438D01*
X61928571Y-144752438D02*
X62071428Y-144704819D01*
X62071428Y-144704819D02*
X62166666Y-144704819D01*
X62166666Y-144704819D02*
X62309523Y-144752438D01*
X62309523Y-144752438D02*
X62357142Y-144800057D01*
X63309523Y-145704819D02*
X62738095Y-145704819D01*
X63023809Y-145704819D02*
X63023809Y-144704819D01*
X63023809Y-144704819D02*
X62928571Y-144847676D01*
X62928571Y-144847676D02*
X62833333Y-144942914D01*
X62833333Y-144942914D02*
X62738095Y-144990533D01*
X63928571Y-144704819D02*
X64023809Y-144704819D01*
X64023809Y-144704819D02*
X64119047Y-144752438D01*
X64119047Y-144752438D02*
X64166666Y-144800057D01*
X64166666Y-144800057D02*
X64214285Y-144895295D01*
X64214285Y-144895295D02*
X64261904Y-145085771D01*
X64261904Y-145085771D02*
X64261904Y-145323866D01*
X64261904Y-145323866D02*
X64214285Y-145514342D01*
X64214285Y-145514342D02*
X64166666Y-145609580D01*
X64166666Y-145609580D02*
X64119047Y-145657200D01*
X64119047Y-145657200D02*
X64023809Y-145704819D01*
X64023809Y-145704819D02*
X63928571Y-145704819D01*
X63928571Y-145704819D02*
X63833333Y-145657200D01*
X63833333Y-145657200D02*
X63785714Y-145609580D01*
X63785714Y-145609580D02*
X63738095Y-145514342D01*
X63738095Y-145514342D02*
X63690476Y-145323866D01*
X63690476Y-145323866D02*
X63690476Y-145085771D01*
X63690476Y-145085771D02*
X63738095Y-144895295D01*
X63738095Y-144895295D02*
X63785714Y-144800057D01*
X63785714Y-144800057D02*
X63833333Y-144752438D01*
X63833333Y-144752438D02*
X63928571Y-144704819D01*
X65859580Y-55916666D02*
X65907200Y-55964285D01*
X65907200Y-55964285D02*
X65954819Y-56107142D01*
X65954819Y-56107142D02*
X65954819Y-56202380D01*
X65954819Y-56202380D02*
X65907200Y-56345237D01*
X65907200Y-56345237D02*
X65811961Y-56440475D01*
X65811961Y-56440475D02*
X65716723Y-56488094D01*
X65716723Y-56488094D02*
X65526247Y-56535713D01*
X65526247Y-56535713D02*
X65383390Y-56535713D01*
X65383390Y-56535713D02*
X65192914Y-56488094D01*
X65192914Y-56488094D02*
X65097676Y-56440475D01*
X65097676Y-56440475D02*
X65002438Y-56345237D01*
X65002438Y-56345237D02*
X64954819Y-56202380D01*
X64954819Y-56202380D02*
X64954819Y-56107142D01*
X64954819Y-56107142D02*
X65002438Y-55964285D01*
X65002438Y-55964285D02*
X65050057Y-55916666D01*
X65954819Y-55440475D02*
X65954819Y-55249999D01*
X65954819Y-55249999D02*
X65907200Y-55154761D01*
X65907200Y-55154761D02*
X65859580Y-55107142D01*
X65859580Y-55107142D02*
X65716723Y-55011904D01*
X65716723Y-55011904D02*
X65526247Y-54964285D01*
X65526247Y-54964285D02*
X65145295Y-54964285D01*
X65145295Y-54964285D02*
X65050057Y-55011904D01*
X65050057Y-55011904D02*
X65002438Y-55059523D01*
X65002438Y-55059523D02*
X64954819Y-55154761D01*
X64954819Y-55154761D02*
X64954819Y-55345237D01*
X64954819Y-55345237D02*
X65002438Y-55440475D01*
X65002438Y-55440475D02*
X65050057Y-55488094D01*
X65050057Y-55488094D02*
X65145295Y-55535713D01*
X65145295Y-55535713D02*
X65383390Y-55535713D01*
X65383390Y-55535713D02*
X65478628Y-55488094D01*
X65478628Y-55488094D02*
X65526247Y-55440475D01*
X65526247Y-55440475D02*
X65573866Y-55345237D01*
X65573866Y-55345237D02*
X65573866Y-55154761D01*
X65573866Y-55154761D02*
X65526247Y-55059523D01*
X65526247Y-55059523D02*
X65478628Y-55011904D01*
X65478628Y-55011904D02*
X65383390Y-54964285D01*
D13*
X77453365Y-44711666D02*
X77513842Y-44772142D01*
X77513842Y-44772142D02*
X77574318Y-44953571D01*
X77574318Y-44953571D02*
X77574318Y-45074523D01*
X77574318Y-45074523D02*
X77513842Y-45255952D01*
X77513842Y-45255952D02*
X77392889Y-45376904D01*
X77392889Y-45376904D02*
X77271937Y-45437381D01*
X77271937Y-45437381D02*
X77030032Y-45497857D01*
X77030032Y-45497857D02*
X76848603Y-45497857D01*
X76848603Y-45497857D02*
X76606699Y-45437381D01*
X76606699Y-45437381D02*
X76485746Y-45376904D01*
X76485746Y-45376904D02*
X76364794Y-45255952D01*
X76364794Y-45255952D02*
X76304318Y-45074523D01*
X76304318Y-45074523D02*
X76304318Y-44953571D01*
X76304318Y-44953571D02*
X76364794Y-44772142D01*
X76364794Y-44772142D02*
X76425270Y-44711666D01*
X76304318Y-44288333D02*
X76304318Y-43441666D01*
X76304318Y-43441666D02*
X77574318Y-43985952D01*
D11*
X69704819Y-120785713D02*
X69704819Y-120214285D01*
X70704819Y-120499999D02*
X69704819Y-120499999D01*
X70704819Y-119880951D02*
X69704819Y-119880951D01*
X70181009Y-119880951D02*
X70181009Y-119309523D01*
X70704819Y-119309523D02*
X69704819Y-119309523D01*
X70704819Y-118309523D02*
X70704819Y-118880951D01*
X70704819Y-118595237D02*
X69704819Y-118595237D01*
X69704819Y-118595237D02*
X69847676Y-118690475D01*
X69847676Y-118690475D02*
X69942914Y-118785713D01*
X69942914Y-118785713D02*
X69990533Y-118880951D01*
D12*
X49172371Y-50660000D02*
X49600942Y-50660000D01*
X49600942Y-50660000D02*
X49686657Y-50688571D01*
X49686657Y-50688571D02*
X49743800Y-50745714D01*
X49743800Y-50745714D02*
X49772371Y-50831428D01*
X49772371Y-50831428D02*
X49772371Y-50888571D01*
X49772371Y-50345714D02*
X49772371Y-50231428D01*
X49772371Y-50231428D02*
X49743800Y-50174285D01*
X49743800Y-50174285D02*
X49715228Y-50145714D01*
X49715228Y-50145714D02*
X49629514Y-50088571D01*
X49629514Y-50088571D02*
X49515228Y-50060000D01*
X49515228Y-50060000D02*
X49286657Y-50060000D01*
X49286657Y-50060000D02*
X49229514Y-50088571D01*
X49229514Y-50088571D02*
X49200942Y-50117143D01*
X49200942Y-50117143D02*
X49172371Y-50174285D01*
X49172371Y-50174285D02*
X49172371Y-50288571D01*
X49172371Y-50288571D02*
X49200942Y-50345714D01*
X49200942Y-50345714D02*
X49229514Y-50374285D01*
X49229514Y-50374285D02*
X49286657Y-50402857D01*
X49286657Y-50402857D02*
X49429514Y-50402857D01*
X49429514Y-50402857D02*
X49486657Y-50374285D01*
X49486657Y-50374285D02*
X49515228Y-50345714D01*
X49515228Y-50345714D02*
X49543800Y-50288571D01*
X49543800Y-50288571D02*
X49543800Y-50174285D01*
X49543800Y-50174285D02*
X49515228Y-50117143D01*
X49515228Y-50117143D02*
X49486657Y-50088571D01*
X49486657Y-50088571D02*
X49429514Y-50060000D01*
D11*
X71891819Y-169607142D02*
X71844200Y-169559523D01*
X71844200Y-169559523D02*
X71796580Y-169416666D01*
X71796580Y-169416666D02*
X71796580Y-169321428D01*
X71796580Y-169321428D02*
X71844200Y-169178571D01*
X71844200Y-169178571D02*
X71939438Y-169083333D01*
X71939438Y-169083333D02*
X72034676Y-169035714D01*
X72034676Y-169035714D02*
X72225152Y-168988095D01*
X72225152Y-168988095D02*
X72368009Y-168988095D01*
X72368009Y-168988095D02*
X72558485Y-169035714D01*
X72558485Y-169035714D02*
X72653723Y-169083333D01*
X72653723Y-169083333D02*
X72748961Y-169178571D01*
X72748961Y-169178571D02*
X72796580Y-169321428D01*
X72796580Y-169321428D02*
X72796580Y-169416666D01*
X72796580Y-169416666D02*
X72748961Y-169559523D01*
X72748961Y-169559523D02*
X72701342Y-169607142D01*
X71796580Y-170559523D02*
X71796580Y-169988095D01*
X71796580Y-170273809D02*
X72796580Y-170273809D01*
X72796580Y-170273809D02*
X72653723Y-170178571D01*
X72653723Y-170178571D02*
X72558485Y-170083333D01*
X72558485Y-170083333D02*
X72510866Y-169988095D01*
X72796580Y-170892857D02*
X72796580Y-171559523D01*
X72796580Y-171559523D02*
X71796580Y-171130952D01*
D12*
X73946115Y-168758533D02*
X73184211Y-168758533D01*
X73565163Y-168377580D02*
X73565163Y-169139485D01*
D13*
X65824318Y-44005951D02*
X65219556Y-44429285D01*
X65824318Y-44731666D02*
X64554318Y-44731666D01*
X64554318Y-44731666D02*
X64554318Y-44247856D01*
X64554318Y-44247856D02*
X64614794Y-44126904D01*
X64614794Y-44126904D02*
X64675270Y-44066427D01*
X64675270Y-44066427D02*
X64796222Y-44005951D01*
X64796222Y-44005951D02*
X64977651Y-44005951D01*
X64977651Y-44005951D02*
X65098603Y-44066427D01*
X65098603Y-44066427D02*
X65159080Y-44126904D01*
X65159080Y-44126904D02*
X65219556Y-44247856D01*
X65219556Y-44247856D02*
X65219556Y-44731666D01*
X64554318Y-43643094D02*
X65824318Y-43219761D01*
X65824318Y-43219761D02*
X64554318Y-42796427D01*
X65824318Y-41707856D02*
X65824318Y-42433571D01*
X65824318Y-42070714D02*
X64554318Y-42070714D01*
X64554318Y-42070714D02*
X64735746Y-42191666D01*
X64735746Y-42191666D02*
X64856699Y-42312618D01*
X64856699Y-42312618D02*
X64917175Y-42433571D01*
D12*
X57672371Y-40945714D02*
X58100942Y-40945714D01*
X58100942Y-40945714D02*
X58186657Y-40974285D01*
X58186657Y-40974285D02*
X58243800Y-41031428D01*
X58243800Y-41031428D02*
X58272371Y-41117142D01*
X58272371Y-41117142D02*
X58272371Y-41174285D01*
X58272371Y-40345714D02*
X58272371Y-40688571D01*
X58272371Y-40517142D02*
X57672371Y-40517142D01*
X57672371Y-40517142D02*
X57758085Y-40574285D01*
X57758085Y-40574285D02*
X57815228Y-40631428D01*
X57815228Y-40631428D02*
X57843800Y-40688571D01*
X57672371Y-39974285D02*
X57672371Y-39917142D01*
X57672371Y-39917142D02*
X57700942Y-39859999D01*
X57700942Y-39859999D02*
X57729514Y-39831428D01*
X57729514Y-39831428D02*
X57786657Y-39802856D01*
X57786657Y-39802856D02*
X57900942Y-39774285D01*
X57900942Y-39774285D02*
X58043800Y-39774285D01*
X58043800Y-39774285D02*
X58158085Y-39802856D01*
X58158085Y-39802856D02*
X58215228Y-39831428D01*
X58215228Y-39831428D02*
X58243800Y-39859999D01*
X58243800Y-39859999D02*
X58272371Y-39917142D01*
X58272371Y-39917142D02*
X58272371Y-39974285D01*
X58272371Y-39974285D02*
X58243800Y-40031428D01*
X58243800Y-40031428D02*
X58215228Y-40059999D01*
X58215228Y-40059999D02*
X58158085Y-40088570D01*
X58158085Y-40088570D02*
X58043800Y-40117142D01*
X58043800Y-40117142D02*
X57900942Y-40117142D01*
X57900942Y-40117142D02*
X57786657Y-40088570D01*
X57786657Y-40088570D02*
X57729514Y-40059999D01*
X57729514Y-40059999D02*
X57700942Y-40031428D01*
X57700942Y-40031428D02*
X57672371Y-39974285D01*
X49172371Y-30945714D02*
X49600942Y-30945714D01*
X49600942Y-30945714D02*
X49686657Y-30974285D01*
X49686657Y-30974285D02*
X49743800Y-31031428D01*
X49743800Y-31031428D02*
X49772371Y-31117142D01*
X49772371Y-31117142D02*
X49772371Y-31174285D01*
X49772371Y-30345714D02*
X49772371Y-30688571D01*
X49772371Y-30517142D02*
X49172371Y-30517142D01*
X49172371Y-30517142D02*
X49258085Y-30574285D01*
X49258085Y-30574285D02*
X49315228Y-30631428D01*
X49315228Y-30631428D02*
X49343800Y-30688571D01*
X49229514Y-30117142D02*
X49200942Y-30088570D01*
X49200942Y-30088570D02*
X49172371Y-30031428D01*
X49172371Y-30031428D02*
X49172371Y-29888570D01*
X49172371Y-29888570D02*
X49200942Y-29831428D01*
X49200942Y-29831428D02*
X49229514Y-29802856D01*
X49229514Y-29802856D02*
X49286657Y-29774285D01*
X49286657Y-29774285D02*
X49343800Y-29774285D01*
X49343800Y-29774285D02*
X49429514Y-29802856D01*
X49429514Y-29802856D02*
X49772371Y-30145713D01*
X49772371Y-30145713D02*
X49772371Y-29774285D01*
D11*
X140244580Y-49892857D02*
X140292200Y-49940476D01*
X140292200Y-49940476D02*
X140339819Y-50083333D01*
X140339819Y-50083333D02*
X140339819Y-50178571D01*
X140339819Y-50178571D02*
X140292200Y-50321428D01*
X140292200Y-50321428D02*
X140196961Y-50416666D01*
X140196961Y-50416666D02*
X140101723Y-50464285D01*
X140101723Y-50464285D02*
X139911247Y-50511904D01*
X139911247Y-50511904D02*
X139768390Y-50511904D01*
X139768390Y-50511904D02*
X139577914Y-50464285D01*
X139577914Y-50464285D02*
X139482676Y-50416666D01*
X139482676Y-50416666D02*
X139387438Y-50321428D01*
X139387438Y-50321428D02*
X139339819Y-50178571D01*
X139339819Y-50178571D02*
X139339819Y-50083333D01*
X139339819Y-50083333D02*
X139387438Y-49940476D01*
X139387438Y-49940476D02*
X139435057Y-49892857D01*
X139435057Y-49511904D02*
X139387438Y-49464285D01*
X139387438Y-49464285D02*
X139339819Y-49369047D01*
X139339819Y-49369047D02*
X139339819Y-49130952D01*
X139339819Y-49130952D02*
X139387438Y-49035714D01*
X139387438Y-49035714D02*
X139435057Y-48988095D01*
X139435057Y-48988095D02*
X139530295Y-48940476D01*
X139530295Y-48940476D02*
X139625533Y-48940476D01*
X139625533Y-48940476D02*
X139768390Y-48988095D01*
X139768390Y-48988095D02*
X140339819Y-49559523D01*
X140339819Y-49559523D02*
X140339819Y-48940476D01*
X140339819Y-47988095D02*
X140339819Y-48559523D01*
X140339819Y-48273809D02*
X139339819Y-48273809D01*
X139339819Y-48273809D02*
X139482676Y-48369047D01*
X139482676Y-48369047D02*
X139577914Y-48464285D01*
X139577914Y-48464285D02*
X139625533Y-48559523D01*
D12*
X138190284Y-50741466D02*
X138952189Y-50741466D01*
X138571236Y-51122419D02*
X138571236Y-50360514D01*
D11*
X62357142Y-150109580D02*
X62309523Y-150157200D01*
X62309523Y-150157200D02*
X62166666Y-150204819D01*
X62166666Y-150204819D02*
X62071428Y-150204819D01*
X62071428Y-150204819D02*
X61928571Y-150157200D01*
X61928571Y-150157200D02*
X61833333Y-150061961D01*
X61833333Y-150061961D02*
X61785714Y-149966723D01*
X61785714Y-149966723D02*
X61738095Y-149776247D01*
X61738095Y-149776247D02*
X61738095Y-149633390D01*
X61738095Y-149633390D02*
X61785714Y-149442914D01*
X61785714Y-149442914D02*
X61833333Y-149347676D01*
X61833333Y-149347676D02*
X61928571Y-149252438D01*
X61928571Y-149252438D02*
X62071428Y-149204819D01*
X62071428Y-149204819D02*
X62166666Y-149204819D01*
X62166666Y-149204819D02*
X62309523Y-149252438D01*
X62309523Y-149252438D02*
X62357142Y-149300057D01*
X63309523Y-150204819D02*
X62738095Y-150204819D01*
X63023809Y-150204819D02*
X63023809Y-149204819D01*
X63023809Y-149204819D02*
X62928571Y-149347676D01*
X62928571Y-149347676D02*
X62833333Y-149442914D01*
X62833333Y-149442914D02*
X62738095Y-149490533D01*
X64261904Y-150204819D02*
X63690476Y-150204819D01*
X63976190Y-150204819D02*
X63976190Y-149204819D01*
X63976190Y-149204819D02*
X63880952Y-149347676D01*
X63880952Y-149347676D02*
X63785714Y-149442914D01*
X63785714Y-149442914D02*
X63690476Y-149490533D01*
D12*
X57672371Y-30945714D02*
X58100942Y-30945714D01*
X58100942Y-30945714D02*
X58186657Y-30974285D01*
X58186657Y-30974285D02*
X58243800Y-31031428D01*
X58243800Y-31031428D02*
X58272371Y-31117142D01*
X58272371Y-31117142D02*
X58272371Y-31174285D01*
X58272371Y-30345714D02*
X58272371Y-30688571D01*
X58272371Y-30517142D02*
X57672371Y-30517142D01*
X57672371Y-30517142D02*
X57758085Y-30574285D01*
X57758085Y-30574285D02*
X57815228Y-30631428D01*
X57815228Y-30631428D02*
X57843800Y-30688571D01*
X57672371Y-30145713D02*
X57672371Y-29774285D01*
X57672371Y-29774285D02*
X57900942Y-29974285D01*
X57900942Y-29974285D02*
X57900942Y-29888570D01*
X57900942Y-29888570D02*
X57929514Y-29831428D01*
X57929514Y-29831428D02*
X57958085Y-29802856D01*
X57958085Y-29802856D02*
X58015228Y-29774285D01*
X58015228Y-29774285D02*
X58158085Y-29774285D01*
X58158085Y-29774285D02*
X58215228Y-29802856D01*
X58215228Y-29802856D02*
X58243800Y-29831428D01*
X58243800Y-29831428D02*
X58272371Y-29888570D01*
X58272371Y-29888570D02*
X58272371Y-30059999D01*
X58272371Y-30059999D02*
X58243800Y-30117142D01*
X58243800Y-30117142D02*
X58215228Y-30145713D01*
X142077628Y-110304285D02*
X141649057Y-110304285D01*
X141649057Y-110304285D02*
X141563342Y-110275714D01*
X141563342Y-110275714D02*
X141506200Y-110218571D01*
X141506200Y-110218571D02*
X141477628Y-110132857D01*
X141477628Y-110132857D02*
X141477628Y-110075714D01*
X141477628Y-110904285D02*
X141477628Y-110561428D01*
X141477628Y-110732857D02*
X142077628Y-110732857D01*
X142077628Y-110732857D02*
X141991914Y-110675714D01*
X141991914Y-110675714D02*
X141934771Y-110618571D01*
X141934771Y-110618571D02*
X141906200Y-110561428D01*
X142077628Y-111418572D02*
X142077628Y-111304286D01*
X142077628Y-111304286D02*
X142049057Y-111247143D01*
X142049057Y-111247143D02*
X142020485Y-111218572D01*
X142020485Y-111218572D02*
X141934771Y-111161429D01*
X141934771Y-111161429D02*
X141820485Y-111132857D01*
X141820485Y-111132857D02*
X141591914Y-111132857D01*
X141591914Y-111132857D02*
X141534771Y-111161429D01*
X141534771Y-111161429D02*
X141506200Y-111190000D01*
X141506200Y-111190000D02*
X141477628Y-111247143D01*
X141477628Y-111247143D02*
X141477628Y-111361429D01*
X141477628Y-111361429D02*
X141506200Y-111418572D01*
X141506200Y-111418572D02*
X141534771Y-111447143D01*
X141534771Y-111447143D02*
X141591914Y-111475714D01*
X141591914Y-111475714D02*
X141734771Y-111475714D01*
X141734771Y-111475714D02*
X141791914Y-111447143D01*
X141791914Y-111447143D02*
X141820485Y-111418572D01*
X141820485Y-111418572D02*
X141849057Y-111361429D01*
X141849057Y-111361429D02*
X141849057Y-111247143D01*
X141849057Y-111247143D02*
X141820485Y-111190000D01*
X141820485Y-111190000D02*
X141791914Y-111161429D01*
X141791914Y-111161429D02*
X141734771Y-111132857D01*
X57672371Y-50660000D02*
X58100942Y-50660000D01*
X58100942Y-50660000D02*
X58186657Y-50688571D01*
X58186657Y-50688571D02*
X58243800Y-50745714D01*
X58243800Y-50745714D02*
X58272371Y-50831428D01*
X58272371Y-50831428D02*
X58272371Y-50888571D01*
X57929514Y-50288571D02*
X57900942Y-50345714D01*
X57900942Y-50345714D02*
X57872371Y-50374285D01*
X57872371Y-50374285D02*
X57815228Y-50402857D01*
X57815228Y-50402857D02*
X57786657Y-50402857D01*
X57786657Y-50402857D02*
X57729514Y-50374285D01*
X57729514Y-50374285D02*
X57700942Y-50345714D01*
X57700942Y-50345714D02*
X57672371Y-50288571D01*
X57672371Y-50288571D02*
X57672371Y-50174285D01*
X57672371Y-50174285D02*
X57700942Y-50117143D01*
X57700942Y-50117143D02*
X57729514Y-50088571D01*
X57729514Y-50088571D02*
X57786657Y-50060000D01*
X57786657Y-50060000D02*
X57815228Y-50060000D01*
X57815228Y-50060000D02*
X57872371Y-50088571D01*
X57872371Y-50088571D02*
X57900942Y-50117143D01*
X57900942Y-50117143D02*
X57929514Y-50174285D01*
X57929514Y-50174285D02*
X57929514Y-50288571D01*
X57929514Y-50288571D02*
X57958085Y-50345714D01*
X57958085Y-50345714D02*
X57986657Y-50374285D01*
X57986657Y-50374285D02*
X58043800Y-50402857D01*
X58043800Y-50402857D02*
X58158085Y-50402857D01*
X58158085Y-50402857D02*
X58215228Y-50374285D01*
X58215228Y-50374285D02*
X58243800Y-50345714D01*
X58243800Y-50345714D02*
X58272371Y-50288571D01*
X58272371Y-50288571D02*
X58272371Y-50174285D01*
X58272371Y-50174285D02*
X58243800Y-50117143D01*
X58243800Y-50117143D02*
X58215228Y-50088571D01*
X58215228Y-50088571D02*
X58158085Y-50060000D01*
X58158085Y-50060000D02*
X58043800Y-50060000D01*
X58043800Y-50060000D02*
X57986657Y-50088571D01*
X57986657Y-50088571D02*
X57958085Y-50117143D01*
X57958085Y-50117143D02*
X57929514Y-50174285D01*
X142077628Y-138804285D02*
X141649057Y-138804285D01*
X141649057Y-138804285D02*
X141563342Y-138775714D01*
X141563342Y-138775714D02*
X141506200Y-138718571D01*
X141506200Y-138718571D02*
X141477628Y-138632857D01*
X141477628Y-138632857D02*
X141477628Y-138575714D01*
X141477628Y-139404285D02*
X141477628Y-139061428D01*
X141477628Y-139232857D02*
X142077628Y-139232857D01*
X142077628Y-139232857D02*
X141991914Y-139175714D01*
X141991914Y-139175714D02*
X141934771Y-139118571D01*
X141934771Y-139118571D02*
X141906200Y-139061428D01*
X142077628Y-139947143D02*
X142077628Y-139661429D01*
X142077628Y-139661429D02*
X141791914Y-139632857D01*
X141791914Y-139632857D02*
X141820485Y-139661429D01*
X141820485Y-139661429D02*
X141849057Y-139718572D01*
X141849057Y-139718572D02*
X141849057Y-139861429D01*
X141849057Y-139861429D02*
X141820485Y-139918572D01*
X141820485Y-139918572D02*
X141791914Y-139947143D01*
X141791914Y-139947143D02*
X141734771Y-139975714D01*
X141734771Y-139975714D02*
X141591914Y-139975714D01*
X141591914Y-139975714D02*
X141534771Y-139947143D01*
X141534771Y-139947143D02*
X141506200Y-139918572D01*
X141506200Y-139918572D02*
X141477628Y-139861429D01*
X141477628Y-139861429D02*
X141477628Y-139718572D01*
X141477628Y-139718572D02*
X141506200Y-139661429D01*
X141506200Y-139661429D02*
X141534771Y-139632857D01*
X142077628Y-127054285D02*
X141649057Y-127054285D01*
X141649057Y-127054285D02*
X141563342Y-127025714D01*
X141563342Y-127025714D02*
X141506200Y-126968571D01*
X141506200Y-126968571D02*
X141477628Y-126882857D01*
X141477628Y-126882857D02*
X141477628Y-126825714D01*
X141477628Y-127654285D02*
X141477628Y-127311428D01*
X141477628Y-127482857D02*
X142077628Y-127482857D01*
X142077628Y-127482857D02*
X141991914Y-127425714D01*
X141991914Y-127425714D02*
X141934771Y-127368571D01*
X141934771Y-127368571D02*
X141906200Y-127311428D01*
X141877628Y-128168572D02*
X141477628Y-128168572D01*
X142106200Y-128025714D02*
X141677628Y-127882857D01*
X141677628Y-127882857D02*
X141677628Y-128254286D01*
D13*
X52453365Y-156711666D02*
X52513842Y-156772142D01*
X52513842Y-156772142D02*
X52574318Y-156953571D01*
X52574318Y-156953571D02*
X52574318Y-157074523D01*
X52574318Y-157074523D02*
X52513842Y-157255952D01*
X52513842Y-157255952D02*
X52392889Y-157376904D01*
X52392889Y-157376904D02*
X52271937Y-157437381D01*
X52271937Y-157437381D02*
X52030032Y-157497857D01*
X52030032Y-157497857D02*
X51848603Y-157497857D01*
X51848603Y-157497857D02*
X51606699Y-157437381D01*
X51606699Y-157437381D02*
X51485746Y-157376904D01*
X51485746Y-157376904D02*
X51364794Y-157255952D01*
X51364794Y-157255952D02*
X51304318Y-157074523D01*
X51304318Y-157074523D02*
X51304318Y-156953571D01*
X51304318Y-156953571D02*
X51364794Y-156772142D01*
X51364794Y-156772142D02*
X51425270Y-156711666D01*
X51304318Y-155623095D02*
X51304318Y-155865000D01*
X51304318Y-155865000D02*
X51364794Y-155985952D01*
X51364794Y-155985952D02*
X51425270Y-156046428D01*
X51425270Y-156046428D02*
X51606699Y-156167381D01*
X51606699Y-156167381D02*
X51848603Y-156227857D01*
X51848603Y-156227857D02*
X52332413Y-156227857D01*
X52332413Y-156227857D02*
X52453365Y-156167381D01*
X52453365Y-156167381D02*
X52513842Y-156106904D01*
X52513842Y-156106904D02*
X52574318Y-155985952D01*
X52574318Y-155985952D02*
X52574318Y-155744047D01*
X52574318Y-155744047D02*
X52513842Y-155623095D01*
X52513842Y-155623095D02*
X52453365Y-155562619D01*
X52453365Y-155562619D02*
X52332413Y-155502142D01*
X52332413Y-155502142D02*
X52030032Y-155502142D01*
X52030032Y-155502142D02*
X51909080Y-155562619D01*
X51909080Y-155562619D02*
X51848603Y-155623095D01*
X51848603Y-155623095D02*
X51788127Y-155744047D01*
X51788127Y-155744047D02*
X51788127Y-155985952D01*
X51788127Y-155985952D02*
X51848603Y-156106904D01*
X51848603Y-156106904D02*
X51909080Y-156167381D01*
X51909080Y-156167381D02*
X52030032Y-156227857D01*
X124023365Y-154079666D02*
X124083842Y-154140142D01*
X124083842Y-154140142D02*
X124144318Y-154321571D01*
X124144318Y-154321571D02*
X124144318Y-154442523D01*
X124144318Y-154442523D02*
X124083842Y-154623952D01*
X124083842Y-154623952D02*
X123962889Y-154744904D01*
X123962889Y-154744904D02*
X123841937Y-154805381D01*
X123841937Y-154805381D02*
X123600032Y-154865857D01*
X123600032Y-154865857D02*
X123418603Y-154865857D01*
X123418603Y-154865857D02*
X123176699Y-154805381D01*
X123176699Y-154805381D02*
X123055746Y-154744904D01*
X123055746Y-154744904D02*
X122934794Y-154623952D01*
X122934794Y-154623952D02*
X122874318Y-154442523D01*
X122874318Y-154442523D02*
X122874318Y-154321571D01*
X122874318Y-154321571D02*
X122934794Y-154140142D01*
X122934794Y-154140142D02*
X122995270Y-154079666D01*
X123297651Y-152991095D02*
X124144318Y-152991095D01*
X122813842Y-153293476D02*
X123720984Y-153595857D01*
X123720984Y-153595857D02*
X123720984Y-152809666D01*
D14*
X123527333Y-166348576D02*
X123527333Y-162539053D01*
X125432095Y-164443814D02*
X121622571Y-164443814D01*
D12*
X56966390Y-111011904D02*
X56966390Y-110678571D01*
X56442580Y-110678571D02*
X57442580Y-110678571D01*
X57442580Y-110678571D02*
X57442580Y-111154761D01*
X56442580Y-112011904D02*
X56442580Y-111535714D01*
X56442580Y-111535714D02*
X57442580Y-111535714D01*
X56442580Y-112869047D02*
X56442580Y-112297619D01*
X56442580Y-112583333D02*
X57442580Y-112583333D01*
X57442580Y-112583333D02*
X57299723Y-112488095D01*
X57299723Y-112488095D02*
X57204485Y-112392857D01*
X57204485Y-112392857D02*
X57156866Y-112297619D01*
D13*
X58038333Y-134453365D02*
X57977857Y-134513842D01*
X57977857Y-134513842D02*
X57796428Y-134574318D01*
X57796428Y-134574318D02*
X57675476Y-134574318D01*
X57675476Y-134574318D02*
X57494047Y-134513842D01*
X57494047Y-134513842D02*
X57373095Y-134392889D01*
X57373095Y-134392889D02*
X57312618Y-134271937D01*
X57312618Y-134271937D02*
X57252142Y-134030032D01*
X57252142Y-134030032D02*
X57252142Y-133848603D01*
X57252142Y-133848603D02*
X57312618Y-133606699D01*
X57312618Y-133606699D02*
X57373095Y-133485746D01*
X57373095Y-133485746D02*
X57494047Y-133364794D01*
X57494047Y-133364794D02*
X57675476Y-133304318D01*
X57675476Y-133304318D02*
X57796428Y-133304318D01*
X57796428Y-133304318D02*
X57977857Y-133364794D01*
X57977857Y-133364794D02*
X58038333Y-133425270D01*
X59247857Y-134574318D02*
X58522142Y-134574318D01*
X58884999Y-134574318D02*
X58884999Y-133304318D01*
X58884999Y-133304318D02*
X58764047Y-133485746D01*
X58764047Y-133485746D02*
X58643095Y-133606699D01*
X58643095Y-133606699D02*
X58522142Y-133667175D01*
D12*
X49172371Y-40945714D02*
X49600942Y-40945714D01*
X49600942Y-40945714D02*
X49686657Y-40974285D01*
X49686657Y-40974285D02*
X49743800Y-41031428D01*
X49743800Y-41031428D02*
X49772371Y-41117142D01*
X49772371Y-41117142D02*
X49772371Y-41174285D01*
X49772371Y-40345714D02*
X49772371Y-40688571D01*
X49772371Y-40517142D02*
X49172371Y-40517142D01*
X49172371Y-40517142D02*
X49258085Y-40574285D01*
X49258085Y-40574285D02*
X49315228Y-40631428D01*
X49315228Y-40631428D02*
X49343800Y-40688571D01*
X49772371Y-39774285D02*
X49772371Y-40117142D01*
X49772371Y-39945713D02*
X49172371Y-39945713D01*
X49172371Y-39945713D02*
X49258085Y-40002856D01*
X49258085Y-40002856D02*
X49315228Y-40059999D01*
X49315228Y-40059999D02*
X49343800Y-40117142D01*
X142077628Y-100224285D02*
X141649057Y-100224285D01*
X141649057Y-100224285D02*
X141563342Y-100195714D01*
X141563342Y-100195714D02*
X141506200Y-100138571D01*
X141506200Y-100138571D02*
X141477628Y-100052857D01*
X141477628Y-100052857D02*
X141477628Y-99995714D01*
X141477628Y-100824285D02*
X141477628Y-100481428D01*
X141477628Y-100652857D02*
X142077628Y-100652857D01*
X142077628Y-100652857D02*
X141991914Y-100595714D01*
X141991914Y-100595714D02*
X141934771Y-100538571D01*
X141934771Y-100538571D02*
X141906200Y-100481428D01*
X142077628Y-101024286D02*
X142077628Y-101424286D01*
X142077628Y-101424286D02*
X141477628Y-101167143D01*
D11*
X65609580Y-30166666D02*
X65657200Y-30214285D01*
X65657200Y-30214285D02*
X65704819Y-30357142D01*
X65704819Y-30357142D02*
X65704819Y-30452380D01*
X65704819Y-30452380D02*
X65657200Y-30595237D01*
X65657200Y-30595237D02*
X65561961Y-30690475D01*
X65561961Y-30690475D02*
X65466723Y-30738094D01*
X65466723Y-30738094D02*
X65276247Y-30785713D01*
X65276247Y-30785713D02*
X65133390Y-30785713D01*
X65133390Y-30785713D02*
X64942914Y-30738094D01*
X64942914Y-30738094D02*
X64847676Y-30690475D01*
X64847676Y-30690475D02*
X64752438Y-30595237D01*
X64752438Y-30595237D02*
X64704819Y-30452380D01*
X64704819Y-30452380D02*
X64704819Y-30357142D01*
X64704819Y-30357142D02*
X64752438Y-30214285D01*
X64752438Y-30214285D02*
X64800057Y-30166666D01*
X65133390Y-29595237D02*
X65085771Y-29690475D01*
X65085771Y-29690475D02*
X65038152Y-29738094D01*
X65038152Y-29738094D02*
X64942914Y-29785713D01*
X64942914Y-29785713D02*
X64895295Y-29785713D01*
X64895295Y-29785713D02*
X64800057Y-29738094D01*
X64800057Y-29738094D02*
X64752438Y-29690475D01*
X64752438Y-29690475D02*
X64704819Y-29595237D01*
X64704819Y-29595237D02*
X64704819Y-29404761D01*
X64704819Y-29404761D02*
X64752438Y-29309523D01*
X64752438Y-29309523D02*
X64800057Y-29261904D01*
X64800057Y-29261904D02*
X64895295Y-29214285D01*
X64895295Y-29214285D02*
X64942914Y-29214285D01*
X64942914Y-29214285D02*
X65038152Y-29261904D01*
X65038152Y-29261904D02*
X65085771Y-29309523D01*
X65085771Y-29309523D02*
X65133390Y-29404761D01*
X65133390Y-29404761D02*
X65133390Y-29595237D01*
X65133390Y-29595237D02*
X65181009Y-29690475D01*
X65181009Y-29690475D02*
X65228628Y-29738094D01*
X65228628Y-29738094D02*
X65323866Y-29785713D01*
X65323866Y-29785713D02*
X65514342Y-29785713D01*
X65514342Y-29785713D02*
X65609580Y-29738094D01*
X65609580Y-29738094D02*
X65657200Y-29690475D01*
X65657200Y-29690475D02*
X65704819Y-29595237D01*
X65704819Y-29595237D02*
X65704819Y-29404761D01*
X65704819Y-29404761D02*
X65657200Y-29309523D01*
X65657200Y-29309523D02*
X65609580Y-29261904D01*
X65609580Y-29261904D02*
X65514342Y-29214285D01*
X65514342Y-29214285D02*
X65323866Y-29214285D01*
X65323866Y-29214285D02*
X65228628Y-29261904D01*
X65228628Y-29261904D02*
X65181009Y-29309523D01*
X65181009Y-29309523D02*
X65133390Y-29404761D01*
X56718015Y-76139021D02*
X56718015Y-74740848D01*
X57516971Y-76139021D02*
X56917754Y-75340065D01*
X57516971Y-74740848D02*
X56718015Y-75539804D01*
X58848564Y-76139021D02*
X58049608Y-76139021D01*
X58449086Y-76139021D02*
X58449086Y-74740848D01*
X58449086Y-74740848D02*
X58315927Y-74940587D01*
X58315927Y-74940587D02*
X58182768Y-75073747D01*
X58182768Y-75073747D02*
X58049608Y-75140326D01*
D13*
X63788333Y-161324318D02*
X63183571Y-161324318D01*
X63183571Y-161324318D02*
X63183571Y-160054318D01*
X64151190Y-160175270D02*
X64211666Y-160114794D01*
X64211666Y-160114794D02*
X64332619Y-160054318D01*
X64332619Y-160054318D02*
X64635000Y-160054318D01*
X64635000Y-160054318D02*
X64755952Y-160114794D01*
X64755952Y-160114794D02*
X64816428Y-160175270D01*
X64816428Y-160175270D02*
X64876905Y-160296222D01*
X64876905Y-160296222D02*
X64876905Y-160417175D01*
X64876905Y-160417175D02*
X64816428Y-160598603D01*
X64816428Y-160598603D02*
X64090714Y-161324318D01*
X64090714Y-161324318D02*
X64876905Y-161324318D01*
D15*
%TO.C,R48*%
X105000000Y-141305000D02*
X105000000Y-143915000D01*
X106370000Y-139935000D02*
G75*
G02*
X103630000Y-139935000I-1370000J0D01*
G01*
X103630000Y-139935000D02*
G75*
G02*
X106370000Y-139935000I1370000J0D01*
G01*
D12*
%TO.C,NE1*%
X108100000Y-166250000D02*
G75*
G02*
X101900000Y-166250000I-3100000J0D01*
G01*
X101900000Y-166250000D02*
G75*
G02*
X108100000Y-166250000I3100000J0D01*
G01*
D16*
%TO.C,J18*%
X137072999Y-44752400D02*
X143168999Y-44752400D01*
X143168999Y-44752400D02*
X143168999Y-41627963D01*
X143168999Y-39952037D02*
X143168999Y-34287600D01*
X137072999Y-34287600D02*
X137072999Y-44752400D01*
X143168999Y-34287600D02*
X137072999Y-34287600D01*
D17*
X140881000Y-33652600D02*
G75*
G02*
X140119000Y-33652600I-381000J0D01*
G01*
X140119000Y-33652600D02*
G75*
G02*
X140881000Y-33652600I381000J0D01*
G01*
%TO.C,L1*%
D12*
X77570000Y-109368000D02*
X132570000Y-109368000D01*
X132570000Y-134368000D01*
X77570000Y-134368000D01*
X77570000Y-109368000D01*
D10*
%TO.C,C5*%
X104320000Y-153868000D02*
G75*
G02*
X68820000Y-153868000I-17750000J0D01*
G01*
X68820000Y-153868000D02*
G75*
G02*
X104320000Y-153868000I17750000J0D01*
G01*
D18*
%TO.C,C10*%
X59000000Y-147250000D02*
X59000000Y-143250000D01*
X59000000Y-147250000D02*
X67000000Y-147250000D01*
X67000000Y-143250000D02*
X59000000Y-143250000D01*
X67000000Y-147250000D02*
X67000000Y-143250000D01*
%TO.C,C9*%
X63250000Y-51750000D02*
X63250000Y-59750000D01*
X67250000Y-51750000D02*
X63250000Y-51750000D01*
X67250000Y-59750000D02*
X63250000Y-59750000D01*
X67250000Y-59750000D02*
X67250000Y-51750000D01*
D12*
%TO.C,C7*%
X70750000Y-32375000D02*
X82750000Y-32375000D01*
X70750000Y-58875000D02*
X70750000Y-32375000D01*
X82750000Y-32375000D02*
X82750000Y-58875000D01*
X82750000Y-58875000D02*
X70750000Y-58875000D01*
D10*
X76800000Y-59225000D02*
G75*
G02*
X76700000Y-59225000I-50000J0D01*
G01*
X76700000Y-59225000D02*
G75*
G02*
X76800000Y-59225000I50000J0D01*
G01*
D16*
%TO.C,TH1*%
X66617800Y-122751200D02*
X66617800Y-116248800D01*
X73882200Y-122751200D02*
X73882200Y-116248800D01*
X66617800Y-116248800D02*
G75*
G02*
X70250000Y-112616600I3632200J0D01*
G01*
X70250000Y-112616600D02*
G75*
G02*
X73882200Y-116248800I0J-3632200D01*
G01*
X73882200Y-122751200D02*
G75*
G02*
X66617800Y-122751200I-3632200J0D01*
G01*
%TO.C,J9*%
X47823600Y-46370600D02*
X47823600Y-54549400D01*
X47823600Y-54549400D02*
X51176400Y-54549400D01*
X51176400Y-46370600D02*
X47823600Y-46370600D01*
X51176400Y-54549400D02*
X51176400Y-46370600D01*
X49576200Y-54841500D02*
G75*
G02*
X49423800Y-54841500I-76200J0D01*
G01*
X49423800Y-54841500D02*
G75*
G02*
X49576200Y-54841500I76200J0D01*
G01*
%TO.C,C17*%
X75528000Y-170250000D02*
G75*
G02*
X68974800Y-170250000I-3276600J0D01*
G01*
X68974800Y-170250000D02*
G75*
G02*
X75528000Y-170250000I3276600J0D01*
G01*
D10*
%TO.C,RV1*%
X62750000Y-38000000D02*
X62750000Y-48500000D01*
X62750000Y-48500000D02*
X62750000Y-48500000D01*
X67750000Y-38000000D02*
X67750000Y-38000000D01*
X67750000Y-48500000D02*
X67750000Y-38000000D01*
X62750000Y-38000000D02*
G75*
G02*
X67750000Y-38000000I2500000J0D01*
G01*
X67750000Y-48500000D02*
G75*
G02*
X62750000Y-48500000I-2500000J0D01*
G01*
D16*
%TO.C,J10*%
X56323600Y-36370600D02*
X56323600Y-44549400D01*
X56323600Y-44549400D02*
X59676400Y-44549400D01*
X59676400Y-36370600D02*
X56323600Y-36370600D01*
X59676400Y-44549400D02*
X59676400Y-36370600D01*
X58076200Y-44841500D02*
G75*
G02*
X57923800Y-44841500I-76200J0D01*
G01*
X57923800Y-44841500D02*
G75*
G02*
X58076200Y-44841500I76200J0D01*
G01*
%TO.C,J12*%
X47823600Y-26370600D02*
X47823600Y-34549400D01*
X47823600Y-34549400D02*
X51176400Y-34549400D01*
X51176400Y-26370600D02*
X47823600Y-26370600D01*
X51176400Y-34549400D02*
X51176400Y-26370600D01*
X49576200Y-34841500D02*
G75*
G02*
X49423800Y-34841500I-76200J0D01*
G01*
X49423800Y-34841500D02*
G75*
G02*
X49576200Y-34841500I76200J0D01*
G01*
%TO.C,C21*%
X143161600Y-49250000D02*
G75*
G02*
X136608400Y-49250000I-3276600J0D01*
G01*
X136608400Y-49250000D02*
G75*
G02*
X143161600Y-49250000I3276600J0D01*
G01*
D18*
%TO.C,C11*%
X59000000Y-147750000D02*
X59000000Y-151750000D01*
X59000000Y-151750000D02*
X67000000Y-151750000D01*
X67000000Y-147750000D02*
X59000000Y-147750000D01*
X67000000Y-147750000D02*
X67000000Y-151750000D01*
D16*
%TO.C,J13*%
X56323600Y-26370600D02*
X56323600Y-34549400D01*
X56323600Y-34549400D02*
X59676400Y-34549400D01*
X59676400Y-26370600D02*
X56323600Y-26370600D01*
X59676400Y-34549400D02*
X59676400Y-26370600D01*
X58076200Y-34841500D02*
G75*
G02*
X57923800Y-34841500I-76200J0D01*
G01*
X57923800Y-34841500D02*
G75*
G02*
X58076200Y-34841500I76200J0D01*
G01*
%TO.C,J16*%
X140073600Y-106700600D02*
X140073600Y-114879400D01*
X140073600Y-114879400D02*
X143426400Y-114879400D01*
X143426400Y-106700600D02*
X140073600Y-106700600D01*
X143426400Y-114879400D02*
X143426400Y-106700600D01*
X141826200Y-106408500D02*
G75*
G02*
X141673800Y-106408500I-76200J0D01*
G01*
X141673800Y-106408500D02*
G75*
G02*
X141826200Y-106408500I76200J0D01*
G01*
%TO.C,J8*%
X56323600Y-46370600D02*
X56323600Y-54549400D01*
X56323600Y-54549400D02*
X59676400Y-54549400D01*
X59676400Y-46370600D02*
X56323600Y-46370600D01*
X59676400Y-54549400D02*
X59676400Y-46370600D01*
X58076200Y-54841500D02*
G75*
G02*
X57923800Y-54841500I-76200J0D01*
G01*
X57923800Y-54841500D02*
G75*
G02*
X58076200Y-54841500I76200J0D01*
G01*
%TO.C,J15*%
X140073600Y-135200600D02*
X140073600Y-143379400D01*
X140073600Y-143379400D02*
X143426400Y-143379400D01*
X143426400Y-135200600D02*
X140073600Y-135200600D01*
X143426400Y-143379400D02*
X143426400Y-135200600D01*
X141826200Y-134908500D02*
G75*
G02*
X141673800Y-134908500I-76200J0D01*
G01*
X141673800Y-134908500D02*
G75*
G02*
X141826200Y-134908500I76200J0D01*
G01*
%TO.C,J14*%
X140073600Y-123450600D02*
X140073600Y-131629400D01*
X140073600Y-131629400D02*
X143426400Y-131629400D01*
X143426400Y-123450600D02*
X140073600Y-123450600D01*
X143426400Y-131629400D02*
X143426400Y-123450600D01*
X141826200Y-123158500D02*
G75*
G02*
X141673800Y-123158500I-76200J0D01*
G01*
X141673800Y-123158500D02*
G75*
G02*
X141826200Y-123158500I76200J0D01*
G01*
D12*
%TO.C,C6*%
X46000000Y-143125000D02*
X58000000Y-143125000D01*
X46000000Y-169625000D02*
X46000000Y-143125000D01*
X58000000Y-143125000D02*
X58000000Y-169625000D01*
X58000000Y-169625000D02*
X46000000Y-169625000D01*
D10*
X52050000Y-142775000D02*
G75*
G02*
X51950000Y-142775000I-50000J0D01*
G01*
X51950000Y-142775000D02*
G75*
G02*
X52050000Y-142775000I50000J0D01*
G01*
%TO.C,C4*%
X141320000Y-153868000D02*
G75*
G02*
X105820000Y-153868000I-17750000J0D01*
G01*
X105820000Y-153868000D02*
G75*
G02*
X141320000Y-153868000I17750000J0D01*
G01*
D12*
%TO.C,FL1*%
X46200000Y-96750000D02*
X46200000Y-126750000D01*
X65200000Y-96750000D02*
X46200000Y-96750000D01*
X65200000Y-126750000D02*
X46200000Y-126750000D01*
X65200000Y-126750000D02*
X65200000Y-96750000D01*
%TO.C,C1*%
X46125000Y-128250000D02*
X72625000Y-128250000D01*
X46125000Y-140250000D02*
X46125000Y-128250000D01*
X72625000Y-128250000D02*
X72625000Y-140250000D01*
X72625000Y-140250000D02*
X46125000Y-140250000D01*
D10*
X45825000Y-134250000D02*
G75*
G02*
X45725000Y-134250000I-50000J0D01*
G01*
X45725000Y-134250000D02*
G75*
G02*
X45825000Y-134250000I50000J0D01*
G01*
D12*
%TO.C,U1*%
X85838000Y-49900000D02*
X124602000Y-49900000D01*
X85838000Y-107900000D02*
X85838000Y-49900000D01*
X85838000Y-107900000D02*
X124602000Y-107900000D01*
X124602000Y-49900000D02*
X124602000Y-107900000D01*
X85220000Y-29900000D02*
X125220000Y-29900000D01*
X125220000Y-49900000D01*
X85220000Y-49900000D01*
X85220000Y-29900000D01*
D16*
%TO.C,J11*%
X47823600Y-36370600D02*
X47823600Y-44549400D01*
X47823600Y-44549400D02*
X51176400Y-44549400D01*
X51176400Y-36370600D02*
X47823600Y-36370600D01*
X51176400Y-44549400D02*
X51176400Y-36370600D01*
X49576200Y-44841500D02*
G75*
G02*
X49423800Y-44841500I-76200J0D01*
G01*
X49423800Y-44841500D02*
G75*
G02*
X49576200Y-44841500I76200J0D01*
G01*
%TO.C,J17*%
X140073600Y-96620600D02*
X140073600Y-104799400D01*
X140073600Y-104799400D02*
X143426400Y-104799400D01*
X143426400Y-96620600D02*
X140073600Y-96620600D01*
X143426400Y-104799400D02*
X143426400Y-96620600D01*
X141826200Y-96328500D02*
G75*
G02*
X141673800Y-96328500I-76200J0D01*
G01*
X141673800Y-96328500D02*
G75*
G02*
X141826200Y-96328500I76200J0D01*
G01*
D18*
%TO.C,C8*%
X63250000Y-26250000D02*
X63250000Y-34250000D01*
X67250000Y-26250000D02*
X63250000Y-26250000D01*
X67250000Y-34250000D02*
X63250000Y-34250000D01*
X67250000Y-34250000D02*
X67250000Y-26250000D01*
%TO.C,K1*%
X45480000Y-61550000D02*
X45480000Y-79150000D01*
X45480000Y-79150000D02*
X49750000Y-79150000D01*
X49750000Y-79150000D02*
X49750000Y-94060000D01*
X49750000Y-94060000D02*
X66260000Y-94060000D01*
X66260000Y-74350000D02*
X66260000Y-94060000D01*
X72910000Y-61550000D02*
X45480000Y-61550000D01*
X72910000Y-74350000D02*
X66260000Y-74350000D01*
X72910000Y-74350000D02*
X72910000Y-61550000D01*
D19*
X48990000Y-87050000D02*
G75*
G02*
X48690000Y-87050000I-150000J0D01*
G01*
X48690000Y-87050000D02*
G75*
G02*
X48990000Y-87050000I150000J0D01*
G01*
D12*
%TO.C,L2*%
X68031129Y-160750000D02*
G75*
G02*
X59968871Y-160750000I-4031129J0D01*
G01*
X59968871Y-160750000D02*
G75*
G02*
X68031129Y-160750000I4031129J0D01*
G01*
%TD*%
M02*
