M48
; DRILL file {KiCad 8.0.4} date 2024-10-11T12:17:27-0400
; FORMAT={-:-/ absolute / inch / decimal}
; #@! TF.CreationDate,2024-10-11T12:17:27-04:00
; #@! TF.GenerationSoftware,Kicad,Pcbnew,8.0.4
; #@! TF.FileFunction,Plated,1,4,PTH
FMAT,2
INCH
; #@! TA.AperFunction,Plated,PTH,ViaDrill
T1C0.0118
; #@! TA.AperFunction,Plated,PTH,ComponentDrill
T2C0.0236
; #@! TA.AperFunction,Plated,PTH,ComponentDrill
T3C0.0300
; #@! TA.AperFunction,Plated,PTH,ComponentDrill
T4C0.0315
; #@! TA.AperFunction,Plated,PTH,ComponentDrill
T5C0.0335
; #@! TA.AperFunction,Plated,PTH,ComponentDrill
T6C0.0360
; #@! TA.AperFunction,Plated,PTH,ComponentDrill
T7C0.0394
; #@! TA.AperFunction,Plated,PTH,ComponentDrill
T8C0.0420
; #@! TA.AperFunction,Plated,PTH,ComponentDrill
T9C0.0429
; #@! TA.AperFunction,Plated,PTH,ComponentDrill
T10C0.0550
; #@! TA.AperFunction,Plated,PTH,ComponentDrill
T11C0.0591
; #@! TA.AperFunction,Plated,PTH,ComponentDrill
T12C0.0780
; #@! TA.AperFunction,Plated,PTH,ComponentDrill
T13C0.0787
; #@! TA.AperFunction,Plated,PTH,ComponentDrill
T14C0.0811
; #@! TA.AperFunction,Plated,PTH,ComponentDrill
T15C0.0827
; #@! TA.AperFunction,Plated,PTH,ComponentDrill
T16C0.1102
%
G90
G05
T1
X2.0571Y-3.5433
X2.2244Y-6.4075
X2.5492Y-3.3071
X2.9134Y-3.8583
X3.002Y-6.4764
X3.0807Y-3.9075
X3.0807Y-3.9764
X4.1142Y-2.5295
X4.1142Y-2.5689
X4.1142Y-2.6083
X4.1142Y-2.6476
X4.1142Y-2.687
X4.1142Y-2.7264
X4.1142Y-2.7657
X4.1142Y-2.8051
X4.1142Y-2.8445
X4.1142Y-2.8839
X4.1142Y-2.9232
X4.1142Y-2.9626
X4.1142Y-3.002
X4.1142Y-3.0413
X4.1142Y-3.0807
X4.1142Y-3.1201
X4.1142Y-3.1594
X4.1535Y-2.5295
X4.1535Y-2.5689
X4.1535Y-2.6083
X4.1535Y-2.6476
X4.1535Y-2.687
X4.1535Y-2.7264
X4.1535Y-2.7657
X4.1535Y-2.8051
X4.1535Y-2.8445
X4.1535Y-2.8839
X4.1535Y-2.9232
X4.1535Y-2.9626
X4.1535Y-3.002
X4.1535Y-3.0413
X4.1535Y-3.0807
X4.1535Y-3.1201
X4.1535Y-3.1594
X4.1634Y-3.6713
X4.1929Y-2.5295
X4.1929Y-2.5689
X4.1929Y-2.6083
X4.1929Y-2.6476
X4.1929Y-2.687
X4.1929Y-2.7264
X4.1929Y-2.7657
X4.1929Y-2.8051
X4.1929Y-2.8445
X4.1929Y-2.8839
X4.1929Y-2.9232
X4.1929Y-2.9626
X4.1929Y-3.002
X4.1929Y-3.0413
X4.1929Y-3.0807
X4.1929Y-3.1201
X4.1929Y-3.1594
X4.2028Y-3.5335
X4.2323Y-2.5295
X4.2323Y-2.5689
X4.2323Y-2.6083
X4.2323Y-2.6476
X4.2323Y-2.687
X4.2323Y-2.7264
X4.2323Y-2.7657
X4.2323Y-2.8051
X4.2323Y-2.8445
X4.2323Y-2.8839
X4.2323Y-2.9232
X4.2323Y-2.9626
X4.2323Y-3.002
X4.2323Y-3.0413
X4.2323Y-3.0807
X4.2323Y-3.1201
X4.2323Y-3.1594
X4.2323Y-3.8189
X4.2421Y-3.5335
X4.3012Y-3.4744
X5.1575Y-2.6575
X5.187Y-2.5787
X5.2854Y-2.628
X5.315Y-3.0807
T2
X4.1339Y-6.4862
X4.1339Y-6.6043
T3
X2.7855Y-6.7028
X2.9035Y-6.7028
X5.4483Y-1.939
X5.5663Y-1.939
T4
X4.1339Y-5.5093
X4.1339Y-5.7093
T5
X2.3819Y-5.7185
X2.3819Y-5.8957
X2.5689Y-1.0925
X2.5689Y-1.2894
X2.5689Y-2.0965
X2.5689Y-2.2933
X2.5787Y-5.7185
X2.5787Y-5.8957
T6
X2.7657Y-4.6063
X2.7657Y-4.8031
T7
X1.8947Y-5.2854
X2.0472Y-5.7136
X2.0472Y-6.5994
X2.4213Y-6.3287
X2.5335Y-1.8504
X2.6043Y-1.5551
X2.6181Y-6.3287
X2.7805Y-5.2854
X3.0217Y-1.3533
X3.0217Y-2.2392
X4.9854Y-2.5208
X4.9854Y-2.6208
T8
X5.5315Y-1.4059
X5.5315Y-1.5059
X5.5315Y-1.6059
X5.5315Y-1.7059
T9
X2.1087Y-3.4232
X2.5087Y-3.4232
T10
X1.9488Y-1.0992
X1.9488Y-1.2992
X1.9488Y-1.4929
X1.9488Y-1.6929
X1.9488Y-1.8866
X1.9488Y-2.0866
X2.2835Y-1.0992
X2.2835Y-1.2992
X2.2835Y-1.4929
X2.2835Y-1.6929
X2.2835Y-1.8866
X2.2835Y-2.0866
X5.5807Y-3.865
X5.5807Y-4.065
X5.5807Y-4.2618
X5.5807Y-4.4618
X5.5807Y-4.9213
X5.5807Y-5.1213
X5.5807Y-5.3839
X5.5807Y-5.5839
T11
X3.2429Y-2.6142
X3.2429Y-3.0079
X3.2429Y-3.3031
X3.2429Y-3.5984
X4.9854Y-2.7306
X4.9854Y-2.9306
X4.9854Y-3.2727
X4.9854Y-3.701
T12
X1.9587Y-2.9232
T13
X3.4083Y-5.8609
X3.4083Y-6.2546
X3.8386Y-5.3937
X3.8386Y-6.7126
X4.1366Y-4.3846
X4.1366Y-5.2113
X4.4291Y-5.3937
X4.4291Y-6.7126
X4.865Y-5.8609
X4.865Y-6.2546
T14
X2.6587Y-2.8232
T15
X1.9449Y-4.2028
X1.9449Y-4.5965
X2.4409Y-4.2028
X2.4409Y-4.5965
T16
X3.4594Y-2.0446
X3.4594Y-4.168
X4.8256Y-2.0446
X4.8256Y-4.168
M30
