%TF.GenerationSoftware,KiCad,Pcbnew,8.0.4*%
%TF.CreationDate,2024-10-11T12:17:30-04:00*%
%TF.ProjectId,SmallBooster,536d616c-6c42-46f6-9f73-7465722e6b69,rev?*%
%TF.SameCoordinates,Original*%
%TF.FileFunction,Soldermask,Bot*%
%TF.FilePolarity,Negative*%
%FSLAX46Y46*%
G04 Gerber Fmt 4.6, Leading zero omitted, Abs format (unit mm)*
G04 Created by KiCad (PCBNEW 8.0.4) date 2024-10-11 12:17:30*
%MOMM*%
%LPD*%
G01*
G04 APERTURE LIST*
G04 Aperture macros list*
%AMRoundRect*
0 Rectangle with rounded corners*
0 $1 Rounding radius*
0 $2 $3 $4 $5 $6 $7 $8 $9 X,Y pos of 4 corners*
0 Add a 4 corners polygon primitive as box body*
4,1,4,$2,$3,$4,$5,$6,$7,$8,$9,$2,$3,0*
0 Add four circle primitives for the rounded corners*
1,1,$1+$1,$2,$3*
1,1,$1+$1,$4,$5*
1,1,$1+$1,$6,$7*
1,1,$1+$1,$8,$9*
0 Add four rect primitives between the rounded corners*
20,1,$1+$1,$2,$3,$4,$5,0*
20,1,$1+$1,$4,$5,$6,$7,0*
20,1,$1+$1,$6,$7,$8,$9,0*
20,1,$1+$1,$8,$9,$2,$3,0*%
G04 Aperture macros list end*
%ADD10RoundRect,0.225000X-0.225000X-0.250000X0.225000X-0.250000X0.225000X0.250000X-0.225000X0.250000X0*%
%ADD11C,1.600000*%
%ADD12O,1.600000X1.600000*%
%ADD13C,1.000000*%
%ADD14C,1.574800*%
%ADD15R,1.500000X1.000000*%
%ADD16C,3.500000*%
%ADD17R,3.000000X3.000000*%
%ADD18C,3.000000*%
%ADD19C,3.200000*%
%ADD20C,1.484000*%
%ADD21R,1.500000X1.500000*%
%ADD22C,1.500000*%
%ADD23R,1.422400X1.422400*%
%ADD24C,1.422400*%
%ADD25R,1.905000X1.905000*%
%ADD26C,1.905000*%
%ADD27C,1.270000*%
%ADD28C,4.000000*%
%ADD29C,2.500000*%
%ADD30C,2.000000*%
%ADD31RoundRect,0.102000X-0.817500X-0.817500X0.817500X-0.817500X0.817500X0.817500X-0.817500X0.817500X0*%
%ADD32C,1.839000*%
%ADD33C,3.174000*%
%ADD34C,3.280000*%
%ADD35RoundRect,0.200000X-0.275000X0.200000X-0.275000X-0.200000X0.275000X-0.200000X0.275000X0.200000X0*%
%ADD36RoundRect,0.250000X-0.625000X0.312500X-0.625000X-0.312500X0.625000X-0.312500X0.625000X0.312500X0*%
%ADD37RoundRect,0.200000X0.200000X0.275000X-0.200000X0.275000X-0.200000X-0.275000X0.200000X-0.275000X0*%
%ADD38RoundRect,0.200000X-0.200000X-0.275000X0.200000X-0.275000X0.200000X0.275000X-0.200000X0.275000X0*%
%ADD39RoundRect,0.125000X-0.125000X-0.125000X0.125000X-0.125000X0.125000X0.125000X-0.125000X0.125000X0*%
%ADD40RoundRect,0.250000X0.450000X-0.262500X0.450000X0.262500X-0.450000X0.262500X-0.450000X-0.262500X0*%
%ADD41RoundRect,0.250000X-0.475000X0.250000X-0.475000X-0.250000X0.475000X-0.250000X0.475000X0.250000X0*%
%ADD42RoundRect,0.225000X0.225000X0.250000X-0.225000X0.250000X-0.225000X-0.250000X0.225000X-0.250000X0*%
%ADD43RoundRect,0.150000X-0.150000X0.587500X-0.150000X-0.587500X0.150000X-0.587500X0.150000X0.587500X0*%
%ADD44RoundRect,0.250000X-0.450000X0.262500X-0.450000X-0.262500X0.450000X-0.262500X0.450000X0.262500X0*%
%ADD45RoundRect,0.250000X-1.000000X-0.650000X1.000000X-0.650000X1.000000X0.650000X-1.000000X0.650000X0*%
%ADD46RoundRect,0.200000X0.275000X-0.200000X0.275000X0.200000X-0.275000X0.200000X-0.275000X-0.200000X0*%
%ADD47RoundRect,0.225000X-0.250000X0.225000X-0.250000X-0.225000X0.250000X-0.225000X0.250000X0.225000X0*%
%ADD48RoundRect,0.375000X0.625000X0.375000X-0.625000X0.375000X-0.625000X-0.375000X0.625000X-0.375000X0*%
%ADD49RoundRect,0.500000X0.500000X1.400000X-0.500000X1.400000X-0.500000X-1.400000X0.500000X-1.400000X0*%
%ADD50RoundRect,0.150000X-0.150000X0.825000X-0.150000X-0.825000X0.150000X-0.825000X0.150000X0.825000X0*%
%ADD51RoundRect,0.225000X0.250000X-0.225000X0.250000X0.225000X-0.250000X0.225000X-0.250000X-0.225000X0*%
%ADD52RoundRect,0.250000X0.650000X-1.000000X0.650000X1.000000X-0.650000X1.000000X-0.650000X-1.000000X0*%
%ADD53RoundRect,0.250001X-1.262499X-1.974999X1.262499X-1.974999X1.262499X1.974999X-1.262499X1.974999X0*%
%ADD54RoundRect,0.250000X-0.650000X1.000000X-0.650000X-1.000000X0.650000X-1.000000X0.650000X1.000000X0*%
%ADD55RoundRect,0.150000X-0.512500X-0.150000X0.512500X-0.150000X0.512500X0.150000X-0.512500X0.150000X0*%
%ADD56R,0.600000X2.000000*%
G04 APERTURE END LIST*
D10*
%TO.C,C22*%
X55025000Y-90000000D03*
X53475000Y-90000000D03*
%TD*%
D11*
%TO.C,R48*%
X105000000Y-139935000D03*
D12*
X105000000Y-145015000D03*
%TD*%
D13*
%TO.C,NE1*%
X105000000Y-164750000D03*
X105000000Y-167750000D03*
%TD*%
D14*
%TO.C,J18*%
X140500000Y-35710000D03*
X140500000Y-38250000D03*
X140500000Y-40790000D03*
X140500000Y-43330000D03*
%TD*%
D15*
%TO.C,JP2*%
X113000000Y-102200000D03*
X113000000Y-103500000D03*
X113000000Y-104800000D03*
%TD*%
%TO.C,JP1*%
X113000000Y-97150000D03*
X113000000Y-98450000D03*
X113000000Y-99750000D03*
%TD*%
D16*
%TO.C,L1*%
X105070000Y-111368000D03*
X105070000Y-132368000D03*
%TD*%
D17*
%TO.C,C5*%
X86570000Y-158868000D03*
D18*
X86570000Y-148868000D03*
%TD*%
D19*
%TO.C,H2*%
X76500000Y-27750000D03*
%TD*%
D20*
%TO.C,C10*%
X60500000Y-145250000D03*
X65500000Y-145250000D03*
%TD*%
%TO.C,C9*%
X65250000Y-58250000D03*
X65250000Y-53250000D03*
%TD*%
D21*
%TO.C,C7*%
X76750000Y-56875000D03*
D22*
X76750000Y-34375000D03*
%TD*%
D19*
%TO.C,H3*%
X64000000Y-169750000D03*
%TD*%
D23*
%TO.C,TH1*%
X70250000Y-122000000D03*
D24*
X70250000Y-117000000D03*
%TD*%
D16*
%TO.C,J3*%
X97500000Y-137000000D03*
%TD*%
D25*
%TO.C,J9*%
X49500000Y-53000000D03*
D26*
X49500000Y-47920000D03*
%TD*%
D27*
%TO.C,C17*%
X73750000Y-170250000D03*
X70752800Y-170250000D03*
%TD*%
D21*
%TO.C,RV1*%
X64350000Y-47000000D03*
D22*
X66150000Y-39500000D03*
%TD*%
D25*
%TO.C,J10*%
X58000000Y-43000000D03*
D26*
X58000000Y-37920000D03*
%TD*%
D25*
%TO.C,J12*%
X49500000Y-33000000D03*
D26*
X49500000Y-27920000D03*
%TD*%
D27*
%TO.C,C21*%
X138386400Y-49250000D03*
X141383600Y-49250000D03*
%TD*%
D16*
%TO.C,J5*%
X112500000Y-137000000D03*
%TD*%
D19*
%TO.C,H4*%
X140500000Y-169750000D03*
%TD*%
%TO.C,H1*%
X140500000Y-27750000D03*
%TD*%
D20*
%TO.C,C11*%
X65500000Y-149750000D03*
X60500000Y-149750000D03*
%TD*%
D25*
%TO.C,J13*%
X58000000Y-33000000D03*
D26*
X58000000Y-27920000D03*
%TD*%
D25*
%TO.C,J16*%
X141750000Y-108250000D03*
D26*
X141750000Y-113330000D03*
%TD*%
D25*
%TO.C,J8*%
X58000000Y-53000000D03*
D26*
X58000000Y-47920000D03*
%TD*%
D25*
%TO.C,J15*%
X141750000Y-136750000D03*
D26*
X141750000Y-141830000D03*
%TD*%
D16*
%TO.C,J2*%
X97500000Y-170500000D03*
%TD*%
D25*
%TO.C,J14*%
X141750000Y-125000000D03*
D26*
X141750000Y-130080000D03*
%TD*%
D21*
%TO.C,C6*%
X52000000Y-145125000D03*
D22*
X52000000Y-167625000D03*
%TD*%
D17*
%TO.C,C4*%
X123570000Y-158868000D03*
D18*
X123570000Y-148868000D03*
%TD*%
D16*
%TO.C,FL1*%
X49400000Y-106750000D03*
X62000000Y-106750000D03*
X49400000Y-116750000D03*
X62000000Y-116750000D03*
%TD*%
%TO.C,J4*%
X112500000Y-170500000D03*
%TD*%
D21*
%TO.C,C1*%
X48125000Y-134250000D03*
D22*
X70625000Y-134250000D03*
%TD*%
D28*
%TO.C,U1*%
X87870000Y-51932000D03*
X87870000Y-105868000D03*
X122570000Y-51932000D03*
X122570000Y-105868000D03*
D29*
X82370000Y-66400000D03*
X82370000Y-76400000D03*
X82370000Y-83900000D03*
X82370000Y-91400000D03*
X126630000Y-94006667D03*
X126630000Y-83126667D03*
X126630000Y-74438333D03*
X126630000Y-69358333D03*
D30*
X126630000Y-66568333D03*
X126630000Y-64028333D03*
%TD*%
D25*
%TO.C,J11*%
X49500000Y-43000000D03*
D26*
X49500000Y-37920000D03*
%TD*%
D25*
%TO.C,J17*%
X141750000Y-98170000D03*
D26*
X141750000Y-103250000D03*
%TD*%
D20*
%TO.C,C8*%
X65250000Y-32750000D03*
X65250000Y-27750000D03*
%TD*%
D31*
%TO.C,K1*%
X53560000Y-86950000D03*
D32*
X63720000Y-86950000D03*
D33*
X49750000Y-74250000D03*
D34*
X67530000Y-71710000D03*
%TD*%
D22*
%TO.C,L2*%
X66500000Y-160750000D03*
X61500000Y-160750000D03*
%TD*%
D35*
%TO.C,R8*%
X124000000Y-118962500D03*
X124000000Y-120612500D03*
%TD*%
D36*
%TO.C,R5*%
X126000000Y-138537500D03*
X126000000Y-141462500D03*
%TD*%
D37*
%TO.C,R11*%
X130575000Y-63000000D03*
X128925000Y-63000000D03*
%TD*%
D38*
%TO.C,R18*%
X62925000Y-80250000D03*
X64575000Y-80250000D03*
%TD*%
D39*
%TO.C,D4*%
X57650000Y-87000000D03*
X59850000Y-87000000D03*
%TD*%
D37*
%TO.C,R17*%
X74075000Y-95750000D03*
X72425000Y-95750000D03*
%TD*%
D40*
%TO.C,R23*%
X136500000Y-121912500D03*
X136500000Y-120087500D03*
%TD*%
D36*
%TO.C,R9*%
X130000000Y-128537500D03*
X130000000Y-131462500D03*
%TD*%
D35*
%TO.C,R26*%
X138000000Y-62850000D03*
X138000000Y-64500000D03*
%TD*%
D41*
%TO.C,R15*%
X71500000Y-85250000D03*
X71500000Y-87150000D03*
%TD*%
D42*
%TO.C,C3*%
X74025000Y-93750000D03*
X72475000Y-93750000D03*
%TD*%
D43*
%TO.C,Q1*%
X62800000Y-82375000D03*
X64700000Y-82375000D03*
X63750000Y-84250000D03*
%TD*%
D37*
%TO.C,R27*%
X130575000Y-65000000D03*
X128925000Y-65000000D03*
%TD*%
D36*
%TO.C,R44*%
X130000000Y-123537500D03*
X130000000Y-126462500D03*
%TD*%
D42*
%TO.C,C12*%
X132525000Y-70750000D03*
X130975000Y-70750000D03*
%TD*%
D37*
%TO.C,R30*%
X64575000Y-78500000D03*
X62925000Y-78500000D03*
%TD*%
D40*
%TO.C,R28*%
X136500000Y-114325000D03*
X136500000Y-112500000D03*
%TD*%
D10*
%TO.C,C15*%
X106500000Y-93740000D03*
X108050000Y-93740000D03*
%TD*%
D44*
%TO.C,R12*%
X136500000Y-123837500D03*
X136500000Y-125662500D03*
%TD*%
D41*
%TO.C,R43*%
X71500000Y-89550000D03*
X71500000Y-91450000D03*
%TD*%
D45*
%TO.C,D5*%
X70500000Y-164500000D03*
X74500000Y-164500000D03*
%TD*%
D35*
%TO.C,R39*%
X128500000Y-115137500D03*
X128500000Y-116787500D03*
%TD*%
D40*
%TO.C,R41*%
X136500000Y-110412500D03*
X136500000Y-108587500D03*
%TD*%
D46*
%TO.C,R35*%
X126250000Y-120612500D03*
X126250000Y-118962500D03*
%TD*%
D37*
%TO.C,R31*%
X59075000Y-162750000D03*
X57425000Y-162750000D03*
%TD*%
D47*
%TO.C,C20*%
X129250000Y-32725000D03*
X129250000Y-34275000D03*
%TD*%
D36*
%TO.C,R47*%
X126000000Y-128537500D03*
X126000000Y-131462500D03*
%TD*%
D41*
%TO.C,R16*%
X75000000Y-85300000D03*
X75000000Y-87200000D03*
%TD*%
D42*
%TO.C,C13*%
X132525000Y-68500000D03*
X130975000Y-68500000D03*
%TD*%
D48*
%TO.C,U5*%
X122400000Y-32450000D03*
X122400000Y-34750000D03*
D49*
X116100000Y-34750000D03*
D48*
X122400000Y-37050000D03*
%TD*%
D36*
%TO.C,R46*%
X126000000Y-133537500D03*
X126000000Y-136462500D03*
%TD*%
D50*
%TO.C,U2*%
X105900000Y-91500000D03*
X107170000Y-91500000D03*
X108440000Y-91500000D03*
X109710000Y-91500000D03*
X110980000Y-91500000D03*
X112250000Y-91500000D03*
X113520000Y-91500000D03*
X113520000Y-86550000D03*
X112250000Y-86550000D03*
X110980000Y-86550000D03*
X109710000Y-86550000D03*
X108440000Y-86550000D03*
X107170000Y-86550000D03*
X105900000Y-86550000D03*
%TD*%
D45*
%TO.C,D1*%
X71500000Y-82250000D03*
X75500000Y-82250000D03*
%TD*%
D35*
%TO.C,R32*%
X66500000Y-153425000D03*
X66500000Y-155075000D03*
%TD*%
D46*
%TO.C,R38*%
X130750000Y-115137500D03*
X130750000Y-116787500D03*
%TD*%
%TO.C,R37*%
X130750000Y-120612500D03*
X130750000Y-118962500D03*
%TD*%
D47*
%TO.C,C16*%
X66500000Y-156975000D03*
X66500000Y-158525000D03*
%TD*%
D35*
%TO.C,R4*%
X111500000Y-82175000D03*
X111500000Y-83825000D03*
%TD*%
D36*
%TO.C,R6*%
X126000000Y-123537500D03*
X126000000Y-126462500D03*
%TD*%
D44*
%TO.C,R19*%
X78750000Y-75837500D03*
X78750000Y-77662500D03*
%TD*%
D35*
%TO.C,R7*%
X124000000Y-115137500D03*
X124000000Y-116787500D03*
%TD*%
D51*
%TO.C,C19*%
X126250000Y-34275000D03*
X126250000Y-32725000D03*
%TD*%
D40*
%TO.C,R22*%
X136500000Y-129412500D03*
X136500000Y-127587500D03*
%TD*%
D45*
%TO.C,D2*%
X71500000Y-77700000D03*
X75500000Y-77700000D03*
%TD*%
D52*
%TO.C,D3*%
X105000000Y-120750000D03*
X105000000Y-116750000D03*
%TD*%
D46*
%TO.C,R36*%
X126250000Y-116787500D03*
X126250000Y-115137500D03*
%TD*%
D40*
%TO.C,R20*%
X78750000Y-81325000D03*
X78750000Y-79500000D03*
%TD*%
D53*
%TO.C,R2*%
X96737500Y-72240000D03*
X101762500Y-72240000D03*
%TD*%
D41*
%TO.C,R42*%
X75000000Y-89550000D03*
X75000000Y-91450000D03*
%TD*%
D36*
%TO.C,R10*%
X130000000Y-133537500D03*
X130000000Y-136462500D03*
%TD*%
%TO.C,R45*%
X130000000Y-138537500D03*
X130000000Y-141462500D03*
%TD*%
D37*
%TO.C,R34*%
X61075000Y-153250000D03*
X59425000Y-153250000D03*
%TD*%
D44*
%TO.C,R24*%
X136500000Y-116337500D03*
X136500000Y-118162500D03*
%TD*%
D10*
%TO.C,C14*%
X106500000Y-95500000D03*
X108050000Y-95500000D03*
%TD*%
D53*
%TO.C,R3*%
X96737500Y-66230000D03*
X101762500Y-66230000D03*
%TD*%
D54*
%TO.C,D6*%
X58250000Y-156000000D03*
X58250000Y-160000000D03*
%TD*%
D35*
%TO.C,R14*%
X113250000Y-82175000D03*
X113250000Y-83825000D03*
%TD*%
D55*
%TO.C,U3*%
X132862500Y-64950000D03*
X132862500Y-64000000D03*
X132862500Y-63050000D03*
X135137500Y-63050000D03*
X135137500Y-64000000D03*
X135137500Y-64950000D03*
%TD*%
D35*
%TO.C,R13*%
X115750000Y-88175000D03*
X115750000Y-89825000D03*
%TD*%
D47*
%TO.C,C2*%
X109750000Y-82225000D03*
X109750000Y-83775000D03*
%TD*%
D56*
%TO.C,U4*%
X69595000Y-155800000D03*
X70865000Y-155800000D03*
X73405000Y-155800000D03*
X73405000Y-160700000D03*
X72135000Y-160700000D03*
X70865000Y-160700000D03*
X69595000Y-160700000D03*
%TD*%
D35*
%TO.C,R25*%
X138000000Y-66675000D03*
X138000000Y-68325000D03*
%TD*%
%TO.C,R40*%
X128500000Y-118962500D03*
X128500000Y-120612500D03*
%TD*%
D37*
%TO.C,R29*%
X101325000Y-82750000D03*
X99675000Y-82750000D03*
%TD*%
%TO.C,R33*%
X64575000Y-153250000D03*
X62925000Y-153250000D03*
%TD*%
D53*
%TO.C,R1*%
X96737500Y-78250000D03*
X101762500Y-78250000D03*
%TD*%
D42*
%TO.C,C18*%
X63525000Y-155250000D03*
X61975000Y-155250000D03*
%TD*%
D44*
%TO.C,R21*%
X78750000Y-83087500D03*
X78750000Y-84912500D03*
%TD*%
M02*
